<svg width="179" height="112" viewBox="0 0 179 112" fill="none" xmlns="http://www.w3.org/2000/svg">
<g filter="url(#filter0_d_1003_1662)">
<path d="M121.875 41.7089L110.423 41.177C109.422 39.6701 107.758 38.8187 105.764 38.8187C105.714 38.8187 105.662 38.8187 105.612 38.8187C105.514 38.8187 105.42 38.8208 105.335 38.8249C104.338 37.4788 103.049 36.4893 102.064 35.8606L102.041 35.8461C101.504 35.5101 101.006 35.2524 100.511 35.0545C99.7657 34.7598 98.9704 34.6093 98.1481 34.6093C97.6838 34.6093 97.2195 34.6587 96.7678 34.7556C96.0641 34.902 95.4687 35.1411 94.917 35.3761C94.4777 35.5534 94.0509 35.7389 93.6387 35.9203C93.57 35.8709 93.4992 35.8235 93.4284 35.7781C92.8913 35.4256 92.3937 35.203 91.9502 35.003L91.9336 34.9948C91.8357 34.935 91.5922 34.733 91.5026 34.6608L91.3756 34.5557C91.0738 34.3062 90.699 33.995 90.3805 33.7558L90.3701 33.7496C89.91 33.4013 89.3375 32.9663 88.5838 32.6488C87.5429 32.2036 86.377 31.9768 85.1175 31.9768C84.3971 31.9768 83.6497 32.051 82.8961 32.1974L82.8378 32.2097L82.767 32.2262C81.7198 32.4798 80.9557 32.9952 80.3957 33.3724L80.3728 33.3868C80.2562 33.4652 80.1396 33.5456 80.0251 33.6239C79.8149 33.7682 79.5276 33.9682 79.3194 34.0836C79.3173 34.0836 79.3152 34.0836 79.3131 34.0815C78.9821 33.9743 78.6053 33.8548 78.1806 33.762C77.5956 33.6363 76.8149 33.494 75.9425 33.494C75.2097 33.494 74.5123 33.5971 73.8731 33.7991C71.8787 34.4217 70.2944 35.8935 69.0306 38.3013C68.8703 38.5961 68.7308 38.9074 68.6122 39.2351L58.4692 38.7631C58.3797 38.759 58.2901 38.7569 58.2006 38.7569C55.0923 38.7569 52.5399 41.2183 52.39 44.3599L52.3838 44.4939L53.3914 63.5602L60.5094 63.9085L70.5463 64.3992C71.0084 65.5 71.7392 66.5369 72.9342 67.3017L72.9488 67.312C73.4526 67.6295 73.998 67.8748 74.5997 68.052C74.9078 68.4169 75.2513 68.8024 75.6532 69.2291C75.9925 69.5878 76.4214 70.029 76.9127 70.4866C77.0022 70.6742 77.1022 70.8597 77.2125 71.0432L77.2354 71.0824C77.6705 71.7771 78.2014 72.3398 78.8176 72.7542L78.8572 72.781L78.8988 72.8057C79.284 73.0469 79.7066 73.2283 80.1521 73.3438C80.9828 73.888 81.8301 74.0756 82.1653 74.1498C82.4297 74.2096 82.6962 74.259 83.0314 74.3106L83.0834 74.3188C83.4561 74.3704 83.8308 74.393 84.2639 74.393C84.5158 74.393 84.7573 74.3848 84.9801 74.3766H84.9946C85.6775 74.3456 86.3354 74.2858 86.9787 74.2281L87.6532 74.1663C89.0106 74.0405 90.4138 73.9086 91.7379 73.9086C92.0877 73.9086 92.4249 73.9169 92.7414 73.9354L92.8871 73.9436C93.3014 73.9684 93.7719 73.9952 94.257 73.9952H94.3174C95.0752 73.9952 97.3819 73.9952 98.935 72.0863C99.3597 71.5709 99.6907 70.969 99.9468 70.2392C100.041 69.9712 100.115 69.7136 100.176 69.4683C100.403 69.4415 100.621 69.4085 100.84 69.3673C101.512 69.2374 102.127 69.0086 102.672 68.689C102.978 68.7777 103.295 68.8478 103.623 68.8952C104.04 68.9591 104.465 68.9921 104.881 68.9921C105.743 68.9921 106.58 68.856 107.369 68.588C108.158 68.3242 108.909 67.9469 109.669 67.4336L109.701 67.4109C110.115 67.1223 110.479 66.774 110.798 66.3637L121.828 66.9018L124.574 67.0358L127.395 47.9736L127.401 47.8396C127.555 44.6052 125.079 41.8511 121.882 41.7027L121.875 41.7089Z" fill="white"/>
</g>
<path d="M120.678 44.7126L108.744 44.1581C108.511 43.919 108.19 43.6757 107.795 43.5623C107.755 43.4655 107.714 43.3747 107.672 43.2861C107.195 42.3502 106.335 41.8926 105.115 41.9235C104.98 41.9235 104.849 41.9297 104.722 41.9359C104.528 41.9441 104.343 41.9544 104.154 41.94C103.829 41.8988 103.475 41.7421 103.071 41.4638C102.342 40.1775 101.116 39.2209 100.213 38.6437C99.8295 38.4046 99.488 38.2253 99.1674 38.0975C98.5262 37.8439 97.7871 37.7882 97.0918 37.9387C96.6379 38.0315 96.2091 38.2067 95.776 38.3922C95.3721 38.5551 94.962 38.7344 94.5664 38.9076C94.1188 39.1034 93.6566 39.3075 93.2028 39.4848C93.08 39.5322 92.953 39.559 92.7906 39.5879C92.7656 39.592 92.7406 39.5961 92.7156 39.6002C92.6053 39.2148 92.293 38.8355 91.8516 38.553C91.506 38.3263 91.1563 38.1675 90.7857 38.0026L90.7295 37.9779C90.4047 37.8274 90.1028 37.5903 89.7448 37.2956L89.6261 37.1966C89.3513 36.9698 89.0099 36.6874 88.7496 36.4916L88.7392 36.4833C88.377 36.2092 88.0022 35.9247 87.5775 35.7474C86.2076 35.1578 84.6795 35.2733 83.6386 35.4753H83.6344C83.0889 35.6072 82.6413 35.9103 82.2083 36.2009L82.1812 36.2195C82.0771 36.2896 81.973 36.3617 81.871 36.4318C81.2485 36.8606 80.6052 37.3059 79.8599 37.4089C79.6767 37.4337 79.4914 37.4151 79.2437 37.345C79.1167 37.3079 78.9834 37.2646 78.8439 37.2213C78.5671 37.1327 78.2818 37.0399 78.0049 36.9802C77.1555 36.7987 76.1562 36.6524 75.2027 36.9534C73.9786 37.3347 72.9543 38.3407 72.0715 40.029C71.8238 40.4764 71.6552 41.0103 71.5552 41.6617C71.4678 42.2203 71.4241 42.8367 71.4199 43.6015C71.4178 44.1622 71.4366 44.7477 71.4803 45.4424C71.4761 45.4486 71.472 45.4547 71.4678 45.4589L71.2638 42.4203L59.3928 41.8678C57.7627 41.7916 56.3761 43.0965 56.2949 44.7807L57.136 60.7115L59.0493 60.8042L60.1548 47.242C60.1693 46.9802 60.2568 46.7741 60.3525 46.7782C60.4483 46.7823 60.517 46.9967 60.5045 47.2585L60.313 60.8661L61.6267 60.93L62.7321 47.3657C62.7467 47.1039 62.8342 46.8978 62.9299 46.9019C63.0257 46.906 63.0944 47.1204 63.0819 47.3822L62.8904 60.9918L64.202 61.0557L65.3075 47.4894C65.322 47.2276 65.4095 47.0214 65.5052 47.0256C65.601 47.0297 65.6697 47.2441 65.6572 47.5059L65.4657 61.1176L66.7773 61.1815L67.8828 47.6131C67.8973 47.3513 67.9848 47.1451 68.0805 47.1492C68.1763 47.1534 68.245 47.3678 68.2325 47.6296L68.041 61.2433L69.3526 61.3072L70.4581 47.7368C70.4726 47.475 70.5601 47.2688 70.6558 47.2729C70.7516 47.2771 70.8203 47.4914 70.8078 47.7533L70.6163 61.3691L71.9279 61.433L72.3609 56.1186C72.4192 56.1619 72.4817 56.2052 72.5441 56.2443C72.7148 57.677 72.9022 59.1963 73.1021 60.7568C73.2853 62.206 73.6455 63.7995 74.9362 64.6241C75.4005 64.9168 75.9564 65.1065 76.633 65.2034C76.6475 65.2446 76.6704 65.2817 76.6954 65.3167C77.0618 65.795 77.4949 66.2959 78.057 66.8937C78.4484 67.306 78.9709 67.8441 79.556 68.3532C79.5643 68.3615 79.5747 68.3677 79.583 68.3739C79.6496 68.6089 79.76 68.8542 79.9078 69.0995C80.1306 69.4561 80.3887 69.7365 80.676 69.9302C80.9404 70.0952 81.2589 70.1859 81.6004 70.192C81.9647 70.6146 82.5393 70.7857 83.0015 70.8868C83.1972 70.93 83.4012 70.9692 83.6635 71.0104C83.9238 71.0455 84.1799 71.0579 84.4401 71.0579C84.6316 71.0579 84.8252 71.0517 85.0272 71.0434C85.6268 71.0166 86.2326 70.963 86.8197 70.9094L86.9883 70.895C87.1486 70.8806 87.3069 70.8661 87.4672 70.8496C89.2118 70.6868 91.0168 70.5198 92.7885 70.6208L92.928 70.6291C93.3131 70.6517 93.7108 70.6744 94.1084 70.6744C94.9662 70.6785 95.928 70.5775 96.5526 69.8024C96.767 69.5448 96.9419 69.2211 97.0855 68.8129C97.2542 68.3285 97.3416 67.8544 97.3978 67.4957C97.4624 67.0855 97.479 66.6958 97.4478 66.3392C97.4624 66.3392 97.4769 66.3392 97.4915 66.3392C98.368 66.3804 99.1591 66.4011 99.9523 66.2506C100.748 66.098 101.322 65.7146 101.707 65.0817C101.726 65.0529 101.743 65.024 101.761 64.9931C101.882 65.1003 102.02 65.2034 102.17 65.2961C102.565 65.5394 103.029 65.7002 103.55 65.7744C104.366 65.9022 105.184 65.8383 105.915 65.5888C106.446 65.4116 106.962 65.1498 107.495 64.7911C107.803 64.5767 108.255 64.1582 108.603 63.0244C108.961 61.7896 109.138 60.4723 109.279 59.4025H109.319L109.265 63.2532L110.574 63.3171L110.924 59.017C111.365 58.7366 111.721 58.3264 111.919 57.8358L111.842 63.379L113.152 63.4429L114.259 49.8374C114.274 49.5756 114.361 49.3694 114.457 49.3735C114.553 49.3777 114.621 49.5921 114.609 49.8539L114.417 63.5047L115.727 63.5686L116.834 49.9611C116.849 49.6993 116.936 49.4931 117.032 49.4972C117.128 49.5014 117.197 49.7157 117.184 49.9775L116.993 63.6305L118.302 63.6944L119.41 50.0847C119.424 49.8229 119.512 49.6168 119.607 49.6209C119.703 49.625 119.772 49.8394 119.759 50.1012L119.568 63.7562L121.117 63.8325L123.476 47.8934C123.557 46.2092 122.299 44.7827 120.669 44.7064L120.678 44.7126ZM109.464 45.2486C109.387 45.0816 109.306 44.925 109.217 44.7765C109.304 44.9126 109.387 45.0693 109.464 45.2486ZM103.256 46.4319C103.294 46.2216 103.342 46.0113 103.387 45.8093C103.467 45.4609 103.548 45.1022 103.587 44.7271C103.589 44.7003 103.594 44.6714 103.596 44.6446C103.614 44.4488 103.627 44.2302 103.631 43.9767C103.631 43.9767 103.631 43.9746 103.631 43.9726C103.631 43.8509 103.631 43.6922 103.623 43.5273C103.619 43.4283 103.614 43.3253 103.606 43.2263C103.604 43.2016 103.602 43.1645 103.6 43.1274C103.598 43.082 103.594 43.0346 103.591 43.0057C103.583 42.9109 103.569 42.814 103.552 42.7192C103.6 42.7398 103.646 42.7584 103.691 42.7749C103.71 42.7811 103.729 42.7893 103.748 42.7955C103.756 42.7975 103.762 42.7996 103.771 42.8017C103.783 42.8058 103.793 42.8099 103.806 42.812C103.814 42.814 103.825 42.8161 103.833 42.8202C103.843 42.8223 103.854 42.8264 103.864 42.8285C103.875 42.8305 103.885 42.8326 103.893 42.8346C103.904 42.8367 103.912 42.8388 103.922 42.8408C103.933 42.8429 103.943 42.845 103.956 42.847C103.964 42.847 103.972 42.8511 103.983 42.8532C103.995 42.8553 104.006 42.8573 104.018 42.8594C104.027 42.8594 104.035 42.8614 104.043 42.8635C104.056 42.8635 104.068 42.8676 104.079 42.8697C104.087 42.8697 104.093 42.8718 104.102 42.8738C104.114 42.8738 104.127 42.8779 104.139 42.8779C104.145 42.8779 104.151 42.8779 104.16 42.88C104.172 42.88 104.187 42.8821 104.199 42.8841C104.206 42.8841 104.212 42.8841 104.216 42.8841C104.231 42.8841 104.243 42.8862 104.258 42.8882C104.264 42.8882 104.268 42.8882 104.274 42.8882C104.289 42.8882 104.303 42.8882 104.318 42.8903C104.322 42.8903 104.326 42.8903 104.333 42.8903C104.347 42.8903 104.362 42.8903 104.376 42.8924C104.38 42.8924 104.385 42.8924 104.389 42.8924C104.403 42.8924 104.418 42.8924 104.43 42.8924C104.435 42.8924 104.439 42.8924 104.443 42.8924C104.458 42.8924 104.47 42.8924 104.485 42.8924C104.489 42.8924 104.493 42.8924 104.497 42.8924C104.51 42.8924 104.524 42.8924 104.537 42.8924C104.541 42.8924 104.545 42.8924 104.551 42.8924C104.564 42.8924 104.574 42.8924 104.585 42.8924C104.589 42.8924 104.593 42.8924 104.597 42.8924C104.603 42.8924 104.607 42.8924 104.614 42.8924C104.664 42.8924 104.718 42.8924 104.776 42.8924C104.843 42.8924 104.913 42.8924 104.984 42.8924C105.199 42.8924 105.424 42.8965 105.586 42.915C106.19 42.9728 106.689 43.1995 107.154 44.1169C107.36 44.5065 107.545 44.9043 107.741 45.3249C107.834 45.5248 107.932 45.733 108.03 45.9371C108.055 45.9866 108.103 46.0196 108.159 46.0258C108.167 46.0258 108.176 46.0258 108.184 46.0258C108.226 46.0237 108.265 46.0051 108.292 45.9742C108.319 45.9433 108.334 45.9021 108.332 45.8608C108.311 45.5393 108.263 45.2094 108.182 44.8198C108.155 44.692 108.126 44.5724 108.099 44.4591C108.7 44.9744 108.971 45.7846 109.14 46.4422C109.161 46.5267 109.179 46.6133 109.198 46.704C109.036 46.6978 108.871 46.6916 108.705 46.6854C108.061 46.6607 107.397 46.6359 106.833 46.6112L105.659 46.5617C105.17 46.5391 104.666 46.6545 104.245 46.8874C103.97 47.0359 103.727 47.2338 103.521 47.475C103.431 47.2977 103.321 47.1286 103.196 46.972C103.217 46.805 103.242 46.6091 103.271 46.4277L103.256 46.4319ZM72.4005 42.4017C72.413 42.2925 72.4275 42.1812 72.4442 42.0699C72.4442 42.0699 72.4442 42.0678 72.4442 42.0657C72.4484 42.0431 72.4504 42.0204 72.4546 41.9977C72.4567 41.9833 72.4588 41.9668 72.4609 41.9524C72.4609 41.94 72.465 41.9276 72.4671 41.9152C72.4713 41.8905 72.4754 41.8637 72.4796 41.839C72.4796 41.8328 72.4796 41.8287 72.4817 41.8225C72.5504 41.4494 72.6503 41.0762 72.8169 40.7279C72.8335 40.6928 72.8522 40.6578 72.8689 40.6227C73.1625 40.0909 73.6059 39.3611 74.2201 38.788C74.2659 38.7447 74.3117 38.7035 74.3595 38.6644C74.4074 38.6252 74.4553 38.584 74.5053 38.5448C74.5303 38.5262 74.5552 38.5056 74.5802 38.4871C75.1632 38.0521 75.8523 37.8583 76.5705 37.9264C77.1743 37.9758 77.7343 38.0892 78.2881 38.2747C78.3485 38.2954 78.413 38.316 78.4775 38.3366C78.7253 38.419 79.0043 38.5139 79.2791 38.5613C79.2999 38.5654 79.3207 38.5695 79.3415 38.5716C79.3603 38.5798 79.379 38.5881 79.3957 38.5963L79.4727 38.6231C79.6871 38.7015 79.9182 38.7839 80.1222 38.8932C80.1451 38.9055 80.168 38.9179 80.1889 38.9303C80.2534 38.9674 80.3158 39.0086 80.3721 39.054C80.4283 39.0993 80.4803 39.1467 80.524 39.2003C80.6365 39.3488 80.6906 39.524 80.7489 39.7116C80.7718 39.7858 80.7968 39.8641 80.8238 39.9404C80.93 40.2434 81.0653 40.4887 81.2298 40.6743C81.3277 40.7856 81.4359 40.8742 81.5546 40.9422C81.7086 41.0309 81.8814 41.0804 82.0751 41.0907C82.0917 41.0907 82.1063 41.0907 82.1229 41.0907H82.1271C82.1812 41.0907 82.2374 41.0907 82.2937 41.0845C82.3124 41.0845 82.3311 41.0804 82.3519 41.0783C82.4019 41.0742 82.4435 41.0453 82.4664 41.0041C82.4748 40.9897 82.4789 40.9752 82.4831 40.9587C82.4956 40.8928 82.4644 40.8289 82.4082 40.8C82.1562 40.6681 81.9397 40.5361 81.8523 40.2578C81.7836 40.0517 81.7628 39.8373 81.7399 39.6085C81.7149 39.3364 81.6878 39.056 81.5712 38.7942C81.5213 38.6747 81.4463 38.5489 81.3526 38.4314C81.2964 38.3613 81.234 38.2933 81.1694 38.2294C81.7253 37.9717 82.2333 37.6192 82.7246 37.277L82.8558 37.1842C82.8932 37.1595 82.9328 37.1327 82.9723 37.1059C83.2326 36.9307 83.5032 36.7493 83.7864 36.6483C83.7926 36.6483 83.7989 36.6441 83.803 36.6421C83.8134 36.638 83.8238 36.6359 83.8343 36.6318C83.8447 36.6276 83.8551 36.6256 83.8655 36.6215C83.8738 36.6194 83.8842 36.6173 83.8926 36.6132C83.905 36.6091 83.9155 36.607 83.9279 36.6029C84.0341 36.5823 84.1403 36.5637 84.2486 36.5473C84.8731 36.4524 85.4914 36.4359 86.0556 36.4998C86.0931 36.504 86.1327 36.5081 86.1701 36.5143C86.7323 36.5905 87.1986 36.7513 87.59 37.0008C87.9918 37.2585 88.377 37.5512 88.7496 37.8336C89.0307 38.0459 89.3201 38.2665 89.6198 38.4747C89.8842 38.652 90.1174 38.7777 90.3381 38.8643L90.3464 38.8684C90.6879 39.0024 91.0418 39.1405 91.3416 39.3178C91.3895 39.3467 91.4353 39.3776 91.4811 39.4085C91.6788 39.5446 91.8537 39.7033 91.8995 39.9383C91.9099 40.0187 91.9162 40.1012 91.9224 40.2084C91.9308 40.4331 91.9287 40.6619 91.9245 40.8845C91.9203 41.1752 91.9162 41.4741 91.9391 41.7751C91.962 42.0678 92.0182 42.3255 92.1056 42.5419C92.268 42.9439 92.4949 43.2985 92.7802 43.5974H92.7823C92.8281 43.6448 92.8947 43.6551 92.9488 43.6283C92.9571 43.6242 92.9634 43.6201 92.9717 43.6159C93.03 43.5747 93.0487 43.4984 93.0175 43.4325V43.4283C92.9592 43.3273 92.9155 43.2387 92.8801 43.1562C92.7968 42.9728 92.7323 42.7955 92.6823 42.6223C92.6532 42.5192 92.6303 42.4182 92.6115 42.3193C92.6074 42.2987 92.6053 42.2781 92.6011 42.2574C92.5595 41.9503 92.5949 41.6452 92.6344 41.3257C92.6407 41.2741 92.6469 41.2205 92.6532 41.169L92.6698 41.0433C92.6886 40.8969 92.7073 40.7464 92.724 40.5939C92.7302 40.5423 92.7344 40.4929 92.7385 40.4413C92.7677 40.4393 92.7989 40.4351 92.8281 40.4331C92.8551 40.431 92.8822 40.4269 92.9092 40.4248C93.055 40.4063 93.1903 40.3836 93.3131 40.3547C93.3881 40.3362 93.4943 40.3053 93.5588 40.2826C93.6504 40.2517 93.742 40.2207 93.8315 40.1898C94.1001 40.095 94.3603 39.996 94.6331 39.893L94.6684 39.8806C94.7725 39.8414 94.9453 39.7734 95.141 39.6971C95.5054 39.5549 95.9571 39.3797 96.1487 39.3096C96.1882 39.2952 96.2257 39.2787 96.2653 39.2642C96.4214 39.2024 96.5838 39.1385 96.7358 39.0869C96.7566 39.0787 96.7795 39.0725 96.8003 39.0643C97.5227 38.8169 98.1869 38.8128 98.7739 39.0498C98.8406 39.0766 98.9072 39.1055 98.9759 39.1385C99.1799 39.2354 99.3964 39.357 99.6421 39.5116C100.556 40.1012 101.335 40.8041 101.884 41.5174C102.099 41.7977 102.278 42.0781 102.417 42.3564C102.54 42.6141 102.623 42.8656 102.661 43.1026C102.667 43.1501 102.675 43.2036 102.682 43.2572C102.688 43.3067 102.696 43.3562 102.702 43.4015C102.702 43.416 102.707 43.4325 102.709 43.4469C102.736 43.6737 102.761 43.9128 102.771 44.1292C102.794 44.4776 102.792 44.8446 102.763 45.2177C102.755 45.3352 102.742 45.4589 102.732 45.5764C102.709 45.8382 102.684 46.1082 102.68 46.3762C102.68 46.4092 102.68 46.4442 102.68 46.4793C102.272 46.1598 101.795 45.9557 101.289 45.8856C101.141 45.8629 100.952 45.8547 100.785 45.8485C100.768 45.8485 100.75 45.8485 100.733 45.8464C100.683 45.8444 100.635 45.8423 100.589 45.8402L95.4783 45.6176C95.4346 45.6155 95.3909 45.6155 95.3471 45.6155C94.8975 45.6155 94.4415 45.7227 94.0439 45.9227C94.0168 45.9351 93.9918 45.9495 93.9648 45.9639C93.7295 46.0917 93.5151 46.2505 93.3256 46.4401C93.2715 46.0464 93.209 45.6588 93.1383 45.2857C93.1258 45.2239 93.0737 45.1764 93.0113 45.1661C92.9321 45.1538 92.8572 45.2032 92.8364 45.2775C92.8364 45.2816 92.8343 45.2878 92.8322 45.2939C92.8135 45.4197 92.7947 45.5475 92.7781 45.6774C92.7489 45.8938 92.724 46.1165 92.699 46.3412C92.3784 45.9186 91.9412 45.599 91.4519 45.4156C91.4269 45.4053 91.3999 45.397 91.3749 45.3888C91.3228 45.3702 91.2708 45.3537 91.2167 45.3393C91.1896 45.3311 91.1625 45.3249 91.1375 45.3187C91.0834 45.3063 91.0293 45.294 90.9752 45.2836C90.7857 45.2486 90.59 45.2342 90.3943 45.2404C89.9613 45.2486 89.5282 45.2589 89.0952 45.2692C87.9751 45.294 86.8197 45.3187 85.6809 45.3372C85.1896 45.3434 84.6962 45.4898 84.2881 45.7475C84.0674 45.8835 83.8696 46.0546 83.6989 46.2525C83.676 46.1515 83.6469 46.0526 83.6157 45.9577C83.6302 45.8361 83.649 45.7165 83.6698 45.5949C83.8114 44.7518 84.0695 43.9293 84.3048 43.214C84.3068 43.2057 84.3089 43.1995 84.311 43.1913C84.3131 43.183 84.311 43.1768 84.311 43.1686C84.311 43.1233 84.286 43.0779 84.2444 43.0532C84.2132 43.0346 84.1757 43.0305 84.1403 43.0387C84.1049 43.047 84.0758 43.0697 84.057 43.1006C84.0133 43.1727 83.9758 43.2428 83.9363 43.315C83.8863 43.4057 83.8384 43.4984 83.7885 43.5953C83.6802 43.8077 83.574 44.0385 83.4595 44.3045C83.4304 44.3745 83.4012 44.4426 83.3742 44.5106C83.3055 44.6796 83.2451 44.8446 83.1909 45.0053C83.1805 45.0383 83.168 45.0693 83.1576 45.1022C83.1222 45.0548 83.0848 45.0095 83.0452 44.9641C82.9869 44.2158 82.9099 43.5788 82.8037 42.9893C82.7787 42.8532 82.7538 42.7213 82.7246 42.5893C82.7121 42.5378 82.6684 42.4986 82.6163 42.4904C82.608 42.4904 82.5997 42.4904 82.5914 42.4904C82.5331 42.4945 82.4831 42.5399 82.4748 42.6017C82.4123 43.1439 82.379 43.7273 82.3707 44.3787C82.0688 44.1849 81.7336 44.0447 81.3901 43.9664C81.3672 43.9623 81.3443 43.9561 81.3214 43.952C81.1111 43.9107 80.8988 43.888 80.6864 43.8901C80.5948 43.8901 80.4657 43.8984 80.3617 43.9025H80.3221C80.0431 43.919 79.7641 43.9355 79.481 43.952C78.6378 44.0014 77.7863 44.055 76.9577 44.1066C76.7475 44.1189 76.5351 44.1334 76.3207 44.1457C75.4359 44.2014 74.5344 44.255 73.6538 44.3045C73.3686 44.323 73.1 44.3745 72.8564 44.457C72.6711 44.5188 72.4921 44.5992 72.3214 44.6961C72.2964 43.8262 72.3193 43.0923 72.3942 42.3976L72.4005 42.4017ZM93.0342 55.1044C93.0383 55.0363 93.0404 54.9683 93.0446 54.9003C93.0966 53.8654 93.1549 52.6657 93.1965 51.4535C93.2423 50.8866 93.2881 50.3239 93.334 49.7817C93.3423 49.7054 93.3589 49.489 93.3798 49.2416C93.3881 49.1406 93.3964 49.0355 93.4047 48.9303C93.4068 48.9035 93.4089 48.8788 93.411 48.852C93.4131 48.8252 93.4151 48.8005 93.4172 48.7757C93.438 48.5222 93.4589 48.3016 93.4693 48.2356C93.513 47.9285 93.64 47.6378 93.8294 47.3946C93.8523 47.3657 93.8752 47.3389 93.8981 47.31C93.946 47.2564 93.9981 47.2028 94.0522 47.1554C94.0647 47.1431 94.0793 47.1307 94.0938 47.1204C94.1209 47.0977 94.1501 47.075 94.1792 47.0524C94.2666 46.9864 94.3603 46.9287 94.4603 46.8813C94.7538 46.7349 95.0848 46.671 95.4158 46.6957L100.516 47.0915C100.516 47.0915 100.519 47.0915 100.523 47.0915C100.554 47.0936 100.687 47.1039 100.77 47.1101L100.837 47.1142C101.054 47.1266 101.251 47.1657 101.426 47.2358C102.034 47.4688 102.471 48.081 102.49 48.7242C102.49 48.751 102.49 48.7819 102.49 48.8149C102.49 48.8685 102.486 48.9241 102.482 48.9757C102.48 49.0375 102.473 49.1344 102.465 49.2478C102.465 49.2581 102.465 49.2684 102.465 49.2787C102.465 49.2993 102.463 49.3199 102.461 49.3426C102.461 49.3632 102.459 49.3859 102.457 49.4086C102.444 49.6085 102.432 49.8168 102.426 49.9219C102.417 50.0497 102.411 50.1775 102.403 50.3053C102.305 52.072 102.234 53.9458 102.174 55.7455C102.167 55.9104 102.163 56.0732 102.157 56.2361C102.157 56.2814 102.151 56.4278 102.149 56.4608C102.128 56.9246 101.922 57.3554 101.564 57.677C101.204 58.0027 100.723 58.1738 100.246 58.1512C99.8649 58.1326 99.411 58.112 98.9197 58.0914C97.6247 58.0316 96.0342 57.9595 94.9453 57.9059C94.8725 57.9017 94.8017 57.8997 94.7351 57.8955C94.5644 57.8873 94.3957 57.8584 94.2375 57.811C94.2125 57.8028 94.1896 57.7966 94.1646 57.7883C93.4276 57.5327 92.903 56.8298 92.8759 56.0485C92.8968 55.9908 92.9155 55.9331 92.9321 55.8733C92.9821 55.696 93.0113 55.5166 93.0196 55.3332C93.0196 55.3249 93.0196 55.3167 93.0196 55.3064C93.0196 55.2878 93.0217 55.2651 93.0217 55.2548C93.0258 55.1786 93.0258 55.1353 93.0258 55.1105L93.0342 55.1044ZM83.6323 58.2522C83.6323 58.1202 83.6302 57.9883 83.6281 57.8564V57.5884C83.6198 57.3822 83.6157 57.1699 83.6073 56.9473C83.6032 56.8277 83.599 56.704 83.5948 56.5783C83.8301 56.937 84.1569 57.2297 84.5338 57.4255C84.7045 57.5142 84.8856 57.5822 85.0709 57.6276C85.1125 57.6379 85.1563 57.6461 85.1979 57.6544C85.3249 57.6791 85.4498 57.6935 85.5726 57.6976H85.5747C86.6386 57.6935 87.9689 57.6915 89.3554 57.7059C89.7156 57.71 90.082 57.7141 90.4464 57.7203C90.4651 57.7203 90.4838 57.7203 90.5026 57.7203C90.5026 57.7203 90.5047 57.7203 90.5067 57.7203C90.5192 57.7203 90.5317 57.7203 90.5442 57.7203C90.5525 57.7203 90.5629 57.7203 90.5713 57.7203C90.5858 57.7203 90.5983 57.7203 90.6129 57.7203C90.6212 57.7203 90.6275 57.7203 90.6358 57.7203C90.6504 57.7203 90.665 57.7203 90.6816 57.7183C90.6879 57.7183 90.6941 57.7183 90.7004 57.7183C90.717 57.7183 90.7316 57.7162 90.7482 57.7141C90.7524 57.7141 90.7586 57.7141 90.7628 57.7141C90.7795 57.7141 90.7961 57.71 90.8128 57.708C90.8169 57.708 90.8211 57.708 90.8253 57.708C90.8419 57.7059 90.8607 57.7038 90.8773 57.6997C90.8815 57.6997 90.8836 57.6997 90.8877 57.6997C90.9065 57.6976 90.9231 57.6935 90.9419 57.6894C90.9439 57.6894 90.9481 57.6894 90.9502 57.6894C90.9689 57.6853 90.9877 57.6832 91.0064 57.6791C91.0064 57.6791 91.0106 57.6791 91.0126 57.6791C91.0314 57.675 91.0501 57.6708 91.0688 57.6667C91.0688 57.6667 91.0709 57.6667 91.073 57.6667C91.0917 57.6626 91.1126 57.6564 91.1313 57.6523C91.1313 57.6523 91.1334 57.6523 91.1355 57.6523C91.1542 57.6461 91.175 57.642 91.1938 57.6358C91.1938 57.6358 91.1938 57.6358 91.1958 57.6358C91.2146 57.6296 91.2354 57.6234 91.2541 57.6172C91.2729 57.6111 91.2937 57.6028 91.3124 57.5966C91.3312 57.5905 91.352 57.5822 91.3707 57.576C91.3895 57.5678 91.4103 57.5616 91.429 57.5533C91.4478 57.5451 91.4665 57.5369 91.4873 57.5286C91.506 57.5204 91.5248 57.5121 91.5435 57.5039C91.5623 57.4956 91.581 57.4853 91.5997 57.4771C91.5997 57.4771 91.5997 57.4771 91.6018 57.4771C91.6206 57.4688 91.6372 57.4585 91.6559 57.4503C91.6559 57.4503 91.658 57.4503 91.6601 57.4503C91.6768 57.44 91.6955 57.4317 91.7122 57.4214C91.7122 57.4214 91.7142 57.4214 91.7163 57.4194C91.733 57.409 91.7496 57.4008 91.7663 57.3905C91.7663 57.3905 91.7704 57.3884 91.7725 57.3864C91.7892 57.3761 91.8058 57.3658 91.8225 57.3554C91.8246 57.3554 91.8267 57.3534 91.8287 57.3513C91.8454 57.341 91.86 57.3307 91.8766 57.3204C91.8787 57.3204 91.8829 57.3163 91.885 57.3142C91.8995 57.3039 91.9141 57.2936 91.9308 57.2833C91.9349 57.2812 91.937 57.2792 91.9412 57.2771C91.9557 57.2668 91.9703 57.2565 91.9828 57.2462C91.987 57.2441 91.9911 57.24 91.9953 57.2379C92.0078 57.2276 92.0224 57.2173 92.0348 57.207C92.039 57.2029 92.0432 57.1988 92.0494 57.1967C92.0619 57.1864 92.0744 57.1761 92.0869 57.1679C92.0931 57.1637 92.0973 57.1596 92.1035 57.1555C92.116 57.1452 92.1265 57.1369 92.1369 57.1266C92.1431 57.1204 92.1494 57.1163 92.1556 57.1101C92.166 57.1019 92.1764 57.0916 92.1868 57.0833C92.1931 57.0772 92.2014 57.071 92.2076 57.0627C92.216 57.0545 92.2264 57.0462 92.2347 57.038C92.243 57.0297 92.2514 57.0215 92.2618 57.0132C92.268 57.0071 92.2763 56.9988 92.2826 56.9926C92.2992 56.9761 92.3138 56.9617 92.3284 56.9452C92.3492 57.0009 92.3742 57.0545 92.3992 57.1101C92.4471 57.2132 92.5033 57.3142 92.5637 57.4111C92.5637 57.5533 92.5637 57.6915 92.5637 57.8213C92.5637 57.9409 92.5637 58.0543 92.5637 58.1594C92.5616 59.2973 92.5532 60.3239 92.4991 61.3443C92.47 61.8391 92.4346 62.3668 92.3409 62.8863V62.9007C92.2951 63.1151 92.2576 63.2986 92.1618 63.4717C91.9661 63.8325 91.7413 64.2036 91.4124 64.4612C90.7899 64.9416 89.9217 65.0137 89.0786 65.0199C88.7788 65.0199 88.4332 65.0034 88.0209 64.9766C86.7656 64.8776 85.2041 64.756 84.3297 63.6841C83.9925 63.2656 83.7739 62.6987 83.6802 61.9978L83.624 61.6061C83.6011 61.4309 83.5803 61.2536 83.5615 61.0805C83.6094 60.4146 83.6219 59.7405 83.624 59.0726C83.624 58.8046 83.624 58.5387 83.6198 58.2749L83.6323 58.2522ZM83.9009 55.2219C83.9155 53.4717 83.9592 51.2598 83.9987 49.3303C84.0008 49.2581 84.005 49.0581 84.0091 48.8273C84.0154 48.4583 84.0258 47.9986 84.0341 47.8996C84.0737 47.3843 84.3901 46.8854 84.8419 46.6298C85.0959 46.4813 85.3894 46.4071 85.6871 46.4133C86.0327 46.4195 86.3783 46.4257 86.726 46.4319C87.9876 46.4545 89.293 46.4793 90.5734 46.5184C91.0584 46.5638 91.5165 46.873 91.7455 47.3059C91.8641 47.5265 91.9224 47.78 91.9183 48.0439C91.9183 48.4871 91.9203 48.9324 91.9266 49.3777C91.9537 51.3113 92.0432 53.2594 92.1389 55.1064C92.1389 55.1435 92.1473 55.2816 92.1473 55.3167C92.1639 55.7063 92.039 56.0815 91.7954 56.3928C91.76 56.4381 91.7226 56.4793 91.683 56.5206C91.6018 56.6051 91.5144 56.6793 91.4186 56.7453C91.1355 56.9432 90.7961 57.0545 90.4484 57.0586C90.1486 57.0607 89.8447 57.0648 89.5449 57.0689C89.445 57.0689 89.345 57.071 89.2472 57.073C89.0931 57.073 88.937 57.0772 88.7808 57.0792C87.6899 57.0916 86.572 57.0998 85.4727 57.0668C85.225 57.0359 84.9835 56.9535 84.7711 56.8277C84.2111 56.4999 83.8676 55.8712 83.8988 55.226L83.9009 55.2219ZM72.4692 55.2961C72.1819 54.9456 72.0174 54.5189 72.0049 54.0922C72.0008 53.9706 71.9987 53.8448 71.9945 53.717C71.9799 53.1707 71.9633 52.5688 71.9466 51.9503C71.9404 51.7195 71.9341 51.4886 71.9279 51.2536C71.9279 51.2041 71.9258 51.1546 71.9237 51.1052C71.9196 50.9773 71.9175 50.8495 71.9133 50.7197C71.9071 50.4867 71.9008 50.2538 71.8946 50.0229C71.8717 49.1097 71.8488 48.2315 71.8342 47.4997C71.8342 47.4811 71.8342 47.4626 71.8342 47.4461C71.83 47.3245 71.8321 47.2111 71.8384 47.1348C71.8592 46.8916 71.9258 46.6524 72.032 46.4401C72.1173 46.2628 72.2318 46.102 72.3692 45.9619C72.7169 45.6032 73.2083 45.3805 73.7121 45.3723C74.0077 45.364 74.3054 45.3558 74.6052 45.3475C75.413 45.3269 76.227 45.3104 77.0202 45.2939C77.7114 45.2795 78.4192 45.2651 79.125 45.2486C79.5476 45.2383 79.9703 45.228 80.3887 45.2156C80.4033 45.2156 80.4408 45.2156 80.4803 45.2136C80.5324 45.2136 80.5969 45.2094 80.6156 45.2094C80.8842 45.2032 81.1549 45.2568 81.3964 45.362C82.0126 45.6279 82.4435 46.2525 82.4664 46.9204C82.4893 47.3368 82.5185 47.778 82.5456 48.1552C82.6455 49.6147 82.7975 51.1711 82.9432 52.676C82.9682 52.9275 82.9911 53.1748 83.0161 53.4202C83.0202 53.4614 83.0327 53.6181 83.0369 53.6552C83.0764 54.1891 82.8953 54.7106 82.5247 55.125C82.15 55.5434 81.6191 55.7991 81.0653 55.8279C79.1646 55.9372 76.9827 56.0155 74.3929 56.0691C74.091 56.0815 73.8349 56.0753 73.5684 56.0011C73.15 55.8939 72.7606 55.6424 72.4754 55.2919L72.4692 55.2961ZM75.388 63.9418C75.2589 63.8572 75.1423 63.7624 75.0362 63.6593C74.2908 62.9358 74.0764 61.7834 73.9223 60.6517C73.8807 60.359 73.8245 59.8993 73.7704 59.454C73.7579 59.3612 73.7475 59.2685 73.7371 59.1798C73.7037 58.9118 73.6725 58.6686 73.6496 58.4872C73.5747 57.8605 73.4997 57.2338 73.4269 56.6071C73.4539 56.6133 73.481 56.6195 73.506 56.6236C73.6892 56.6607 73.8786 56.671 74.0535 56.671C74.1493 56.671 74.2409 56.6669 74.3221 56.6607C74.3554 56.6587 74.3866 56.6566 74.4158 56.6546C76.8099 56.4999 79.0521 56.3948 81.082 56.3392C81.6941 56.3268 82.2874 56.1021 82.7683 55.7084C82.7871 56.3227 82.8079 56.972 82.8183 57.6214C82.8141 57.6626 82.812 57.6997 82.81 57.7389C82.8079 57.7801 82.8058 57.8213 82.8037 57.8626C82.7704 58.4727 82.7725 59.1242 82.81 59.8519C82.81 59.8642 82.81 59.8766 82.81 59.889C82.7975 60.3363 82.7767 60.7486 82.7496 61.1423C82.7454 61.198 82.7413 61.2557 82.7371 61.3114C82.7079 61.6412 82.6767 61.9154 82.6184 62.1895C82.5976 62.2823 82.5747 62.3668 82.5497 62.4328C82.3082 63.0656 82.0251 63.4779 81.6274 63.7686C81.6108 63.781 81.5921 63.7933 81.5754 63.8036C81.565 63.8119 81.5525 63.8181 81.5421 63.8263C81.5254 63.8366 81.5088 63.849 81.49 63.8593C81.4775 63.8675 81.4651 63.8737 81.4546 63.882C81.438 63.8923 81.4193 63.9026 81.4026 63.9129C81.3901 63.9191 81.3776 63.9273 81.3651 63.9335C81.3485 63.9418 81.3318 63.9521 81.3152 63.9603C81.3006 63.9686 81.2881 63.9747 81.2735 63.983C81.2589 63.9912 81.2444 63.9974 81.2298 64.0057C81.2131 64.0139 81.1986 64.0222 81.1819 64.0304C81.1694 64.0366 81.1549 64.0428 81.1424 64.0489C81.1236 64.0572 81.1049 64.0654 81.0861 64.0737C81.0757 64.0778 81.0653 64.0819 81.0549 64.0861C81.0341 64.0943 81.0112 64.1046 80.9904 64.1129C80.98 64.117 80.9716 64.1211 80.9612 64.1232C80.9383 64.1314 80.9154 64.1417 80.8925 64.15C80.8821 64.1541 80.8738 64.1561 80.8634 64.1603C80.8405 64.1685 80.8176 64.1768 80.7926 64.185C80.7843 64.1871 80.7739 64.1912 80.7655 64.1933C80.7406 64.2015 80.7177 64.2097 80.6927 64.2159C80.6885 64.2159 80.6843 64.218 80.6781 64.22C79.9411 64.4447 79.0959 64.4757 78.2256 64.4819C78.1382 64.4819 78.0487 64.4798 77.9571 64.4777C77.0847 64.4633 76.1375 64.4076 75.388 63.9418ZM94.4603 68.9902C94.454 69.1531 94.4332 69.3201 94.4145 69.452C94.402 69.5468 94.402 69.6437 94.4082 69.7385C94.2958 69.7509 94.1813 69.7591 94.0834 69.7674C93.7462 69.7942 93.3964 69.8066 93.0591 69.8189C92.7573 69.8313 92.4471 69.8416 92.1431 69.8643C91.3645 69.9179 90.5754 69.988 89.8114 70.056C89.2243 70.1075 88.6185 70.1611 88.0209 70.2085C88.0085 70.19 87.9939 70.1714 87.9814 70.1508C87.9418 70.091 87.9044 70.023 87.8711 69.9488C87.8586 69.922 87.8461 69.8952 87.8336 69.8684C87.8211 69.8416 87.8107 69.8148 87.8024 69.788C87.7295 69.5633 87.692 69.318 87.6878 69.0747C87.6878 68.9531 87.692 68.8294 87.7087 68.7099C87.7232 68.5882 87.7482 68.4707 87.7815 68.3553C87.8128 68.244 87.8565 68.1347 87.9085 68.0337C88.0647 67.7286 88.3062 67.4751 88.6101 67.3019C88.6747 67.2669 88.7413 67.2339 88.8079 67.205C89.1764 67.0483 89.5949 66.9886 89.9883 66.9741C90.055 66.9721 90.1216 66.97 90.1861 66.97C90.4006 66.97 90.6025 66.9824 90.7815 66.9948C90.9273 67.0071 91.0751 67.0236 91.225 67.0442C92.0453 67.1535 92.8947 67.3637 93.7566 67.673C93.767 67.6771 93.7878 67.6853 93.8086 67.6936C93.8294 67.7018 93.8523 67.7121 93.8628 67.7163C93.8773 67.7245 93.894 67.7327 93.9086 67.741C93.9669 67.7719 94.0231 67.8049 94.0668 67.842H94.0689C94.3333 68.0523 94.4665 68.413 94.4603 68.916C94.4603 68.9408 94.4603 68.9634 94.4603 68.9882V68.9902ZM96.6296 67.0236L96.6233 67.0442C96.6129 67.0793 96.6046 67.1164 96.5942 67.1514C96.4485 67.6915 96.2923 68.244 96.0571 68.7367C95.9342 68.9943 95.7864 69.1984 95.622 69.3407C95.5699 69.386 95.5095 69.4252 95.4471 69.4623C95.4512 69.4334 95.4533 69.4025 95.4554 69.3737C95.5075 68.8212 95.4596 68.3553 95.3118 67.9492C95.1098 67.4194 94.7413 67.0422 94.2146 66.8257C94.1396 66.7948 94.0605 66.7659 93.9793 66.7433C92.955 66.4217 90.386 65.7517 88.6455 66.467C87.8835 66.7845 87.3339 67.4338 87.1715 68.2048C87.0445 68.8006 87.0987 69.4108 87.3277 69.9715V69.9756C87.3756 70.0745 87.4276 70.1673 87.4817 70.2539C86.2867 70.3384 85.2999 70.3714 84.386 70.359C83.9592 70.3528 83.5678 70.2745 83.1743 70.19C82.939 70.1364 82.7621 70.0869 82.6059 70.0271C82.3311 69.9179 82.1708 69.8024 82.0626 69.6334C82.0563 69.6231 82.048 69.6107 82.0417 69.5984C81.9231 69.3901 81.8835 69.1407 81.846 68.8995C81.8419 68.8665 81.8356 68.8336 81.8315 68.8006C81.819 68.7264 81.8065 68.6439 81.794 68.5594C81.7419 68.2172 81.6816 67.8317 81.6441 67.5452C81.6441 67.539 81.6441 67.5348 81.642 67.5287C81.642 67.5245 81.642 67.5225 81.6399 67.5184C81.6399 67.5163 81.6399 67.5142 81.6379 67.5101C81.6379 67.5101 81.6379 67.5101 81.6379 67.508C81.6233 67.4751 81.5962 67.4503 81.5629 67.44C81.4984 67.4194 81.4276 67.4545 81.4068 67.5184C81.3735 67.6194 81.3485 67.7224 81.3235 67.8523C81.2694 68.1492 81.2423 68.4749 81.2381 68.8439C81.2381 69.0273 81.2381 69.2087 81.2652 69.3943C81.2069 69.3695 81.1528 69.3407 81.1028 69.3097C81.1007 69.3097 81.0986 69.3056 81.0966 69.3056C81.082 69.2953 81.0653 69.283 81.0508 69.2726C80.7926 69.0768 80.5282 68.8026 80.3325 68.4955C80.3283 68.4893 80.3242 68.4831 80.32 68.4769C80.32 68.4769 80.3179 68.4728 80.3158 68.4707C80.1285 68.1595 80.0327 67.8523 80.0223 67.6091C80.0223 67.5926 80.0223 67.5761 80.0223 67.5596C80.0223 67.5184 80.0348 67.4153 80.039 67.3658V67.3617C80.0577 67.1865 80.0785 66.9865 80.0972 66.8051C80.1014 66.7804 80.1056 66.7412 80.1118 66.6773C80.116 66.634 80.1202 66.5907 80.1243 66.5618L80.1285 66.5247C80.1347 66.465 80.0973 66.4114 80.0369 66.3969C80.0077 66.3887 79.9786 66.3928 79.9515 66.4052C79.9265 66.4175 79.9057 66.4382 79.8932 66.467C79.8204 66.6422 79.7537 66.8381 79.6954 67.0071L79.6767 67.0648C79.6476 67.1535 79.6163 67.2462 79.5893 67.337C79.0105 66.5907 78.4609 65.9207 77.9154 65.2982C77.9383 65.2982 77.9633 65.2982 77.9883 65.2982C78.0632 65.2982 78.1423 65.2982 78.2277 65.3002C78.336 65.3002 78.4442 65.3002 78.5525 65.2982C79.5331 65.2838 80.5532 65.2054 81.5025 64.7849C81.9605 64.5787 82.3561 64.284 82.6497 63.9294C82.8641 63.6758 83.0494 63.3646 83.2159 62.9852C83.5532 64.0407 84.2506 64.7622 85.3395 65.1889C86.3783 65.5971 87.6233 65.6857 88.81 65.7414C89.9092 65.7723 91.0459 65.7084 91.9141 65.0508C92.3659 64.7045 92.6657 64.2242 92.8988 63.7975C92.9238 63.7521 92.9446 63.7067 92.9655 63.6593C93.0258 63.5192 93.0696 63.3707 93.1049 63.2285C93.1133 63.2553 93.1237 63.28 93.132 63.3068C93.4214 64.1232 93.9065 64.8014 94.5727 65.3229C95.191 65.8074 95.9509 66.1331 96.7753 66.2712C96.7441 66.5268 96.6962 66.7804 96.6358 67.0236H96.6296ZM101.672 61.2145C101.651 61.5257 101.63 61.835 101.609 62.1421C101.603 62.2431 101.595 62.3441 101.587 62.4472C101.585 62.4843 101.58 62.5235 101.578 62.5606C101.564 62.7647 101.547 62.9729 101.528 63.1831C101.518 63.3027 101.507 63.4223 101.495 63.5418L101.491 63.581C101.482 63.6717 101.472 63.7665 101.462 63.8614C101.443 64.0201 101.422 64.1768 101.395 64.3087C101.151 64.8509 100.866 65.1848 100.464 65.3745C100.458 65.3765 100.452 65.3806 100.446 65.3827C100.267 65.4631 100.067 65.5188 99.8357 65.5497C99.1758 65.6404 98.4804 65.6033 97.8079 65.5682C97.7205 65.5641 97.6331 65.56 97.5435 65.5538C97.4478 65.5517 97.3541 65.5456 97.2625 65.5373C97.2 65.5311 97.1397 65.5249 97.0772 65.5188C96.9252 65.5002 96.7753 65.4734 96.6296 65.4404C95.9884 65.2961 95.4138 65.0158 94.937 64.6138C94.4561 64.2056 94.0918 63.6861 93.8607 63.0821C93.8503 63.0553 93.8399 63.0265 93.8294 62.9997C93.7899 62.8884 93.7545 62.775 93.7233 62.6575C93.6837 62.5111 93.6525 62.3627 93.6296 62.2081C93.6192 62.1483 93.6108 62.0885 93.6046 62.0267C93.5838 61.8453 93.5692 61.6597 93.5588 61.4804C93.5546 61.4227 93.5505 61.365 93.5463 61.3072C93.5088 60.7218 93.4818 60.0951 93.4693 59.4458C93.463 59.0355 93.4609 58.6335 93.4651 58.2542C93.64 58.3594 93.8253 58.4439 94.0168 58.5057C94.2312 58.5758 94.4603 58.6191 94.6955 58.6356L94.912 58.6521C96.3652 58.7572 98.7989 58.9345 100.196 59.0438C100.267 59.05 100.337 59.052 100.41 59.0541C100.91 59.0541 101.412 58.916 101.855 58.65C101.786 59.5014 101.73 60.3713 101.674 61.2124L101.672 61.2145ZM108.061 61.9854C107.951 62.4905 107.814 63.0698 107.566 63.5604C107.47 63.7439 107.366 63.8964 107.247 64.0201C107.208 64.0613 107.166 64.0984 107.124 64.1335C107.029 64.2118 106.914 64.284 106.804 64.354H106.8C105.923 64.9189 104.98 65.1869 104.072 65.1312C103.777 65.1168 103.502 65.0797 103.26 65.0219C102.907 64.9333 102.411 64.7457 102.049 64.354C102.095 64.1129 102.122 63.8717 102.147 63.6325C102.151 63.5996 102.153 63.5645 102.157 63.5315C102.17 63.4037 102.184 63.2697 102.199 63.1378C102.247 62.6637 102.303 62.1339 102.361 61.5711C102.457 60.6517 102.557 59.6993 102.632 58.9242C102.665 58.5738 102.7 58.2048 102.734 57.8296C102.755 57.8007 102.773 57.7719 102.792 57.743C102.805 57.7677 102.817 57.7925 102.829 57.8172C103.219 58.549 103.991 59.0541 104.826 59.1139C104.853 59.1139 104.882 59.118 104.909 59.118C104.932 59.118 105.003 59.1221 105.072 59.1283C105.157 59.1345 105.244 59.1386 105.274 59.1407C106.244 59.1963 107.408 59.2726 108.482 59.3509C108.344 60.3569 108.207 61.2206 108.059 61.9875L108.061 61.9854ZM111.222 56.2711C111.217 56.6113 111.211 57.0339 111.209 57.0792C111.205 57.2215 111.19 57.3451 111.163 57.4544C111.078 57.8275 110.853 58.1635 110.528 58.4006C110.206 58.6377 109.814 58.7572 109.425 58.7366C108.519 58.6954 106.781 58.6109 105.317 58.516C105.284 58.514 105.207 58.5099 105.13 58.5037C105.04 58.4975 104.949 58.4934 104.913 58.4892C104.012 58.4377 103.263 57.6708 103.246 56.7782C103.246 56.7576 103.246 56.737 103.246 56.7143C103.246 56.6484 103.252 56.5803 103.256 56.5206C103.327 55.5373 103.414 54.3767 103.489 53.3995C103.506 53.1748 103.523 52.9584 103.539 52.7564C103.539 52.7419 103.541 52.7296 103.544 52.7151C103.562 52.5008 103.583 52.2307 103.608 51.9297C103.635 51.6081 103.664 51.2453 103.696 50.8825C103.754 50.1899 103.812 49.4931 103.85 49.0726C103.883 48.7221 104.043 48.3861 104.287 48.1284C104.356 48.0542 104.433 47.9883 104.516 47.9285C104.543 47.9079 104.572 47.8893 104.599 47.8728C104.643 47.846 104.687 47.8213 104.732 47.7986C104.955 47.6852 105.203 47.6275 105.455 47.6275C105.498 47.6275 105.542 47.6275 105.586 47.6337C105.942 47.6605 106.527 47.7079 107.043 47.7491C107.108 47.7533 107.17 47.7594 107.231 47.7636C107.272 47.7677 107.312 47.7697 107.351 47.7739C107.391 47.778 107.43 47.78 107.47 47.7842C107.643 47.7986 107.801 47.811 107.928 47.8213C108.203 47.844 108.573 47.8749 108.946 47.9037C109.031 47.9099 109.119 47.9182 109.204 47.9244L110.054 47.9944C110.108 47.9986 110.168 48.0068 110.218 48.0151C110.281 48.0254 110.343 48.0398 110.403 48.0583C110.988 48.2356 111.436 48.7943 111.453 49.4045C111.453 49.4189 111.453 49.4333 111.453 49.4457C111.453 49.4663 111.453 49.4849 111.453 49.5075V49.5591C111.438 49.7508 111.428 49.9425 111.417 50.1342C111.399 50.4537 111.382 50.7712 111.365 51.0825C111.313 52.1008 111.274 53.2099 111.249 54.4488C111.24 54.8611 111.234 55.2878 111.228 55.731C111.228 55.7784 111.224 56.0052 111.22 56.2691L111.222 56.2711Z" fill="#1E1E1C"/>
<path d="M103.941 64.1132C103.875 64.1215 103.818 64.1668 103.8 64.2307C103.8 64.2369 103.798 64.241 103.796 64.2472C103.796 64.2575 103.793 64.2678 103.793 64.2781C103.793 64.3049 103.802 64.3317 103.814 64.3544C103.831 64.3833 103.854 64.4059 103.883 64.4204C103.893 64.4245 103.904 64.4286 103.914 64.4327C103.954 64.443 103.989 64.4513 104.025 64.4575L104.045 64.4616C104.218 64.4925 104.403 64.5069 104.612 64.5069C104.709 64.5069 104.809 64.5028 104.916 64.4966C105.284 64.4698 105.592 64.4183 105.888 64.34C105.894 64.34 105.902 64.3358 105.911 64.3338C105.959 64.3214 106.015 64.3008 106.065 64.2823C106.09 64.2719 106.115 64.2637 106.138 64.2555H106.142C106.221 64.2225 106.304 64.1833 106.379 64.1441H106.383C106.396 64.1338 106.415 64.1235 106.435 64.1111C106.477 64.0864 106.527 64.0596 106.552 64.0431H106.554C106.573 64.0287 106.592 64.0163 106.61 64.0019C106.644 63.9792 106.681 63.9545 106.712 63.9297C107.058 63.6597 107.297 63.3546 107.422 63.0227C107.445 62.9609 107.422 62.8928 107.366 62.8557C107.308 62.8186 107.237 62.8248 107.187 62.8702C107.1 62.9526 107.012 63.0289 106.931 63.0949C106.791 63.2082 106.637 63.3154 106.487 63.4061C106.302 63.5175 106.111 63.6061 105.919 63.6741L105.769 63.7236C105.744 63.7298 105.703 63.7401 105.667 63.7504C105.661 63.7504 105.653 63.7545 105.646 63.7566C105.636 63.7586 105.628 63.7628 105.619 63.7648C105.619 63.7648 105.619 63.7648 105.617 63.7648C105.546 63.7834 105.469 63.7999 105.392 63.8164C105.355 63.8246 105.319 63.8329 105.284 63.8411C104.855 63.938 104.489 64.0122 104.162 64.072L103.939 64.1091L103.941 64.1132Z" fill="#1E1E1C"/>
<path d="M95.6157 63.4653C95.8989 63.7642 96.2799 63.9869 96.7171 64.1044C96.9086 64.1518 97.1001 64.1745 97.2875 64.1745C97.6081 64.1745 97.9121 64.1064 98.1765 63.9745L98.316 63.9044L98.1702 63.8467C97.833 63.7148 97.4957 63.6344 97.1709 63.556C96.9773 63.5086 96.7754 63.4612 96.5755 63.4035C96.3423 63.3416 96.1279 63.2922 95.9197 63.2551C95.8156 63.2365 95.6928 63.2159 95.5616 63.2035L95.4221 63.1912L95.495 63.3107C95.5262 63.3602 95.5637 63.4076 95.6157 63.4674V63.4653Z" fill="#1E1E1C"/>
<path d="M98.3664 64.5865C98.2831 64.5783 98.1978 64.57 98.1103 64.5618C98.0562 64.5556 98.0021 64.5494 97.9479 64.5432C97.9396 64.5432 97.9334 64.5432 97.925 64.5412C97.1485 64.4443 96.3366 64.2773 95.7245 64.0815C95.4434 63.9949 95.2082 63.9124 94.9896 63.8217L94.6648 63.6877L94.9125 63.9351C95.4809 64.5041 96.2991 64.8195 96.8841 64.9844C97.2401 65.0854 97.6461 65.1596 98.0916 65.2029C98.2873 65.2194 98.4788 65.2276 98.662 65.2276C98.9681 65.2276 99.2575 65.205 99.5281 65.1617C100.138 65.0545 100.604 64.869 100.915 64.6071C100.958 64.57 101 64.5309 101.037 64.4917L101.266 64.2485L100.958 64.3804C100.248 64.6834 99.1575 64.6628 98.3664 64.5907V64.5865Z" fill="#1E1E1C"/>
<path d="M86.2345 63.8074C86.8466 64.0857 87.5815 64.232 88.3019 64.232C88.6287 64.232 88.9514 64.2011 89.2595 64.1413C89.3033 64.1331 89.347 64.1228 89.3907 64.1125C89.4136 64.1063 89.4386 64.1001 89.4636 64.0939C89.474 64.0919 89.4844 64.0877 89.4948 64.0857C89.501 64.0857 89.5052 64.0836 89.5114 64.0816C89.8154 63.9991 90.0527 63.8981 90.2401 63.7909C90.4275 63.6837 90.6065 63.5497 90.746 63.3786C90.7481 63.3765 90.7502 63.3724 90.7523 63.3704C90.7564 63.3642 90.7627 63.358 90.7668 63.3518C90.7772 63.3394 90.7877 63.325 90.796 63.3126L90.9625 63.0776L90.7044 63.2116C89.6842 63.7414 87.8876 63.6116 86.8862 63.4837C86.8758 63.4837 86.8654 63.4817 86.8549 63.4796C86.7654 63.4672 86.6801 63.4528 86.5968 63.4404C86.5905 63.4404 86.5822 63.4384 86.5739 63.4363C86.5635 63.4363 86.5531 63.4322 86.5427 63.4301C86.5239 63.426 86.5052 63.424 86.4865 63.4198C86.4865 63.4198 86.4844 63.4198 86.4823 63.4198C86.1346 63.3601 85.8369 63.29 85.5475 63.2054L85.2727 63.123L85.4788 63.3209C85.7203 63.5538 86.0243 63.7084 86.2325 63.8053L86.2345 63.8074Z" fill="#1E1E1C"/>
<path d="M79.7702 63.5031H79.7744C79.8535 63.4557 79.9451 63.398 80.018 63.33C80.1137 63.2413 80.172 63.1547 80.1929 63.0682L80.2428 62.8723L80.0825 62.996C79.8993 63.1341 79.5433 63.1692 79.181 63.1692C78.9333 63.1692 78.6856 63.1506 78.4899 63.1341C78.4232 63.13 78.3608 63.1238 78.3087 63.1217C77.9819 63.0908 77.6446 63.0681 77.3198 63.0475C76.9284 63.0228 76.5245 62.996 76.1352 62.9548L75.9146 62.9321L76.0811 63.0764C76.3642 63.3238 76.7223 63.4557 77.07 63.5608C77.6321 63.7134 78.1047 63.769 78.494 63.769C79.1228 63.769 79.5371 63.6227 79.7702 63.5052V63.5031Z" fill="#1E1E1C"/>
<path d="M74.3617 54.9523V55.0285L74.4387 55.0162L79.2021 54.8368H79.2312L80.5407 53.4412L80.445 50.9551L79.0313 49.6626L76.0105 49.776L75.9481 48.1619L80.3284 47.997L80.2597 46.2427L74.0327 46.4777L74.3596 54.9523V54.9564L74.3617 54.9523ZM78.1549 51.4499L78.5463 51.7488L78.5858 52.7878L78.2194 53.1155L76.2229 53.1897L76.1583 51.5241L78.1549 51.4499Z" fill="#1E1E1C"/>
<path d="M86.805 55.7393L86.7884 53.4201L89.1742 53.4036L89.1909 55.7228L91.1146 55.7104L91.0708 49.3859V49.357L88.8515 47.1966L88.8307 47.176L87.0465 47.1884L84.8376 49.4003L84.8814 55.7537L86.805 55.7413V55.7393ZM87.9501 48.986L89.1513 50.1569L89.1617 51.503L86.7759 51.5195L86.7655 50.1734L87.9501 48.986Z" fill="#1E1E1C"/>
<path d="M96.5344 56.3347L98.379 56.4604L98.864 49.5484L101.052 49.6989L101.165 48.0827L94.948 47.656L94.8335 49.2722L97.0216 49.4227L96.5344 56.3347Z" fill="#1E1E1C"/>
<path d="M106.04 48.6815H106.011L104.541 49.9081L104.333 52.388L105.509 53.7423L104.145 54.872L104.12 54.8926V54.9215L103.939 57.086L105.859 57.2427L106 55.5379L107.853 54.0041L108.511 54.0577L108.228 57.4365L110.147 57.5931L110.859 49.0732L106.036 48.6794L106.04 48.6815ZM108.669 52.1963L106.548 52.0231L106.323 51.6974L106.4 50.7883L106.804 50.5059L108.796 50.6687L108.669 52.1963Z" fill="#1E1E1C"/>
<g filter="url(#filter1_d_1003_1662)">
<path d="M157.895 27.379L133.423 26.2313C131.284 22.9794 127.729 21.1422 123.467 21.1422C123.361 21.1422 123.249 21.1422 123.143 21.1422C122.934 21.1422 122.733 21.1466 122.551 21.1555C120.42 18.2506 117.667 16.1153 115.562 14.7585L115.513 14.7274C114.366 14.0022 113.303 13.4462 112.244 13.0191C110.651 12.383 108.952 12.0582 107.195 12.0582C106.203 12.0582 105.211 12.165 104.245 12.3741C102.742 12.6899 101.469 13.206 100.291 13.7131C99.3519 14.0957 98.4399 14.496 97.5591 14.8875C97.4123 14.7807 97.2611 14.6784 97.1098 14.5806C95.9621 13.8199 94.8989 13.3394 93.9514 12.9079L93.9158 12.8901C93.7067 12.7611 93.1862 12.3251 92.9949 12.1694L92.7236 11.9426C92.0785 11.4043 91.2778 10.7326 90.5972 10.2165L90.5749 10.2032C89.5918 9.45139 88.3684 8.51274 86.7581 7.82767C84.5338 6.86678 82.0426 6.37744 79.3512 6.37744C77.812 6.37744 76.215 6.53759 74.6046 6.85344L74.4801 6.88013L74.3288 6.91572C72.0912 7.46289 70.4586 8.57502 69.2619 9.38911L69.213 9.42025C68.9639 9.58929 68.7148 9.76279 68.4701 9.93183C68.0208 10.2432 67.4069 10.6747 66.962 10.9239C66.9576 10.9239 66.9531 10.9239 66.9487 10.9194C66.2414 10.6881 65.4362 10.4301 64.5287 10.2299C63.2786 9.95852 61.6104 9.65157 59.7465 9.65157C58.1806 9.65157 56.6903 9.874 55.3246 10.31C51.0629 11.6534 47.6776 14.8297 44.9773 20.0256C44.6348 20.6617 44.3367 21.3335 44.0832 22.0408L22.4098 21.0221C22.2186 21.0132 22.0273 21.0087 21.836 21.0087C15.1943 21.0087 9.74038 26.3203 9.42008 33.0999L9.40674 33.389L11.5598 74.5336L26.7694 75.2854L48.2159 76.3442C49.2034 78.7197 50.7649 80.9573 53.3183 82.6077L53.3495 82.63C54.426 83.3151 55.5915 83.8444 56.8772 84.227C57.5356 85.0144 58.2696 85.8463 59.1281 86.7671C59.8533 87.5412 60.7697 88.4932 61.8195 89.4807C62.0108 89.8856 62.2243 90.2859 62.4601 90.6818L62.509 90.7664C63.4388 92.2655 64.5732 93.48 65.8899 94.3741L65.9745 94.432L66.0634 94.4854C66.8864 95.0058 67.7895 95.3973 68.7414 95.6464C70.5164 96.8208 72.327 97.2257 73.0432 97.3858C73.6082 97.5148 74.1776 97.6216 74.8938 97.7328L75.005 97.7506C75.8013 97.8618 76.602 97.9107 77.5273 97.9107C78.0656 97.9107 78.5816 97.8929 79.0576 97.8751H79.0888C80.5479 97.8084 81.9536 97.6794 83.3282 97.5548L84.7696 97.4214C87.67 97.15 90.6683 96.8653 93.4976 96.8653C94.245 96.8653 94.9656 96.8831 95.6418 96.9232L95.9532 96.9409C96.8385 96.9943 97.8438 97.0522 98.8803 97.0522H99.0094C100.629 97.0522 105.558 97.0522 108.876 92.9328C109.784 91.8207 110.491 90.5217 111.038 88.9469C111.238 88.3686 111.399 87.8125 111.528 87.2832C112.012 87.2253 112.48 87.1542 112.947 87.0652C114.384 86.7849 115.696 86.2911 116.861 85.6016C117.515 85.7929 118.191 85.9441 118.894 86.0465C119.784 86.1844 120.692 86.2555 121.581 86.2555C123.423 86.2555 125.211 85.9619 126.897 85.3836C128.583 84.8142 130.189 84.0001 131.813 82.8924L131.88 82.8435C132.765 82.2207 133.543 81.4689 134.224 80.5836L157.792 81.7447L163.66 82.0339L169.688 40.8982L169.701 40.609C170.03 33.6292 164.741 27.686 157.908 27.3657L157.895 27.379Z" fill="white"/>
</g>
<path d="M155.337 33.8611L129.838 32.6644C129.339 32.1484 128.654 31.6235 127.809 31.3788C127.725 31.1697 127.636 30.974 127.547 30.7827C126.528 28.7631 124.691 27.7755 122.084 27.8422C121.795 27.8422 121.514 27.8556 121.243 27.8689C120.829 27.8867 120.433 27.9089 120.029 27.8778C119.335 27.7888 118.578 27.4507 117.715 26.8502C116.158 24.0743 113.538 22.0102 111.607 20.7646C110.789 20.2485 110.059 19.8615 109.374 19.5857C108.004 19.0385 106.425 18.9184 104.939 19.2432C103.969 19.4434 103.053 19.8215 102.128 20.2219C101.265 20.5733 100.388 20.9603 99.543 21.334C98.5866 21.7566 97.599 22.197 96.6292 22.5796C96.3667 22.6819 96.0954 22.7397 95.7484 22.802C95.695 22.8109 95.6416 22.8198 95.5883 22.8287C95.3525 21.9968 94.6852 21.1783 93.7421 20.5688C93.0037 20.0795 92.2563 19.737 91.4645 19.3811L91.3443 19.3277C90.6504 19.003 90.0053 18.4914 89.2402 17.8552L88.9866 17.6417C88.3994 17.1524 87.6698 16.5429 87.1138 16.1203L87.0915 16.1025C86.3175 15.5108 85.5167 14.8969 84.6092 14.5144C81.6821 13.2421 78.4169 13.4912 76.1926 13.9272H76.1837C75.0182 14.2119 74.0617 14.8658 73.1364 15.493L73.0786 15.5331C72.8562 15.6843 72.6338 15.84 72.4158 15.9913C71.0857 16.9166 69.7111 17.8775 68.1185 18.0999C67.727 18.1533 67.3311 18.1132 66.8017 17.962C66.5303 17.8819 66.2456 17.7885 65.9476 17.6951C65.3559 17.5038 64.7465 17.3036 64.1548 17.1746C62.3398 16.7831 60.2045 16.4673 58.1671 17.1168C55.5513 17.9398 53.3626 20.1106 51.4765 23.754C50.9471 24.7193 50.5868 25.8715 50.3732 27.2773C50.1864 28.4828 50.093 29.8129 50.0841 31.4633C50.0796 32.6733 50.1197 33.9367 50.2131 35.4359C50.2042 35.4492 50.1953 35.4626 50.1864 35.4715L49.7504 28.9143L24.3848 27.7221C20.9016 27.5575 17.9389 30.3734 17.7654 34.0079L19.5626 68.3863L23.6508 68.5865L26.013 39.3195C26.0441 38.7545 26.231 38.3096 26.4356 38.3185C26.6402 38.3274 26.787 38.7901 26.7603 39.3551L26.3511 68.7199L29.1581 68.8578L31.5203 39.5864C31.5514 39.0214 31.7383 38.5766 31.9429 38.5855C32.1475 38.5944 32.2943 39.057 32.2676 39.622L31.8584 68.9913L34.661 69.1292L37.0231 39.8533C37.0543 39.2883 37.2411 38.8435 37.4457 38.8524C37.6504 38.8613 37.7972 39.3239 37.7705 39.8889L37.3612 69.2626L40.1638 69.4005L42.526 40.1202C42.5571 39.5552 42.744 39.1104 42.9486 39.1193C43.1532 39.1282 43.3 39.5908 43.2733 40.1558L42.8641 69.534L45.6667 69.6719L48.0288 40.3871C48.06 39.8222 48.2468 39.3773 48.4515 39.3862C48.6561 39.3951 48.8029 39.8577 48.7762 40.4227L48.3669 69.8054L51.1695 69.9433L52.0948 58.4749C52.2194 58.5683 52.3528 58.6617 52.4863 58.7463C52.8511 61.838 53.2514 65.1166 53.6785 68.4841C54.07 71.6115 54.8396 75.0502 57.5977 76.8296C58.5897 77.4613 59.7775 77.8706 61.2232 78.0797C61.2544 78.1686 61.3033 78.2487 61.3567 78.3243C62.1396 79.3564 63.0649 80.4374 64.266 81.7275C65.1024 82.6172 66.219 83.7782 67.469 84.877C67.4868 84.8948 67.509 84.9082 67.5268 84.9215C67.6692 85.4287 67.905 85.958 68.2208 86.4874C68.6968 87.257 69.2484 87.862 69.8623 88.2802C70.4273 88.6361 71.1079 88.8318 71.8375 88.8451C72.616 89.7571 73.8438 90.1263 74.8313 90.3443C75.2495 90.4377 75.6855 90.5222 76.246 90.6112C76.802 90.6868 77.3492 90.7135 77.9053 90.7135C78.3145 90.7135 78.7283 90.7002 79.1598 90.6824C80.441 90.6246 81.7355 90.5089 82.99 90.3932L83.3503 90.3621C83.6928 90.331 84.0309 90.2998 84.3735 90.2642C88.1014 89.9128 91.9582 89.5525 95.744 89.7704L96.042 89.7882C96.865 89.8372 97.7147 89.8861 98.5643 89.8861C100.397 89.895 102.452 89.677 103.787 88.0044C104.245 87.4483 104.619 86.7499 104.926 85.8691C105.286 84.8236 105.473 83.8005 105.593 83.0264C105.731 82.1412 105.767 81.3004 105.7 80.5308C105.731 80.5308 105.762 80.5308 105.793 80.5308C107.666 80.6198 109.357 80.6643 111.051 80.3395C112.751 80.0103 113.979 79.1829 114.802 77.8172C114.842 77.7549 114.877 77.6926 114.917 77.6259C115.175 77.8572 115.469 78.0797 115.789 78.2798C116.634 78.8048 117.626 79.1518 118.738 79.3119C120.482 79.5877 122.231 79.4498 123.792 78.9115C124.926 78.529 126.03 77.964 127.168 77.1899C127.827 76.7273 128.792 75.8242 129.535 73.3775C130.3 70.7129 130.678 67.8702 130.981 65.5614H131.065L130.95 73.8713L133.748 74.0092L134.495 64.7296C135.438 64.1246 136.199 63.2393 136.622 62.1805L136.457 74.1427L139.255 74.2806L141.622 44.9202C141.653 44.3552 141.84 43.9104 142.044 43.9193C142.249 43.9282 142.396 44.3908 142.369 44.9558L141.96 74.414L144.758 74.552L147.125 45.1871C147.156 44.6221 147.343 44.1773 147.547 44.1862C147.752 44.1951 147.899 44.6577 147.872 45.2227L147.463 74.6854L150.261 74.8233L152.628 45.454C152.659 44.889 152.846 44.4442 153.05 44.4531C153.255 44.462 153.402 44.9246 153.375 45.4896L152.966 74.9568L156.275 75.1214L161.316 40.7252C161.489 37.0907 158.802 34.0123 155.319 33.8478L155.337 33.8611ZM131.377 35.0177C131.212 34.6574 131.039 34.3193 130.847 33.999C131.034 34.2926 131.212 34.6307 131.377 35.0177ZM118.111 37.5712C118.191 37.1174 118.294 36.6637 118.392 36.2277C118.561 35.4759 118.734 34.7019 118.819 33.8922C118.823 33.8344 118.832 33.7721 118.836 33.7143C118.876 33.2917 118.903 32.8201 118.912 32.273C118.912 32.273 118.912 32.2685 118.912 32.2641C118.912 32.0016 118.912 31.6591 118.894 31.3032C118.885 31.0897 118.876 30.8672 118.859 30.6537C118.854 30.6003 118.85 30.5202 118.845 30.4402C118.841 30.3423 118.832 30.24 118.827 30.1777C118.81 29.9731 118.779 29.764 118.743 29.5594C118.845 29.6038 118.943 29.6439 119.041 29.6795C119.081 29.6928 119.121 29.7106 119.161 29.724C119.179 29.7284 119.192 29.7328 119.21 29.7373C119.237 29.7462 119.259 29.7551 119.286 29.7595C119.303 29.764 119.326 29.7684 119.343 29.7773C119.366 29.7818 119.388 29.7907 119.41 29.7951C119.432 29.7996 119.455 29.804 119.473 29.8085C119.495 29.8129 119.513 29.8174 119.535 29.8218C119.557 29.8263 119.579 29.8307 119.606 29.8352C119.624 29.8352 119.642 29.8441 119.664 29.8485C119.69 29.853 119.713 29.8574 119.739 29.8619C119.757 29.8619 119.775 29.8663 119.793 29.8708C119.819 29.8708 119.846 29.8797 119.868 29.8841C119.886 29.8841 119.9 29.8885 119.917 29.893C119.944 29.893 119.971 29.9019 119.997 29.9019C120.011 29.9019 120.024 29.9019 120.042 29.9063C120.069 29.9063 120.1 29.9108 120.126 29.9152C120.14 29.9152 120.153 29.9152 120.162 29.9152C120.193 29.9152 120.22 29.9197 120.251 29.9241C120.264 29.9241 120.273 29.9241 120.287 29.9241C120.318 29.9241 120.349 29.9241 120.38 29.9286C120.389 29.9286 120.398 29.9286 120.411 29.9286C120.442 29.9286 120.473 29.9286 120.505 29.933C120.513 29.933 120.522 29.933 120.531 29.933C120.562 29.933 120.594 29.933 120.62 29.933C120.629 29.933 120.638 29.933 120.647 29.933C120.678 29.933 120.705 29.933 120.736 29.933C120.745 29.933 120.754 29.933 120.763 29.933C120.789 29.933 120.82 29.933 120.847 29.933C120.856 29.933 120.865 29.933 120.878 29.933C120.905 29.933 120.927 29.933 120.949 29.933C120.958 29.933 120.967 29.933 120.976 29.933C120.989 29.933 120.998 29.933 121.012 29.933C121.118 29.933 121.234 29.933 121.359 29.933C121.501 29.933 121.652 29.933 121.804 29.933C122.262 29.933 122.742 29.9419 123.089 29.982C124.379 30.1065 125.447 30.5959 126.439 32.5755C126.879 33.4162 127.275 34.2748 127.693 35.1823C127.894 35.6138 128.103 36.0631 128.312 36.5035C128.365 36.6103 128.467 36.6815 128.588 36.6948C128.605 36.6948 128.623 36.6948 128.641 36.6948C128.73 36.6904 128.814 36.6503 128.872 36.5836C128.93 36.5169 128.961 36.4279 128.957 36.3389C128.912 35.645 128.81 34.9332 128.637 34.0924C128.579 33.8166 128.516 33.5586 128.459 33.3139C129.744 34.4261 130.323 36.1743 130.683 37.5934C130.727 37.7758 130.767 37.9627 130.807 38.1584C130.46 38.1451 130.109 38.1317 129.753 38.1184C128.378 38.065 126.959 38.0116 125.754 37.9582L123.245 37.8514C122.199 37.8025 121.123 38.0516 120.224 38.5543C119.637 38.8746 119.117 39.3017 118.676 39.8222C118.485 39.4396 118.249 39.0748 117.982 38.7367C118.027 38.3764 118.08 37.9538 118.142 37.5623L118.111 37.5712ZM52.1793 28.8743C52.206 28.6385 52.2372 28.3983 52.2728 28.1581C52.2728 28.1581 52.2728 28.1536 52.2728 28.1492C52.2817 28.1002 52.2861 28.0513 52.295 28.0024C52.2994 27.9712 52.3039 27.9356 52.3083 27.9045C52.3083 27.8778 52.3172 27.8511 52.3217 27.8244C52.3306 27.771 52.3395 27.7132 52.3484 27.6598C52.3484 27.6465 52.3484 27.6376 52.3528 27.6242C52.4996 26.8191 52.7132 26.0139 53.069 25.2621C53.1046 25.1864 53.1447 25.1108 53.1803 25.0352C53.8075 23.8875 54.755 22.3127 56.0674 21.076C56.1652 20.9826 56.2631 20.8936 56.3654 20.8091C56.4677 20.7245 56.5701 20.6356 56.6768 20.551C56.7302 20.511 56.7836 20.4665 56.837 20.4265C58.0826 19.4878 59.555 19.0697 61.0898 19.2165C62.3799 19.3232 63.5765 19.5679 64.7598 19.9683C64.8888 20.0128 65.0267 20.0573 65.1646 20.1017C65.694 20.2797 66.2901 20.4843 66.8773 20.5866C66.9218 20.5955 66.9663 20.6044 67.0108 20.6089C67.0508 20.6267 67.0909 20.6445 67.1265 20.6623L67.291 20.7201C67.7492 20.8891 68.243 21.0671 68.679 21.3029C68.7279 21.3295 68.7769 21.3562 68.8213 21.3829C68.9593 21.463 69.0927 21.552 69.2128 21.6498C69.3329 21.7477 69.4441 21.85 69.5376 21.9657C69.7778 22.286 69.8934 22.6641 70.018 23.0689C70.0669 23.2291 70.1203 23.3981 70.1782 23.5627C70.405 24.2166 70.6942 24.746 71.0456 25.1464C71.2547 25.3866 71.486 25.5779 71.7396 25.7247C72.0688 25.916 72.438 26.0228 72.8517 26.045C72.8873 26.045 72.9185 26.045 72.9541 26.045H72.9629C73.0786 26.045 73.1987 26.045 73.3188 26.0317C73.3589 26.0317 73.3989 26.0228 73.4434 26.0183C73.5502 26.0094 73.6391 25.9471 73.6881 25.8582C73.7059 25.827 73.7148 25.7959 73.7236 25.7603C73.7503 25.6179 73.6836 25.48 73.5635 25.4178C73.0252 25.1331 72.5626 24.8483 72.3757 24.2478C72.2289 23.8029 72.1844 23.3403 72.1355 22.8465C72.0821 22.2593 72.0243 21.6543 71.7752 21.0893C71.6684 20.8313 71.5083 20.5599 71.3081 20.3064C71.188 20.1551 71.0545 20.0083 70.9166 19.8704C72.1044 19.3144 73.1898 18.5536 74.2397 17.8152L74.5199 17.615C74.6 17.5616 74.6845 17.5038 74.7691 17.446C75.3251 17.0678 75.9034 16.6764 76.5084 16.4584C76.5218 16.4584 76.5351 16.4495 76.544 16.445C76.5663 16.4361 76.5885 16.4317 76.6108 16.4228C76.633 16.4139 76.6552 16.4095 76.6775 16.4006C76.6953 16.3961 76.7175 16.3917 76.7353 16.3828C76.762 16.3739 76.7843 16.3694 76.8109 16.3605C77.0378 16.316 77.2647 16.276 77.496 16.2404C78.8306 16.0358 80.1518 16.0002 81.3574 16.1381C81.4374 16.147 81.5219 16.1559 81.602 16.1692C82.8031 16.3338 83.7996 16.6808 84.6359 17.2191C85.4945 17.7752 86.3175 18.4068 87.1138 19.0163C87.7143 19.4745 88.3327 19.9505 88.9733 20.3998C89.5382 20.7824 90.0365 21.0537 90.508 21.2406L90.5258 21.2495C91.2554 21.5386 92.0116 21.8367 92.6522 22.2193C92.7545 22.2815 92.8524 22.3483 92.9503 22.415C93.3729 22.7086 93.7466 23.0511 93.8444 23.5583C93.8667 23.7318 93.88 23.9097 93.8934 24.141C93.9112 24.6259 93.9067 25.1197 93.8978 25.6001C93.8889 26.2274 93.88 26.8724 93.9289 27.5219C93.9779 28.1536 94.098 28.7097 94.2848 29.1768C94.6318 30.0442 95.1167 30.8094 95.7262 31.4544H95.7306C95.8285 31.5568 95.9708 31.579 96.0865 31.5212C96.1043 31.5123 96.1176 31.5034 96.1354 31.4945C96.26 31.4055 96.3 31.2409 96.2333 31.0986V31.0897C96.1087 30.8717 96.0153 30.6804 95.9397 30.5024C95.7618 30.1065 95.6238 29.724 95.5171 29.3503C95.4548 29.1278 95.4059 28.9099 95.3658 28.6963C95.3569 28.6519 95.3525 28.6074 95.3436 28.5629C95.2546 27.9 95.3302 27.2417 95.4148 26.5521C95.4281 26.4409 95.4415 26.3253 95.4548 26.214L95.4904 25.9427C95.5304 25.6268 95.5705 25.3021 95.6061 24.9729C95.6194 24.8617 95.6283 24.7549 95.6372 24.6437C95.6995 24.6393 95.7662 24.6304 95.8285 24.6259C95.8863 24.6215 95.9441 24.6126 96.002 24.6081C96.3134 24.5681 96.6025 24.5192 96.865 24.4569C97.0251 24.4168 97.252 24.3501 97.3899 24.3012C97.5857 24.2344 97.7814 24.1677 97.9727 24.101C98.5465 23.8964 99.1026 23.6828 99.6854 23.4604L99.761 23.4337C99.9834 23.3492 100.353 23.2024 100.771 23.0378C101.549 22.7308 102.515 22.3527 102.924 22.2015C103.008 22.1703 103.089 22.1347 103.173 22.1036C103.507 21.9701 103.854 21.8322 104.178 21.721C104.223 21.7032 104.272 21.6899 104.316 21.6721C105.86 21.1383 107.279 21.1294 108.534 21.6409C108.676 21.6988 108.818 21.7611 108.965 21.8322C109.401 22.0413 109.864 22.3038 110.389 22.6374C112.341 23.9097 114.005 25.4267 115.18 26.9659C115.638 27.5709 116.02 28.1759 116.318 28.7764C116.581 29.3325 116.759 29.8752 116.839 30.3868C116.852 30.4891 116.87 30.6048 116.883 30.7204C116.897 30.8272 116.915 30.934 116.928 31.0318C116.928 31.063 116.937 31.0986 116.941 31.1297C116.999 31.619 117.052 32.1351 117.075 32.6022C117.124 33.354 117.119 34.1458 117.057 34.951C117.039 35.2046 117.012 35.4715 116.99 35.725C116.941 36.29 116.888 36.8728 116.879 37.4511C116.879 37.5223 116.879 37.5979 116.879 37.6735C116.007 36.984 114.988 36.5436 113.907 36.3923C113.592 36.3434 113.187 36.3256 112.831 36.3122C112.795 36.3122 112.755 36.3122 112.72 36.3078C112.613 36.3034 112.511 36.2989 112.413 36.2945L101.491 35.814C101.398 35.8096 101.305 35.8096 101.211 35.8096C100.25 35.8096 99.2761 36.0409 98.4264 36.4724C98.3686 36.4991 98.3152 36.5302 98.2574 36.5614C97.7547 36.8372 97.2965 37.1797 96.8917 37.589C96.776 36.7393 96.6426 35.903 96.4913 35.0978C96.4646 34.9643 96.3534 34.862 96.2199 34.8398C96.0509 34.8131 95.8908 34.9199 95.8463 35.08C95.8463 35.0889 95.8418 35.1022 95.8374 35.1156C95.7973 35.387 95.7573 35.6628 95.7217 35.943C95.6594 36.4101 95.606 36.8906 95.5527 37.3755C94.8676 36.4635 93.9334 35.774 92.888 35.3781C92.8346 35.3558 92.7768 35.338 92.7234 35.3202C92.6122 35.2802 92.501 35.2446 92.3853 35.2135C92.3275 35.1957 92.2696 35.1823 92.2163 35.169C92.1006 35.1423 91.9849 35.1156 91.8693 35.0933C91.4645 35.0177 91.0463 34.9866 90.6281 34.9999C89.7028 35.0177 88.7775 35.04 87.8522 35.0622C85.4589 35.1156 82.99 35.169 80.5566 35.209C79.5068 35.2224 78.4525 35.5382 77.5805 36.0943C77.109 36.3879 76.6864 36.7571 76.3216 37.1842C76.2727 36.9662 76.2104 36.7527 76.1437 36.548C76.1748 36.2856 76.2148 36.0275 76.2593 35.7651C76.5618 33.9456 77.1134 32.1707 77.6161 30.627C77.6206 30.6092 77.625 30.5959 77.6295 30.5781C77.6339 30.5603 77.6295 30.5469 77.6295 30.5291C77.6295 30.4313 77.5761 30.3334 77.4871 30.28C77.4204 30.24 77.3403 30.2311 77.2647 30.2489C77.1891 30.2667 77.1268 30.3156 77.0868 30.3823C76.9933 30.538 76.9133 30.6893 76.8287 30.845C76.722 31.0407 76.6197 31.2409 76.5129 31.45C76.2816 31.9082 76.0547 32.4064 75.81 32.9803C75.7477 33.1315 75.6855 33.2783 75.6276 33.4251C75.4808 33.7899 75.3518 34.1458 75.2362 34.4928C75.2139 34.564 75.1872 34.6307 75.165 34.7019C75.0894 34.5996 75.0093 34.5017 74.9248 34.4038C74.8002 32.789 74.6356 31.4144 74.4087 30.1421C74.3553 29.8485 74.302 29.5638 74.2397 29.2791C74.213 29.1679 74.1196 29.0834 74.0084 29.0656C73.9906 29.0656 73.9728 29.0656 73.955 29.0656C73.8304 29.0745 73.7236 29.1723 73.7058 29.3058C73.5724 30.4758 73.5012 31.7347 73.4834 33.1404C72.8384 32.7223 72.1222 32.4198 71.3882 32.2507C71.3392 32.2418 71.2903 32.2285 71.2414 32.2196C70.7921 32.1306 70.3383 32.0817 69.8845 32.0861C69.6888 32.0861 69.413 32.1039 69.1906 32.1128H69.1061C68.5099 32.1484 67.9138 32.184 67.3088 32.2196C65.5072 32.3264 63.6877 32.442 61.9172 32.5532C61.4679 32.5799 61.0141 32.6111 60.5559 32.6377C58.6653 32.7579 56.7391 32.8735 54.8574 32.9803C54.2479 33.0203 53.674 33.1315 53.1536 33.3095C52.7576 33.4429 52.3751 33.6164 52.0103 33.8255C51.9569 31.9482 52.0058 30.3645 52.166 28.8654L52.1793 28.8743ZM96.2689 56.2862C96.2778 56.1394 96.2822 55.9926 96.2911 55.8458C96.4023 53.6126 96.5269 51.0236 96.6159 48.4078C96.7137 47.1845 96.8116 45.97 96.9095 44.8001C96.9273 44.6355 96.9629 44.1684 97.0073 43.6346C97.0251 43.4166 97.0429 43.1897 97.0607 42.9628C97.0652 42.905 97.0696 42.8516 97.0741 42.7938C97.0785 42.7359 97.083 42.6826 97.0874 42.6292C97.1319 42.082 97.1764 41.606 97.1986 41.4637C97.2921 40.8008 97.5634 40.1736 97.9682 39.6487C98.0172 39.5864 98.0661 39.5285 98.115 39.4663C98.2173 39.3506 98.3286 39.2349 98.4442 39.1326C98.4709 39.1059 98.5021 39.0792 98.5332 39.057C98.591 39.0081 98.6533 38.9591 98.7156 38.9102C98.9024 38.7678 99.1026 38.6433 99.3161 38.541C99.9434 38.2251 100.651 38.0872 101.358 38.1406L112.257 38.9947C112.257 38.9947 112.261 38.9947 112.27 38.9947C112.337 38.9992 112.622 39.0214 112.8 39.0348L112.942 39.0437C113.405 39.0703 113.827 39.1549 114.201 39.3061C115.5 39.8088 116.434 41.13 116.474 42.518C116.474 42.5758 116.474 42.6425 116.474 42.7137C116.474 42.8294 116.465 42.9495 116.456 43.0607C116.452 43.1941 116.439 43.4032 116.421 43.6479C116.421 43.6701 116.421 43.6924 116.421 43.7146C116.421 43.7591 116.416 43.8036 116.412 43.8525C116.412 43.897 116.407 43.946 116.403 43.9949C116.376 44.4264 116.35 44.8757 116.336 45.1026C116.318 45.3784 116.305 45.6542 116.287 45.93C116.078 49.7424 115.927 53.7861 115.798 57.6697C115.785 58.0256 115.776 58.377 115.762 58.7285C115.762 58.8263 115.749 59.1422 115.745 59.2134C115.7 60.2143 115.26 61.144 114.495 61.838C113.725 62.5409 112.697 62.9101 111.679 62.8612C110.865 62.8211 109.895 62.7767 108.845 62.7322C106.078 62.6032 102.679 62.4475 100.353 62.3318C100.197 62.3229 100.046 62.3185 99.9033 62.3096C99.5386 62.2918 99.1782 62.2295 98.8401 62.1272C98.7868 62.1094 98.7378 62.096 98.6844 62.0782C97.1097 61.5266 95.9886 60.0097 95.9308 58.3237C95.9753 58.1991 96.0153 58.0745 96.0509 57.9455C96.1577 57.563 96.22 57.1759 96.2377 56.78C96.2377 56.7622 96.2377 56.7444 96.2377 56.7222C96.2377 56.6821 96.2422 56.6332 96.2422 56.611C96.2511 56.4464 96.2511 56.3529 96.2511 56.2996L96.2689 56.2862ZM76.1793 63.0792C76.1793 62.7944 76.1748 62.5097 76.1704 62.225V61.6467C76.1526 61.2019 76.1437 60.7437 76.1259 60.2632C76.117 60.0052 76.1081 59.7383 76.0992 59.4669C76.6019 60.241 77.3003 60.8727 78.1055 61.2953C78.4702 61.4866 78.8573 61.6334 79.2532 61.7312C79.3422 61.7535 79.4356 61.7713 79.5246 61.7891C79.7959 61.8425 80.0628 61.8736 80.3253 61.8825H80.3297C82.6029 61.8736 85.4456 61.8692 88.4083 61.9003C89.1779 61.9092 89.9608 61.9181 90.7393 61.9314C90.7794 61.9314 90.8194 61.9314 90.8595 61.9314C90.8595 61.9314 90.8639 61.9314 90.8683 61.9314C90.895 61.9314 90.9217 61.9314 90.9484 61.9314C90.9662 61.9314 90.9885 61.9314 91.0062 61.9314C91.0374 61.9314 91.0641 61.9314 91.0952 61.9314C91.113 61.9314 91.1264 61.9314 91.1442 61.9314C91.1753 61.9314 91.2064 61.9314 91.242 61.927C91.2554 61.927 91.2687 61.927 91.2821 61.927C91.3177 61.927 91.3488 61.9225 91.3844 61.9181C91.3933 61.9181 91.4066 61.9181 91.4155 61.9181C91.4511 61.9181 91.4867 61.9092 91.5223 61.9047C91.5312 61.9047 91.5401 61.9047 91.549 61.9047C91.5846 61.9003 91.6246 61.8958 91.6602 61.8869C91.6691 61.8869 91.6735 61.8869 91.6824 61.8869C91.7225 61.8825 91.7581 61.8736 91.7981 61.8647C91.8025 61.8647 91.8114 61.8647 91.8159 61.8647C91.8559 61.8558 91.896 61.8514 91.936 61.8425C91.936 61.8425 91.9449 61.8425 91.9493 61.8425C91.9894 61.8336 92.0294 61.8247 92.0695 61.8158C92.0695 61.8158 92.0739 61.8158 92.0784 61.8158C92.1184 61.8069 92.1629 61.7935 92.2029 61.7846C92.2029 61.7846 92.2074 61.7846 92.2118 61.7846C92.2518 61.7713 92.2963 61.7624 92.3364 61.749C92.3364 61.749 92.3364 61.749 92.3408 61.749C92.3809 61.7357 92.4253 61.7223 92.4654 61.709C92.5054 61.6957 92.5499 61.6779 92.5899 61.6645C92.63 61.6512 92.6745 61.6334 92.7145 61.62C92.7545 61.6022 92.799 61.5889 92.8391 61.5711C92.8791 61.5533 92.9191 61.5355 92.9636 61.5177C93.0037 61.4999 93.0437 61.4821 93.0837 61.4643C93.1238 61.4465 93.1638 61.4243 93.2038 61.4065C93.2038 61.4065 93.2038 61.4065 93.2083 61.4065C93.2483 61.3887 93.2839 61.3665 93.3239 61.3487C93.3239 61.3487 93.3284 61.3487 93.3328 61.3487C93.3684 61.3264 93.4085 61.3086 93.4441 61.2864C93.4441 61.2864 93.4485 61.2864 93.453 61.2819C93.4885 61.2597 93.5241 61.2419 93.5597 61.2197C93.5597 61.2197 93.5686 61.2152 93.5731 61.2108C93.6087 61.1885 93.6442 61.1663 93.6798 61.144C93.6843 61.144 93.6887 61.1396 93.6932 61.1351C93.7288 61.1129 93.7599 61.0907 93.7955 61.0684C93.7999 61.0684 93.8088 61.0595 93.8133 61.0551C93.8444 61.0328 93.8756 61.0106 93.9112 60.9883C93.9201 60.9839 93.9245 60.9794 93.9334 60.975C93.9645 60.9528 93.9957 60.9305 94.0224 60.9083C94.0313 60.9038 94.0402 60.8949 94.0491 60.8905C94.0758 60.8682 94.1069 60.846 94.1336 60.8237C94.1425 60.8148 94.1514 60.8059 94.1647 60.8015C94.1914 60.7793 94.2181 60.757 94.2448 60.7392C94.2581 60.7303 94.267 60.7214 94.2804 60.7125C94.3071 60.6903 94.3293 60.6725 94.3516 60.6503C94.3649 60.6369 94.3782 60.628 94.3916 60.6147C94.4138 60.5969 94.4361 60.5746 94.4583 60.5568C94.4717 60.5435 94.4895 60.5301 94.5028 60.5123C94.5206 60.4945 94.5428 60.4768 94.5606 60.459C94.5784 60.4412 94.5962 60.4234 94.6185 60.4056C94.6318 60.3922 94.6496 60.3744 94.663 60.3611C94.6985 60.3255 94.7297 60.2944 94.7608 60.2588C94.8053 60.3789 94.8587 60.4946 94.9121 60.6147C95.0144 60.8371 95.1345 61.0551 95.2635 61.2641C95.2635 61.5711 95.2635 61.8692 95.2635 62.1494C95.2635 62.4074 95.2635 62.6521 95.2635 62.879C95.2591 65.3346 95.2413 67.5499 95.1256 69.752C95.0633 70.8196 94.9877 71.9585 94.7875 73.0795V73.1106C94.6896 73.5733 94.6096 73.9692 94.4049 74.3429C93.9868 75.1214 93.5063 75.9221 92.8035 76.4782C91.4734 77.5147 89.6183 77.6704 87.8166 77.6837C87.1761 77.6837 86.4376 77.6481 85.5568 77.5903C82.8743 77.3768 79.5379 77.1143 77.6695 74.8011C76.9488 73.898 76.4817 72.6747 76.2816 71.1622L76.1615 70.3169C76.1125 69.9388 76.068 69.5562 76.028 69.1826C76.1303 67.7457 76.157 66.291 76.1615 64.8497C76.1615 64.2714 76.1615 63.6975 76.1526 63.1281L76.1793 63.0792ZM76.7531 56.5398C76.7842 52.763 76.8777 47.9897 76.9622 43.8258C76.9666 43.6701 76.9755 43.2386 76.9844 42.7404C76.9978 41.9441 77.02 40.9521 77.0378 40.7386C77.1223 39.6264 77.7985 38.5499 78.7639 37.9982C79.3066 37.678 79.9338 37.5178 80.57 37.5311C81.3084 37.5445 82.0469 37.5578 82.7898 37.5712C85.4856 37.6201 88.2748 37.6735 91.0107 37.758C92.0472 37.8559 93.0259 38.5232 93.5152 39.4574C93.7688 39.9334 93.8934 40.4805 93.8845 41.05C93.8845 42.0064 93.8889 42.9673 93.9023 43.9282C93.9601 48.1009 94.1514 52.3048 94.356 56.2907C94.356 56.3707 94.3738 56.6688 94.3738 56.7444C94.4094 57.5852 94.1425 58.3948 93.622 59.0666C93.5464 59.1644 93.4663 59.2534 93.3818 59.3424C93.2083 59.5248 93.0214 59.6849 92.8168 59.8273C92.2118 60.2543 91.4867 60.4946 90.7438 60.5034C90.1032 60.5079 89.4537 60.5168 88.8131 60.5257C88.5996 60.5257 88.3861 60.5301 88.177 60.5346C87.8478 60.5346 87.5141 60.5435 87.1805 60.5479C84.8495 60.5746 82.4606 60.5924 80.1118 60.5212C79.5824 60.4545 79.0664 60.2766 78.6126 60.0052C77.4159 59.2979 76.6819 57.9411 76.7487 56.5487L76.7531 56.5398ZM52.3261 56.6999C51.7122 55.9437 51.3608 55.0228 51.3341 54.102C51.3252 53.8395 51.3208 53.5682 51.3119 53.2924C51.2807 52.1135 51.2451 50.8145 51.2096 49.48C51.1962 48.9817 51.1829 48.4835 51.1695 47.9763C51.1695 47.8696 51.1651 47.7628 51.1606 47.656C51.1517 47.3802 51.1473 47.1044 51.1384 46.8242C51.125 46.3215 51.1117 45.8188 51.0983 45.3206C51.0494 43.3498 51.0005 41.4548 50.9693 39.8755C50.9693 39.8355 50.9693 39.7955 50.9693 39.7599C50.9604 39.4974 50.9649 39.2527 50.9782 39.0881C51.0227 38.5632 51.1651 38.0472 51.3919 37.589C51.5743 37.2064 51.819 36.8594 52.1126 36.5569C52.8555 35.7829 53.9054 35.3024 54.9819 35.2846C55.6136 35.2668 56.2498 35.249 56.8903 35.2313C58.6164 35.1868 60.3558 35.1512 62.0507 35.1156C63.5276 35.0844 65.0401 35.0533 66.5481 35.0177C67.4512 34.9955 68.3543 34.9732 69.2484 34.9465C69.2796 34.9465 69.3596 34.9465 69.4441 34.9421C69.5554 34.9421 69.6933 34.9332 69.7333 34.9332C70.3072 34.9199 70.8855 35.0355 71.4015 35.2624C72.7183 35.8363 73.6391 37.1842 73.6881 38.6255C73.737 39.5241 73.7993 40.4761 73.8571 41.2902C74.0706 44.4397 74.3954 47.7984 74.7068 51.0458C74.7602 51.5886 74.8091 52.1224 74.8625 52.6518C74.8714 52.7407 74.8981 53.0788 74.907 53.1589C74.9915 54.3111 74.6045 55.4366 73.8126 56.3307C73.0119 57.2338 71.8775 57.7854 70.6942 57.8477C66.6327 58.0834 61.9706 58.2525 56.4366 58.3681C55.7916 58.3948 55.2444 58.3815 54.675 58.2213C53.7808 57.99 52.9489 57.4473 52.3395 56.691L52.3261 56.6999ZM58.563 75.3571C58.2872 75.1748 58.0381 74.9701 57.8112 74.7477C56.2186 73.1863 55.7604 70.6995 55.4312 68.2573C55.3423 67.6256 55.2221 66.6335 55.1065 65.6727C55.0798 65.4725 55.0575 65.2723 55.0353 65.081C54.9641 64.5027 54.8974 63.9778 54.8485 63.5863C54.6883 62.2339 54.5282 60.8816 54.3725 59.5292C54.4303 59.5426 54.4881 59.5559 54.5415 59.5648C54.933 59.6449 55.3378 59.6671 55.7115 59.6671C55.9161 59.6671 56.1118 59.6582 56.2853 59.6449C56.3565 59.6404 56.4233 59.636 56.4855 59.6315C61.6014 59.2979 66.3924 59.071 70.7298 58.9509C72.0377 58.9242 73.3055 58.4393 74.3331 57.5896C74.3731 58.9153 74.4176 60.3166 74.4399 61.7179C74.431 61.8069 74.4265 61.8869 74.4221 61.9715C74.4176 62.0604 74.4132 62.1494 74.4087 62.2384C74.3375 63.5551 74.342 64.9609 74.4221 66.5312C74.4221 66.5579 74.4221 66.5846 74.4221 66.6113C74.3954 67.5766 74.3509 68.4663 74.2931 69.316C74.2842 69.4361 74.2753 69.5607 74.2664 69.6808C74.2041 70.3926 74.1374 70.9842 74.0128 71.5759C73.9683 71.7761 73.9194 71.9585 73.866 72.1008C73.35 73.4665 72.745 74.3562 71.8953 74.9835C71.8597 75.0102 71.8197 75.0369 71.7841 75.0591C71.7618 75.0769 71.7351 75.0902 71.7129 75.108C71.6773 75.1303 71.6417 75.157 71.6017 75.1792C71.575 75.197 71.5483 75.2103 71.5261 75.2281C71.4905 75.2504 71.4504 75.2726 71.4149 75.2949C71.3882 75.3082 71.3615 75.326 71.3348 75.3393C71.2992 75.3571 71.2636 75.3794 71.228 75.3972C71.1969 75.415 71.1702 75.4283 71.139 75.4461C71.1079 75.4639 71.0768 75.4773 71.0456 75.495C71.01 75.5128 70.9789 75.5306 70.9433 75.5484C70.9166 75.5618 70.8855 75.5751 70.8588 75.5885C70.8187 75.6063 70.7787 75.6241 70.7387 75.6419C70.7164 75.6507 70.6942 75.6596 70.6719 75.6685C70.6275 75.6863 70.5785 75.7086 70.534 75.7264C70.5118 75.7353 70.494 75.7442 70.4718 75.7486C70.4228 75.7664 70.3739 75.7887 70.325 75.8064C70.3027 75.8153 70.2849 75.8198 70.2627 75.8287C70.2137 75.8465 70.1648 75.8643 70.1114 75.8821C70.0936 75.8865 70.0714 75.8954 70.0536 75.8999C70.0002 75.9177 69.9513 75.9355 69.8979 75.9488C69.889 75.9488 69.8801 75.9532 69.8668 75.9577C68.292 76.4426 66.4859 76.5093 64.6264 76.5227C64.4395 76.5227 64.2482 76.5182 64.0525 76.5138C62.1886 76.4826 60.1645 76.3625 58.563 75.3571ZM99.3161 86.2516C99.3028 86.6031 99.2583 86.9634 99.2183 87.2481C99.1916 87.4527 99.1916 87.6618 99.2049 87.8665C98.9647 87.8931 98.72 87.9109 98.511 87.9287C97.7903 87.9866 97.0429 88.0133 96.3223 88.04C95.6772 88.0666 95.0144 88.0889 94.3649 88.1378C92.7011 88.2535 91.0151 88.4047 89.3825 88.5515C88.128 88.6627 86.8335 88.7784 85.5568 88.8807C85.5301 88.8407 85.499 88.8007 85.4723 88.7562C85.3877 88.6272 85.3077 88.4804 85.2365 88.3202C85.2098 88.2624 85.1831 88.2045 85.1564 88.1467C85.1297 88.0889 85.1075 88.0311 85.0897 87.9732C84.934 87.4883 84.8539 86.959 84.845 86.434C84.845 86.1716 84.8539 85.9046 84.8895 85.6466C84.9206 85.3842 84.974 85.1306 85.0452 84.8815C85.1119 84.6413 85.2053 84.4055 85.3166 84.1875C85.6502 83.5291 86.1662 82.9819 86.8157 82.6083C86.9536 82.5326 87.096 82.4615 87.2383 82.3992C88.0257 82.0611 88.9199 81.9321 89.7607 81.901C89.903 81.8965 90.0454 81.8921 90.1833 81.8921C90.6415 81.8921 91.073 81.9188 91.4556 81.9454C91.767 81.9721 92.0828 82.0077 92.4031 82.0522C94.1558 82.288 95.9708 82.7417 97.8125 83.409C97.8348 83.4179 97.8793 83.4357 97.9237 83.4535C97.9682 83.4713 98.0172 83.4935 98.0394 83.5024C98.0705 83.5202 98.1061 83.538 98.1373 83.5558C98.2618 83.6225 98.3819 83.6937 98.4754 83.7738H98.4798C99.0448 84.2275 99.3295 85.006 99.3161 86.0915C99.3161 86.1449 99.3161 86.1938 99.3161 86.2472V86.2516ZM103.952 82.0077L103.938 82.0522C103.916 82.1278 103.898 82.2079 103.876 82.2835C103.564 83.449 103.231 84.6413 102.728 85.7045C102.466 86.2605 102.15 86.7009 101.798 87.0079C101.687 87.1058 101.558 87.1903 101.425 87.2704C101.434 87.2081 101.438 87.1413 101.443 87.0791C101.554 85.8869 101.451 84.8815 101.136 84.0051C100.704 82.8618 99.9167 82.0478 98.7912 81.5807C98.6311 81.5139 98.462 81.4517 98.2885 81.4027C96.0998 80.7087 90.6103 79.263 86.8913 80.8066C85.2632 81.4917 84.0888 82.893 83.7418 84.5567C83.4704 85.8424 83.5861 87.1591 84.0754 88.3691V88.378C84.1777 88.5916 84.2889 88.7918 84.4046 88.9786C81.8511 89.161 79.7425 89.2322 77.7896 89.2055C76.8777 89.1921 76.0413 89.0231 75.2006 88.8407C74.6979 88.725 74.3198 88.6183 73.9861 88.4893C73.3989 88.2535 73.0564 88.0044 72.825 87.6396C72.8117 87.6173 72.7939 87.5907 72.7806 87.564C72.527 87.1147 72.4425 86.5764 72.3624 86.0559C72.3535 85.9847 72.3401 85.9135 72.3313 85.8424C72.3046 85.6822 72.2779 85.5043 72.2512 85.3219C72.14 84.5834 72.011 83.7516 71.9309 83.1332C71.9309 83.1199 71.9309 83.111 71.9264 83.0976C71.9264 83.0887 71.9264 83.0843 71.922 83.0754C71.922 83.0709 71.922 83.0665 71.9175 83.0576C71.9175 83.0576 71.9175 83.0576 71.9175 83.0531C71.8864 82.9819 71.8286 82.9286 71.7574 82.9063C71.6195 82.8618 71.4682 82.9375 71.4237 83.0754C71.3526 83.2933 71.2992 83.5158 71.2458 83.796C71.1301 84.4366 71.0723 85.1395 71.0634 85.9358C71.0634 86.3317 71.0634 86.7232 71.1212 87.1236C70.9967 87.0702 70.881 87.0079 70.7743 86.9412C70.7698 86.9412 70.7654 86.9323 70.7609 86.9323C70.7298 86.91 70.6942 86.8833 70.663 86.8611C70.1114 86.4385 69.5465 85.8468 69.1283 85.184C69.1194 85.1706 69.1105 85.1573 69.1016 85.1439C69.1016 85.1439 69.0972 85.1351 69.0927 85.1306C68.6923 84.4589 68.4877 83.796 68.4655 83.2711C68.4655 83.2355 68.4655 83.1999 68.4655 83.1643C68.4655 83.0754 68.4922 82.8529 68.5011 82.7462V82.7373C68.5411 82.3592 68.5856 81.9276 68.6256 81.5362C68.6345 81.4828 68.6434 81.3983 68.6568 81.2604C68.6657 81.1669 68.6745 81.0735 68.6834 81.0112L68.6923 80.9312C68.7057 80.8022 68.6256 80.6865 68.4966 80.6554C68.4343 80.6376 68.372 80.6465 68.3142 80.6732C68.2608 80.6998 68.2163 80.7443 68.1897 80.8066C68.034 81.1847 67.8916 81.6074 67.767 81.9721L67.727 82.0967C67.6647 82.288 67.598 82.4882 67.5402 82.6839C66.3035 81.0735 65.1291 79.6278 63.9635 78.2843C64.0125 78.2843 64.0659 78.2843 64.1192 78.2843C64.2794 78.2843 64.4484 78.2843 64.6308 78.2887C64.8621 78.2887 65.0935 78.2887 65.3248 78.2843C67.4201 78.2532 69.5998 78.0841 71.6284 77.1766C72.6071 76.7317 73.4523 76.0956 74.0795 75.3305C74.5377 74.7833 74.9337 74.1116 75.2895 73.293C76.0102 75.5707 77.5005 77.1277 79.8271 78.0485C82.0469 78.9293 84.7071 79.1206 87.2428 79.2407C89.5916 79.3075 92.0205 79.1695 93.8756 77.7505C94.8409 77.0031 95.4815 75.9666 95.9797 75.0457C96.0331 74.9479 96.0776 74.85 96.1221 74.7477C96.2511 74.4452 96.3445 74.1249 96.4201 73.8179C96.4379 73.8758 96.4602 73.9292 96.478 73.987C97.0963 75.7486 98.1328 77.2122 99.5564 78.3377C100.878 79.3831 102.501 80.0859 104.263 80.384C104.196 80.9356 104.094 81.4828 103.965 82.0077H103.952ZM114.726 69.4717C114.681 70.1434 114.637 70.8107 114.592 71.4736C114.579 71.6915 114.561 71.9095 114.544 72.1319C114.539 72.212 114.53 72.2965 114.526 72.3766C114.495 72.817 114.459 73.2663 114.419 73.7201C114.397 73.9781 114.374 74.2361 114.348 74.4941L114.339 74.5787C114.321 74.7744 114.299 74.979 114.277 75.1837C114.237 75.5262 114.192 75.8643 114.134 76.149C113.614 77.319 113.004 78.0396 112.146 78.4489C112.132 78.4533 112.119 78.4622 112.106 78.4667C111.723 78.6402 111.296 78.7603 110.802 78.827C109.392 79.0227 107.906 78.9427 106.469 78.867C106.283 78.8582 106.096 78.8493 105.904 78.8359C105.7 78.8315 105.5 78.8181 105.304 78.8003C105.17 78.787 105.041 78.7736 104.908 78.7603C104.583 78.7202 104.263 78.6624 103.952 78.5912C102.581 78.2798 101.354 77.6748 100.335 76.8074C99.3072 75.9266 98.5287 74.8055 98.035 73.5021C98.0127 73.4443 97.9905 73.382 97.9682 73.3242C97.8837 73.0839 97.8081 72.8393 97.7413 72.5857C97.6568 72.2698 97.5901 71.9496 97.5412 71.6159C97.5189 71.4869 97.5011 71.3579 97.4878 71.2244C97.4433 70.833 97.4122 70.4326 97.3899 70.0456C97.381 69.921 97.3721 69.7965 97.3632 69.6719C97.2832 68.4085 97.2253 67.0562 97.1986 65.6549C97.1853 64.7696 97.1808 63.9021 97.1897 63.0836C97.5634 63.3105 97.9593 63.4929 98.3686 63.6263C98.8268 63.7776 99.3161 63.871 99.8188 63.9066L100.281 63.9422C103.387 64.169 108.587 64.5516 111.572 64.7874C111.723 64.8007 111.874 64.8052 112.03 64.8096C113.098 64.8096 114.17 64.5116 115.117 63.9377C114.971 65.775 114.85 67.6523 114.73 69.4673L114.726 69.4717ZM128.378 71.1355C128.143 72.2254 127.849 73.4754 127.32 74.5342C127.115 74.9301 126.893 75.2593 126.639 75.5262C126.555 75.6152 126.466 75.6952 126.377 75.7709C126.172 75.9399 125.927 76.0956 125.692 76.2469H125.683C123.81 77.4658 121.795 78.0441 119.855 77.924C119.223 77.8928 118.636 77.8127 118.12 77.6882C117.364 77.4969 116.305 77.0921 115.531 76.2469C115.629 75.7264 115.687 75.2059 115.74 74.6899C115.749 74.6187 115.754 74.5431 115.762 74.4719C115.789 74.1961 115.82 73.9069 115.851 73.6222C115.954 72.599 116.074 71.4558 116.198 70.2413C116.403 68.2573 116.617 66.202 116.777 64.5294C116.848 63.7731 116.923 62.9768 116.995 62.1672C117.039 62.1049 117.079 62.0426 117.119 61.9804C117.146 62.0337 117.173 62.0871 117.199 62.1405C118.031 63.7197 119.682 64.8096 121.465 64.9387C121.523 64.9387 121.586 64.9475 121.643 64.9475C121.692 64.9475 121.844 64.9564 121.99 64.9698C122.173 64.9831 122.36 64.992 122.422 64.9965C124.495 65.1166 126.982 65.2812 129.277 65.4502C128.983 67.6211 128.69 69.4851 128.374 71.1399L128.378 71.1355ZM135.131 58.8041C135.122 59.5381 135.109 60.4501 135.105 60.5479C135.096 60.8549 135.065 61.1218 135.007 61.3576C134.824 62.1628 134.344 62.8879 133.65 63.3994C132.96 63.911 132.124 64.1691 131.292 64.1246C129.357 64.0356 125.643 63.8532 122.515 63.6486C122.444 63.6441 122.28 63.6352 122.115 63.6219C121.924 63.6085 121.728 63.5996 121.652 63.5907C119.726 63.4795 118.125 61.8247 118.089 59.8984C118.089 59.854 118.089 59.8095 118.089 59.7605C118.089 59.6182 118.102 59.4714 118.111 59.3424C118.262 57.2204 118.449 54.7159 118.609 52.6073C118.645 52.1224 118.681 51.6553 118.716 51.2193C118.716 51.1882 118.721 51.1615 118.725 51.1304C118.765 50.6677 118.81 50.0849 118.863 49.4355C118.921 48.7415 118.983 47.9585 119.05 47.1756C119.174 45.6809 119.299 44.1773 119.379 43.2698C119.45 42.5135 119.793 41.7884 120.313 41.2323C120.46 41.0722 120.625 40.9298 120.803 40.8008C120.86 40.7563 120.923 40.7163 120.981 40.6807C121.074 40.6229 121.167 40.5695 121.265 40.5206C121.741 40.2759 122.271 40.1513 122.809 40.1513C122.902 40.1513 122.996 40.1513 123.089 40.1647C123.85 40.2225 125.1 40.3248 126.203 40.4138C126.341 40.4227 126.475 40.4361 126.604 40.4449C126.692 40.4538 126.777 40.4583 126.862 40.4672C126.946 40.4761 127.031 40.4805 127.115 40.4894C127.484 40.5206 127.822 40.5473 128.094 40.5695C128.681 40.6184 129.473 40.6852 130.269 40.7475C130.452 40.7608 130.638 40.7786 130.821 40.7919L132.636 40.9432C132.751 40.9521 132.88 40.9699 132.987 40.9877C133.121 41.0099 133.254 41.0411 133.383 41.0811C134.633 41.4637 135.59 42.6692 135.625 43.986C135.625 44.0171 135.625 44.0483 135.625 44.075C135.625 44.1194 135.625 44.1595 135.625 44.2084V44.3196C135.594 44.7333 135.572 45.1471 135.55 45.5608C135.51 46.2503 135.474 46.9354 135.438 47.6071C135.327 49.8047 135.243 52.198 135.189 54.8716C135.171 55.7613 135.158 56.6821 135.145 57.6386C135.145 57.7409 135.136 58.2302 135.127 58.7997L135.131 58.8041Z" fill="#1E1E1C"/>
<path d="M119.575 75.7265C119.433 75.7443 119.312 75.8422 119.272 75.9801C119.272 75.9934 119.268 76.0023 119.263 76.0157C119.263 76.0379 119.259 76.0601 119.259 76.0824C119.259 76.1402 119.277 76.1981 119.304 76.247C119.339 76.3093 119.388 76.3582 119.45 76.3893C119.473 76.3982 119.495 76.4071 119.517 76.416C119.602 76.4383 119.677 76.4561 119.753 76.4694L119.797 76.4783C120.167 76.545 120.562 76.5762 121.007 76.5762C121.216 76.5762 121.43 76.5673 121.657 76.5539C122.444 76.4961 123.103 76.3849 123.734 76.2158C123.748 76.2158 123.765 76.2069 123.783 76.2025C123.886 76.1758 124.006 76.1313 124.112 76.0913C124.166 76.069 124.219 76.0512 124.268 76.0335H124.277C124.446 75.9623 124.624 75.8778 124.784 75.7932H124.793C124.82 75.771 124.86 75.7487 124.904 75.7221C124.993 75.6687 125.1 75.6108 125.153 75.5753H125.158C125.198 75.5441 125.238 75.5174 125.278 75.4863C125.349 75.4373 125.429 75.384 125.496 75.3306C126.234 74.7478 126.746 74.0894 127.013 73.3732C127.062 73.2398 127.013 73.093 126.893 73.0129C126.768 72.9328 126.617 72.9462 126.51 73.044C126.323 73.222 126.136 73.3866 125.963 73.5289C125.665 73.7736 125.336 74.0049 125.015 74.2007C124.62 74.4409 124.21 74.6322 123.801 74.779L123.481 74.8857C123.427 74.8991 123.338 74.9213 123.263 74.9436C123.249 74.9436 123.232 74.9525 123.218 74.9569C123.196 74.9614 123.178 74.9703 123.16 74.9747C123.16 74.9747 123.16 74.9747 123.156 74.9747C123.005 75.0147 122.84 75.0503 122.676 75.0859C122.595 75.1037 122.52 75.1215 122.444 75.1393C121.528 75.3484 120.745 75.5085 120.046 75.6375L119.57 75.7176L119.575 75.7265Z" fill="#1E1E1C"/>
<path d="M101.785 74.3292C102.39 74.9742 103.204 75.4547 104.138 75.7083C104.547 75.8106 104.956 75.8595 105.357 75.8595C106.042 75.8595 106.691 75.7127 107.256 75.428L107.554 75.2767L107.243 75.1522C106.522 74.8675 105.802 74.694 105.108 74.5249C104.694 74.4226 104.262 74.3203 103.835 74.1957C103.337 74.0623 102.879 73.9555 102.434 73.8755C102.212 73.8354 101.949 73.7909 101.669 73.7642L101.371 73.7375L101.527 73.9956C101.593 74.1023 101.673 74.2046 101.785 74.3337V74.3292Z" fill="#1E1E1C"/>
<path d="M107.661 76.7489C107.484 76.7311 107.301 76.7133 107.114 76.6955C106.999 76.6822 106.883 76.6688 106.767 76.6555C106.75 76.6555 106.736 76.6555 106.718 76.651C105.059 76.4419 103.324 76.0816 102.016 75.659C101.416 75.4722 100.913 75.2942 100.446 75.0985L99.752 74.8093L100.281 75.3432C101.496 76.571 103.244 77.2516 104.494 77.6075C105.255 77.8254 106.122 77.9856 107.074 78.079C107.492 78.1146 107.902 78.1324 108.293 78.1324C108.947 78.1324 109.565 78.0835 110.144 77.99C111.447 77.7587 112.444 77.3583 113.106 76.7934C113.2 76.7133 113.289 76.6288 113.369 76.5443L113.858 76.0193L113.2 76.304C111.683 76.958 109.352 76.9135 107.661 76.7578V76.7489Z" fill="#1E1E1C"/>
<path d="M81.7398 75.0675C83.0477 75.668 84.618 75.9839 86.1572 75.9839C86.8556 75.9839 87.5452 75.9171 88.2035 75.7881C88.297 75.7703 88.3904 75.7481 88.4838 75.7258C88.5327 75.7125 88.5861 75.6992 88.6395 75.6858C88.6617 75.6814 88.684 75.6725 88.7062 75.668C88.7196 75.668 88.7285 75.6636 88.7418 75.6591C89.3913 75.4812 89.8984 75.2632 90.2988 75.0319C90.6992 74.8005 91.0818 74.5114 91.3798 74.1422C91.3843 74.1377 91.3887 74.1288 91.3931 74.1244C91.402 74.111 91.4154 74.0977 91.4243 74.0843C91.4465 74.0576 91.4688 74.0265 91.4866 73.9998L91.8424 73.4927L91.2908 73.7818C89.111 74.9251 85.2719 74.6448 83.1322 74.369C83.11 74.369 83.0877 74.3646 83.0655 74.3601C82.8742 74.3334 82.6918 74.3023 82.5138 74.2756C82.5005 74.2756 82.4827 74.2712 82.4649 74.2667C82.4427 74.2667 82.4204 74.2578 82.3982 74.2534C82.3581 74.2445 82.3181 74.24 82.2781 74.2311C82.2781 74.2311 82.2736 74.2311 82.2692 74.2311C81.5263 74.1021 80.8901 73.9509 80.2718 73.7685L79.6846 73.5905L80.125 74.0176C80.641 74.5203 81.2905 74.8539 81.7354 75.063L81.7398 75.0675Z" fill="#1E1E1C"/>
<path d="M67.9269 74.4093H67.9358C68.1049 74.307 68.3006 74.1825 68.4563 74.0357C68.661 73.8444 68.7855 73.6575 68.83 73.4707L68.9368 73.0481L68.5942 73.315C68.2028 73.6131 67.442 73.6887 66.668 73.6887C66.1386 73.6887 65.6092 73.6487 65.1911 73.6131C65.0487 73.6042 64.9153 73.5908 64.8041 73.5864C64.1056 73.5196 63.385 73.4707 62.691 73.4262C61.8547 73.3728 60.9917 73.315 60.1598 73.226L59.6882 73.1771L60.0441 73.4885C60.6491 74.0223 61.4143 74.307 62.1572 74.5339C63.3583 74.8631 64.3681 74.9832 65.2 74.9832C66.5434 74.9832 67.4287 74.6674 67.9269 74.4138V74.4093Z" fill="#1E1E1C"/>
<path d="M56.3699 55.9562V56.1208L56.5345 56.0942L66.7127 55.7071H66.775L69.5731 52.6955L69.3685 47.3305L66.348 44.5413L59.8931 44.7859L59.7597 41.3027L69.1194 40.9468L68.9726 37.1611L55.667 37.6683L56.3654 55.9562V55.9651L56.3699 55.9562ZM64.4751 48.3982L65.3114 49.0432L65.396 51.2853L64.613 51.9926L60.3469 52.1527L60.209 48.5583L64.4751 48.3982Z" fill="#1E1E1C"/>
<path d="M82.9585 57.6555L82.9229 52.6509L88.021 52.6153L88.0566 57.6199L92.167 57.5932L92.0736 43.9451V43.8828L87.3314 39.2208L87.2869 39.1763L83.4745 39.203L78.7546 43.9762L78.8481 57.6867L82.9585 57.66V57.6555ZM85.4052 43.0821L87.972 45.6089L87.9943 48.5138L82.8962 48.5494L82.874 45.6445L85.4052 43.0821Z" fill="#1E1E1C"/>
<path d="M103.747 58.9418L107.688 59.2131L108.724 44.2971L113.4 44.6219L113.64 41.1342L100.357 40.2134L100.112 43.701L104.787 44.0258L103.747 58.9418Z" fill="#1E1E1C"/>
<path d="M124.059 42.4244H123.997L120.856 45.0713L120.411 50.4229L122.925 53.3456L120.011 55.7834L119.957 55.8278V55.8901L119.57 60.5611L123.672 60.8992L123.974 57.2202L127.934 53.9105L129.339 54.0262L128.734 61.3174L132.836 61.6554L134.357 43.2696L124.05 42.4199L124.059 42.4244ZM129.677 50.0091L125.144 49.6355L124.664 48.9326L124.828 46.9708L125.692 46.3613L129.949 46.7128L129.677 50.0091Z" fill="#1E1E1C"/>
<defs>
<filter id="filter0_d_1003_1662" x="43.7845" y="27.9638" width="92.2225" height="59.6149" filterUnits="userSpaceOnUse" color-interpolation-filters="sRGB">
<feFlood flood-opacity="0" result="BackgroundImageFix"/>
<feColorMatrix in="SourceAlpha" type="matrix" values="0 0 0 0 0 0 0 0 0 0 0 0 0 0 0 0 0 0 127 0" result="hardAlpha"/>
<feOffset dy="4.58629"/>
<feGaussianBlur stdDeviation="4.29965"/>
<feComposite in2="hardAlpha" operator="out"/>
<feColorMatrix type="matrix" values="0 0 0 0 0 0 0 0 0 0 0 0 0 0 0 0 0 0 0.64 0"/>
<feBlend mode="normal" in2="BackgroundImageFix" result="effect1_dropShadow_1003_1662"/>
<feBlend mode="normal" in="SourceGraphic" in2="effect1_dropShadow_1003_1662" result="shape"/>
</filter>
<filter id="filter1_d_1003_1662" x="0.80744" y="2.36444" width="177.508" height="108.732" filterUnits="userSpaceOnUse" color-interpolation-filters="sRGB">
<feFlood flood-opacity="0" result="BackgroundImageFix"/>
<feColorMatrix in="SourceAlpha" type="matrix" values="0 0 0 0 0 0 0 0 0 0 0 0 0 0 0 0 0 0 127 0" result="hardAlpha"/>
<feOffset dy="4.58629"/>
<feGaussianBlur stdDeviation="4.29965"/>
<feComposite in2="hardAlpha" operator="out"/>
<feColorMatrix type="matrix" values="0 0 0 0 0 0 0 0 0 0 0 0 0 0 0 0 0 0 0.64 0"/>
<feBlend mode="normal" in2="BackgroundImageFix" result="effect1_dropShadow_1003_1662"/>
<feBlend mode="normal" in="SourceGraphic" in2="effect1_dropShadow_1003_1662" result="shape"/>
</filter>
</defs>
</svg>
