<svg width="114" height="90" viewBox="0 0 114 90" fill="none" xmlns="http://www.w3.org/2000/svg">
<path d="M15.6061 69.3414C16.5203 74.009 20.263 76.7779 24.5548 75.9575C29.5129 75.0117 33.3116 69.9702 32.4395 65.4987C31.5971 61.1873 27.1281 58.2129 22.8404 59.1062C17.8767 60.1411 14.6859 64.6585 15.6009 69.3417M77.0259 13.3226C74.6627 14.7625 72.2991 16.1971 69.9408 17.6315C66.8605 19.5074 63.798 21.424 60.6775 23.2343C59.6305 23.8398 59.2124 24.5882 59.3337 25.7506C59.4343 26.7262 59.3386 27.7387 59.5525 28.6872C60.0216 30.7646 59.2104 32.0512 57.4592 33.1391C51.0911 37.1058 46.285 42.7141 41.6112 48.4508C40.5404 49.7622 39.4372 51.0545 38.3008 52.3121C35.2548 55.6682 33.9753 59.4491 35.2662 63.9446C36.1954 67.1762 35.6175 70.2401 33.9058 73.0897C30.5635 78.6489 23.9156 81.5142 17.8472 78.2102C16.6474 77.556 15.9821 77.89 15.2812 78.9045C13.666 81.2322 13.022 83.8509 12.7981 86.6135C12.755 87.1587 12.7538 87.7067 12.7211 88.2512C12.6893 88.8114 12.6236 89.4204 11.9457 89.5255C11.2262 89.6329 10.847 89.0953 10.6473 88.5009C10.1296 86.9638 10.178 85.3746 10.3989 83.7916C10.7881 80.999 11.8036 78.3964 13.0543 75.8956C13.5387 74.9296 13.5279 74.163 13.0547 73.1505C9.97409 66.5719 14.3242 57.7948 21.4306 56.1516C22.7601 55.8437 24.1151 55.5239 25.4691 55.4703C28.8852 55.3347 31.6803 53.8711 34.131 51.6489C38.0135 48.1319 41.2016 44.0373 43.6615 39.4191C45.071 36.7688 45.5996 33.8537 45.3976 30.8431C45.3308 29.8187 45.52 29.0828 46.5467 28.5828C56.5359 23.749 66.2968 18.4633 76.0871 13.2385C76.3153 13.1164 76.572 13.0397 76.812 12.943C76.8865 13.0641 76.961 13.1853 77.0303 13.3067" fill="#D7A461"/>
<path d="M14.9641 24.7244C20.6617 23.5605 23.1868 18.61 21.0081 13.8188C18.9417 9.2668 13.3298 7.24251 8.46823 9.27895C5.55533 10.4985 4.00383 12.7496 3.713 15.8134C3.42738 18.8769 4.56855 21.4079 7.14877 23.1553C9.69634 24.8783 12.5515 25.0763 14.9641 24.7244ZM9.68433 5.67373C16.1338 4.42154 22.113 7.7147 24.7536 13.9782C25.1793 14.9829 25.5901 15.9989 26.0361 16.9921C27.0349 19.2126 28.7462 20.6267 31.0199 21.4516C35.9085 23.2286 40.9112 24.6132 45.9408 25.918C46.4703 26.0559 47.0041 26.1779 47.5243 26.3371C47.7737 26.4121 48.0766 26.5103 48.0842 26.8387C48.0915 27.1618 47.8004 27.277 47.5624 27.4101C47.2735 27.5669 46.9916 27.7546 46.684 27.855C45.1407 28.3574 44.4956 29.3427 44.8204 30.9792C44.9216 31.4903 45.0417 32.2508 44.5758 32.5113C44.0033 32.8246 43.6546 32.0818 43.2909 31.7313C38.6002 27.193 32.6883 25.5975 26.4874 24.7276C24.7989 24.4865 23.2336 25.157 21.837 26.0479C19.2959 27.6698 16.5267 28.2761 13.5605 28.1469C12.7234 28.1094 11.9913 28.0818 11.6383 29.1606C11.3479 30.0481 10.4621 30.2638 9.58202 30.1087C8.73345 29.957 8.12129 29.3592 8.18016 28.5314C8.26526 27.3264 7.54112 26.9695 6.68087 26.5106C2.77265 24.4344 0.635271 21.1544 0.606038 16.7305C0.575838 12.4788 2.43291 9.14104 6.15947 6.96346C7.25159 6.32413 8.43954 5.90917 9.68433 5.67373Z" fill="#D7A461"/>
<path d="M111.36 43.0299C110.535 43.4876 109.765 43.2429 109.032 43.1997C94.8434 42.3775 80.7366 40.7576 66.6135 39.222C62.5393 38.778 58.4694 38.3181 54.3987 37.8425C53.9469 37.7891 53.2832 37.9613 53.1653 37.3363C53.0765 36.861 53.6614 36.6775 54.0023 36.4239C56.3744 34.6705 58.7804 32.9621 61.1242 31.1685C62.0307 30.4767 62.8757 30.2789 63.9983 30.5721C74.6774 33.3511 85.3649 36.0932 96.058 38.8402C100.61 40.0094 105.162 41.1579 109.715 42.3323C110.26 42.4746 110.887 42.4819 111.365 43.0244" fill="#D7A461"/>
<path d="M101.258 0.425442C101.236 1.17812 100.697 1.33823 100.336 1.60858C87.8018 10.8357 75.2617 20.0578 62.7104 29.2649C62.0783 29.7276 61.4363 30.6762 60.6489 30.3072C59.9311 29.9709 60.4306 28.8997 60.255 28.1735C59.644 25.6029 60.5828 24.0744 62.9715 22.7166C69.4293 19.0529 75.8048 15.2214 81.9877 11.1135C87.8635 7.2104 94.1374 4.0943 100.328 0.784484C100.596 0.639247 100.905 0.559648 101.258 0.430647" fill="#D7A461"/>
</svg>
