<svg width="126" height="94" viewBox="0 0 126 94" fill="none" xmlns="http://www.w3.org/2000/svg">
<path d="M60.3018 39.3475C58.7897 42.2277 57.2766 45.1163 55.7636 48.0048C53.8269 51.7052 51.9291 55.427 49.9227 59.0857C49.3068 60.2045 48.8769 62.3735 47.249 61.5632C45.4573 60.6668 47.1005 59.1004 47.6554 58.0084C50.6713 52.1036 53.7967 46.2534 56.8606 40.3625C57.2531 39.6062 57.9194 38.9148 57.7659 37.725C56.8021 38.1967 56.5596 39.0883 56.1781 39.8206C53.0762 45.6819 50.0133 51.5645 46.9196 57.4267C46.539 58.1507 46.1268 58.8626 45.6468 59.5162C45.2353 60.0764 44.6527 60.3977 43.9679 59.9484C43.3917 59.562 43.4175 58.9746 43.6392 58.4095C43.8821 57.8047 44.1811 57.2148 44.4864 56.6425C47.5978 50.698 50.7337 44.7562 53.8297 38.8015C54.2323 38.0295 54.8433 37.315 54.8359 36.1502C53.7884 36.4859 53.5819 37.4238 53.2023 38.1395C50.0592 44.0719 46.9858 50.046 43.7966 55.9479C43.208 57.0445 42.6911 59.1783 41.0233 58.2117C39.5029 57.3294 41.0755 55.873 41.6085 54.8291C44.7068 48.7819 47.8993 42.7792 51.0365 36.7533C51.428 36.0052 52.0799 35.2954 51.7758 34.2654C50.5423 34.4196 50.4296 35.4778 50.0409 36.2009C46.8484 42.2036 43.7112 48.2295 40.5504 54.2443C40.2441 54.8249 39.9379 55.4056 39.6009 55.9659C39.2437 56.5576 38.7799 57.0696 38.0328 56.7312C37.1589 56.3446 37.2493 55.5537 37.5127 54.8416C37.799 54.0731 38.1723 53.3399 38.5447 52.6149C41.5406 46.8849 44.5528 41.1568 47.5568 35.4277C47.9685 34.6483 48.3721 33.8679 49.0478 32.5872C47.4775 33.0824 47.3109 34.0333 46.9424 34.7249C43.7662 40.7295 40.6127 46.7535 37.4519 52.7683C37.1126 53.4211 36.7569 54.072 36.3335 54.6646C35.9686 55.1795 35.4257 55.3705 34.8447 55.0258C34.3724 54.7441 34.2071 54.236 34.3713 53.7403C34.6581 52.8959 34.9866 52.0479 35.3993 51.2601C38.4622 45.3776 41.5641 39.5163 44.6189 33.6328C45.0013 32.8921 45.6277 32.1878 45.4763 31.1247C44.3866 31.5399 44.2263 32.5084 43.8357 33.2481C40.6926 39.1805 37.5884 45.1343 34.4607 51.0769C34.1214 51.7297 33.7585 52.3714 33.3342 52.9723C32.9784 53.4799 32.4235 53.7032 31.8478 53.3844C31.264 53.0646 31.1592 52.4622 31.3574 51.8861C31.6274 51.1157 31.9691 50.3704 32.3496 49.6464C35.4207 43.7648 38.5144 37.9026 41.5773 32.02C41.9598 31.2793 42.5853 30.5834 42.4756 29.5166C41.386 29.9318 41.2256 30.9002 40.835 31.64C37.725 37.5003 34.662 43.3828 31.5765 49.246C31.2372 49.8988 30.8815 50.5497 30.4572 51.1506C30.0621 51.7127 29.4881 52.1025 28.7948 51.728C28.1014 51.3536 28.0968 50.6699 28.3545 50.0078C28.5974 49.403 28.9036 48.8223 29.2099 48.2417C32.3212 42.2971 35.449 36.3545 38.5613 30.4017C38.9528 29.6536 39.514 28.9419 39.5277 27.8808C38.3674 28.2626 38.2143 29.2403 37.8247 29.9717C34.7558 35.7608 31.7269 41.5629 28.6817 47.3632C28.3754 47.9438 28.0764 48.5338 27.7249 49.0755C27.2728 49.7745 26.7012 50.5779 25.796 50.1033C24.6798 49.5202 25.2114 48.5605 25.6259 47.756C28.9199 41.4444 32.2383 35.1356 35.5323 28.824C35.967 27.9882 36.5866 27.1987 36.5849 25.984C35.3244 26.0845 35.1602 27.0863 34.7907 27.7862C31.6064 33.7899 28.461 39.8148 25.3002 45.8296C24.994 46.4103 24.7041 46.9928 24.367 47.5531C23.9778 48.2086 23.5031 48.8881 22.6444 48.3682C21.8092 47.8595 22.1782 47.092 22.4877 46.4105C22.7622 45.8178 23.0767 45.238 23.3829 44.6574C26.5025 38.7138 29.6383 32.7721 32.719 26.8072C33.1004 26.0749 33.8983 25.3902 33.3647 24.3424C32.2291 24.5077 32.1092 25.5567 31.7195 26.2881C28.5683 32.2196 25.4641 38.1734 22.3446 44.117C22.0383 44.6976 21.7474 45.2885 21.4114 45.8405C21.024 46.4794 20.5863 47.1968 19.7062 46.7926C18.7082 46.3327 18.9834 45.4448 19.2799 44.6606C19.5404 43.9735 19.896 43.3226 20.2354 42.6698C23.2394 36.9407 26.2506 31.2209 29.2393 25.4817C29.6428 24.7013 30.2539 23.9867 30.1974 22.8164C29.1735 23.1632 28.9906 24.1122 28.621 24.8122C25.4449 30.8168 22.2995 36.8417 19.1306 42.8555C18.7912 43.5083 18.4202 44.1491 17.9968 44.7417C17.6933 45.154 17.2257 45.3367 16.7102 45.1428C16.0598 44.8998 15.8776 44.3223 16.0513 43.7433C16.2724 42.9674 16.6077 42.2045 16.9801 41.4796C20.0512 35.5979 23.1377 29.7265 26.216 23.8541C26.6277 23.0746 27.0313 22.2942 27.708 21.0053C26.1684 21.5209 25.9865 22.4615 25.6078 23.1689C22.4647 29.1013 19.3606 35.0551 16.2329 40.9977C15.8935 41.6505 15.5451 42.3107 15.1289 42.9126C14.7237 43.4903 14.1473 43.8293 13.4688 43.3975C12.9051 43.0463 12.8512 42.4329 13.0648 41.8669C13.3502 41.1068 13.7009 40.3541 14.0805 39.6384C17.1176 33.8372 20.171 28.0379 23.2009 22.2274C23.6045 21.447 24.2001 20.7223 24.208 19.5678C23.1408 19.859 22.9651 20.8173 22.5956 21.5173C19.5268 27.3064 16.4978 33.1085 13.4526 38.9088C13.072 39.6327 12.6833 40.3558 12.2331 41.0381C11.8122 41.6816 11.2201 42.2296 10.4201 41.7754C9.5965 41.3102 9.82666 40.5269 10.1381 39.8287C10.4054 39.2267 10.7189 38.6553 11.0251 38.0746C14.1035 32.2022 17.1981 26.3317 20.261 20.4491C20.6435 19.7085 21.2608 19.0116 21.1838 17.9485C20.0716 18.3443 19.9021 19.3201 19.5124 20.0515C16.5519 25.6169 13.6385 31.2045 10.7088 36.7902C10.4025 37.3709 10.1352 37.9729 9.78278 38.523C9.22903 39.3874 8.73153 40.7727 7.4741 40.123C6.09991 39.4092 7.10188 38.2418 7.54949 37.3652C10.795 31.1156 14.0948 24.8974 17.3331 18.6385C17.7146 17.9062 18.5025 17.2372 18.0524 16.1821C16.8213 16.3871 16.6673 17.5165 16.2446 18.32C13.1686 24.0999 10.1387 29.9104 7.09346 35.7106C6.78721 36.2913 6.49633 36.8822 6.15932 37.4425C5.73891 38.1535 5.27782 39.0032 4.2961 38.4018C3.47726 37.8949 3.83276 37.1006 4.17303 36.4394C4.86838 35.0599 5.60266 33.7016 6.22018 32.2794C5.28995 33.6152 4.38325 34.9622 3.43764 36.2879C2.87708 37.0672 2.3073 38.2166 1.19929 37.6345C0.107615 37.0543 0.616836 35.8558 0.93381 34.9643C2.77389 29.7938 4.62935 24.6334 6.54917 19.4889C7.7526 16.2697 9.10735 13.1016 10.3108 9.88243C13.9355 0.243468 19.7519 -2.08568 28.9874 2.36058C42.8797 9.05128 56.2308 16.785 69.8167 24.0563C84.1893 31.755 98.4885 39.5886 112.798 47.4066C115.772 49.0285 118.681 50.7865 121.282 52.9983C126.295 57.2654 127.153 61.4793 123.941 67.2942C118.986 76.2667 112.627 84.2774 106.73 92.5939C106.227 93.3039 105.563 94.1978 104.555 93.6103C103.67 93.096 104.069 92.1379 104.305 91.3805C104.701 90.1606 105.185 88.9677 105.426 87.6542C104.822 88.8082 104.235 89.964 103.6 91.1059C103.392 91.4785 102.985 91.7103 102.571 91.5702C102.005 91.3874 101.918 90.8461 102.082 90.3504C102.344 89.5791 102.655 88.8134 103.034 88.0977C106.023 82.3585 109.042 76.6396 112.031 70.9004C112.39 70.2161 112.966 69.5904 112.901 68.2082C109.431 74.8286 106.173 81.0431 102.898 87.2641C102.476 88.0592 102.054 88.8544 101.556 89.5987C101.246 90.0609 100.822 90.586 100.166 90.2495C99.4944 89.9028 99.683 89.2665 99.9163 88.745C100.276 87.9173 100.706 87.1231 101.127 86.3279C104.503 79.8822 107.885 73.4458 111.544 66.4759C110.11 67.0795 109.925 67.9776 109.566 68.6618C106.389 74.6664 103.244 80.6914 100.083 86.7061C99.777 87.2868 99.4707 87.8675 99.1255 88.4269C98.8609 88.8605 98.4992 89.2746 97.9578 89.0187C97.4163 88.7628 97.4609 88.2281 97.6649 87.7454C97.9241 87.1425 98.214 86.5599 98.5203 85.9793C101.64 80.0357 104.76 74.0838 107.88 68.1402C108.293 67.3524 108.704 66.573 109.413 65.2202C107.971 65.8987 107.76 66.8024 107.39 67.5023C104.255 73.4357 101.143 79.3885 98.0235 85.3321C97.7173 85.9128 97.411 86.4934 97.0822 87.0547C96.7854 87.5521 96.3975 88.1234 95.76 87.8397C94.9567 87.4864 95.2085 86.7308 95.4504 86.1344C95.7852 85.3039 96.1997 84.4995 96.6133 83.7034C99.9145 77.401 103.224 71.0996 106.599 64.654C105.581 64.875 105.539 65.6798 105.254 66.2207C102.103 72.1522 98.9985 78.106 95.8789 84.0496C95.5727 84.6302 95.2818 85.2211 94.9294 85.7712C94.5862 86.3139 94.1921 87.011 93.4244 86.6365C92.6412 86.2518 92.9564 85.5203 93.2074 84.9165C93.4584 84.3126 93.7728 83.7329 94.0781 83.1605C97.1565 77.2882 100.243 71.4167 103.321 65.5443C103.714 64.788 104.114 64.0325 104.507 63.2762C103.321 63.5201 103.087 64.4126 102.696 65.1524C99.4035 71.3798 96.1507 77.6202 92.85 83.8467C92.4924 84.5142 92.1936 85.7536 91.2509 85.3169C90.0502 84.7495 91.0015 83.7366 91.3638 83.0274C94.6011 76.7767 97.8937 70.5493 101.147 64.3006C101.538 63.5609 102.123 62.8602 102.122 61.7806C101.07 62.3013 100.895 63.2512 100.505 63.991C97.3202 69.9946 94.1749 76.0196 91.0141 82.0343C90.7078 82.615 90.3862 83.1855 90.0266 83.7263C89.796 84.0795 89.427 84.3409 89.0003 84.1657C88.4243 83.9227 88.4588 83.4037 88.6619 82.9293C88.9872 82.1822 89.3605 81.4489 89.7411 80.7249C93.1908 74.1359 96.6487 67.5479 100.393 60.4106C98.9705 61.0577 98.7607 61.953 98.3921 62.6446C95.2572 68.578 92.1448 74.5308 89.0253 80.4744C88.719 81.0551 88.4282 81.646 88.0686 82.1868C87.7171 82.7286 87.2952 83.3803 86.5297 82.9133C85.919 82.5398 86.1257 81.8888 86.3509 81.3663C86.669 80.6099 87.0577 79.8868 87.4382 79.1628C90.8127 72.7255 94.1872 66.2881 97.1418 59.6172C96.0203 61.7578 94.8998 63.89 93.7783 66.0305C91.4198 70.5261 89.0686 75.031 86.6957 79.5081C86.3161 80.2237 85.8197 80.8754 85.3171 81.5096C85.0375 81.8571 84.567 81.9214 84.2382 81.614C84.044 81.4315 83.9129 80.9864 83.9995 80.7348C84.2192 80.0431 84.5287 79.3615 84.8671 78.7171C88.0125 72.6921 91.1886 66.6876 94.3187 60.6524C94.7112 59.896 95.3674 59.2204 95.2384 58.0334C94.3511 58.6319 94.1095 59.5152 93.7189 60.2549C90.4263 66.4823 87.1817 72.7237 83.8738 78.9409C83.5052 79.6325 83.2219 81.0255 82.0854 80.3305C81.196 79.7902 82.0416 78.8327 82.391 78.1641C85.6365 71.9145 88.9209 65.6861 92.1746 59.4374C92.5571 58.6968 93.1489 58.0053 92.6992 56.8744C92.15 57.9164 91.5998 58.9668 91.0505 60.0089C88.0796 65.6658 85.1168 71.3237 82.1467 76.9723C81.8074 77.6251 81.4364 78.2659 81.0356 78.8779C80.8049 79.2311 80.4143 79.4647 79.9939 79.307C79.4386 79.1002 79.3516 78.5589 79.5311 78.0734C79.8342 77.2309 80.1945 76.3949 80.6071 75.6071C83.9754 69.1522 87.3672 62.7084 90.8462 56.0806C89.8264 56.3182 89.7768 57.1138 89.4926 57.6464C86.4238 63.4355 83.3867 69.2367 80.3415 75.037C80.0764 75.5464 79.8494 76.0856 79.5238 76.546C79.0399 77.2328 78.6927 78.5342 77.6462 77.9928C76.5372 77.419 77.3914 76.3865 77.7729 75.6542C80.6709 70.0564 83.6089 64.4716 86.5377 58.8942C87.2685 57.4934 88.0066 56.1018 89.0227 54.16C87.48 54.9199 87.3134 55.8707 86.9146 56.6095C83.623 62.8286 80.3693 69.0773 77.0767 75.3047C76.7273 75.9732 76.404 77.2098 75.4651 76.7398C74.2918 76.1503 75.2666 75.1484 75.6289 74.4392C78.825 68.2598 82.0764 62.1036 85.3042 55.9362C85.7169 55.1484 86.1295 54.3606 86.8063 53.0717C85.4008 53.6448 85.2226 54.5521 84.855 55.2354C81.6376 61.3112 78.451 67.4074 75.2408 73.4924C74.9025 74.1369 74.5151 74.7757 74.0691 75.3489C73.9046 75.5578 73.4754 75.6943 73.218 75.6311C72.7909 75.5317 72.5681 75.0929 72.7084 74.662C72.9879 73.8084 73.2838 72.9566 73.6974 72.1605C76.7522 66.277 79.855 60.4074 82.9098 54.5239C83.2692 53.8397 83.8444 53.2223 83.7863 51.8493C80.2009 58.6843 76.8571 65.142 73.413 71.5376C72.8143 72.6499 72.3524 75.0261 70.9676 74.2606C69.3503 73.3588 71.171 71.6861 71.758 70.5303C74.676 64.7577 77.7344 59.0601 80.723 53.3209C81.1165 52.5562 81.7574 51.8704 81.6639 50.6621C80.7684 51.2597 80.5268 52.143 80.1453 52.8753C76.8527 59.1027 73.6082 65.3441 70.3002 71.5613C69.9316 72.2529 69.6637 73.6561 68.5191 72.9601C67.6368 72.4291 68.4416 71.4669 68.8011 70.7827C72.0548 64.5339 75.331 58.3046 78.6001 52.0661C78.9917 51.3181 79.3842 50.5617 79.7839 49.8146C78.6052 50.0678 78.3627 50.9594 77.9639 51.6982C74.7877 57.7028 71.6424 63.7277 68.4816 69.7425C68.1753 70.3232 67.8619 70.8946 67.4941 71.4345C67.2059 71.857 66.7904 72.1637 66.2776 71.8015C65.8797 71.5198 65.9474 71.0721 66.1064 70.6939C66.3987 70.0188 66.7226 69.3559 67.0701 68.704C70.561 62.0438 74.052 55.3837 77.5511 48.7244C77.3911 48.6049 77.2311 48.4854 77.0792 48.3668C76.6727 49.0288 76.2272 49.6695 75.8668 50.362C72.7391 56.3047 69.6195 62.2482 66.5 68.1918C66.1607 68.8446 65.8204 69.5058 65.4042 70.1076C65.0849 70.5856 64.6412 71.0662 64.0078 70.6733C63.3817 70.2896 63.5866 69.6552 63.8036 69.1318C64.1216 68.3754 64.5103 67.6523 64.8909 66.9283C68.2654 60.491 71.6399 54.0537 74.5954 47.3744C73.484 49.4993 72.3644 51.6232 71.253 53.748C68.9357 58.1724 66.6185 62.5968 64.2859 67.011C63.9466 67.6638 63.5683 68.2953 63.1368 68.8869C62.7929 69.3621 62.3132 69.7964 61.7081 69.373C61.2405 69.0496 61.3451 68.4965 61.5554 68.0314C61.8228 67.4294 62.1127 66.8469 62.419 66.2662C65.5385 60.3226 68.6662 54.38 71.7622 48.4253C72.1638 47.6615 72.7975 46.9665 72.7213 45.7517C71.8177 46.3484 71.5689 47.2224 71.1802 47.9455C68.1607 53.6644 65.1567 59.3934 62.1527 65.1225C61.8876 65.632 61.6687 66.172 61.3422 66.6407C60.8776 67.3045 60.6749 68.7151 59.5535 68.1062C58.6194 67.5945 59.5203 66.6602 59.8081 65.9509C60.0261 65.4191 60.33 64.931 60.595 64.4215C63.5991 58.6924 66.6031 52.9634 69.6153 47.2353C70.016 46.4798 70.4095 45.7151 70.8101 44.9597C69.6127 45.1602 69.3783 46.0527 68.9877 46.7924C65.8528 52.7258 62.7404 58.6786 59.6209 64.6222C59.2816 65.275 58.9187 65.9167 58.5097 66.5278C58.2307 66.9429 57.8349 67.294 57.2953 67.0215C56.7403 66.7388 56.8031 66.1893 56.9789 65.7371C57.3065 64.8974 57.6812 64.08 58.0948 63.2839C61.4621 56.8373 64.8447 50.4008 67.8718 43.7467C67.5008 44.3874 67.0981 45.0161 66.7506 45.668C63.6641 51.5394 60.5858 57.4118 57.4993 63.2832C57.1188 64.0072 56.6758 64.6988 56.2039 65.3533C55.9095 65.7582 55.4603 66.0695 54.962 65.7258C54.479 65.3923 54.5644 64.8622 54.7584 64.3953C55.0094 63.7914 55.3075 63.2098 55.6137 62.6291C58.7251 56.6846 61.861 50.7429 64.957 44.7882C65.3605 44.0078 65.9625 43.3007 65.9698 42.0786C65.022 42.6281 64.7885 43.5123 64.4089 44.2279C61.1988 50.313 58.0122 56.4091 54.8102 62.4951C54.4718 63.1396 54.0845 63.7784 53.6312 64.3423C53.4859 64.5281 52.988 64.6146 52.7862 64.4987C52.5844 64.3829 52.3981 63.9146 52.4655 63.6861C52.6862 62.986 52.9866 62.3119 53.3249 61.6674C56.4703 55.6425 59.6311 49.6277 62.7919 43.613C63.1944 42.8409 63.6052 42.0697 64.0078 41.2977C62.8675 41.5047 62.6114 42.3694 62.2309 43.0934C59.096 49.0268 55.9836 54.9796 52.8641 60.9232C52.5248 61.576 52.1691 62.2269 51.7457 62.8195C51.3899 63.327 50.8658 63.5707 50.2618 63.2824C49.6588 62.9858 49.5113 62.3954 49.7013 61.8183C49.955 61.0461 50.2976 60.2924 50.6772 59.5768C53.7483 53.6951 56.842 47.8329 59.8968 41.9494C60.2893 41.1931 60.9628 40.511 60.3229 39.3077" fill="#294680"/>
</svg>
