<svg width="134" height="83" viewBox="0 0 134 83" fill="none" xmlns="http://www.w3.org/2000/svg">
<path d="M105.554 57.8307C106.367 53.3875 107.153 48.9349 107.947 44.4879C107.947 44.4879 107.947 44.4879 107.941 44.4888C108.752 39.981 109.582 35.4706 110.36 30.9543C110.889 27.8922 109.49 24.9752 106.76 23.5196C105.545 22.8757 104.263 22.312 102.952 21.921C94.2081 19.3084 85.2495 17.7236 76.1856 16.8148C60.5241 15.2416 44.7778 14.8415 29.1142 13.2037C24.4412 12.7128 21.1778 15.4166 20.3276 20.0723C19.3224 25.5664 18.3444 31.0698 17.3656 36.5668C16.4106 41.9503 18.8058 45.6765 24.113 46.8882C33.4764 49.0294 42.6141 51.9664 51.8001 54.7282C63.3447 58.1966 74.9342 61.4643 86.9013 63.1244C90.9276 63.6815 94.9725 64.3789 99.0724 63.8748C102.637 63.4417 104.913 61.3229 105.553 57.8243L105.554 57.8307ZM34.9256 26.2581C34.3019 29.5858 33.7047 32.9165 33.1346 36.2566C32.9042 37.6046 32.0442 37.5303 31.0294 37.3661C29.9284 37.1874 29.2974 36.7843 29.5634 35.5094C29.9088 33.8541 30.1734 32.177 30.4725 30.5149C30.76 28.9126 31.093 27.3109 31.3206 25.6971C31.5114 24.3933 32.2551 24.2753 33.3412 24.4884C34.3538 24.6853 35.1759 24.9139 34.9256 26.2581ZM95.9173 35.937C95.6064 38.0486 95.1756 40.1371 94.7983 42.238C94.7983 42.238 94.7983 42.238 94.8047 42.2371C94.4727 44.0918 94.1535 45.9449 93.8079 47.7949C92.8951 52.6147 89.2717 55.1975 84.5047 54.1933C79.0495 53.0402 73.6272 51.6945 68.2053 50.4006C62.6562 49.0782 57.1157 47.7222 51.5752 46.3662C49.8116 45.9378 48.0266 45.5446 46.2941 45.0082C42.8771 43.9551 40.5369 40.5462 40.7109 36.5187C40.841 33.5809 41.3223 30.6484 42.4225 27.8807C43.8252 24.3589 47.3964 22.2634 51.1617 22.7123C62.4259 24.0631 73.6917 25.4266 84.9503 26.7846C86.6317 26.9838 88.3362 27.0631 89.9834 27.3966C93.9444 28.1959 96.508 31.9193 95.9101 35.9315L95.9173 35.937Z" fill="#D7A461"/>
<path d="M115.87 30.4127C116.807 24.7004 117.711 26.1319 111.852 25.0193C110.681 24.798 110.106 25.0169 110.763 26.3512C111.507 27.8557 111.64 29.4477 111.336 31.117C109.687 40.1815 108.071 49.2482 106.45 58.322C106.293 59.1931 105.951 59.9913 105.63 60.806C105.193 61.9153 103.402 62.6523 103.897 63.6447C104.384 64.6251 106.164 64.3439 107.345 64.7391C109.348 65.402 109.641 65.1684 110.041 62.9931C111.102 57.1348 112.143 51.2726 113.197 45.415C114.093 40.4158 115.042 35.429 115.871 30.419L115.87 30.4127Z" fill="#D7A461"/>
<path d="M15.2779 33.741C14.5814 33.3335 14.0577 32.663 13.6868 31.9203C13.52 31.5919 13.2299 31.215 13.4772 30.8772C13.8297 30.4021 14.2618 30.7733 14.6524 30.9292C16.3561 31.6078 17.3744 31.0143 17.7071 29.1487C17.7523 28.9026 17.7976 28.6564 17.8673 28.2513C17.9098 27.2981 18.7046 26.096 18.1021 25.1244C17.5642 24.2481 16.3714 24.9447 15.4739 24.8819C15.1593 24.8586 14.7924 24.8813 14.652 24.5559C14.4954 24.2067 14.8025 23.9778 15.0357 23.7782C15.9041 23.0336 16.8884 22.5268 17.992 22.1859C18.9332 21.8925 19.8551 19.739 19.4381 18.6974C18.9235 17.4091 17.8141 18.0493 17.015 18.2395C14.1509 18.9109 11.8562 20.4999 10.2855 22.9989C9.64731 24.0116 8.93024 24.2818 7.78117 24.0835C6.49309 23.8647 5.16835 23.7611 3.85881 23.7723C2.75038 23.7828 1.95943 24.4262 1.78836 25.5847C1.63096 26.6504 2.15838 27.3983 3.11208 27.8367C4.19795 28.3419 5.33409 28.7366 6.52704 28.8252C7.99549 28.9357 8.68282 29.617 8.98978 31.1016C9.63035 34.2229 11.5106 36.5115 14.2801 38.0658C14.9532 38.4439 15.7692 38.8226 16.1018 37.7077C16.5167 36.2833 17.0844 34.7868 15.2843 33.7401L15.2779 33.741Z" fill="#D7A461"/>
<path d="M76.074 15.9729C78.1877 16.2511 80.3044 16.5029 82.413 16.8402C84.9994 17.257 87.5767 17.7529 90.1563 18.216C90.2006 18.0608 90.245 17.9057 90.2893 17.7505C90.1742 17.6165 90.0898 17.42 89.9504 17.3476C86.0889 15.5356 82.2154 13.7316 78.3492 11.9332C77.6509 11.6103 76.9215 11.4927 76.1488 11.5886C74.7575 11.7663 73.9868 12.5629 73.8955 13.9314C73.7964 15.4373 74.8573 15.803 76.0732 15.9665L76.074 15.9729Z" fill="#D7A461"/>
<path d="M89.0198 28.2057C87.1684 27.8993 85.2817 27.7662 83.4149 27.5397C72.6988 26.2591 61.9864 24.9586 51.2681 23.7107C47.2336 23.2391 43.6812 25.8189 42.7551 29.8032C42.4466 31.1486 42.2451 32.5188 42.0037 33.8812C40.8852 40.1367 43.1887 43.5634 49.3806 44.937C52.9913 45.7373 56.596 46.5904 60.2007 47.4434C68.4414 49.3894 76.6684 51.428 84.9282 53.2741C88.6869 54.1132 91.9627 51.7972 92.773 48.0164C93.1943 46.0525 93.4958 44.0655 93.85 42.0845C93.85 42.0845 93.85 42.0845 93.8564 42.0837C94.1999 40.169 94.5697 38.2573 94.8797 36.3341C95.5598 32.1098 93.273 28.908 89.0198 28.2057Z" fill="#D7A461"/>
<path d="M128.175 27.5692C125.429 27.0762 122.666 26.6439 119.942 26.0701C118.253 25.7162 117.575 26.2862 117.298 27.9649C116.459 33.0994 115.488 38.2125 114.569 43.3316C113.375 49.993 112.214 56.6629 110.967 63.3183C110.682 64.8487 110.99 65.6517 112.662 65.9236C114.884 66.2848 117.06 66.8921 119.269 67.346C119.843 67.4647 120.475 67.7833 121.085 67.2417C120.9 66.2343 119.204 66.368 119.452 64.8619L121.726 65.2682L121.861 64.5234L119.614 64.1201C119.683 63.8123 119.747 63.5054 119.816 63.1976L122.03 63.5924L122.165 62.8476L119.978 62.4559C120.041 62.1489 120.117 61.8403 120.18 61.5334L122.333 61.9167L122.468 61.1719L120.328 60.7869C120.391 60.48 120.448 60.174 120.51 59.8607L122.637 60.2409L122.772 59.4961L120.658 59.1142C120.715 58.8081 120.777 58.4948 120.834 58.1887L122.941 58.5651L123.076 57.8204L120.975 57.4431C121.032 57.137 121.088 56.8246 121.145 56.5185L123.246 56.8958L123.381 56.151L121.28 55.7737C121.337 55.4677 121.392 55.1552 121.449 54.8491L123.544 55.2272L123.679 54.4824L121.584 54.1043C121.641 53.7983 121.697 53.4858 121.754 53.1797L123.848 53.5578L123.983 52.8131L121.89 52.4413C121.89 52.4413 121.897 52.4014 121.902 52.3878C121.954 52.0953 122.007 51.8092 122.059 51.5167L124.153 51.8885L124.288 51.1437L122.194 50.772C122.251 50.4659 122.307 50.1534 122.364 49.8474L124.458 50.2191L124.593 49.4743L122.499 49.1026C122.555 48.7901 122.612 48.4841 122.669 48.178L124.762 48.5497L124.897 47.8049L122.804 47.4332C122.86 47.1207 122.916 46.8147 122.966 46.5031L125.06 46.8812L125.195 46.1364L123.101 45.7583C123.157 45.4458 123.214 45.1398 123.263 44.8281L125.358 45.2062L125.493 44.4615L123.392 44.0842C123.448 43.7718 123.498 43.4665 123.554 43.1541L125.655 43.5313L125.79 42.7866L123.689 42.4093C123.746 42.1032 123.802 41.7908 123.859 41.4847L125.953 41.8628L126.088 41.118L123.994 40.7399C124.051 40.4338 124.107 40.1214 124.163 39.8153L126.257 40.187L126.392 39.4423L124.305 39.0697C124.362 38.7636 124.418 38.4512 124.474 38.1451L126.562 38.5177L126.697 37.7729L124.616 37.3995C124.673 37.0934 124.736 36.7865 124.798 36.4732L126.859 36.8427L126.994 36.098L124.947 35.7331C125.01 35.4262 125.066 35.1137 125.129 34.8068L127.164 35.1734L127.299 34.4286L125.278 34.0667C125.341 33.7598 125.397 33.4473 125.46 33.1404L127.467 33.4976L127.602 32.7528L125.568 32.3862C125.592 32.078 125.602 31.7587 125.604 31.4339L127.765 31.8227L127.9 31.0779L125.633 30.6707C125.649 30.3506 125.686 30.0407 125.755 29.7329L128.069 30.1469L128.204 29.4021L126.003 29.0057C126.346 28.3112 126.986 27.7527 128.235 27.4834L128.175 27.5692Z" fill="#D7A461"/>
</svg>
