<svg width="124" height="86" viewBox="0 0 124 86" fill="none" xmlns="http://www.w3.org/2000/svg">
<path d="M47.85 72.2314C47.6556 72.3286 47.5931 72.3634 47.5306 72.3911C44.1212 74.1826 44.1698 74.1618 42.3158 70.8705C40.4688 67.593 38.3926 64.4545 36.0109 61.545C34.7888 60.0521 34.7194 59.2259 36.5595 58.1218C45.2461 52.9071 54.0438 47.8659 62.2721 41.9221C69.5213 36.6865 76.4234 31.0135 83.256 25.2641C84.8531 23.917 85.9224 23.7573 87.45 25.4238C89.9012 28.0833 92.7064 30.3955 95.7131 32.4231C97.1643 33.3952 97.1365 34.166 96.0116 35.4158C88.318 43.9219 79.6453 51.3169 70.3754 58.0315C63.1331 63.281 55.4881 67.8916 47.85 72.2384" fill="#294680"/>
<path d="M6.04885 24.3267C4.77121 21.3826 3.93796 18.3273 3.84075 15.0846C3.79215 13.6125 4.24348 12.939 5.85443 12.8348C24.6927 11.6405 43.5241 10.4045 62.3555 9.113C64.1539 8.98801 64.8067 9.59212 64.8275 11.3142C64.8622 14.2236 65.7302 17.0566 65.5635 19.9938C65.4385 22.1741 64.5358 23.2851 62.2375 23.5282C51.433 24.653 40.5869 25.1669 29.7478 25.7918C23.2276 26.1668 16.7005 26.3681 10.1943 26.8264C8.0417 26.9792 6.83349 26.1668 6.04885 24.3336" fill="#294680"/>
<path d="M42.0379 71.8912C43.3642 74.3839 43.3156 74.6062 40.9269 75.7866C38.455 77.0156 36.0594 78.4183 33.3444 79.1057C28.7337 80.2722 24.637 78.6405 23.033 74.9533C21.297 70.9607 22.7899 66.3153 26.6853 63.8017C28.4699 62.6491 30.3655 61.67 32.1848 60.5729C33.2749 59.9202 34.0179 60.316 34.7401 61.2048C37.5106 64.628 39.8715 68.336 42.0379 71.8912Z" fill="#294680"/>
<path d="M97.4978 13.3487C101.511 11.2864 104.601 12.8001 105.414 16.515C105.976 19.0981 105.254 21.452 104.212 23.7226C102.872 26.632 101.032 29.2429 99.0879 31.7843C98.2755 32.8467 97.5881 32.7703 96.609 32.062C93.3871 29.7289 90.3458 27.1875 87.5197 24.3823C86.8392 23.7018 86.124 23.0005 87.1864 22.0978C90.7971 19.0217 94.4218 15.9526 97.4978 13.3556" fill="#294680"/>
<path d="M89.2831 19.0633C88.4776 19.5841 87.7554 19.2091 87.0402 18.8966C81.02 16.2858 74.7429 14.9804 68.1741 15.4178C66.4729 15.5289 65.8688 14.8207 65.7924 13.2722C65.7161 11.571 65.6119 9.86981 65.4591 8.17555C65.3341 6.81458 65.7716 6.26602 67.2437 6.37017C76.0969 6.98122 84.3808 9.41153 92.13 13.7444C93.7826 14.6679 93.8104 15.3762 92.3591 16.4594C91.2828 17.2649 90.2968 18.1884 89.2692 19.0633" fill="#294680"/>
<path d="M64.3065 6.51602C64.8065 8.05753 63.8205 8.18946 62.8622 8.25889C59.3973 8.50192 55.9255 8.70329 52.4536 8.93244C37.3718 9.93233 22.297 10.9322 7.21524 11.9321C6.86111 11.953 6.50004 12.0293 6.15285 11.9807C5.41682 11.8835 4.2711 12.5015 4.2225 11.0642C4.18083 9.86984 4.81965 9.30046 6.05563 9.23796C11.8675 8.92549 17.6725 8.57136 23.4774 8.22417C35.5178 7.50897 47.5583 6.77989 59.5987 6.08552C60.8694 6.00913 62.147 6.11329 63.4177 6.18273C63.7371 6.20356 64.0496 6.41881 64.3065 6.51602Z" fill="#294680"/>
<path d="M116.898 23.6045C113.635 25.264 110.149 25.5071 106.58 25.264C105.441 25.1877 104.99 24.8335 105.392 23.5073C105.99 21.5561 106.753 20.3757 109.142 20.5354C111.496 20.6951 113.655 19.4938 115.794 18.5981C117.252 17.987 118.516 17.6815 119.412 19.341C120.203 20.8131 119.641 22.1116 117.843 23.1254C117.537 23.299 117.211 23.4448 116.898 23.6045Z" fill="#294680"/>
</svg>
