<svg width="150" height="69" viewBox="0 0 150 69" fill="none" xmlns="http://www.w3.org/2000/svg">
<path d="M132.062 5.09458C129.154 4.80983 125.167 5.33668 122.35 9.06119C119.08 13.3897 119.812 19.6228 123.884 23.018C128.231 26.6452 136.403 26.5031 139.955 22.6845C142.822 19.6012 143.713 15.9776 142.28 11.991C140.81 7.90301 137.687 5.80132 132.062 5.09458ZM4.87259 18.9697C15.8151 21.1941 26.9616 22.152 37.9542 24.1194C45.3362 25.4415 52.8047 26.29 60.2113 27.4757C61.991 27.764 63.0161 27.3049 63.8317 25.728C64.6689 24.1103 65.7431 22.6154 66.6701 21.0406C67.1876 20.1471 67.8481 19.7071 68.9065 19.8822C81.5984 21.9672 93.9851 19.2912 106.424 17.4629C111.914 16.6506 115.336 13.3951 117.87 8.66804C121.773 1.38926 131.888 -1.41413 139.132 2.57796C144.353 5.45193 147.307 11.3142 146.432 17.0592C145.521 23.0366 140.555 27.9229 134.07 29.1451C129.638 29.9814 125.312 29.4848 121.813 26.5762C115.971 21.7237 109.335 20.9826 102.258 22.1404C96.6623 23.0536 91.0124 23.8425 86.0225 26.9099C83.6429 28.37 81.7 30.2761 79.9928 32.4322C79.2996 33.3111 78.6124 33.5458 77.4806 33.3349C68.301 31.6858 59.1185 29.9811 49.9101 28.5402C35.7247 26.3188 21.6144 23.7119 7.50296 21.0813C5.64067 20.7337 3.76042 20.4984 1.89938 20.1747C1.34579 20.0765 0.54895 20.0388 0.619629 19.2641C0.705364 18.3217 1.56766 18.5467 2.17467 18.6023C3.08455 18.6739 3.98357 18.8414 4.88844 18.9688" fill="#D7A461"/>
<path d="M127.491 38.1459C126.842 38.0527 126.199 37.9194 125.554 37.8818C120.875 37.6342 117.241 39.5812 115.502 43.2492C113.712 47.0232 114.538 51.8524 117.521 55.0822C120.697 58.5085 126.97 59.6025 131.711 57.5418C135.122 56.0594 137.559 52.2038 137.444 48.482C137.251 42.6896 133.686 38.9579 127.491 38.1459ZM141.029 50.4641C139.771 59.0589 130.779 64.339 121.995 61.7471C116.481 60.1204 112.998 56.44 110.821 51.308C110.386 50.2895 110.013 49.244 109.586 48.2171C108.258 45.0119 105.952 42.8754 102.644 41.7929C95.8259 39.551 89.0215 37.2687 82.2105 35.0105C80.1151 34.3096 80.0196 34.0046 81.4622 32.2598C81.7535 31.9027 82.0619 31.5686 82.3782 31.2341C85.7779 27.7017 85.9285 27.6938 89.5841 30.7134C93.4479 33.9129 97.997 35.6298 102.775 36.8658C103.976 37.1765 105.183 37.455 106.383 37.7657C109.469 38.5578 112.32 38.0507 114.995 36.3128C117.955 34.3931 121.273 33.8536 124.734 33.9266C126.015 33.9548 127.32 34.1328 127.84 32.3649C128.089 31.5092 129.087 31.29 130.011 31.4801C131.032 31.6968 131.733 32.3436 131.692 33.3632C131.629 34.8927 132.494 35.4753 133.687 36.1042C139.008 38.9015 141.892 44.6244 141.03 50.4799" fill="#D7A461"/>
<path d="M60.2685 26.2884C51.2127 25.0302 42.141 23.9238 33.122 22.4571C23.0688 20.8219 12.9801 19.4191 2.91597 17.8799C2.03446 17.7433 0.723597 17.9074 0.867032 16.3976C0.999183 14.9758 2.04981 14.3962 3.34521 14.3919C4.91094 14.3893 6.47498 14.506 8.03234 14.647C19.1479 15.6224 30.2576 16.6378 41.3723 17.5973C49.0377 18.2607 56.7169 18.8836 64.394 19.4669C65.8224 19.5749 66.1941 19.9926 65.4091 21.2419C64.5068 22.6802 63.5961 24.1109 62.7268 25.5713C62.135 26.5641 61.3155 26.8535 60.2764 26.288" fill="#D7A461"/>
</svg>
