<svg width="283" height="317" viewBox="0 0 283 317" fill="none" xmlns="http://www.w3.org/2000/svg">
<path fill-rule="evenodd" clip-rule="evenodd" d="M174.01 278.939C236.343 264.203 282.727 208.2 282.727 141.364C282.727 63.2906 219.436 0 141.364 0C63.2906 0 0 63.2906 0 141.364C0 218.641 62.0083 281.437 138.983 282.707L177.786 316.53L174.01 278.939Z" fill="#294680"/>
<path d="M201.733 46.4421H207.346V57.2653H207.508L214.858 46.4421H219.623V67.1192H214.01V56.2557H213.889L206.418 67.1192H201.733V46.4421Z" fill="white"/>
<path d="M193.179 67.1192L186.838 58.7595H186.051V67.1192H180.437V46.4421H186.051V54.2364H186.778L192.714 46.4421H199.782L191.907 56.3768L200.226 67.1192H193.179Z" fill="white"/>
<path d="M165.101 46.4421V67.1192H159.69V46.4421H165.101ZM146.524 67.1192L152.865 56.1345L146.605 46.4421H153.551L157.711 54.5191H167.242L171.199 46.4421H178.105L172.128 56.0537L178.267 67.1192H171.482L167.928 59.6884H156.984L153.269 67.1192H146.524Z" fill="white"/>
<path d="M126.463 46.4421H132.076V57.2653H132.238L139.588 46.4421H144.354V67.1192H138.74V56.2557H138.619L131.148 67.1192H126.463V46.4421Z" fill="white"/>
<path d="M107.805 67.1192V46.4421H116.73C118.265 46.4421 119.608 46.745 120.759 47.3508C121.91 47.9566 122.805 48.808 123.444 49.9051C124.084 51.0023 124.403 52.2845 124.403 53.7518C124.403 55.2326 124.074 56.5148 123.414 57.5985C122.761 58.6821 121.842 59.5168 120.658 60.1023C119.48 60.6879 118.103 60.9807 116.528 60.9807H111.198V56.6191H115.398C116.057 56.6191 116.619 56.5047 117.084 56.2759C117.555 56.0403 117.915 55.7071 118.164 55.2763C118.42 54.8456 118.548 54.3374 118.548 53.7518C118.548 53.1595 118.42 52.6547 118.164 52.2374C117.915 51.8133 117.555 51.4902 117.084 51.2681C116.619 51.0393 116.057 50.9248 115.398 50.9248H113.419V67.1192H107.805Z" fill="white"/>
<path d="M87.7212 50.9652V46.4421H105.692V50.9652H99.4732V67.1192H93.9405V50.9652H87.7212Z" fill="white"/>
<path d="M85.7399 54.196H80.0456C80.0052 53.7249 79.8975 53.2975 79.7225 52.9138C79.5542 52.5302 79.3186 52.2003 79.0158 51.9244C78.7196 51.6417 78.3595 51.4263 77.9355 51.2782C77.5114 51.1234 77.0302 51.046 76.4917 51.046C75.5494 51.046 74.7518 51.2749 74.0989 51.7325C73.4527 52.1902 72.9614 52.8465 72.6248 53.7013C72.295 54.5561 72.1301 55.5826 72.1301 56.7807C72.1301 58.0461 72.2984 59.1062 72.6349 59.961C72.9782 60.8091 73.4729 61.4485 74.1191 61.8793C74.7652 62.3033 75.5427 62.5153 76.4513 62.5153C76.9696 62.5153 77.434 62.4514 77.8446 62.3235C78.2552 62.1889 78.6119 61.9971 78.9148 61.748C79.2177 61.499 79.4634 61.1995 79.6518 60.8495C79.847 60.4927 79.9783 60.0922 80.0456 59.648L85.7399 59.6884C85.6725 60.5634 85.4269 61.4552 85.0028 62.3639C84.5788 63.2658 83.9764 64.1004 83.1956 64.8678C82.4216 65.6283 81.4624 66.2409 80.3182 66.7053C79.1739 67.1697 77.8446 67.4019 76.3302 67.4019C74.4321 67.4019 72.7292 66.9947 71.2215 66.1803C69.7205 65.3658 68.5325 64.1678 67.6575 62.586C66.7892 61.0043 66.3551 59.0692 66.3551 56.7807C66.3551 54.4787 66.7993 52.5402 67.6878 50.9652C68.5762 49.3835 69.7743 48.1888 71.282 47.3811C72.7897 46.5666 74.4725 46.1594 76.3302 46.1594C77.6359 46.1594 78.8374 46.3378 79.9345 46.6945C81.0316 47.0513 81.9941 47.5729 82.822 48.2594C83.6499 48.9393 84.3163 49.7772 84.8211 50.7734C85.3259 51.7696 85.6322 52.9104 85.7399 54.196Z" fill="white"/>
<path d="M145.226 87.6074V83.0843H163.197V87.6074H156.978V103.761H151.445V87.6074H145.226Z" fill="white"/>
<path d="M144.166 93.4229C144.166 95.7248 143.719 97.6666 142.823 99.2484C141.928 100.823 140.72 102.018 139.199 102.833C137.678 103.64 135.981 104.044 134.11 104.044C132.226 104.044 130.523 103.637 129.002 102.822C127.487 102.001 126.282 100.803 125.387 99.2282C124.499 97.6465 124.054 95.7113 124.054 93.4229C124.054 91.1209 124.499 89.1824 125.387 87.6074C126.282 86.0257 127.487 84.831 129.002 84.0233C130.523 83.2088 132.226 82.8016 134.11 82.8016C135.981 82.8016 137.678 83.2088 139.199 84.0233C140.72 84.831 141.928 86.0257 142.823 87.6074C143.719 89.1824 144.166 91.1209 144.166 93.4229ZM138.391 93.4229C138.391 92.1844 138.226 91.1411 137.896 90.293C137.573 89.4382 137.092 88.792 136.453 88.3545C135.82 87.9103 135.039 87.6882 134.11 87.6882C133.181 87.6882 132.397 87.9103 131.758 88.3545C131.125 88.792 130.644 89.4382 130.314 90.293C129.991 91.1411 129.83 92.1844 129.83 93.4229C129.83 94.6613 129.991 95.708 130.314 96.5628C130.644 97.4109 131.125 98.057 131.758 98.5013C132.397 98.9388 133.181 99.1575 134.11 99.1575C135.039 99.1575 135.82 98.9388 136.453 98.5013C137.092 98.057 137.573 97.4109 137.896 96.5628C138.226 95.708 138.391 94.6613 138.391 93.4229Z" fill="white"/>
<path d="M182.338 215.313H187.951V226.137H188.113L195.463 215.313H200.228V235.991H194.615V225.127H194.494L187.023 235.991H182.338V215.313ZM193.323 209.74H196.836C196.829 211.053 196.328 212.103 195.332 212.89C194.336 213.671 192.993 214.061 191.303 214.061C189.6 214.061 188.251 213.671 187.255 212.89C186.259 212.103 185.764 211.053 185.771 209.74H189.244C189.237 210.164 189.388 210.555 189.698 210.911C190.014 211.261 190.55 211.436 191.303 211.436C192.024 211.436 192.538 211.265 192.848 210.922C193.158 210.578 193.316 210.185 193.323 209.74Z" fill="white"/>
<path d="M164.652 235.991V215.313H179.554V219.837H170.265V223.39H178.787V227.914H170.265V231.467H179.514V235.991H164.652Z" fill="white"/>
<path d="M142.892 235.991V231.669L143.457 231.589C144.144 231.481 144.713 231.185 145.163 230.7C145.621 230.209 145.971 229.431 146.213 228.368C146.463 227.298 146.621 225.84 146.688 223.996L147.011 215.313H161.994V235.991H156.582V219.675H152.18L151.857 226.177C151.736 228.587 151.413 230.508 150.888 231.942C150.363 233.376 149.565 234.409 148.495 235.041C147.425 235.674 146.015 235.991 144.265 235.991H142.892Z" fill="white"/>
<path d="M125.198 235.991V215.313H139.737V219.837H130.812V222.26H132.912C134.648 222.26 136.166 222.539 137.465 223.098C138.771 223.656 139.784 224.444 140.504 225.46C141.231 226.476 141.594 227.671 141.594 229.044C141.594 230.417 141.231 231.626 140.504 232.669C139.784 233.712 138.771 234.527 137.465 235.112C136.166 235.698 134.648 235.991 132.912 235.991H125.198ZM130.812 231.589H132.912C133.585 231.589 134.15 231.477 134.608 231.255C135.072 231.033 135.422 230.727 135.658 230.337C135.9 229.946 136.021 229.502 136.021 229.004C136.021 228.297 135.755 227.712 135.224 227.247C134.692 226.776 133.921 226.54 132.912 226.54H130.812V231.589Z" fill="white"/>
<path d="M108.196 236.273V231.912H109.206C109.798 231.912 110.266 231.865 110.609 231.77C110.959 231.669 111.228 231.494 111.417 231.245C111.612 230.99 111.777 230.633 111.912 230.175L112.113 229.569L104.36 215.313H110.094L114.415 223.713L117.727 215.313H123.381L116.273 231.467C115.883 232.315 115.418 233.106 114.88 233.84C114.341 234.567 113.672 235.156 112.871 235.607C112.07 236.051 111.077 236.273 109.892 236.273H108.196Z" fill="white"/>
<path d="M86.5499 235.991V215.313H95.4749C97.0096 215.313 98.3524 215.616 99.5033 216.222C100.654 216.828 101.55 217.679 102.189 218.776C102.828 219.874 103.148 221.156 103.148 222.623C103.148 224.104 102.818 225.386 102.159 226.47C101.506 227.553 100.587 228.388 99.4024 228.974C98.2245 229.559 96.848 229.852 95.273 229.852H89.9422V225.49H94.1422C94.8019 225.49 95.3639 225.376 95.8283 225.147C96.2995 224.912 96.6596 224.578 96.9086 224.148C97.1644 223.717 97.2923 223.209 97.2923 222.623C97.2923 222.031 97.1644 221.526 96.9086 221.109C96.6596 220.685 96.2995 220.362 95.8283 220.139C95.3639 219.911 94.8019 219.796 94.1422 219.796H92.1634V235.991H86.5499Z" fill="white"/>
<path d="M214.689 194.81C207.937 194.786 202.105 193.225 197.193 190.128C192.28 187.03 188.493 182.565 185.831 176.733C183.169 170.901 181.85 163.908 181.875 155.753C181.899 147.573 183.23 140.628 185.868 134.917C188.529 129.206 192.304 124.862 197.193 121.886C202.105 118.91 207.937 117.421 214.689 117.421C221.44 117.421 227.272 118.922 232.185 121.922C237.097 124.899 240.884 129.243 243.546 134.954C246.208 140.665 247.527 147.598 247.503 155.753C247.503 163.956 246.172 170.974 243.51 176.806C240.848 182.638 237.061 187.103 232.148 190.2C227.26 193.274 221.44 194.81 214.689 194.81ZM214.689 178.403C218.173 178.403 221.029 176.588 223.255 172.958C225.506 169.304 226.619 163.569 226.595 155.753C226.595 150.647 226.087 146.472 225.07 143.23C224.054 139.987 222.65 137.591 220.86 136.043C219.069 134.47 217.012 133.683 214.689 133.683C211.204 133.683 208.361 135.45 206.159 138.983C203.956 142.516 202.831 148.106 202.783 155.753C202.759 160.956 203.255 165.239 204.271 168.603C205.287 171.942 206.691 174.41 208.482 176.007C210.297 177.605 212.366 178.403 214.689 178.403Z" fill="white"/>
<path d="M140.022 194.81C133.271 194.786 127.439 193.225 122.526 190.128C117.614 187.03 113.827 182.565 111.165 176.733C108.503 170.901 107.184 163.908 107.208 155.753C107.232 147.573 108.563 140.628 111.201 134.917C113.863 129.206 117.638 124.862 122.526 121.886C127.439 118.91 133.271 117.421 140.022 117.421C146.774 117.421 152.606 118.922 157.518 121.922C162.431 124.899 166.218 129.243 168.88 134.954C171.542 140.665 172.86 147.598 172.836 155.753C172.836 163.956 171.505 170.974 168.843 176.806C166.181 182.638 162.394 187.103 157.482 190.2C152.594 193.274 146.774 194.81 140.022 194.81ZM140.022 178.403C143.507 178.403 146.362 176.588 148.589 172.958C150.839 169.304 151.952 163.569 151.928 155.753C151.928 150.647 151.42 146.472 150.404 143.23C149.387 139.987 147.984 137.591 146.193 136.043C144.402 134.47 142.345 133.683 140.022 133.683C136.537 133.683 133.694 135.45 131.492 138.983C129.29 142.516 128.165 148.106 128.116 155.753C128.092 160.956 128.588 165.239 129.604 168.603C130.621 171.942 132.024 174.41 133.815 176.007C135.63 177.605 137.699 178.403 140.022 178.403Z" fill="white"/>
<path d="M67.7059 193.794C61.8497 193.794 56.6469 192.79 52.0975 190.781C47.5722 188.748 44.0149 185.953 41.4256 182.396C38.8363 178.839 37.5296 174.749 37.5054 170.127H57.8327C57.8569 171.555 58.2925 172.837 59.1394 173.975C60.0106 175.088 61.1964 175.959 62.6967 176.588C64.1971 177.217 65.9152 177.532 67.8511 177.532C69.7145 177.532 71.36 177.205 72.7878 176.552C74.2155 175.874 75.3287 174.943 76.1273 173.757C76.9258 172.571 77.313 171.216 77.2888 169.691C77.313 168.191 76.8532 166.86 75.9095 165.699C74.9899 164.537 73.6952 163.63 72.0255 162.976C70.3558 162.323 68.4319 161.996 66.254 161.996H58.7039V148.057H66.254C68.2625 148.057 70.0291 147.731 71.5536 147.077C73.1024 146.424 74.3002 145.517 75.1472 144.355C76.0184 143.193 76.4418 141.862 76.4176 140.362C76.4418 138.91 76.091 137.628 75.365 136.514C74.639 135.401 73.6226 134.53 72.3159 133.901C71.0333 133.272 69.5451 132.957 67.8511 132.957C66.012 132.957 64.3665 133.284 62.9145 133.937C61.4868 134.591 60.3615 135.498 59.5387 136.66C58.716 137.821 58.2925 139.152 58.2683 140.652H38.9573C38.9815 136.103 40.2278 132.086 42.6961 128.601C45.1886 125.117 48.6007 122.382 52.9323 120.398C57.264 118.413 62.2369 117.421 67.8511 117.421C73.3444 117.421 78.1963 118.353 82.4069 120.216C86.6418 122.08 89.945 124.645 92.3165 127.912C94.7122 131.154 95.898 134.869 95.8738 139.055C95.9222 143.218 94.4944 146.63 91.5905 149.292C88.7108 151.953 85.0568 153.526 80.6283 154.01V154.591C86.6297 155.245 91.1428 157.084 94.1677 160.109C97.1926 163.109 98.6809 166.884 98.6325 171.434C98.6567 175.79 97.3499 179.649 94.7122 183.013C92.0987 186.377 88.4567 189.015 83.7863 190.926C79.1401 192.838 73.7799 193.794 67.7059 193.794Z" fill="white"/>
</svg>
