<svg width="180" height="180" viewBox="0 0 180 180" fill="none" xmlns="http://www.w3.org/2000/svg">
<g clip-path="url(#clip0_599_1007)">
<rect width="180" height="180" rx="30" fill="#294680"/>
<path d="M51.6383 152.33C55.5053 158.395 62.3046 160.224 67.8926 156.697C74.3493 152.625 76.91 143.428 73.2106 137.615C69.6415 132.012 61.7062 130.295 56.1641 133.923C49.7489 138.123 47.7542 146.247 51.6311 152.333M107.133 39.5203C104.602 42.8535 102.068 46.1796 99.5412 49.5024C96.2419 53.8458 92.9904 58.2368 89.5983 62.5101C88.4592 63.9413 88.2843 65.2259 89.0976 66.7951C89.7785 68.1129 90.2035 69.591 91.029 70.808C92.8376 73.4731 92.4069 75.7328 90.5432 78.2321C83.7715 87.3363 80.106 97.8878 76.6978 108.547C75.9153 110.985 75.0767 113.414 74.1721 115.812C71.7396 122.221 72.0284 128.25 76.3307 133.865C79.425 137.901 80.3052 142.533 79.4709 147.491C77.8388 157.164 70.0645 164.872 59.6956 163.576C57.645 163.318 56.8931 164.156 56.4672 165.972C55.4802 170.141 56.0211 174.184 57.2331 178.196C57.4738 178.987 57.775 179.76 58.03 180.544C58.2949 181.35 58.5391 182.244 57.6429 182.767C56.6894 183.316 55.8584 182.768 55.2488 182.042C53.6703 180.164 52.8599 177.901 52.2958 175.55C51.3 171.404 51.2908 167.179 51.6691 162.967C51.8171 161.339 51.3781 160.266 50.1523 159.102C42.1791 151.545 43.451 136.784 52.5464 130.543C54.2477 129.375 55.9784 128.175 57.8547 127.352C62.5886 125.272 65.7143 121.667 67.9357 117.184C71.4571 110.087 73.6815 102.561 74.5915 94.6997C75.1106 90.1896 74.2433 85.7939 72.2947 81.6675C71.6344 80.2623 71.494 79.1219 72.6629 77.8505C84.0528 65.524 94.8713 52.6876 105.765 39.9208C106.019 39.6228 106.338 39.3729 106.622 39.1041C106.794 39.2335 106.966 39.3628 107.13 39.4955" fill="#D7A461"/>
<path d="M26.0715 89.8771C33.4487 85.0892 34.2667 76.7244 28.5513 71.1842C23.1261 65.9186 14.1072 66.1711 8.38923 71.7252C4.96287 75.0522 4.02318 79.0788 5.30739 83.5524C6.59876 88.0228 9.60429 90.9549 14.2024 91.9884C18.7411 93.0057 22.8697 91.7061 26.0715 89.8771ZM8.10824 65.9779C16.495 60.65 26.7323 61.9807 33.9119 69.3382C35.0666 70.5172 36.2064 71.7203 37.3833 72.8718C40.0168 75.4455 43.2074 76.4903 46.8642 76.3945C54.7282 76.1937 62.5358 75.3774 70.3373 74.4339C71.1589 74.3353 71.9778 74.212 72.7981 74.1487C73.1907 74.1164 73.6713 74.0872 73.8635 74.5452C74.0525 74.9961 73.7063 75.3191 73.4449 75.638C73.1249 76.0184 72.8318 76.4385 72.4543 76.7499C70.5595 78.3102 70.196 80.0538 71.5579 82.178C71.9828 82.8415 72.5723 83.8458 72.0605 84.4699C71.4278 85.2274 70.5263 84.3746 69.8205 84.0822C60.7087 80.2866 51.5045 81.3086 42.2947 83.5118C39.7845 84.1056 37.9517 85.9149 36.4781 87.941C33.7975 91.6288 30.2344 94.013 25.9875 95.4708C24.7884 95.8808 23.7425 96.2466 23.842 97.9604C23.9237 99.3703 22.7961 100.164 21.4714 100.432C20.193 100.687 19.0008 100.184 18.6261 98.9862C18.0798 97.2429 16.8632 97.1409 15.3985 96.9704C8.74918 96.2081 3.92728 92.7724 1.44065 86.5609C-0.952116 80.5925 -0.182956 74.8673 3.85922 69.742C5.04319 68.2383 6.48608 66.9974 8.10824 65.9779Z" fill="#D7A461"/>
<path d="M171.834 62.3843C170.925 63.4849 169.706 63.5662 168.65 63.9106C148.223 70.5962 127.469 76.1138 106.739 81.7592C100.758 83.3863 94.775 84.9886 88.7817 86.5694C88.1162 86.7439 87.277 87.3532 86.7656 86.5385C86.378 85.9186 87.0998 85.337 87.4396 84.7915C89.8096 81.0119 92.252 77.2771 94.5599 73.4566C95.4537 71.9816 96.5339 71.2361 98.2761 71.0283C114.845 69.0371 131.406 66.9893 147.977 64.9453C155.032 64.0747 162.074 63.1755 169.132 62.3121C169.978 62.2109 170.865 61.8747 171.838 62.3739" fill="#D7A461"/>
<path d="M134.062 7.99455C134.448 9.06585 133.778 9.58929 133.419 10.1694C120.875 30.0873 108.32 50.0013 95.7407 69.9003C95.1066 70.9011 94.7273 72.5913 93.4148 72.5072C92.2185 72.4305 92.3295 70.6464 91.6808 69.7212C89.3997 66.4403 89.8764 63.7696 92.4884 60.5379C99.5538 51.8107 106.411 42.8929 112.844 33.6924C118.957 24.9499 126.067 17.0952 132.951 9.01412C133.249 8.66118 133.64 8.37845 134.065 8.00172" fill="#D7A461"/>
</g>
<defs>
<clipPath id="clip0_599_1007">
<rect width="180" height="180" rx="30" fill="white"/>
</clipPath>
</defs>
</svg>
