<svg width="180" height="146" viewBox="0 0 180 146" fill="none" xmlns="http://www.w3.org/2000/svg">
<path d="M162.819 45.704L136.774 44.4856C134.497 41.0338 130.714 39.0836 126.179 39.0836C126.065 39.0836 125.947 39.0836 125.833 39.0836C125.61 39.0836 125.397 39.0883 125.203 39.0977C122.935 36.0142 120.005 33.7476 117.765 32.3074L117.713 32.2743C116.492 31.5046 115.36 30.9144 114.233 30.461C112.539 29.7858 110.73 29.4411 108.86 29.4411C107.804 29.4411 106.748 29.5544 105.721 29.7763C104.121 30.1116 102.767 30.6594 101.512 31.1977C100.513 31.6038 99.5424 32.0288 98.605 32.4443C98.4487 32.331 98.2878 32.2224 98.1268 32.1185C96.9053 31.311 95.7738 30.801 94.7653 30.343L94.7274 30.3241C94.5049 30.1872 93.951 29.7244 93.7474 29.5591L93.4586 29.3183C92.7721 28.7469 91.9199 28.0339 91.1955 27.4861L91.1719 27.4719C90.1255 26.6739 88.8235 25.6776 87.1097 24.9504C84.7424 23.9304 82.0911 23.4109 79.2268 23.4109C77.5886 23.4109 75.889 23.5809 74.1751 23.9162L74.0425 23.9445L73.8815 23.9823C71.5001 24.5631 69.7626 25.7437 68.489 26.6078L68.4369 26.6409C68.1718 26.8203 67.9066 27.0045 67.6462 27.1839C67.1681 27.5144 66.5147 27.9725 66.0413 28.2369C66.0365 28.2369 66.0318 28.2369 66.0271 28.2322C65.2743 27.9867 64.4173 27.7128 63.4515 27.5003C62.1211 27.2122 60.3457 26.8864 58.3619 26.8864C56.6954 26.8864 55.1094 27.1225 53.6559 27.5853C49.1202 29.0114 45.5173 32.3829 42.6435 37.8983C42.2789 38.5736 41.9617 39.2866 41.6918 40.0374L18.6255 38.9561C18.4219 38.9466 18.2183 38.9419 18.0147 38.9419C10.9462 38.9419 5.14171 44.5801 4.80082 51.7766L4.78662 52.0835L7.07811 95.7581L23.2653 96.5562L46.0902 97.68C47.1412 100.202 48.803 102.577 51.5206 104.329L51.5538 104.352C52.6995 105.08 53.9399 105.641 55.3082 106.048C56.0089 106.883 56.7901 107.766 57.7038 108.744C58.4756 109.566 59.4509 110.576 60.5682 111.624C60.7718 112.054 60.999 112.479 61.25 112.899L61.302 112.989C62.2915 114.58 63.4988 115.87 64.9002 116.819L64.9902 116.88L65.0849 116.937C65.9608 117.489 66.9219 117.905 67.935 118.169C69.8241 119.416 71.751 119.846 72.5133 120.016C73.1146 120.152 73.7206 120.266 74.4828 120.384L74.6012 120.403C75.4487 120.521 76.3009 120.573 77.2856 120.573C77.8585 120.573 78.4077 120.554 78.9143 120.535H78.9474C80.5003 120.464 81.9964 120.327 83.4594 120.195L84.9934 120.053C88.0802 119.765 91.2713 119.463 94.2824 119.463C95.0778 119.463 95.8448 119.482 96.5644 119.524L96.8958 119.543C97.838 119.6 98.908 119.661 100.011 119.661H100.148C101.872 119.661 107.118 119.661 110.649 115.289C111.615 114.108 112.368 112.729 112.95 111.058C113.163 110.444 113.334 109.854 113.471 109.292C113.987 109.23 114.484 109.155 114.982 109.06C116.511 108.763 117.907 108.239 119.148 107.507C119.844 107.71 120.563 107.87 121.312 107.979C122.258 108.125 123.224 108.201 124.171 108.201C126.131 108.201 128.034 107.889 129.829 107.275C131.623 106.671 133.332 105.807 135.06 104.631L135.131 104.579C136.074 103.918 136.902 103.12 137.627 102.18L162.71 103.413L168.955 103.72L175.37 60.0544L175.384 59.7475C175.734 52.3385 170.105 46.0298 162.833 45.6898L162.819 45.704Z" fill="white"/>
<path d="M160.096 52.5841L132.958 51.3138C132.428 50.7661 131.699 50.2088 130.799 49.9491C130.709 49.7272 130.615 49.5194 130.52 49.3164C129.436 47.1725 127.48 46.1242 124.706 46.1951C124.398 46.1951 124.1 46.2092 123.811 46.2234C123.371 46.2423 122.95 46.2659 122.519 46.2328C121.78 46.1384 120.975 45.7795 120.057 45.142C118.4 42.1955 115.611 40.0044 113.556 38.6822C112.685 38.1345 111.909 37.7236 111.18 37.4309C109.721 36.85 108.041 36.7225 106.459 37.0673C105.427 37.2798 104.452 37.6811 103.467 38.1061C102.549 38.4792 101.616 38.89 100.716 39.2866C99.6986 39.7352 98.6475 40.2027 97.6154 40.6088C97.3361 40.7174 97.0473 40.7788 96.678 40.8449C96.6212 40.8544 96.5643 40.8638 96.5075 40.8733C96.2566 39.9902 95.5464 39.1214 94.5427 38.4744C93.7568 37.955 92.9614 37.5914 92.1187 37.2136L91.9908 37.157C91.2523 36.8123 90.5658 36.2692 89.7514 35.594L89.4816 35.3673C88.8566 34.8479 88.0802 34.2009 87.4883 33.7524L87.4647 33.7335C86.6409 33.1054 85.7887 32.4538 84.8228 32.0477C81.7076 30.6972 78.2325 30.9616 75.8652 31.4244H75.8557C74.6153 31.7266 73.5974 32.4207 72.6126 33.0865L72.5511 33.129C72.3144 33.2896 72.0776 33.4549 71.8456 33.6154C70.43 34.5976 68.9671 35.6176 67.2721 35.8537C66.8555 35.9103 66.4341 35.8678 65.8707 35.7073C65.5819 35.6223 65.2789 35.5231 64.9617 35.424C64.332 35.2209 63.6834 35.0084 63.0537 34.8715C61.1221 34.4559 58.8495 34.1207 56.6811 34.8101C53.8972 35.6837 51.5679 37.9881 49.5605 41.8555C48.9971 42.8802 48.6136 44.1032 48.3863 45.5954C48.1875 46.875 48.088 48.287 48.0786 50.0388C48.0738 51.3233 48.1165 52.6643 48.2159 54.2557C48.2064 54.2698 48.1969 54.284 48.1875 54.2935L47.7235 47.3331L20.7275 46.0676C17.0204 45.8929 13.8673 48.8819 13.6826 52.7399L15.5953 89.2322L19.9463 89.4447L22.4603 58.3781C22.4935 57.7784 22.6923 57.3062 22.9101 57.3156C23.1279 57.325 23.2841 57.8161 23.2557 58.4158L22.8202 89.5864L25.8076 89.7328L28.3216 58.6614C28.3548 58.0617 28.5536 57.5895 28.7714 57.5989C28.9892 57.6084 29.1454 58.0995 29.117 58.6992L28.6814 89.8744L31.6642 90.0208L34.1782 58.9447C34.2113 58.345 34.4101 57.8728 34.6279 57.8822C34.8457 57.8917 35.002 58.3828 34.9736 58.9825L34.538 90.1625L37.5207 90.3089L40.0347 59.228C40.0678 58.6283 40.2667 58.1561 40.4845 58.1656C40.7023 58.175 40.8585 58.6661 40.8301 59.2658L40.3945 90.4505L43.3772 90.5969L45.8913 59.5114C45.9244 58.9117 46.1232 58.4395 46.341 58.4489C46.5588 58.4583 46.715 58.9494 46.6866 59.5491L46.2511 90.7386L49.2338 90.885L50.2186 78.7114C50.3511 78.8106 50.4932 78.9097 50.6352 78.9994C51.0234 82.2813 51.4495 85.7615 51.904 89.3361C52.3207 92.6557 53.1397 96.3059 56.0751 98.1948C57.1309 98.8653 58.395 99.2997 59.9337 99.5217C59.9668 99.6161 60.0189 99.7011 60.0757 99.7814C60.909 100.877 61.8938 102.024 63.1721 103.394C64.0622 104.338 65.2505 105.571 66.5809 106.737C66.5998 106.756 66.6235 106.77 66.6425 106.784C66.794 107.323 67.0449 107.884 67.381 108.446C67.8876 109.263 68.4747 109.906 69.1281 110.349C69.7293 110.727 70.4537 110.935 71.2302 110.949C72.0587 111.917 73.3654 112.309 74.4165 112.54C74.8615 112.64 75.3255 112.729 75.922 112.824C76.5138 112.904 77.0962 112.932 77.688 112.932C78.1236 112.932 78.5639 112.918 79.0231 112.899C80.3866 112.838 81.7644 112.715 83.0995 112.592L83.483 112.559C83.8475 112.526 84.2074 112.493 84.5719 112.455C88.5394 112.082 92.6442 111.7 96.6732 111.931L96.9904 111.95C97.8663 112.002 98.7706 112.054 99.6749 112.054C101.625 112.064 103.813 111.832 105.233 110.057C105.721 109.466 106.119 108.725 106.445 107.79C106.829 106.68 107.028 105.594 107.155 104.773C107.302 103.833 107.34 102.94 107.269 102.124C107.302 102.124 107.335 102.124 107.368 102.124C109.362 102.218 111.161 102.265 112.965 101.92C114.773 101.571 116.08 100.693 116.956 99.2431C116.998 99.1769 117.036 99.1108 117.079 99.04C117.353 99.2856 117.666 99.5217 118.007 99.7342C118.906 100.291 119.962 100.66 121.146 100.83C123.002 101.122 124.862 100.976 126.524 100.405C127.731 99.9986 128.906 99.3989 130.118 98.5772C130.818 98.0861 131.846 97.1276 132.636 94.5304C133.451 91.7019 133.853 88.6845 134.175 86.2337H134.265L134.142 95.0546L137.12 95.201L137.915 85.3507C138.919 84.7085 139.729 83.7688 140.178 82.6449L140.003 95.3426L142.981 95.489L145.5 64.3232C145.533 63.7235 145.732 63.2513 145.95 63.2607C146.167 63.2702 146.324 63.7612 146.295 64.361L145.86 95.6307L148.838 95.777L151.356 64.6065C151.39 64.0068 151.588 63.5346 151.806 63.544C152.024 63.5535 152.18 64.0446 152.152 64.6443L151.716 95.9187L154.694 96.0651L157.213 64.8898C157.246 64.2901 157.445 63.8179 157.663 63.8274C157.881 63.8368 158.037 64.3279 158.008 64.9276L157.573 96.2067L161.095 96.3815L166.459 59.8702C166.644 56.0123 163.784 52.7446 160.077 52.5699L160.096 52.5841ZM134.596 53.8118C134.421 53.4293 134.237 53.0704 134.033 52.7304C134.232 53.0421 134.421 53.401 134.596 53.8118ZM120.478 56.5223C120.563 56.0406 120.672 55.559 120.776 55.0962C120.956 54.2982 121.141 53.4765 121.231 52.6171C121.236 52.5557 121.245 52.4896 121.25 52.4282C121.293 51.9796 121.321 51.4791 121.33 50.8983C121.33 50.8983 121.33 50.8935 121.33 50.8888C121.33 50.6102 121.33 50.2466 121.311 49.8689C121.302 49.6422 121.293 49.4061 121.274 49.1794C121.269 49.1228 121.264 49.0378 121.259 48.9528C121.255 48.8489 121.245 48.7403 121.24 48.6742C121.221 48.4569 121.188 48.235 121.15 48.0178C121.259 48.065 121.364 48.1075 121.468 48.1453C121.51 48.1595 121.553 48.1783 121.596 48.1925C121.614 48.1972 121.629 48.202 121.648 48.2067C121.676 48.2161 121.7 48.2256 121.728 48.2303C121.747 48.235 121.771 48.2397 121.79 48.2492C121.813 48.2539 121.837 48.2633 121.861 48.2681C121.884 48.2728 121.908 48.2775 121.927 48.2822C121.951 48.287 121.97 48.2917 121.993 48.2964C122.017 48.3011 122.041 48.3058 122.069 48.3106C122.088 48.3106 122.107 48.32 122.131 48.3247C122.159 48.3295 122.183 48.3342 122.211 48.3389C122.23 48.3389 122.249 48.3436 122.268 48.3483C122.296 48.3483 122.325 48.3578 122.348 48.3625C122.367 48.3625 122.381 48.3672 122.4 48.372C122.429 48.372 122.457 48.3814 122.486 48.3814C122.5 48.3814 122.514 48.3814 122.533 48.3861C122.561 48.3861 122.594 48.3908 122.623 48.3956C122.637 48.3956 122.651 48.3956 122.661 48.3956C122.694 48.3956 122.722 48.4003 122.755 48.405C122.77 48.405 122.779 48.405 122.793 48.405C122.826 48.405 122.86 48.405 122.893 48.4097C122.902 48.4097 122.912 48.4097 122.926 48.4097C122.959 48.4097 122.992 48.4097 123.025 48.4144C123.035 48.4144 123.044 48.4144 123.054 48.4144C123.087 48.4144 123.12 48.4144 123.148 48.4144C123.158 48.4144 123.167 48.4144 123.177 48.4144C123.21 48.4144 123.238 48.4144 123.272 48.4144C123.281 48.4144 123.29 48.4144 123.3 48.4144C123.328 48.4144 123.361 48.4144 123.39 48.4144C123.399 48.4144 123.409 48.4144 123.423 48.4144C123.451 48.4144 123.475 48.4144 123.499 48.4144C123.508 48.4144 123.518 48.4144 123.527 48.4144C123.541 48.4144 123.551 48.4144 123.565 48.4144C123.679 48.4144 123.802 48.4144 123.934 48.4144C124.086 48.4144 124.247 48.4144 124.408 48.4144C124.895 48.4144 125.407 48.4239 125.776 48.4664C127.149 48.5986 128.285 49.118 129.341 51.2194C129.81 52.1118 130.231 53.0232 130.676 53.9865C130.889 54.4446 131.112 54.9215 131.334 55.389C131.391 55.5023 131.5 55.5779 131.628 55.592C131.647 55.592 131.666 55.592 131.685 55.592C131.779 55.5873 131.869 55.5448 131.931 55.474C131.992 55.4031 132.026 55.3087 132.021 55.2143C131.973 54.4776 131.865 53.7221 131.68 52.8296C131.618 52.5368 131.552 52.263 131.491 52.0032C132.859 53.1838 133.474 55.0395 133.858 56.5459C133.905 56.7395 133.948 56.9378 133.99 57.1456C133.621 57.1314 133.247 57.1173 132.868 57.1031C131.405 57.0464 129.895 56.9898 128.612 56.9331L125.942 56.8198C124.829 56.7678 123.683 57.0323 122.727 57.5659C122.102 57.9059 121.548 58.3592 121.079 58.9117C120.876 58.5056 120.625 58.1183 120.341 57.7595C120.388 57.377 120.445 56.9284 120.511 56.5128L120.478 56.5223ZM50.3085 47.2906C50.3369 47.0403 50.3701 46.7853 50.4079 46.5303C50.4079 46.5303 50.4079 46.5256 50.4079 46.5209C50.4174 46.4689 50.4221 46.417 50.4316 46.3651C50.4363 46.332 50.4411 46.2942 50.4458 46.2612C50.4458 46.2328 50.4553 46.2045 50.46 46.1762C50.4695 46.1195 50.479 46.0581 50.4884 46.0015C50.4884 45.9873 50.4884 45.9778 50.4932 45.9637C50.6494 45.109 50.8767 44.2543 51.2554 43.4562C51.2933 43.376 51.3359 43.2957 51.3738 43.2154C52.0413 41.9971 53.0498 40.3255 54.4464 39.0128C54.5506 38.9136 54.6548 38.8192 54.7637 38.7294C54.8725 38.6397 54.9814 38.5453 55.0951 38.4556C55.1519 38.4131 55.2087 38.3658 55.2655 38.3233C56.5912 37.327 58.1583 36.8831 59.7917 37.0389C61.1647 37.1523 62.4382 37.412 63.6976 37.837C63.8349 37.8842 63.9817 37.9314 64.1284 37.9786C64.6918 38.1675 65.3263 38.3847 65.9512 38.4933C65.9986 38.5028 66.0459 38.5122 66.0933 38.5169C66.1359 38.5358 66.1785 38.5547 66.2164 38.5736L66.3915 38.635C66.8792 38.8144 67.4047 39.0033 67.8687 39.2536C67.9208 39.2819 67.9728 39.3103 68.0202 39.3386C68.167 39.4236 68.309 39.518 68.4368 39.6219C68.5647 39.7258 68.683 39.8344 68.7824 39.9572C69.0381 40.2972 69.1612 40.6985 69.2938 41.1283C69.3458 41.2983 69.4027 41.4777 69.4642 41.6524C69.7057 42.3466 70.0134 42.9085 70.3874 43.3335C70.6099 43.5885 70.8561 43.7915 71.126 43.9473C71.4764 44.1504 71.8693 44.2637 72.3096 44.2873C72.3475 44.2873 72.3806 44.2873 72.4185 44.2873H72.428C72.5511 44.2873 72.6789 44.2873 72.8067 44.2732C72.8493 44.2732 72.892 44.2637 72.9393 44.259C73.0529 44.2496 73.1476 44.1835 73.1997 44.089C73.2186 44.056 73.2281 44.0229 73.2376 43.9851C73.266 43.834 73.195 43.6876 73.0671 43.6215C72.4943 43.3193 72.0019 43.0171 71.803 42.3796C71.6468 41.9074 71.5994 41.4163 71.5474 40.8922C71.4906 40.2688 71.429 39.6266 71.1639 39.0269C71.0502 38.753 70.8798 38.465 70.6668 38.1958C70.5389 38.0353 70.3969 37.8795 70.2501 37.7331C71.5142 37.1428 72.6694 36.3353 73.7868 35.5515L74.085 35.339C74.1703 35.2823 74.2602 35.2209 74.3502 35.1595C74.942 34.7582 75.5575 34.3426 76.2014 34.1112C76.2156 34.1112 76.2298 34.1018 76.2392 34.0971C76.2629 34.0876 76.2866 34.0829 76.3103 34.0735C76.3339 34.064 76.3576 34.0593 76.3813 34.0498C76.4002 34.0451 76.4239 34.0404 76.4428 34.031C76.4712 34.0215 76.4949 34.0168 76.5233 34.0073C76.7648 33.9601 77.0062 33.9176 77.2524 33.8798C78.6728 33.6626 80.0789 33.6249 81.3619 33.7712C81.4472 33.7807 81.5371 33.7901 81.6223 33.8043C82.9006 33.979 83.9612 34.3473 84.8512 34.9187C85.765 35.509 86.6409 36.1795 87.4883 36.8264C88.1275 37.3128 88.7856 37.8181 89.4674 38.295C90.0686 38.7011 90.5989 38.9892 91.1008 39.1875L91.1197 39.1969C91.8961 39.5039 92.701 39.8202 93.3828 40.2263C93.4917 40.2924 93.5958 40.3633 93.7 40.4341C94.1498 40.7458 94.5475 41.1094 94.6516 41.6477C94.6753 41.8319 94.6895 42.0207 94.7037 42.2663C94.7226 42.781 94.7179 43.3051 94.7084 43.8151C94.699 44.4809 94.6895 45.1656 94.7416 45.8551C94.7936 46.5256 94.9215 47.1159 95.1203 47.6117C95.4896 48.5325 96.0057 49.3447 96.6543 50.0294H96.659C96.7632 50.138 96.9147 50.1616 97.0378 50.1002C97.0567 50.0908 97.0709 50.0813 97.0899 50.0719C97.2224 49.9775 97.265 49.8027 97.194 49.6516V49.6422C97.0615 49.4108 96.962 49.2078 96.8816 49.0189C96.6922 48.5986 96.5454 48.1925 96.4318 47.7959C96.3655 47.5597 96.3134 47.3284 96.2708 47.1017C96.2613 47.0545 96.2566 47.0073 96.2471 46.96C96.1524 46.2565 96.2329 45.5576 96.3229 44.8257C96.3371 44.7076 96.3513 44.5848 96.3655 44.4668L96.4034 44.1787C96.446 43.8435 96.4886 43.4988 96.5265 43.1493C96.5407 43.0313 96.5501 42.9179 96.5596 42.7999C96.6259 42.7952 96.6969 42.7857 96.7632 42.781C96.8247 42.7763 96.8863 42.7668 96.9478 42.7621C97.2793 42.7196 97.587 42.6677 97.8663 42.6016C98.0368 42.5591 98.2782 42.4882 98.425 42.4363C98.6333 42.3654 98.8416 42.2946 99.0452 42.2238C99.656 42.0066 100.248 41.7799 100.868 41.5438L100.948 41.5155C101.185 41.4258 101.578 41.2699 102.023 41.0952C102.852 40.7694 103.879 40.368 104.315 40.2075C104.405 40.1744 104.49 40.1366 104.58 40.1036C104.935 39.9619 105.304 39.8155 105.65 39.6975C105.697 39.6786 105.749 39.6644 105.797 39.6455C107.439 39.0789 108.95 39.0694 110.285 39.6125C110.436 39.6739 110.588 39.74 110.744 39.8155C111.208 40.0375 111.7 40.3161 112.259 40.6702C114.338 42.0207 116.108 43.631 117.358 45.2648C117.846 45.907 118.253 46.5492 118.57 47.1867C118.85 47.777 119.039 48.3531 119.124 48.8961C119.138 49.0047 119.157 49.1275 119.171 49.2503C119.186 49.3636 119.205 49.4769 119.219 49.5808C119.219 49.6139 119.228 49.6516 119.233 49.6847C119.295 50.2041 119.351 50.7519 119.375 51.2477C119.427 52.0457 119.422 52.8863 119.356 53.741C119.337 54.0101 119.309 54.2935 119.285 54.5626C119.233 55.1623 119.176 55.7809 119.167 56.3948C119.167 56.4703 119.167 56.5506 119.167 56.6309C118.239 55.899 117.155 55.4315 116.004 55.2709C115.668 55.219 115.237 55.2001 114.858 55.1859C114.82 55.1859 114.778 55.1859 114.74 55.1812C114.626 55.1765 114.517 55.1718 114.413 55.167L102.79 54.6571C102.691 54.6523 102.591 54.6523 102.492 54.6523C101.469 54.6523 100.432 54.8979 99.5281 55.3559C99.4666 55.3843 99.4098 55.4173 99.3482 55.4504C98.8132 55.7431 98.3256 56.1067 97.8947 56.5412C97.7716 55.6393 97.6296 54.7515 97.4686 53.8968C97.4402 53.7551 97.3219 53.6465 97.1798 53.6229C96.9999 53.5946 96.8295 53.7079 96.7821 53.8779C96.7821 53.8874 96.7774 53.9015 96.7727 53.9157C96.73 54.2037 96.6874 54.4965 96.6496 54.794C96.5833 55.2898 96.5265 55.7998 96.4697 56.3145C95.7405 55.3465 94.7463 54.6146 93.6337 54.1943C93.5769 54.1707 93.5153 54.1518 93.4585 54.1329C93.3402 54.0904 93.2218 54.0526 93.0987 54.0196C93.0372 54.0007 92.9756 53.9865 92.9188 53.9724C92.7957 53.944 92.6726 53.9157 92.5495 53.8921C92.1187 53.8118 91.6736 53.7787 91.2286 53.7929C90.2438 53.8118 89.259 53.8354 88.2743 53.859C85.7271 53.9157 83.0995 53.9724 80.5097 54.0149C79.3924 54.029 78.2703 54.3643 77.3424 54.9545C76.8405 55.2662 76.3907 55.6581 76.0025 56.1115C75.9504 55.8801 75.8842 55.6534 75.8131 55.4362C75.8463 55.1576 75.8889 54.8837 75.9362 54.6051C76.2582 52.6738 76.8453 50.7897 77.3802 49.1511C77.385 49.1322 77.3897 49.118 77.3945 49.0992C77.3992 49.0803 77.3945 49.0661 77.3945 49.0472C77.3945 48.9433 77.3376 48.8394 77.2429 48.7828C77.1719 48.7403 77.0867 48.7308 77.0062 48.7497C76.9257 48.7686 76.8595 48.8205 76.8168 48.8914C76.7174 49.0567 76.6322 49.2172 76.5422 49.3825C76.4286 49.5903 76.3197 49.8027 76.2061 50.0247C75.9599 50.5111 75.7184 51.0399 75.4581 51.6491C75.3918 51.8096 75.3255 51.9655 75.2639 52.1213C75.1077 52.5085 74.9704 52.8863 74.8473 53.2546C74.8236 53.3301 74.7952 53.401 74.7715 53.4765C74.6911 53.3679 74.6058 53.264 74.5159 53.1602C74.3833 51.446 74.2081 49.9869 73.9667 48.6364C73.9099 48.3247 73.8531 48.0225 73.7868 47.7203C73.7584 47.6023 73.6589 47.5125 73.5406 47.4936C73.5216 47.4936 73.5027 47.4936 73.4838 47.4936C73.3512 47.5031 73.2376 47.607 73.2186 47.7486C73.0766 48.9905 73.0009 50.3269 72.9819 51.8191C72.2954 51.3752 71.5332 51.0541 70.752 50.8747C70.6999 50.8652 70.6478 50.8511 70.5957 50.8416C70.1176 50.7472 69.6346 50.6952 69.1517 50.6999C68.9434 50.6999 68.6499 50.7188 68.4131 50.7283H68.3232C67.6888 50.7661 67.0544 50.8038 66.4105 50.8416C64.493 50.9549 62.5566 51.0777 60.6723 51.1958C60.1941 51.2241 59.7112 51.2571 59.2235 51.2855C57.2114 51.413 55.1614 51.5358 53.1587 51.6491C52.51 51.6916 51.8993 51.8096 51.3454 51.9985C50.924 52.1402 50.5168 52.3243 50.1286 52.5463C50.0718 50.5536 50.1239 48.8725 50.2943 47.2811L50.3085 47.2906ZM97.2319 76.3881C97.2414 76.2323 97.2461 76.0765 97.2556 75.9206C97.3739 73.5502 97.5065 70.8019 97.6012 68.0253C97.7053 66.7267 97.8095 65.4376 97.9137 64.1957C97.9326 64.021 97.9705 63.5252 98.0178 62.9585C98.0368 62.7271 98.0557 62.4863 98.0746 62.2455C98.0794 62.1841 98.0841 62.1274 98.0888 62.066C98.0936 62.0046 98.0983 61.948 98.1031 61.8913C98.1504 61.3105 98.1977 60.8052 98.2214 60.6541C98.3208 59.9505 98.6096 59.2847 99.0405 58.7275C99.0926 58.6614 99.1446 58.6 99.1967 58.5339C99.3056 58.4111 99.424 58.2883 99.5471 58.1797C99.5755 58.1514 99.6086 58.1231 99.6418 58.0995C99.7033 58.0475 99.7696 57.9956 99.8359 57.9436C100.035 57.7925 100.248 57.6603 100.475 57.5517C101.143 57.2164 101.895 57.07 102.648 57.1267L114.248 58.0334C114.248 58.0334 114.252 58.0334 114.262 58.0334C114.333 58.0381 114.636 58.0617 114.825 58.0759L114.977 58.0853C115.469 58.1136 115.919 58.2033 116.317 58.3639C117.699 58.8975 118.693 60.3 118.736 61.7732C118.736 61.8346 118.736 61.9055 118.736 61.981C118.736 62.1038 118.726 62.2313 118.717 62.3493C118.712 62.491 118.698 62.7129 118.679 62.9727C118.679 62.9963 118.679 63.0199 118.679 63.0435C118.679 63.0907 118.674 63.1379 118.67 63.1899C118.67 63.2371 118.665 63.289 118.66 63.341C118.632 63.799 118.603 64.276 118.589 64.5168C118.57 64.8096 118.556 65.1023 118.537 65.3951C118.315 69.4419 118.154 73.7343 118.016 77.8567C118.002 78.2345 117.993 78.6075 117.978 78.9806C117.978 79.0844 117.964 79.4197 117.959 79.4953C117.912 80.5577 117.443 81.5447 116.629 82.2813C115.81 83.0274 114.716 83.4193 113.632 83.3674C112.766 83.3249 111.734 83.2777 110.616 83.2304C107.671 83.0935 104.054 82.9282 101.578 82.8055C101.412 82.796 101.251 82.7913 101.1 82.7818C100.712 82.763 100.328 82.6968 99.9684 82.5882C99.9116 82.5693 99.8595 82.5552 99.8027 82.5363C98.1267 81.9508 96.9336 80.3405 96.8721 78.5508C96.9194 78.4186 96.962 78.2864 96.9999 78.1495C97.1135 77.7434 97.1798 77.3325 97.1988 76.9123C97.1988 76.8934 97.1988 76.8745 97.1988 76.8509C97.1988 76.8084 97.2035 76.7565 97.2035 76.7328C97.213 76.5581 97.213 76.459 97.213 76.4023L97.2319 76.3881ZM75.851 83.5988C75.851 83.2966 75.8463 82.9943 75.8415 82.6921V82.0783C75.8226 81.606 75.8131 81.1197 75.7942 80.6097C75.7847 80.3358 75.7753 80.0525 75.7658 79.7644C76.3008 80.5861 77.0441 81.2566 77.901 81.7052C78.2893 81.9083 78.7012 82.0641 79.1225 82.168C79.2172 82.1916 79.3166 82.2105 79.4113 82.2294C79.7001 82.286 79.9842 82.3191 80.2635 82.3285H80.2683C82.6876 82.3191 85.7129 82.3144 88.8661 82.3474C89.6851 82.3569 90.5184 82.3663 91.3469 82.3805C91.3896 82.3805 91.4322 82.3805 91.4748 82.3805C91.4748 82.3805 91.4795 82.3805 91.4842 82.3805C91.5126 82.3805 91.5411 82.3805 91.5695 82.3805C91.5884 82.3805 91.6121 82.3805 91.631 82.3805C91.6642 82.3805 91.6926 82.3805 91.7257 82.3805C91.7446 82.3805 91.7589 82.3805 91.7778 82.3805C91.8109 82.3805 91.8441 82.3805 91.882 82.3757C91.8961 82.3757 91.9104 82.3757 91.9246 82.3757C91.9624 82.3757 91.9956 82.371 92.0334 82.3663C92.0429 82.3663 92.0571 82.3663 92.0666 82.3663C92.1045 82.3663 92.1423 82.3569 92.1802 82.3521C92.1897 82.3521 92.1992 82.3521 92.2086 82.3521C92.2465 82.3474 92.2891 82.3427 92.327 82.3332C92.3364 82.3332 92.3412 82.3332 92.3507 82.3332C92.3933 82.3285 92.4311 82.3191 92.4738 82.3096C92.4785 82.3096 92.488 82.3096 92.4927 82.3096C92.5353 82.3002 92.5779 82.2955 92.6205 82.286C92.6205 82.286 92.63 82.286 92.6347 82.286C92.6773 82.2766 92.7199 82.2671 92.7626 82.2577C92.7626 82.2577 92.7673 82.2577 92.772 82.2577C92.8146 82.2482 92.862 82.2341 92.9046 82.2246C92.9046 82.2246 92.9093 82.2246 92.9141 82.2246C92.9567 82.2105 93.004 82.201 93.0466 82.1869C93.0466 82.1869 93.0466 82.1869 93.0514 82.1869C93.094 82.1727 93.1413 82.1585 93.1839 82.1444C93.2265 82.1302 93.2739 82.1113 93.3165 82.0971C93.3591 82.083 93.4064 82.0641 93.4491 82.0499C93.4917 82.031 93.539 82.0169 93.5816 81.998C93.6242 81.9791 93.6668 81.9602 93.7142 81.9413C93.7568 81.9224 93.7994 81.9035 93.842 81.8846C93.8846 81.8658 93.9272 81.8421 93.9698 81.8233C93.9698 81.8233 93.9698 81.8233 93.9746 81.8233C94.0172 81.8044 94.0551 81.7808 94.0977 81.7619C94.0977 81.7619 94.1024 81.7619 94.1071 81.7619C94.145 81.7383 94.1876 81.7194 94.2255 81.6958C94.2255 81.6958 94.2302 81.6958 94.235 81.691C94.2729 81.6674 94.3107 81.6485 94.3486 81.6249C94.3486 81.6249 94.3581 81.6202 94.3628 81.6155C94.4007 81.5919 94.4386 81.5683 94.4764 81.5447C94.4812 81.5447 94.4859 81.5399 94.4906 81.5352C94.5285 81.5116 94.5617 81.488 94.5995 81.4644C94.6043 81.4644 94.6137 81.4549 94.6185 81.4502C94.6516 81.4266 94.6848 81.403 94.7226 81.3794C94.7321 81.3747 94.7368 81.3699 94.7463 81.3652C94.7794 81.3416 94.8126 81.318 94.841 81.2944C94.8505 81.2897 94.8599 81.2802 94.8694 81.2755C94.8978 81.2519 94.9309 81.2283 94.9594 81.2047C94.9688 81.1952 94.9783 81.1858 94.9925 81.1811C95.0209 81.1574 95.0493 81.1338 95.0777 81.1149C95.0919 81.1055 95.1014 81.0961 95.1156 81.0866C95.144 81.063 95.1677 81.0441 95.1913 81.0205C95.2055 81.0063 95.2197 80.9969 95.2339 80.9827C95.2576 80.9638 95.2813 80.9402 95.305 80.9213C95.3192 80.9072 95.3381 80.893 95.3523 80.8741C95.3712 80.8552 95.3949 80.8363 95.4139 80.8175C95.4328 80.7986 95.4517 80.7797 95.4754 80.7608C95.4896 80.7466 95.5086 80.7277 95.5228 80.7136C95.5606 80.6758 95.5938 80.6427 95.6269 80.605C95.6743 80.7325 95.7311 80.8552 95.7879 80.9827C95.8968 81.2188 96.0246 81.4502 96.1619 81.6721C96.1619 81.998 96.1619 82.3144 96.1619 82.6118C96.1619 82.8857 96.1619 83.1454 96.1619 83.3863C96.1572 85.9929 96.1382 88.3445 96.0151 90.6819C95.9489 91.8152 95.8684 93.0241 95.6553 94.214V94.2471C95.5512 94.7382 95.4659 95.1584 95.2482 95.5551C94.8031 96.3815 94.2918 97.2314 93.5437 97.8217C92.1281 98.922 90.1539 99.0872 88.2364 99.1014C87.5546 99.1014 86.7687 99.0636 85.8313 99.0022C82.9764 98.7756 79.4255 98.497 77.4371 96.0415C76.6701 95.0829 76.173 93.7843 75.9599 92.1788L75.8321 91.2816C75.78 90.8802 75.7326 90.4741 75.69 90.0775C75.7989 88.5522 75.8273 87.0081 75.8321 85.4782C75.8321 84.8643 75.8321 84.2551 75.8226 83.6507L75.851 83.5988ZM76.4618 76.6573C76.4949 72.6482 76.5943 67.5814 76.6843 63.1615C76.689 62.9963 76.6985 62.5382 76.708 62.0094C76.7222 61.1641 76.7458 60.1111 76.7648 59.8844C76.8547 58.7039 77.5744 57.5611 78.6017 56.9756C79.1794 56.6356 79.8469 56.4656 80.5239 56.4798C81.3099 56.4939 82.0958 56.5081 82.8864 56.5223C85.7555 56.5742 88.7241 56.6309 91.6357 56.7206C92.7389 56.8245 93.7805 57.5328 94.3013 58.5245C94.5711 59.0297 94.7037 59.6105 94.6942 60.215C94.6942 61.2302 94.699 62.2502 94.7132 63.2702C94.7747 67.6995 94.9783 72.1619 95.1961 76.3929C95.1961 76.4778 95.215 76.7942 95.215 76.8745C95.2529 77.767 94.9688 78.6264 94.4149 79.3394C94.3344 79.4433 94.2492 79.5378 94.1592 79.6322C93.9746 79.8258 93.7757 79.9958 93.5579 80.1469C92.9141 80.6002 92.1423 80.8552 91.3517 80.8647C90.6699 80.8694 89.9787 80.8788 89.2969 80.8883C89.0697 80.8883 88.8424 80.893 88.6199 80.8977C88.2695 80.8977 87.9145 80.9072 87.5594 80.9119C85.0785 80.9402 82.5361 80.9591 80.0363 80.8836C79.4729 80.8127 78.9237 80.6238 78.4408 80.3358C77.1672 79.585 76.386 78.1447 76.457 76.6667L76.4618 76.6573ZM50.4648 76.8273C49.8114 76.0245 49.4374 75.0471 49.409 74.0696C49.3995 73.791 49.3948 73.5029 49.3853 73.2102C49.3521 71.9588 49.3143 70.58 49.2764 69.1633C49.2622 68.6345 49.248 68.1056 49.2338 67.5673C49.2338 67.4539 49.2291 67.3406 49.2243 67.2273C49.2149 66.9345 49.2101 66.6417 49.2006 66.3442C49.1864 65.8106 49.1722 65.277 49.158 64.7482C49.106 62.6563 49.0539 60.6447 49.0207 58.9683C49.0207 58.9258 49.0207 58.8833 49.0207 58.8456C49.0113 58.5669 49.016 58.3072 49.0302 58.1325C49.0775 57.5753 49.2291 57.0275 49.4705 56.5412C49.6646 56.1351 49.925 55.7668 50.2375 55.4456C51.0282 54.624 52.1455 54.114 53.2912 54.0951C53.9635 54.0762 54.6406 54.0574 55.3223 54.0385C57.1593 53.9912 59.0105 53.9535 60.8143 53.9157C62.3862 53.8826 63.9959 53.8496 65.6009 53.8118C66.562 53.7882 67.5231 53.7646 68.4747 53.7362C68.5078 53.7362 68.5931 53.7362 68.683 53.7315C68.8014 53.7315 68.9481 53.7221 68.9908 53.7221C69.6015 53.7079 70.217 53.8307 70.7662 54.0715C72.1676 54.6807 73.1476 56.1115 73.1997 57.6414C73.2518 58.5953 73.3181 59.6058 73.3796 60.47C73.6069 63.8132 73.9525 67.3784 74.2839 70.8255C74.3407 71.4016 74.3928 71.9682 74.4496 72.5302C74.4591 72.6246 74.4875 72.9835 74.497 73.0685C74.5869 74.2915 74.175 75.4862 73.3323 76.4353C72.4801 77.3939 71.2728 77.9795 70.0134 78.0456C65.6908 78.2959 60.7291 78.4753 54.8394 78.5981C54.1529 78.6264 53.5706 78.6122 52.9646 78.4422C52.0129 78.1967 51.1276 77.6206 50.479 76.8178L50.4648 76.8273ZM57.1025 96.6317C56.8089 96.4381 56.5438 96.2209 56.3024 95.9848C54.6074 94.3274 54.1198 91.6877 53.7694 89.0953C53.6747 88.4247 53.5469 87.3717 53.4238 86.3517C53.3954 86.1393 53.3717 85.9268 53.348 85.7237C53.2723 85.1098 53.2013 84.5526 53.1492 84.1371C52.9788 82.7016 52.8083 81.2661 52.6426 79.8305C52.7042 79.8447 52.7657 79.8589 52.8225 79.8683C53.2392 79.9533 53.67 79.9769 54.0677 79.9769C54.2855 79.9769 54.4938 79.9675 54.6784 79.9533C54.7542 79.9486 54.8252 79.9439 54.8915 79.9391C60.3361 79.585 65.4352 79.3442 70.0513 79.2167C71.4432 79.1883 72.7925 78.6736 73.8862 77.7717C73.9288 79.1789 73.9762 80.6663 73.9998 82.1538C73.9904 82.2482 73.9856 82.3332 73.9809 82.423C73.9762 82.5174 73.9714 82.6118 73.9667 82.7063C73.8909 84.104 73.8957 85.5962 73.9809 87.2631C73.9809 87.2914 73.9809 87.3198 73.9809 87.3481C73.9525 88.3728 73.9051 89.3172 73.8436 90.2191C73.8341 90.3466 73.8247 90.4789 73.8152 90.6063C73.7489 91.3619 73.6779 91.9899 73.5453 92.618C73.498 92.8305 73.4459 93.0241 73.3891 93.1752C72.8399 94.6249 72.196 95.5693 71.2917 96.2351C71.2538 96.2634 71.2112 96.2918 71.1733 96.3154C71.1497 96.3343 71.1213 96.3484 71.0976 96.3673C71.0597 96.3909 71.0218 96.4192 70.9792 96.4429C70.9508 96.4617 70.9224 96.4759 70.8987 96.4948C70.8609 96.5184 70.8183 96.542 70.7804 96.5656C70.752 96.5798 70.7236 96.5987 70.6952 96.6129C70.6573 96.6317 70.6194 96.6553 70.5815 96.6742C70.5484 96.6931 70.52 96.7073 70.4869 96.7262C70.4537 96.7451 70.4206 96.7592 70.3874 96.7781C70.3495 96.797 70.3164 96.8159 70.2785 96.8348C70.2501 96.849 70.217 96.8631 70.1886 96.8773C70.146 96.8962 70.1034 96.9151 70.0607 96.934C70.0371 96.9434 70.0134 96.9528 69.9897 96.9623C69.9424 96.9812 69.8903 97.0048 69.843 97.0237C69.8193 97.0331 69.8004 97.0426 69.7767 97.0473C69.7246 97.0662 69.6725 97.0898 69.6204 97.1087C69.5968 97.1181 69.5778 97.1228 69.5542 97.1323C69.5021 97.1512 69.45 97.1701 69.3932 97.1889C69.3742 97.1937 69.3506 97.2031 69.3316 97.2078C69.2748 97.2267 69.2227 97.2456 69.1659 97.2598C69.1565 97.2598 69.147 97.2645 69.1328 97.2692C67.4568 97.7839 65.5346 97.8548 63.5556 97.8689C63.3567 97.8689 63.1531 97.8642 62.9448 97.8595C60.9611 97.8264 58.8069 97.6989 57.1025 96.6317ZM100.475 108.196C100.461 108.569 100.413 108.952 100.371 109.254C100.342 109.471 100.342 109.693 100.357 109.91C100.101 109.939 99.8406 109.957 99.6181 109.976C98.8511 110.038 98.0557 110.066 97.2887 110.094C96.6022 110.123 95.8968 110.146 95.2055 110.198C93.4349 110.321 91.6405 110.482 89.9029 110.637C88.5678 110.756 87.1901 110.878 85.8313 110.987C85.8029 110.944 85.7697 110.902 85.7413 110.855C85.6514 110.718 85.5662 110.562 85.4904 110.392C85.462 110.331 85.4336 110.269 85.4052 110.208C85.3768 110.146 85.3531 110.085 85.3342 110.024C85.1685 109.509 85.0832 108.947 85.0738 108.39C85.0738 108.111 85.0832 107.828 85.1211 107.554C85.1543 107.275 85.2111 107.006 85.2868 106.742C85.3578 106.487 85.4573 106.236 85.5756 106.005C85.9307 105.306 86.4799 104.725 87.1711 104.329C87.3179 104.248 87.4694 104.173 87.6209 104.107C88.4589 103.748 89.4106 103.611 90.3054 103.578C90.4569 103.573 90.6084 103.568 90.7551 103.568C91.2428 103.568 91.702 103.597 92.1092 103.625C92.4406 103.653 92.7768 103.691 93.1176 103.738C94.983 103.989 96.9147 104.47 98.8748 105.179C98.8984 105.188 98.9458 105.207 98.9931 105.226C99.0405 105.245 99.0926 105.268 99.1162 105.278C99.1494 105.297 99.1872 105.316 99.2204 105.335C99.353 105.405 99.4808 105.481 99.5802 105.566H99.5849C100.186 106.048 100.489 106.874 100.475 108.026C100.475 108.083 100.475 108.135 100.475 108.191V108.196ZM105.408 103.691L105.394 103.738C105.37 103.819 105.352 103.904 105.328 103.984C104.996 105.221 104.641 106.487 104.106 107.615C103.827 108.206 103.491 108.673 103.117 108.999C102.998 109.103 102.861 109.193 102.719 109.278C102.729 109.211 102.733 109.141 102.738 109.074C102.856 107.809 102.748 106.742 102.411 105.811C101.952 104.598 101.114 103.734 99.9163 103.238C99.7459 103.167 99.566 103.101 99.3814 103.049C97.052 102.312 91.2096 100.778 87.2516 102.416C85.5188 103.144 84.2689 104.631 83.8996 106.397C83.6108 107.762 83.7339 109.159 84.2547 110.444V110.453C84.3636 110.68 84.482 110.892 84.6051 111.091C81.8875 111.284 79.6433 111.36 77.5649 111.332C76.5943 111.317 75.7042 111.138 74.8094 110.944C74.2744 110.822 73.872 110.708 73.5169 110.571C72.892 110.321 72.5274 110.057 72.2812 109.669C72.267 109.646 72.2481 109.618 72.2339 109.589C71.964 109.112 71.8741 108.541 71.7888 107.988C71.7794 107.913 71.7652 107.837 71.7557 107.762C71.7273 107.592 71.6989 107.403 71.6705 107.209C71.5521 106.425 71.4148 105.542 71.3296 104.886C71.3296 104.872 71.3296 104.862 71.3248 104.848C71.3248 104.839 71.3248 104.834 71.3201 104.825C71.3201 104.82 71.3201 104.815 71.3154 104.806C71.3154 104.806 71.3154 104.806 71.3154 104.801C71.2822 104.725 71.2207 104.669 71.1449 104.645C70.9982 104.598 70.8372 104.678 70.7899 104.825C70.7141 105.056 70.6573 105.292 70.6005 105.59C70.4774 106.27 70.4158 107.016 70.4064 107.861C70.4064 108.281 70.4064 108.697 70.4679 109.122C70.3353 109.065 70.2122 108.999 70.0986 108.928C70.0939 108.928 70.0891 108.919 70.0844 108.919C70.0513 108.895 70.0134 108.867 69.9803 108.843C69.3932 108.394 68.7919 107.766 68.3469 107.063C68.3374 107.049 68.3279 107.035 68.3185 107.02C68.3185 107.02 68.3137 107.011 68.309 107.006C67.8829 106.293 67.6651 105.59 67.6414 105.032C67.6414 104.995 67.6414 104.957 67.6414 104.919C67.6414 104.825 67.6698 104.588 67.6793 104.475V104.466C67.7219 104.064 67.7693 103.606 67.8119 103.191C67.8213 103.134 67.8308 103.044 67.845 102.898C67.8545 102.799 67.8639 102.7 67.8734 102.634L67.8829 102.549C67.8971 102.412 67.8119 102.289 67.6746 102.256C67.6083 102.237 67.542 102.246 67.4805 102.275C67.4236 102.303 67.3763 102.35 67.3479 102.416C67.1822 102.818 67.0307 103.266 66.8981 103.653L66.8555 103.786C66.7892 103.989 66.7182 104.201 66.6567 104.409C65.3405 102.7 64.0906 101.165 62.8501 99.7389C62.9022 99.7389 62.959 99.7389 63.0159 99.7389C63.1863 99.7389 63.3662 99.7389 63.5603 99.7436C63.8065 99.7436 64.0527 99.7436 64.2989 99.7389C66.5288 99.7058 68.8487 99.5264 71.0076 98.5631C72.0492 98.0909 72.9488 97.4156 73.6163 96.6034C74.104 96.0226 74.5254 95.3096 74.9041 94.4407C75.6711 96.8584 77.2572 98.5111 79.7333 99.4886C82.0958 100.424 84.927 100.627 87.6256 100.754C90.1255 100.825 92.7105 100.679 94.6848 99.1722C95.7121 98.3789 96.3939 97.2787 96.9242 96.3012C96.981 96.1973 97.0283 96.0934 97.0757 95.9848C97.213 95.6637 97.3124 95.3237 97.3929 94.9979C97.4118 95.0593 97.4355 95.116 97.4544 95.1773C98.1125 97.0473 99.2156 98.6009 100.731 99.7955C102.137 100.905 103.865 101.651 105.74 101.968C105.669 102.553 105.56 103.134 105.423 103.691H105.408ZM116.875 90.3844C116.828 91.0974 116.781 91.8058 116.733 92.5093C116.719 92.7407 116.7 92.9721 116.681 93.2082C116.676 93.2932 116.667 93.3829 116.662 93.4679C116.629 93.9354 116.591 94.4124 116.549 94.894C116.525 95.1679 116.501 95.4418 116.473 95.7157L116.463 95.8054C116.444 96.0131 116.421 96.2304 116.397 96.4476C116.354 96.8112 116.307 97.1701 116.246 97.4723C115.692 98.7142 115.043 99.4792 114.129 99.9136C114.115 99.9183 114.101 99.9278 114.087 99.9325C113.679 100.117 113.225 100.244 112.699 100.315C111.199 100.523 109.617 100.438 108.088 100.357C107.889 100.348 107.69 100.339 107.487 100.324C107.269 100.32 107.056 100.306 106.848 100.287C106.706 100.272 106.568 100.258 106.426 100.244C106.081 100.202 105.74 100.14 105.408 100.065C103.95 99.7342 102.643 99.0919 101.559 98.1711C100.466 97.2362 99.637 96.0462 99.1115 94.6626C99.0878 94.6012 99.0641 94.5351 99.0405 94.4737C98.9505 94.2188 98.87 93.959 98.799 93.6899C98.7091 93.3546 98.638 93.0146 98.586 92.6605C98.5623 92.5235 98.5434 92.3866 98.5291 92.2449C98.4818 91.8294 98.4487 91.4044 98.425 90.9936C98.4155 90.8613 98.4061 90.7291 98.3966 90.5969C98.3114 89.2558 98.2498 87.8203 98.2214 86.3329C98.2072 85.3932 98.2025 84.4723 98.2119 83.6035C98.6096 83.8443 99.031 84.0379 99.4666 84.1796C99.9542 84.3401 100.475 84.4393 101.01 84.4771L101.502 84.5149C104.807 84.7557 110.342 85.1618 113.518 85.412C113.679 85.4262 113.84 85.4309 114.006 85.4357C115.142 85.4357 116.283 85.1193 117.292 84.5101C117.136 86.4604 117.008 88.4531 116.88 90.3797L116.875 90.3844ZM131.405 92.1505C131.154 93.3074 130.842 94.6343 130.279 95.7582C130.061 96.1784 129.824 96.5279 129.554 96.8112C129.464 96.9056 129.37 96.9906 129.275 97.0709C129.057 97.2503 128.797 97.4156 128.546 97.5762H128.536C126.543 98.87 124.398 99.4839 122.334 99.3564C121.662 99.3233 121.037 99.2383 120.488 99.1061C119.683 98.9031 118.556 98.4734 117.732 97.5762C117.836 97.0237 117.898 96.4712 117.955 95.9234C117.964 95.8479 117.969 95.7676 117.978 95.692C118.007 95.3993 118.04 95.0923 118.073 94.7901C118.182 93.704 118.31 92.4905 118.442 91.2013C118.66 89.0953 118.887 86.9137 119.058 85.1382C119.134 84.3354 119.214 83.4902 119.29 82.6307C119.337 82.5646 119.38 82.4985 119.422 82.4324C119.451 82.4891 119.479 82.5457 119.508 82.6024C120.393 84.2787 122.149 85.4357 124.048 85.5726C124.11 85.5726 124.176 85.582 124.237 85.582C124.289 85.582 124.45 85.5915 124.607 85.6057C124.801 85.6198 125 85.6293 125.066 85.634C127.272 85.7615 129.919 85.9362 132.362 86.1156C132.049 88.42 131.737 90.3986 131.401 92.1552L131.405 92.1505ZM138.592 79.0608C138.583 79.84 138.569 80.808 138.564 80.9119C138.554 81.2377 138.521 81.521 138.46 81.7713C138.266 82.626 137.754 83.3957 137.016 83.9388C136.282 84.4818 135.392 84.7557 134.506 84.7085C132.447 84.614 128.494 84.4204 125.165 84.2032C125.09 84.1985 124.914 84.189 124.739 84.1749C124.536 84.1607 124.327 84.1512 124.247 84.1418C122.197 84.0238 120.492 82.2671 120.454 80.2225C120.454 80.1752 120.454 80.128 120.454 80.0761C120.454 79.925 120.469 79.7691 120.478 79.6322C120.639 77.3798 120.838 74.7212 121.008 72.483C121.046 71.9683 121.084 71.4724 121.122 71.0097C121.122 70.9766 121.127 70.9483 121.132 70.9152C121.174 70.4241 121.221 69.8055 121.278 69.1161C121.34 68.3795 121.406 67.5484 121.477 66.7173C121.61 65.1307 121.742 63.5346 121.827 62.5713C121.903 61.7685 122.268 60.9988 122.822 60.4086C122.978 60.2386 123.153 60.0875 123.343 59.9505C123.404 59.9033 123.47 59.8608 123.532 59.823C123.631 59.7616 123.731 59.705 123.835 59.653C124.342 59.3933 124.905 59.2611 125.478 59.2611C125.577 59.2611 125.677 59.2611 125.776 59.2753C126.586 59.3366 127.916 59.4453 129.09 59.5397C129.237 59.5491 129.379 59.5633 129.516 59.5728C129.611 59.5822 129.701 59.5869 129.791 59.5964C129.881 59.6058 129.971 59.6105 130.061 59.62C130.454 59.653 130.814 59.6814 131.102 59.705C131.727 59.7569 132.57 59.8277 133.417 59.8939C133.612 59.908 133.81 59.9269 134.005 59.9411L135.936 60.1016C136.059 60.1111 136.197 60.13 136.31 60.1489C136.452 60.1725 136.594 60.2055 136.732 60.248C138.062 60.6541 139.08 61.9338 139.118 63.3315C139.118 63.3646 139.118 63.3976 139.118 63.426C139.118 63.4732 139.118 63.5157 139.118 63.5676V63.6857C139.085 64.1249 139.061 64.564 139.037 65.0032C138.995 65.7351 138.957 66.4623 138.919 67.1753C138.801 69.508 138.711 72.0485 138.654 74.8865C138.635 75.8309 138.621 76.8084 138.606 77.8236C138.606 77.9323 138.597 78.4517 138.588 79.0561L138.592 79.0608Z" fill="#1E1E1C"/>
<path d="M122.036 97.0237C121.884 97.0425 121.757 97.1464 121.714 97.2928C121.714 97.307 121.709 97.3164 121.704 97.3306C121.704 97.3542 121.7 97.3778 121.7 97.4014C121.7 97.4628 121.719 97.5242 121.747 97.5761C121.785 97.6423 121.837 97.6942 121.903 97.7272C121.927 97.7367 121.951 97.7461 121.974 97.7556C122.064 97.7792 122.145 97.7981 122.225 97.8122L122.273 97.8217C122.666 97.8925 123.087 97.9256 123.56 97.9256C123.783 97.9256 124.01 97.9161 124.252 97.902C125.09 97.8406 125.79 97.7225 126.463 97.5431C126.477 97.5431 126.496 97.5336 126.515 97.5289C126.624 97.5006 126.751 97.4534 126.865 97.4109C126.922 97.3873 126.979 97.3684 127.031 97.3495H127.04C127.22 97.2739 127.409 97.1842 127.58 97.0945H127.589C127.618 97.0709 127.66 97.0473 127.708 97.0189C127.802 96.9623 127.916 96.9009 127.973 96.8631H127.978C128.02 96.83 128.063 96.8017 128.105 96.7687C128.181 96.7167 128.266 96.6601 128.337 96.6034C129.123 95.9848 129.668 95.2859 129.952 94.5257C130.004 94.384 129.952 94.2282 129.824 94.1432C129.692 94.0582 129.531 94.0723 129.417 94.1762C129.218 94.3651 129.019 94.5398 128.835 94.6909C128.517 94.9507 128.167 95.1962 127.826 95.404C127.405 95.659 126.969 95.862 126.534 96.0179L126.193 96.1312C126.136 96.1453 126.041 96.169 125.961 96.1926C125.947 96.1926 125.928 96.202 125.913 96.2067C125.89 96.2115 125.871 96.2209 125.852 96.2256C125.852 96.2256 125.852 96.2256 125.847 96.2256C125.686 96.2681 125.511 96.3059 125.336 96.3437C125.251 96.3626 125.17 96.3815 125.09 96.4003C124.114 96.6223 123.281 96.7923 122.538 96.9292L122.031 97.0142L122.036 97.0237Z" fill="#1E1E1C"/>
<path d="M103.103 95.5409C103.747 96.2256 104.613 96.7356 105.607 97.0048C106.043 97.1134 106.479 97.1653 106.905 97.1653C107.634 97.1653 108.325 97.0095 108.926 96.7073L109.244 96.5467L108.912 96.4145C108.145 96.1123 107.378 95.9281 106.64 95.7487C106.199 95.6401 105.74 95.5315 105.286 95.3993C104.755 95.2576 104.268 95.1443 103.794 95.0593C103.557 95.0168 103.278 94.9696 102.98 94.9412L102.663 94.9129L102.828 95.1868C102.899 95.3001 102.985 95.4087 103.103 95.5457V95.5409Z" fill="#1E1E1C"/>
<path d="M109.357 98.1097C109.167 98.0908 108.973 98.072 108.775 98.0531C108.651 98.0389 108.528 98.0247 108.405 98.0106C108.386 98.0106 108.372 98.0106 108.353 98.0058C106.587 97.7839 104.741 97.4014 103.349 96.9528C102.71 96.7545 102.175 96.5656 101.678 96.3578L100.939 96.0509L101.502 96.6176C102.795 97.9209 104.656 98.6433 105.986 99.0211C106.796 99.2525 107.719 99.4225 108.732 99.5216C109.177 99.5594 109.613 99.5783 110.029 99.5783C110.725 99.5783 111.383 99.5264 111.999 99.4272C113.386 99.1817 114.446 98.7567 115.152 98.157C115.251 98.072 115.346 97.9822 115.431 97.8925L115.952 97.3353L115.251 97.6375C113.637 98.3317 111.156 98.2845 109.357 98.1192V98.1097Z" fill="#1E1E1C"/>
<path d="M81.7694 96.3248C83.1613 96.9623 84.8326 97.2976 86.4707 97.2976C87.214 97.2976 87.9479 97.2267 88.6486 97.0898C88.748 97.0709 88.8474 97.0473 88.9468 97.0237C88.9989 97.0095 89.0557 96.9954 89.1125 96.9812C89.1362 96.9765 89.1599 96.967 89.1835 96.9623C89.1977 96.9623 89.2072 96.9576 89.2214 96.9529C89.9127 96.764 90.4524 96.5326 90.8785 96.287C91.3046 96.0415 91.7118 95.7346 92.029 95.3426C92.0337 95.3379 92.0384 95.3285 92.0432 95.3237C92.0526 95.3096 92.0668 95.2954 92.0763 95.2812C92.1 95.2529 92.1237 95.2198 92.1426 95.1915L92.5214 94.6532L91.9343 94.9601C89.6144 96.1737 85.5285 95.8762 83.2512 95.5835C83.2276 95.5835 83.2039 95.5787 83.1802 95.574C82.9767 95.5457 82.7825 95.5126 82.5932 95.4843C82.579 95.4843 82.56 95.4796 82.5411 95.4748C82.5174 95.4748 82.4937 95.4654 82.4701 95.4607C82.4275 95.4512 82.3848 95.4465 82.3422 95.4371C82.3422 95.4371 82.3375 95.4371 82.3328 95.4371C81.5421 95.3001 80.8651 95.1396 80.207 94.946L79.582 94.7571L80.0507 95.2104C80.5999 95.744 81.2912 96.0982 81.7646 96.3201L81.7694 96.3248Z" fill="#1E1E1C"/>
<path d="M67.069 95.6259H67.0785C67.2584 95.5173 67.4667 95.3851 67.6324 95.2293C67.8502 95.0262 67.9828 94.8279 68.0301 94.6296L68.1438 94.181L67.7792 94.4643C67.3626 94.7807 66.553 94.861 65.7292 94.861C65.1658 94.861 64.6024 94.8185 64.1573 94.7807C64.0058 94.7712 63.8638 94.7571 63.7454 94.7523C63.0021 94.6815 62.2351 94.6296 61.4966 94.5823C60.6065 94.5257 59.688 94.4643 58.8026 94.3699L58.3008 94.3179L58.6795 94.6485C59.3234 95.2151 60.1378 95.5173 60.9284 95.7581C62.2067 96.1076 63.2814 96.2351 64.1668 96.2351C65.5966 96.2351 66.5388 95.8998 67.069 95.6306V95.6259Z" fill="#1E1E1C"/>
<path d="M54.7686 76.0387V76.2134L54.9437 76.1851L65.7762 75.7742H65.8425L68.8205 72.5774L68.6027 66.8825L65.388 63.9218L58.5183 64.1815L58.3762 60.4841L68.3376 60.1063L68.1813 56.0878L54.0205 56.6262L54.7638 76.0387V76.0481L54.7686 76.0387ZM63.3948 68.0158L64.2848 68.7005L64.3748 71.0805L63.5415 71.8313L59.0012 72.0013L58.8544 68.1858L63.3948 68.0158Z" fill="#1E1E1C"/>
<path d="M83.0664 77.8426L83.0285 72.5302L88.4542 72.4924L88.4921 77.8048L92.8667 77.7765L92.7673 63.2891V63.223L87.7204 58.2742L87.673 58.227L83.6156 58.2553L78.5923 63.3221L78.6917 77.8756L83.0664 77.8473V77.8426ZM85.6703 62.373L88.4021 65.0551L88.4258 68.1387L83.0001 68.1764L82.9764 65.0929L85.6703 62.373Z" fill="#1E1E1C"/>
<path d="M105.19 79.2072L109.385 79.4953L110.488 63.6621L115.464 64.0068L115.72 60.3047L101.583 59.3272L101.322 63.0293L106.298 63.374L105.19 79.2072Z" fill="#1E1E1C"/>
<path d="M126.808 61.6741H126.742L123.4 64.4837L122.926 70.1644L125.601 73.2668L122.5 75.8545L122.443 75.9018V75.9679L122.031 80.9261L126.396 81.285L126.718 77.3798L130.932 73.8665L132.428 73.9893L131.784 81.7288L136.149 82.0877L137.769 62.5713L126.799 61.6694L126.808 61.6741ZM132.788 69.7253L127.964 69.3286L127.452 68.5825L127.627 66.5001L128.546 65.8531L133.077 66.2262L132.788 69.7253Z" fill="#1E1E1C"/>
</svg>
