<svg width="100" height="113" viewBox="0 0 100 113" fill="none" xmlns="http://www.w3.org/2000/svg">
<path fill-rule="evenodd" clip-rule="evenodd" d="M61.4051 99.3395C83.4016 94.1395 99.7696 74.377 99.7696 50.7915C99.7696 23.2409 77.4354 0.906738 49.8848 0.906738C22.3342 0.906738 0 23.2409 0 50.7915C0 78.0617 21.8819 100.221 49.0452 100.669L62.7375 112.605L61.4051 99.3395Z" fill="#D7A461"/>
<path d="M23.6785 43.3249C23.6785 44.4495 23.4598 45.3982 23.0225 46.1709C22.5851 46.9404 21.9949 47.524 21.2517 47.9219C20.5086 48.3165 19.68 48.5138 18.7658 48.5138C17.8451 48.5138 17.0132 48.3148 16.2701 47.917C15.5302 47.5158 14.9416 46.9305 14.5043 46.161C14.0702 45.3883 13.8532 44.4429 13.8532 43.3249C13.8532 42.2004 14.0702 41.2533 14.5043 40.4839C14.9416 39.7112 15.5302 39.1275 16.2701 38.7329C17.0132 38.335 17.8451 38.1361 18.7658 38.1361C19.68 38.1361 20.5086 38.335 21.2517 38.7329C21.9949 39.1275 22.5851 39.7112 23.0225 40.4839C23.4598 41.2533 23.6785 42.2004 23.6785 43.3249ZM20.8572 43.3249C20.8572 42.7199 20.7766 42.2102 20.6155 41.7959C20.4576 41.3783 20.2225 41.0626 19.9101 40.8489C19.601 40.6319 19.2196 40.5234 18.7658 40.5234C18.3121 40.5234 17.929 40.6319 17.6166 40.8489C17.3075 41.0626 17.0724 41.3783 16.9113 41.7959C16.7534 42.2102 16.6745 42.7199 16.6745 43.3249C16.6745 43.93 16.7534 44.4413 16.9113 44.8589C17.0724 45.2732 17.3075 45.5889 17.6166 45.8059C17.929 46.0196 18.3121 46.1265 18.7658 46.1265C19.2196 46.1265 19.601 46.0196 19.9101 45.8059C20.2225 45.5889 20.4576 45.2732 20.6155 44.8589C20.7766 44.4413 20.8572 43.93 20.8572 43.3249ZM24.9473 48.3757V38.2742H32.0499V40.4839H27.6897V41.6677H28.7156C29.564 41.6677 30.3055 41.8041 30.9401 42.077C31.578 42.35 32.0729 42.7347 32.4248 43.2312C32.7799 43.7277 32.9575 44.3114 32.9575 44.9822C32.9575 45.653 32.7799 46.2432 32.4248 46.7529C32.0729 47.2626 31.578 47.6605 30.9401 47.9466C30.3055 48.2326 29.564 48.3757 28.7156 48.3757H24.9473ZM27.6897 46.2252H28.7156C29.0445 46.2252 29.3207 46.1709 29.5443 46.0624C29.7712 45.9539 29.9421 45.8043 30.0572 45.6135C30.1756 45.4228 30.2348 45.2058 30.2348 44.9625C30.2348 44.6172 30.1049 44.3311 29.8451 44.1042C29.5854 43.8741 29.2089 43.759 28.7156 43.759H27.6897V46.2252ZM35.3867 48.5138V46.383H35.8799C36.1693 46.383 36.3978 46.36 36.5655 46.3139C36.7365 46.2646 36.868 46.1791 36.9601 46.0575C37.0554 45.9325 37.136 45.7582 37.2018 45.5346L37.3004 45.2387L33.5124 38.2742H36.3139L38.425 42.3779L40.0428 38.2742H42.8049L39.3325 46.166C39.1418 46.5803 38.9149 46.9667 38.6519 47.3251C38.3888 47.6802 38.0616 47.9679 37.6703 48.1882C37.279 48.4053 36.794 48.5138 36.2153 48.5138H35.3867ZM44.3044 38.2742H46.9481V41.4506C46.9481 41.7663 47.0024 42.0244 47.1109 42.225C47.2227 42.4256 47.4085 42.5736 47.6682 42.6689C47.9313 42.7643 48.2897 42.812 48.7435 42.812C48.8257 42.812 48.9589 42.8103 49.143 42.807C49.3304 42.8005 49.5327 42.7922 49.7497 42.7824C49.9667 42.7692 50.1656 42.7544 50.3465 42.738C50.5306 42.7183 50.6605 42.6969 50.7362 42.6739V44.7455C50.6507 44.775 50.5093 44.8014 50.312 44.8244C50.1147 44.8441 49.9026 44.8622 49.6757 44.8786C49.4521 44.8918 49.2515 44.9033 49.074 44.9132C48.8964 44.9197 48.7862 44.923 48.7435 44.923C47.8557 44.923 47.078 44.7964 46.4105 44.5432C45.743 44.29 45.2251 43.907 44.8568 43.394C44.4885 42.881 44.3044 42.2332 44.3044 41.4506V38.2742ZM50.2232 38.2742H52.8867V48.3757H50.2232V38.2742ZM57.3985 48.3757H54.4391L57.7734 38.2742H61.522L64.8563 48.3757H61.8969L59.6872 41.056H59.6082L57.3985 48.3757ZM56.8461 44.3903H62.4098V46.4422H56.8461V44.3903ZM65.8292 48.3757V38.2742H73.1093V40.4839H68.5716V42.2201H72.7345V44.4298H68.5716V46.166H73.0896V48.3757H65.8292ZM74.4694 38.2742H77.8826L80.2304 43.9957H80.3488L82.6966 38.2742H86.1098V48.3757H83.4266V42.5358H83.3477L81.0985 48.2968H79.4807L77.2316 42.4963H77.1526V48.3757H74.4694V38.2742ZM33.2996 59.0623H30.5178C30.4981 58.8321 30.4455 58.6233 30.36 58.4358C30.2778 58.2484 30.1627 58.0873 30.0147 57.9525C29.87 57.8144 29.6941 57.7091 29.4869 57.6368C29.2798 57.5612 29.0447 57.5234 28.7816 57.5234C28.3213 57.5234 27.9316 57.6352 27.6126 57.8588C27.297 58.0824 27.0569 58.403 26.8925 58.8206C26.7314 59.2382 26.6508 59.7396 26.6508 60.3249C26.6508 60.9431 26.733 61.461 26.8974 61.8786C27.0651 62.2929 27.3068 62.6053 27.6225 62.8158C27.9382 63.0229 28.318 63.1265 28.7619 63.1265C29.0151 63.1265 29.242 63.0953 29.4425 63.0328C29.6431 62.967 29.8174 62.8733 29.9654 62.7517C30.1133 62.63 30.2334 62.4837 30.3254 62.3127C30.4208 62.1384 30.4849 61.9427 30.5178 61.7257L33.2996 61.7455C33.2668 62.1729 33.1467 62.6086 32.9396 63.0525C32.7324 63.4932 32.4381 63.9009 32.0567 64.2758C31.6785 64.6473 31.21 64.9466 30.651 65.1734C30.092 65.4003 29.4425 65.5138 28.7027 65.5138C27.7754 65.5138 26.9435 65.3148 26.2069 64.917C25.4736 64.5191 24.8933 63.9338 24.4658 63.161C24.0416 62.3883 23.8295 61.4429 23.8295 60.3249C23.8295 59.2004 24.0465 58.2533 24.4806 57.4839C24.9146 56.7112 25.4999 56.1275 26.2365 55.7329C26.9731 55.335 27.7951 55.1361 28.7027 55.1361C29.3406 55.1361 29.9276 55.2232 30.4635 55.3975C30.9995 55.5718 31.4697 55.8266 31.8742 56.162C32.2786 56.4941 32.6042 56.9035 32.8508 57.3902C33.0974 57.8768 33.247 58.4342 33.2996 59.0623ZM37.3109 65.3757V55.2742H40.0533V59.2201H43.6835V55.2742H46.4259V65.3757H43.6835V61.4298H40.0533V65.3757H37.3109ZM49.188 65.5138V63.383H49.6812C49.9706 63.383 50.1991 63.36 50.3668 63.3139C50.5378 63.2646 50.6694 63.1791 50.7614 63.0575C50.8568 62.9325 50.9374 62.7582 51.0031 62.5346L51.1018 62.2387L47.3137 55.2742H50.1153L52.2263 59.3779L53.8442 55.2742H56.6063L53.1339 63.166C52.9432 63.5803 52.7163 63.9667 52.4532 64.3251C52.1902 64.6802 51.863 64.9679 51.4717 65.1882C51.0804 65.4053 50.5954 65.5138 50.0166 65.5138H49.188ZM57.1587 65.3757V63.2646L57.4349 63.2252C57.7703 63.1726 58.0482 63.0279 58.2685 62.7911C58.4921 62.5511 58.6631 62.1713 58.7815 61.6517C58.9031 61.1289 58.9804 60.417 59.0133 59.516L59.1711 55.2742H66.4907V65.3757H63.847V57.405H61.6965L61.5386 60.5814C61.4795 61.7586 61.3216 62.6974 61.0651 63.3978C60.8087 64.0982 60.419 64.6029 59.8962 64.912C59.3733 65.2211 58.6844 65.3757 57.8295 65.3757H57.1587ZM76.1347 65.3757H73.3923V57.4642H72.4256C72.1066 57.4642 71.8321 57.5086 71.6019 57.5973C71.3717 57.6828 71.1941 57.8177 71.0692 58.0018C70.9475 58.1826 70.8867 58.4178 70.8867 58.7071C70.8867 58.9932 70.9475 59.225 71.0692 59.4026C71.1941 59.5801 71.3717 59.71 71.6019 59.7922C71.8321 59.8712 72.1066 59.9106 72.4256 59.9106H74.4775V62.0414H71.8732C71.107 62.0414 70.4346 61.9148 69.8558 61.6616C69.2771 61.4084 68.8266 61.0336 68.5044 60.537C68.1854 60.0405 68.0259 59.4305 68.0259 58.7071C68.0259 57.9903 68.1821 57.3754 68.4945 56.8624C68.8069 56.3495 69.2442 55.9565 69.8065 55.6836C70.3721 55.4107 71.0281 55.2742 71.7745 55.2742H76.1347V65.3757ZM70.2159 60.7393H73.1358L70.6697 65.3757H67.6905L70.2159 60.7393Z" fill="#1B1B1B"/>
</svg>
