<svg width="247" height="238" viewBox="0 0 247 238" fill="none" xmlns="http://www.w3.org/2000/svg">
<path fill-rule="evenodd" clip-rule="evenodd" d="M246.499 118.623C246.499 184.069 193.445 237.123 127.999 237.123C62.5538 237.123 9.49951 184.069 9.49951 118.623C9.49951 98.4099 14.5604 79.3787 23.4842 62.7276L0.879639 35.1231L39.1895 40.167C60.9013 15.6084 92.642 0.123108 127.999 0.123108C193.445 0.123108 246.499 53.1774 246.499 118.623Z" fill="#294680"/>
<path d="M62.69 105.869C62.69 108.562 62.1664 110.833 61.1192 112.683C60.0721 114.526 58.6588 115.923 56.8795 116.876C55.1001 117.821 53.1161 118.293 50.9273 118.293C48.7228 118.293 46.7309 117.817 44.9515 116.864C43.18 115.903 41.7707 114.502 40.7236 112.66C39.6843 110.809 39.1647 108.546 39.1647 105.869C39.1647 103.176 39.6843 100.909 40.7236 99.0664C41.7707 97.2162 43.18 95.8187 44.9515 94.8739C46.7309 93.9212 48.7228 93.4449 50.9273 93.4449C53.1161 93.4449 55.1001 93.9212 56.8795 94.8739C58.6588 95.8187 60.0721 97.2162 61.1192 99.0664C62.1664 100.909 62.69 103.176 62.69 105.869ZM55.9347 105.869C55.9347 104.42 55.7418 103.2 55.356 102.208C54.9781 101.208 54.4152 100.452 53.6672 99.9403C52.9271 99.4207 52.0138 99.1609 50.9273 99.1609C49.8408 99.1609 48.9236 99.4207 48.1756 99.9403C47.4355 100.452 46.8726 101.208 46.4868 102.208C46.1089 103.2 45.9199 104.42 45.9199 105.869C45.9199 107.318 46.1089 108.542 46.4868 109.542C46.8726 110.534 47.4355 111.29 48.1756 111.809C48.9236 112.321 49.8408 112.577 50.9273 112.577C52.0138 112.577 52.9271 112.321 53.6672 111.809C54.4152 111.29 54.9781 110.534 55.356 109.542C55.7418 108.542 55.9347 107.318 55.9347 105.869ZM65.728 117.962V93.7756H82.7343V99.0664H72.2943V101.901H74.7508C76.7821 101.901 78.5575 102.228 80.0771 102.881C81.6045 103.534 82.7894 104.456 83.6318 105.645C84.4821 106.833 84.9073 108.231 84.9073 109.837C84.9073 111.443 84.4821 112.856 83.6318 114.077C82.7894 115.297 81.6045 116.25 80.0771 116.935C78.5575 117.62 76.7821 117.962 74.7508 117.962H65.728ZM72.2943 112.813H74.7508C75.5381 112.813 76.1995 112.683 76.7349 112.423C77.2781 112.164 77.6875 111.805 77.9631 111.349C78.2465 110.892 78.3882 110.372 78.3882 109.79C78.3882 108.963 78.0772 108.278 77.4553 107.735C76.8333 107.184 75.9318 106.908 74.7508 106.908H72.2943V112.813ZM90.7237 118.293V113.191H91.9046C92.5975 113.191 93.1447 113.136 93.5462 113.026C93.9556 112.908 94.2706 112.703 94.491 112.412C94.7193 112.112 94.9122 111.695 95.0697 111.16L95.3059 110.451L86.2359 93.7756H92.9439L97.9985 103.601L101.872 93.7756H108.486L100.172 112.671C99.7149 113.663 99.1717 114.589 98.5418 115.447C97.9119 116.297 97.1285 116.986 96.1916 117.513C95.2547 118.033 94.0934 118.293 92.7077 118.293H90.7237ZM112.076 93.7756H118.406V101.381C118.406 102.137 118.536 102.755 118.796 103.235C119.063 103.716 119.508 104.07 120.13 104.298C120.76 104.527 121.618 104.641 122.705 104.641C122.902 104.641 123.221 104.637 123.661 104.629C124.11 104.613 124.594 104.593 125.114 104.57C125.634 104.538 126.11 104.503 126.543 104.464C126.984 104.416 127.295 104.365 127.476 104.31V109.27C127.271 109.341 126.933 109.404 126.46 109.459C125.988 109.506 125.48 109.55 124.937 109.589C124.401 109.621 123.921 109.648 123.496 109.672C123.071 109.687 122.807 109.695 122.705 109.695C120.579 109.695 118.717 109.392 117.119 108.786C115.52 108.18 114.28 107.262 113.399 106.034C112.517 104.806 112.076 103.255 112.076 101.381V93.7756ZM126.248 93.7756H132.625V117.962H126.248V93.7756ZM143.428 117.962H136.342L144.326 93.7756H153.301L161.285 117.962H154.199L148.908 100.436H148.719L143.428 117.962ZM142.105 108.42H155.427V113.333H142.105V108.42ZM163.614 117.962V93.7756H181.046V99.0664H170.181V103.223H180.148V108.514H170.181V112.671H180.998V117.962H163.614ZM184.302 93.7756H192.475L198.096 107.475H198.38L204.001 93.7756H212.174V117.962H205.749V103.979H205.56L200.175 117.773H196.301L190.916 103.885H190.727V117.962H184.302V93.7756ZM85.7266 142.846H79.0658C79.0186 142.294 78.8926 141.794 78.6879 141.346C78.4911 140.897 78.2155 140.511 77.8612 140.188C77.5148 139.858 77.0936 139.606 76.5976 139.433C76.1015 139.251 75.5386 139.161 74.9087 139.161C73.8065 139.161 72.8735 139.429 72.1098 139.964C71.354 140.499 70.7792 141.267 70.3856 142.267C69.9998 143.267 69.8069 144.467 69.8069 145.869C69.8069 147.349 70.0037 148.589 70.3974 149.589C70.7989 150.581 71.3776 151.329 72.1334 151.833C72.8893 152.329 73.7986 152.577 74.8615 152.577C75.4678 152.577 76.011 152.502 76.4913 152.353C76.9715 152.195 77.3888 151.971 77.7431 151.679C78.0974 151.388 78.3848 151.038 78.6052 150.628C78.8336 150.211 78.9871 149.743 79.0658 149.223L85.7266 149.27C85.6479 150.294 85.3605 151.337 84.8645 152.4C84.3685 153.455 83.6638 154.431 82.7505 155.329C81.8451 156.218 80.7231 156.935 79.3847 157.478C78.0462 158.021 76.4913 158.293 74.7198 158.293C72.4995 158.293 70.5076 157.817 68.744 156.864C66.9883 155.911 65.5986 154.51 64.5751 152.66C63.5595 150.809 63.0516 148.546 63.0516 145.869C63.0516 143.176 63.5713 140.909 64.6105 139.066C65.6498 137.216 67.0512 135.819 68.8149 134.874C70.5785 133.921 72.5468 133.445 74.7198 133.445C76.2472 133.445 77.6526 133.654 78.9359 134.071C80.2193 134.488 81.3451 135.098 82.3135 135.901C83.282 136.697 84.0614 137.677 84.6519 138.842C85.2424 140.007 85.6006 141.342 85.7266 142.846ZM95.331 157.962V133.776H101.897V143.223H110.589V133.776H117.156V157.962H110.589V148.514H101.897V157.962H95.331ZM123.769 158.293V153.191H124.95C125.643 153.191 126.19 153.136 126.592 153.026C127.001 152.908 127.316 152.703 127.537 152.412C127.765 152.112 127.958 151.695 128.115 151.16L128.351 150.451L119.281 133.776H125.989L131.044 143.601L134.918 133.776H141.531L133.217 152.671C132.76 153.663 132.217 154.589 131.587 155.447C130.957 156.297 130.174 156.986 129.237 157.513C128.3 158.033 127.139 158.293 125.753 158.293H123.769ZM142.854 157.962V152.908L143.515 152.813C144.318 152.687 144.984 152.341 145.511 151.774C146.047 151.199 146.456 150.29 146.739 149.046C147.031 147.794 147.216 146.089 147.294 143.932L147.672 133.776H165.198V157.962H158.868V138.877H153.719L153.341 146.483C153.199 149.302 152.821 151.549 152.207 153.226C151.593 154.903 150.66 156.112 149.408 156.852C148.157 157.592 146.507 157.962 144.46 157.962H142.854ZM188.289 157.962H181.723V139.019H179.408C178.645 139.019 177.987 139.125 177.436 139.338C176.885 139.543 176.46 139.866 176.161 140.306C175.869 140.739 175.724 141.302 175.724 141.995C175.724 142.68 175.869 143.235 176.161 143.66C176.46 144.086 176.885 144.397 177.436 144.593C177.987 144.782 178.645 144.877 179.408 144.877H184.321V149.979H178.086C176.251 149.979 174.641 149.676 173.256 149.069C171.87 148.463 170.791 147.566 170.02 146.377C169.256 145.188 168.874 143.727 168.874 141.995C168.874 140.279 169.248 138.807 169.996 137.578C170.744 136.35 171.791 135.409 173.137 134.756C174.492 134.102 176.062 133.776 177.85 133.776H188.289V157.962ZM174.118 146.861H181.109L175.204 157.962H168.071L174.118 146.861Z" fill="white"/>
</svg>
