<svg width="206" height="167" viewBox="0 0 206 167" fill="none" xmlns="http://www.w3.org/2000/svg">
<g clip-path="url(#clip0_1002_983)">
<path d="M104.672 166.742C150.741 166.742 188.087 129.583 188.087 83.7444C188.087 37.9062 150.741 0.74707 104.672 0.74707C58.6024 0.74707 21.2561 37.9062 21.2561 83.7444C21.2561 129.583 58.6024 166.742 104.672 166.742Z" fill="white"/>
<g filter="url(#filter0_d_1002_983)">
<path d="M186.337 52.5082L156.53 51.1139C153.924 47.1635 149.595 44.9316 144.404 44.9316C144.274 44.9316 144.139 44.9316 144.009 44.9316C143.754 44.9316 143.51 44.937 143.288 44.9478C140.693 41.4189 137.339 38.8249 134.776 37.1766L134.716 37.1387C133.318 36.2579 132.023 35.5823 130.734 35.0635C128.794 34.2908 126.724 33.8962 124.584 33.8962C123.376 33.8962 122.167 34.0259 120.991 34.2799C119.16 34.6636 117.61 35.2905 116.175 35.9066C115.031 36.3714 113.921 36.8577 112.848 37.3333C112.669 37.2036 112.485 37.0793 112.3 36.9604C110.902 36.0363 109.607 35.4526 108.453 34.9284L108.41 34.9068C108.155 34.7501 107.521 34.2205 107.288 34.0314L106.958 33.7557C106.172 33.1018 105.197 32.2858 104.368 31.6589L104.341 31.6427C103.143 30.7294 101.653 29.5891 99.6919 28.7569C96.9828 27.5896 93.9485 26.9951 90.6704 26.9951C88.7956 26.9951 86.8505 27.1897 84.889 27.5734L84.7373 27.6058L84.5531 27.649C81.8277 28.3137 79.8391 29.6648 78.3816 30.6537L78.322 30.6916C78.0186 30.8969 77.7151 31.1077 77.4171 31.3131C76.8699 31.6913 76.1221 32.2155 75.5803 32.5182C75.5749 32.5182 75.5695 32.5182 75.564 32.5128C74.7025 32.2318 73.7218 31.9183 72.6165 31.6751C71.0939 31.3455 69.062 30.9726 66.7917 30.9726C64.8845 30.9726 63.0694 31.2428 61.4059 31.7724C56.2151 33.4045 52.0918 37.263 48.8029 43.5751C48.3856 44.3479 48.0226 45.1639 47.7138 46.0232L21.3156 44.7857C21.0826 44.7748 20.8496 44.7694 20.6166 44.7694C12.527 44.7694 5.88416 51.222 5.49404 59.458L5.47778 59.8093L8.10026 109.792L26.6256 110.706L52.7474 111.992C53.9503 114.878 55.8521 117.596 58.9622 119.601L59.0002 119.628C60.3114 120.46 61.731 121.103 63.2969 121.568C64.0988 122.525 64.9929 123.535 66.0386 124.654C66.9218 125.594 68.038 126.751 69.3167 127.95C69.5497 128.442 69.8098 128.929 70.0969 129.41L70.1565 129.512C71.289 131.333 72.6707 132.809 74.2745 133.895L74.3774 133.965L74.4858 134.03C75.4882 134.662 76.5881 135.138 77.7476 135.441C79.9096 136.867 82.1148 137.359 82.9872 137.554C83.6753 137.71 84.3689 137.84 85.2412 137.975L85.3767 137.997C86.3466 138.132 87.3219 138.191 88.4489 138.191C89.1045 138.191 89.733 138.17 90.3128 138.148H90.3507C92.1279 138.067 93.8401 137.91 95.5144 137.759L97.2699 137.597C100.803 137.267 104.455 136.921 107.901 136.921C108.811 136.921 109.689 136.943 110.512 136.992L110.892 137.013C111.97 137.078 113.194 137.148 114.457 137.148H114.614C116.586 137.148 122.59 137.148 126.632 132.144C127.737 130.793 128.599 129.215 129.265 127.302C129.509 126.599 129.704 125.924 129.861 125.281C130.452 125.211 131.021 125.124 131.59 125.016C133.34 124.676 134.938 124.076 136.358 123.238C137.154 123.47 137.978 123.654 138.834 123.778C139.918 123.946 141.023 124.032 142.107 124.032C144.35 124.032 146.528 123.676 148.582 122.973C150.635 122.282 152.591 121.293 154.569 119.947L154.65 119.887C155.728 119.131 156.677 118.218 157.506 117.142L186.212 118.553L193.359 118.904L200.701 68.9315L200.717 68.5802C201.118 60.1011 194.675 52.8811 186.353 52.492L186.337 52.5082Z" fill="white"/>
</g>
<path d="M183.221 60.382L152.163 58.9283C151.556 58.3014 150.722 57.6637 149.692 57.3665C149.59 57.1125 149.481 56.8747 149.373 56.6423C148.132 54.1888 145.894 52.9891 142.719 53.0702C142.367 53.0702 142.026 53.0864 141.695 53.1026C141.191 53.1242 140.709 53.1512 140.216 53.1134C139.371 53.0053 138.449 52.5946 137.398 51.865C135.502 48.4928 132.31 45.9853 129.959 44.4721C128.962 43.8453 128.073 43.3751 127.239 43.04C125.57 42.3753 123.647 42.2294 121.837 42.6239C120.656 42.8671 119.539 43.3265 118.412 43.8128C117.361 44.2398 116.294 44.7099 115.264 45.1639C114.099 45.6773 112.897 46.2123 111.715 46.677C111.396 46.8013 111.065 46.8716 110.643 46.9473C110.577 46.9581 110.512 46.9689 110.447 46.9797C110.16 45.9691 109.348 44.9747 108.199 44.2344C107.299 43.6399 106.389 43.2238 105.425 42.7914L105.278 42.7266C104.433 42.3321 103.647 41.7106 102.715 40.9378L102.407 40.6784C101.691 40.084 100.803 39.3436 100.125 38.8302L100.098 38.8086C99.1556 38.0898 98.1803 37.344 97.075 36.8793C93.5097 35.3337 89.5326 35.6363 86.8235 36.1659H86.8126C85.393 36.5118 84.2281 37.3062 83.1011 38.0682L83.0306 38.1168C82.7597 38.3006 82.4888 38.4897 82.2233 38.6735C80.6032 39.7975 78.9289 40.9648 76.9892 41.235C76.5123 41.2999 76.0301 41.2513 75.3853 41.0675C75.0548 40.9702 74.708 40.8568 74.345 40.7433C73.6244 40.5109 72.8821 40.2677 72.1614 40.111C69.9507 39.6354 67.3499 39.2517 64.8683 40.0407C61.6823 41.0405 59.0165 43.6777 56.7191 48.1037C56.0744 49.2764 55.6355 50.6761 55.3754 52.3839C55.1478 53.8484 55.034 55.4642 55.0232 57.4692C55.0178 58.9391 55.0665 60.4739 55.1803 62.2951C55.1695 62.3113 55.1587 62.3275 55.1478 62.3383L54.6168 54.3726L23.7214 52.9243C19.4789 52.7243 15.8703 56.1452 15.6589 60.5604L17.8479 102.324L22.8274 102.567L25.7045 67.0129C25.7425 66.3266 25.97 65.7862 26.2193 65.797C26.4685 65.8078 26.6473 66.3698 26.6148 67.0562L26.1163 102.729L29.5353 102.897L32.4125 67.3372C32.4504 66.6509 32.678 66.1105 32.9272 66.1213C33.1764 66.1321 33.3552 66.6941 33.3227 67.3804L32.8242 103.059L36.2378 103.226L39.1149 67.6614C39.1529 66.9751 39.3804 66.4347 39.6297 66.4455C39.8789 66.4563 40.0577 67.0184 40.0252 67.7047L39.5267 103.388L42.9403 103.556L45.8174 67.9857C45.8554 67.2994 46.0829 66.7589 46.3322 66.7698C46.5814 66.7806 46.7602 67.3426 46.7277 68.0289L46.2292 103.718L49.6428 103.886L52.5199 68.3099C52.5579 67.6236 52.7854 67.0832 53.0347 67.094C53.2839 67.1048 53.4627 67.6669 53.4302 68.3532L52.9317 104.048L56.3453 104.215L57.4723 90.2833C57.624 90.3968 57.7866 90.5103 57.9491 90.613C58.3934 94.3689 58.8811 98.3517 59.4012 102.443C59.878 106.242 60.8154 110.419 64.1748 112.581C65.3831 113.348 66.8298 113.846 68.5907 114.1C68.6287 114.208 68.6883 114.305 68.7533 114.397C69.7069 115.651 70.8339 116.964 72.2969 118.531C73.3155 119.612 74.6755 121.022 76.1981 122.357C76.2198 122.379 76.2468 122.395 76.2685 122.411C76.4419 123.027 76.7291 123.67 77.1138 124.313C77.6936 125.248 78.3654 125.983 79.1132 126.491C79.8013 126.924 80.6303 127.161 81.5189 127.178C82.4671 128.285 83.9626 128.734 85.1654 128.999C85.6748 129.112 86.2058 129.215 86.8885 129.323C87.5658 129.415 88.2322 129.447 88.9095 129.447C89.408 129.447 89.9119 129.431 90.4375 129.41C91.998 129.339 93.5747 129.199 95.1027 129.058L95.5416 129.02C95.9588 128.983 96.3706 128.945 96.7878 128.902C101.328 128.475 106.026 128.037 110.637 128.302L111 128.323C112.003 128.383 113.037 128.442 114.072 128.442C116.305 128.453 118.808 128.188 120.433 126.156C120.992 125.481 121.447 124.632 121.821 123.562C122.259 122.292 122.487 121.049 122.633 120.109C122.801 119.034 122.845 118.012 122.763 117.077C122.801 117.077 122.839 117.077 122.877 117.077C125.158 117.185 127.217 117.239 129.282 116.845C131.351 116.445 132.847 115.44 133.849 113.781C133.898 113.705 133.941 113.629 133.99 113.548C134.304 113.829 134.662 114.1 135.052 114.343C136.082 114.98 137.29 115.402 138.645 115.596C140.768 115.932 142.898 115.764 144.8 115.11C146.181 114.645 147.525 113.959 148.912 113.019C149.714 112.457 150.89 111.36 151.795 108.387C152.727 105.15 153.187 101.697 153.556 98.8922H153.659L153.518 108.987L156.926 109.155L157.836 97.8816C158.985 97.1466 159.911 96.0712 160.426 94.785L160.226 109.317L163.634 109.484L166.516 73.8168C166.554 73.1305 166.782 72.5901 167.031 72.6009C167.28 72.6117 167.459 73.1737 167.427 73.86L166.928 109.646L170.336 109.814L173.219 74.141C173.257 73.4547 173.484 72.9143 173.734 72.9251C173.983 72.9359 174.162 73.498 174.129 74.1843L173.631 109.976L177.039 110.144L179.921 74.4653C179.959 73.779 180.187 73.2386 180.436 73.2494C180.685 73.2602 180.864 73.8222 180.832 74.5085L180.333 110.306L184.364 110.506L190.503 68.7207C190.715 64.3055 187.442 60.5658 183.2 60.3658L183.221 60.382ZM154.038 61.7871C153.838 61.3494 153.626 60.9387 153.393 60.5496C153.621 60.9062 153.838 61.3169 154.038 61.7871ZM137.881 64.8891C137.978 64.3379 138.103 63.7867 138.222 63.257C138.428 62.3437 138.639 61.4034 138.742 60.4199C138.747 60.3496 138.758 60.2739 138.764 60.2037C138.812 59.6903 138.845 59.1174 138.856 58.4527C138.856 58.4527 138.856 58.4473 138.856 58.4419C138.856 58.1231 138.856 57.707 138.834 57.2746C138.823 57.0152 138.812 56.745 138.791 56.4856C138.785 56.4208 138.78 56.3235 138.775 56.2262C138.769 56.1073 138.758 55.983 138.753 55.9074C138.731 55.6588 138.693 55.4048 138.65 55.1562C138.775 55.2102 138.894 55.2589 139.013 55.3021C139.062 55.3183 139.11 55.3399 139.159 55.3561C139.181 55.3616 139.197 55.367 139.219 55.3724C139.251 55.3832 139.278 55.394 139.311 55.3994C139.333 55.4048 139.36 55.4102 139.381 55.421C139.408 55.4264 139.436 55.4372 139.463 55.4426C139.49 55.448 139.517 55.4534 139.539 55.4588C139.566 55.4642 139.587 55.4696 139.614 55.475C139.641 55.4804 139.669 55.4858 139.701 55.4913C139.723 55.4913 139.744 55.5021 139.772 55.5075C139.804 55.5129 139.831 55.5183 139.864 55.5237C139.885 55.5237 139.907 55.5291 139.929 55.5345C139.961 55.5345 139.994 55.5453 140.021 55.5507C140.042 55.5507 140.059 55.5561 140.08 55.5615C140.113 55.5615 140.145 55.5723 140.178 55.5723C140.194 55.5723 140.21 55.5723 140.232 55.5777C140.265 55.5777 140.303 55.5831 140.335 55.5885C140.351 55.5885 140.368 55.5885 140.378 55.5885C140.416 55.5885 140.449 55.5939 140.487 55.5993C140.503 55.5993 140.514 55.5993 140.53 55.5993C140.568 55.5993 140.606 55.5993 140.644 55.6047C140.655 55.6047 140.666 55.6047 140.682 55.6047C140.72 55.6047 140.758 55.6047 140.796 55.6101C140.806 55.6101 140.817 55.6101 140.828 55.6101C140.866 55.6101 140.904 55.6101 140.936 55.6101C140.947 55.6101 140.958 55.6101 140.969 55.6101C141.007 55.6101 141.039 55.6101 141.077 55.6101C141.088 55.6101 141.099 55.6101 141.11 55.6101C141.142 55.6101 141.18 55.6101 141.213 55.6101C141.224 55.6101 141.234 55.6101 141.251 55.6101C141.283 55.6101 141.31 55.6101 141.337 55.6101C141.348 55.6101 141.359 55.6101 141.37 55.6101C141.386 55.6101 141.397 55.6101 141.413 55.6101C141.543 55.6101 141.684 55.6101 141.836 55.6101C142.009 55.6101 142.194 55.6101 142.378 55.6101C142.936 55.6101 143.521 55.6209 143.944 55.6696C145.515 55.8209 146.815 56.4154 148.024 58.8202C148.56 59.8416 149.042 60.8846 149.552 61.9871C149.795 62.5113 150.05 63.0571 150.305 63.5921C150.37 63.7218 150.494 63.8083 150.641 63.8245C150.662 63.8245 150.684 63.8245 150.706 63.8245C150.814 63.8191 150.917 63.7704 150.987 63.6894C151.058 63.6083 151.096 63.5002 151.09 63.3921C151.036 62.5491 150.912 61.6844 150.7 60.663C150.63 60.328 150.554 60.0145 150.484 59.7173C152.049 61.0684 152.754 63.1922 153.193 64.9161C153.247 65.1377 153.296 65.3647 153.344 65.6025C152.922 65.5862 152.494 65.57 152.06 65.5538C150.386 65.489 148.658 65.4241 147.189 65.3593L144.133 65.2296C142.86 65.1701 141.549 65.4728 140.454 66.0834C139.739 66.4725 139.105 66.9913 138.569 67.6236C138.336 67.1589 138.048 66.7157 137.723 66.305C137.778 65.8673 137.843 65.3539 137.918 64.8783L137.881 64.8891ZM57.5752 54.3239C57.6077 54.0375 57.6457 53.7457 57.689 53.4539C57.689 53.4539 57.689 53.4485 57.689 53.4431C57.6999 53.3836 57.7053 53.3242 57.7161 53.2647C57.7215 53.2269 57.727 53.1837 57.7324 53.1458C57.7324 53.1134 57.7432 53.081 57.7486 53.0486C57.7595 52.9837 57.7703 52.9135 57.7811 52.8486C57.7811 52.8324 57.7811 52.8216 57.7866 52.8054C57.9654 51.8272 58.2254 50.8491 58.6589 49.9358C58.7023 49.8439 58.751 49.752 58.7944 49.6601C59.5584 48.2659 60.7125 46.3528 62.3109 44.8504C62.4301 44.7369 62.5493 44.6289 62.6739 44.5262C62.7985 44.4235 62.9231 44.3154 63.0532 44.2127C63.1182 44.1641 63.1832 44.1101 63.2482 44.0614C64.7654 42.9211 66.5589 42.4132 68.4282 42.5915C69.9995 42.7212 71.457 43.0184 72.8983 43.5048C73.0554 43.5588 73.2234 43.6129 73.3914 43.6669C74.0362 43.8831 74.7622 44.1317 75.4774 44.256C75.5316 44.2668 75.5858 44.2776 75.64 44.283C75.6888 44.3046 75.7375 44.3262 75.7809 44.3478L75.9813 44.4181C76.5394 44.6235 77.1409 44.8396 77.6719 45.126C77.7315 45.1585 77.7911 45.1909 77.8453 45.2233C78.0132 45.3206 78.1758 45.4287 78.3221 45.5476C78.4684 45.6665 78.6038 45.7908 78.7176 45.9313C79.0102 46.3204 79.1511 46.7797 79.3028 47.2715C79.3624 47.4661 79.4274 47.6714 79.4979 47.8714C79.7742 48.6658 80.1264 49.3089 80.5544 49.7953C80.8091 50.0871 81.0909 50.3195 81.3997 50.4978C81.8007 50.7302 82.2504 50.8599 82.7543 50.8869C82.7976 50.8869 82.8356 50.8869 82.8789 50.8869H82.8897C83.0306 50.8869 83.1769 50.8869 83.3232 50.8707C83.372 50.8707 83.4207 50.8599 83.4749 50.8545C83.605 50.8437 83.7133 50.768 83.7729 50.6599C83.7946 50.6221 83.8054 50.5843 83.8163 50.541C83.8488 50.3681 83.7675 50.2006 83.6212 50.1249C82.9656 49.779 82.4021 49.4332 82.1745 48.7036C81.9957 48.1632 81.9415 47.6012 81.8819 47.0013C81.8169 46.2879 81.7465 45.553 81.443 44.8666C81.313 44.5532 81.1179 44.2235 80.8741 43.9155C80.7278 43.7318 80.5653 43.5534 80.3973 43.3859C81.844 42.7104 83.1661 41.7863 84.4448 40.8892L84.7862 40.646C84.8837 40.5811 84.9866 40.5109 85.0896 40.4406C85.7669 39.9813 86.4713 39.5057 87.2082 39.2409C87.2244 39.2409 87.2407 39.2301 87.2515 39.2247C87.2786 39.2139 87.3057 39.2085 87.3328 39.1977C87.3599 39.1869 87.387 39.1815 87.4141 39.1706C87.4357 39.1652 87.4628 39.1598 87.4845 39.149C87.517 39.1382 87.5441 39.1328 87.5766 39.122C87.853 39.068 88.1293 39.0193 88.411 38.9761C90.0365 38.7275 91.6458 38.6843 93.1142 38.8518C93.2117 38.8626 93.3146 38.8734 93.4122 38.8896C94.8751 39.0896 96.0888 39.5111 97.1075 40.165C98.1532 40.8405 99.1556 41.6079 100.125 42.3483C100.857 42.9049 101.61 43.4832 102.39 44.029C103.078 44.4938 103.685 44.8234 104.26 45.0504L104.281 45.0612C105.17 45.4125 106.091 45.7745 106.871 46.2393C106.996 46.315 107.115 46.396 107.234 46.4771C107.749 46.8338 108.204 47.2499 108.323 47.866C108.351 48.0767 108.367 48.2929 108.383 48.5739C108.405 49.163 108.399 49.7628 108.388 50.3465C108.378 51.1085 108.367 51.8921 108.426 52.6811C108.486 53.4485 108.632 54.124 108.86 54.6914C109.283 55.7452 109.873 56.6748 110.615 57.4584H110.621C110.74 57.5827 110.913 57.6097 111.054 57.5394C111.076 57.5286 111.092 57.5178 111.114 57.507C111.266 57.3989 111.314 57.199 111.233 57.026V57.0152C111.081 56.7504 110.968 56.518 110.875 56.3019C110.659 55.8209 110.491 55.3561 110.361 54.9022C110.285 54.632 110.225 54.3672 110.177 54.1078C110.166 54.0537 110.16 53.9997 110.149 53.9457C110.041 53.1404 110.133 52.3406 110.236 51.503C110.252 51.3679 110.269 51.2274 110.285 51.0923L110.328 50.7626C110.377 50.3789 110.426 49.9844 110.469 49.5845C110.485 49.4494 110.496 49.3197 110.507 49.1846C110.583 49.1792 110.664 49.1684 110.74 49.163C110.81 49.1576 110.881 49.1468 110.951 49.1413C111.331 49.0927 111.683 49.0333 112.003 48.9576C112.198 48.909 112.474 48.8279 112.642 48.7685C112.88 48.6874 113.119 48.6063 113.352 48.5253C114.051 48.2767 114.728 48.0173 115.438 47.7471L115.53 47.7146C115.801 47.612 116.25 47.4336 116.76 47.2337C117.708 46.8608 118.884 46.4014 119.382 46.2177C119.485 46.1799 119.583 46.1366 119.686 46.0988C120.092 45.9367 120.515 45.7691 120.91 45.634C120.964 45.6124 121.024 45.5962 121.078 45.5746C122.958 44.9261 124.687 44.9153 126.215 45.5368C126.388 45.607 126.562 45.6827 126.74 45.7691C127.271 46.0231 127.835 46.342 128.474 46.7473C130.853 48.2929 132.879 50.1357 134.31 52.0056C134.868 52.7405 135.334 53.4755 135.697 54.2051C136.017 54.8806 136.233 55.5399 136.331 56.1614C136.347 56.2857 136.369 56.4262 136.385 56.5667C136.401 56.6964 136.423 56.8261 136.439 56.945C136.439 56.9828 136.45 57.026 136.455 57.0639C136.526 57.6583 136.591 58.2852 136.618 58.8526C136.678 59.7659 136.672 60.7279 136.596 61.7061C136.575 62.0141 136.542 62.3383 136.515 62.6464C136.455 63.3327 136.39 64.0407 136.38 64.7432C136.38 64.8297 136.38 64.9215 136.38 65.0134C135.318 64.1758 134.077 63.6407 132.76 63.457C132.375 63.3976 131.882 63.3759 131.449 63.3597C131.406 63.3597 131.357 63.3597 131.313 63.3543C131.183 63.3489 131.059 63.3435 130.94 63.3381L117.638 62.7545C117.524 62.7491 117.41 62.7491 117.296 62.7491C116.126 62.7491 114.939 63.0301 113.904 63.5543C113.834 63.5867 113.769 63.6245 113.698 63.6624C113.086 63.9974 112.528 64.4135 112.035 64.9107C111.894 63.8785 111.732 62.8625 111.547 61.8844C111.515 61.7223 111.379 61.598 111.217 61.5709C111.011 61.5385 110.816 61.6682 110.762 61.8628C110.762 61.8736 110.756 61.8898 110.751 61.906C110.702 62.2357 110.653 62.5707 110.61 62.9112C110.534 63.4786 110.469 64.0623 110.404 64.6513C109.57 63.5435 108.432 62.7058 107.159 62.2248C107.093 62.1978 107.023 62.1762 106.958 62.1546C106.823 62.106 106.687 62.0627 106.546 62.0249C106.476 62.0033 106.405 61.9871 106.34 61.9709C106.199 61.9384 106.059 61.906 105.918 61.879C105.425 61.7871 104.915 61.7493 104.406 61.7655C103.279 61.7871 102.152 61.8141 101.025 61.8412C98.1099 61.906 95.1027 61.9709 92.1389 62.0195C90.8601 62.0357 89.576 62.4194 88.514 63.0949C87.9396 63.4516 87.4249 63.9001 86.9806 64.4189C86.921 64.1541 86.8451 63.8947 86.7639 63.6461C86.8018 63.3273 86.8506 63.0139 86.9047 62.695C87.2732 60.4847 87.9451 58.3284 88.5573 56.4532C88.5628 56.4316 88.5682 56.4154 88.5736 56.3937C88.579 56.3721 88.5736 56.3559 88.5736 56.3343C88.5736 56.2154 88.5086 56.0965 88.4002 56.0317C88.3189 55.983 88.2214 55.9722 88.1293 55.9938C88.0372 56.0155 87.9613 56.0749 87.9126 56.156C87.7988 56.3451 87.7012 56.5289 87.5983 56.718C87.4682 56.9558 87.3436 57.199 87.2136 57.453C86.9318 58.0096 86.6555 58.6149 86.3575 59.312C86.2816 59.4957 86.2058 59.6741 86.1353 59.8524C85.9565 60.2956 85.7994 60.7279 85.6585 61.1494C85.6314 61.2359 85.5989 61.3169 85.5718 61.4034C85.4797 61.2791 85.3822 61.1602 85.2792 61.0413C85.1275 59.0796 84.927 57.4097 84.6507 55.8641C84.5857 55.5075 84.5207 55.1616 84.4448 54.8157C84.4123 54.6806 84.2985 54.5779 84.1631 54.5563C84.1414 54.5563 84.1197 54.5563 84.098 54.5563C83.9463 54.5671 83.8163 54.686 83.7946 54.8482C83.632 56.2695 83.5454 57.7988 83.5237 59.5066C82.738 58.9986 81.8657 58.6311 80.9716 58.4257C80.912 58.4149 80.8524 58.3987 80.7928 58.3879C80.2456 58.2798 79.6929 58.2204 79.1402 58.2258C78.9018 58.2258 78.5659 58.2474 78.295 58.2582H78.192C77.466 58.3014 76.7399 58.3447 76.003 58.3879C73.8086 58.5176 71.5925 58.6581 69.436 58.7932C68.8887 58.8256 68.3361 58.8635 67.778 58.8959C65.4752 59.0418 63.129 59.1823 60.8371 59.312C60.0948 59.3606 59.3958 59.4957 58.7619 59.7119C58.2796 59.874 57.8136 60.0848 57.3693 60.3388C57.3043 58.0582 57.3639 56.1343 57.559 54.3131L57.5752 54.3239ZM111.276 87.6245C111.287 87.4461 111.293 87.2678 111.304 87.0895C111.439 84.3766 111.591 81.2313 111.699 78.0537C111.818 76.5675 111.937 75.0922 112.057 73.6709C112.078 73.4709 112.122 72.9035 112.176 72.255C112.198 71.9902 112.219 71.7146 112.241 71.439C112.246 71.3687 112.252 71.3039 112.257 71.2336C112.263 71.1633 112.268 71.0985 112.273 71.0336C112.328 70.3689 112.382 69.7907 112.409 69.6178C112.523 68.8125 112.853 68.0505 113.346 67.4129C113.406 67.3372 113.465 67.2669 113.525 67.1913C113.65 67.0508 113.785 66.9103 113.926 66.786C113.959 66.7535 113.996 66.7211 114.034 66.6941C114.105 66.6347 114.181 66.5752 114.257 66.5158C114.484 66.3428 114.728 66.1915 114.988 66.0672C115.752 65.6835 116.614 65.516 117.475 65.5808L130.75 66.6184C130.75 66.6184 130.755 66.6184 130.766 66.6184C130.848 66.6238 131.194 66.6509 131.411 66.6671L131.584 66.6779C132.148 66.7103 132.663 66.813 133.118 66.9967C134.7 67.6074 135.838 69.2124 135.887 70.8985C135.887 70.9688 135.887 71.0499 135.887 71.1363C135.887 71.2768 135.876 71.4228 135.865 71.5579C135.859 71.72 135.843 71.974 135.822 72.2712C135.822 72.2982 135.822 72.3252 135.822 72.3523C135.822 72.4063 135.816 72.4604 135.811 72.5198C135.811 72.5738 135.805 72.6333 135.8 72.6927C135.767 73.2169 135.735 73.7628 135.719 74.0384C135.697 74.3734 135.681 74.7085 135.659 75.0435C135.404 79.6749 135.22 84.5873 135.063 89.3052C135.047 89.7375 135.036 90.1644 135.02 90.5914C135.02 90.7102 135.003 91.0939 134.998 91.1804C134.944 92.3963 134.407 93.5258 133.475 94.3689C132.538 95.2227 131.286 95.6713 130.046 95.6118C129.054 95.5632 127.873 95.5092 126.594 95.4551C123.224 95.2984 119.084 95.1092 116.25 94.9687C116.061 94.9579 115.877 94.9525 115.703 94.9417C115.259 94.9201 114.82 94.8444 114.408 94.7201C114.343 94.6985 114.284 94.6823 114.219 94.6607C112.301 93.9906 110.935 92.1478 110.865 90.0996C110.919 89.9483 110.968 89.7969 111.011 89.6402C111.141 89.1755 111.217 88.7053 111.239 88.2243C111.239 88.2027 111.239 88.1811 111.239 88.1541C111.239 88.1054 111.244 88.046 111.244 88.019C111.255 87.819 111.255 87.7055 111.255 87.6407L111.276 87.6245ZM86.8072 95.8766C86.8072 95.5308 86.8018 95.1849 86.7964 94.839V94.1365C86.7747 93.5961 86.7639 93.0394 86.7422 92.4558C86.7313 92.1423 86.7205 91.8181 86.7097 91.4884C87.322 92.4288 88.1726 93.1962 89.1534 93.7096C89.5976 93.9419 90.069 94.1203 90.5513 94.2392C90.6596 94.2662 90.7734 94.2878 90.8818 94.3094C91.2123 94.3743 91.5374 94.4121 91.8571 94.4229H91.8625C94.6313 94.4121 98.0936 94.4067 101.702 94.4445C102.64 94.4553 103.593 94.4661 104.541 94.4824C104.59 94.4824 104.639 94.4824 104.688 94.4824C104.688 94.4824 104.693 94.4824 104.699 94.4824C104.731 94.4824 104.764 94.4824 104.796 94.4824C104.818 94.4824 104.845 94.4824 104.867 94.4824C104.904 94.4824 104.937 94.4824 104.975 94.4824C104.997 94.4824 105.013 94.4824 105.035 94.4824C105.072 94.4824 105.11 94.4824 105.154 94.477C105.17 94.477 105.186 94.477 105.202 94.477C105.246 94.477 105.284 94.4715 105.327 94.4661C105.338 94.4661 105.354 94.4661 105.365 94.4661C105.408 94.4661 105.452 94.4553 105.495 94.4499C105.506 94.4499 105.517 94.4499 105.528 94.4499C105.571 94.4445 105.62 94.4391 105.663 94.4283C105.674 94.4283 105.679 94.4283 105.69 94.4283C105.739 94.4229 105.782 94.4121 105.831 94.4013C105.836 94.4013 105.847 94.4013 105.853 94.4013C105.901 94.3905 105.95 94.3851 105.999 94.3743C105.999 94.3743 106.01 94.3743 106.015 94.3743C106.064 94.3635 106.113 94.3527 106.162 94.3419C106.162 94.3419 106.167 94.3419 106.172 94.3419C106.221 94.331 106.275 94.3148 106.324 94.304C106.324 94.304 106.329 94.304 106.335 94.304C106.384 94.2878 106.438 94.277 106.487 94.2608C106.487 94.2608 106.487 94.2608 106.492 94.2608C106.541 94.2446 106.595 94.2284 106.644 94.2121C106.693 94.1959 106.747 94.1743 106.795 94.1581C106.844 94.1419 106.898 94.1203 106.947 94.1041C106.996 94.0825 107.05 94.0662 107.099 94.0446C107.148 94.023 107.196 94.0014 107.251 93.9798C107.299 93.9582 107.348 93.9365 107.397 93.9149C107.446 93.8933 107.494 93.8663 107.543 93.8447C107.543 93.8447 107.543 93.8447 107.549 93.8447C107.597 93.8231 107.641 93.796 107.69 93.7744C107.69 93.7744 107.695 93.7744 107.7 93.7744C107.744 93.7474 107.792 93.7258 107.836 93.6988C107.836 93.6988 107.841 93.6988 107.847 93.6934C107.89 93.6663 107.933 93.6447 107.977 93.6177C107.977 93.6177 107.988 93.6123 107.993 93.6069C108.036 93.5799 108.08 93.5528 108.123 93.5258C108.128 93.5258 108.134 93.5204 108.139 93.515C108.183 93.488 108.22 93.461 108.264 93.4339C108.269 93.4339 108.28 93.4231 108.286 93.4177C108.323 93.3907 108.361 93.3637 108.405 93.3367C108.416 93.3313 108.421 93.3259 108.432 93.3205C108.47 93.2934 108.508 93.2664 108.54 93.2394C108.551 93.234 108.562 93.2232 108.573 93.2178C108.605 93.1908 108.643 93.1637 108.676 93.1367C108.686 93.1259 108.697 93.1151 108.714 93.1097C108.746 93.0827 108.779 93.0557 108.811 93.034C108.827 93.0232 108.838 93.0124 108.854 93.0016C108.887 92.9746 108.914 92.953 108.941 92.926C108.957 92.9097 108.974 92.8989 108.99 92.8827C109.017 92.8611 109.044 92.8341 109.071 92.8125C109.087 92.7963 109.109 92.78 109.125 92.7584C109.147 92.7368 109.174 92.7152 109.196 92.6936C109.217 92.672 109.239 92.6503 109.266 92.6287C109.283 92.6125 109.304 92.5909 109.32 92.5747C109.364 92.5315 109.402 92.4936 109.44 92.4504C109.494 92.5963 109.559 92.7368 109.624 92.8827C109.748 93.1529 109.895 93.4177 110.052 93.6717C110.052 94.0446 110.052 94.4067 110.052 94.7472C110.052 95.0606 110.052 95.3578 110.052 95.6334C110.046 98.6166 110.025 101.308 109.884 103.983C109.808 105.28 109.716 106.663 109.472 108.025V108.063C109.353 108.625 109.255 109.106 109.006 109.56C108.497 110.506 107.912 111.478 107.056 112.154C105.435 113.413 103.176 113.602 100.982 113.619C100.201 113.619 99.3019 113.575 98.2291 113.505C94.9618 113.246 90.8981 112.927 88.6224 110.117C87.7446 109.02 87.1757 107.533 86.9318 105.696L86.7855 104.669C86.7259 104.21 86.6717 103.745 86.623 103.291C86.7476 101.546 86.7801 99.7784 86.7855 98.0275C86.7855 97.325 86.7855 96.6278 86.7747 95.9361L86.8072 95.8766ZM87.5062 87.9325C87.5441 83.3444 87.6579 77.5457 87.7608 72.4874C87.7663 72.2982 87.7771 71.774 87.7879 71.1688C87.8042 70.2014 87.8313 68.9963 87.853 68.7369C87.9559 67.3858 88.7795 66.078 89.9553 65.4079C90.6163 65.0188 91.3803 64.8243 92.1551 64.8405C93.0546 64.8567 93.954 64.8729 94.8589 64.8891C98.1424 64.9486 101.54 65.0134 104.872 65.1161C106.134 65.235 107.326 66.0456 107.922 67.1805C108.231 67.7587 108.383 68.4234 108.372 69.1152C108.372 70.2771 108.378 71.4444 108.394 72.6117C108.464 77.6808 108.697 82.7877 108.947 87.6299C108.947 87.7271 108.968 88.0892 108.968 88.1811C109.012 89.2025 108.686 90.186 108.053 91.0021C107.96 91.121 107.863 91.229 107.76 91.3371C107.549 91.5587 107.321 91.7533 107.072 91.9262C106.335 92.445 105.452 92.7368 104.547 92.7476C103.767 92.753 102.976 92.7638 102.195 92.7746C101.935 92.7746 101.675 92.78 101.42 92.7854C101.02 92.7854 100.613 92.7963 100.207 92.8017C97.3676 92.8341 94.4579 92.8557 91.597 92.7692C90.9522 92.6882 90.3237 92.472 89.771 92.1423C88.3135 91.2831 87.4195 89.6348 87.5008 87.9433L87.5062 87.9325ZM57.754 88.1271C57.0063 87.2083 56.5783 86.0897 56.5458 84.971C56.5349 84.6522 56.5295 84.3225 56.5187 83.9875C56.4807 82.5553 56.4374 80.9773 56.394 79.3561C56.3778 78.7508 56.3615 78.1455 56.3453 77.5295C56.3453 77.3998 56.3399 77.2701 56.3344 77.1404C56.3236 76.8053 56.3182 76.4703 56.3073 76.1298C56.2911 75.5191 56.2748 74.9084 56.2586 74.3032C56.199 71.9091 56.1394 69.607 56.1015 67.6885C56.1015 67.6398 56.1015 67.5912 56.1015 67.548C56.0906 67.2291 56.096 66.9319 56.1123 66.7319C56.1665 66.0942 56.3399 65.4674 56.6162 64.9107C56.8383 64.446 57.1364 64.0244 57.494 63.657C58.3988 62.7166 59.6776 62.133 60.9888 62.1114C61.7582 62.0897 62.533 62.0681 63.3133 62.0465C65.4156 61.9925 67.5342 61.9492 69.5985 61.906C71.3974 61.8682 73.2397 61.8303 75.0765 61.7871C76.1764 61.7601 77.2763 61.7331 78.3654 61.7006C78.4034 61.7006 78.5009 61.7006 78.6038 61.6952C78.7393 61.6952 78.9073 61.6844 78.956 61.6844C79.655 61.6682 80.3594 61.8087 80.9879 62.0843C82.5917 62.7815 83.7133 64.4189 83.7729 66.1699C83.8325 67.2615 83.9084 68.418 83.9788 69.407C84.2389 73.2332 84.6344 77.3133 85.0137 81.2583C85.0788 81.9177 85.1384 82.5662 85.2034 83.2093C85.2142 83.3173 85.2467 83.7281 85.2576 83.8253C85.3605 85.225 84.8891 86.5923 83.9246 87.6785C82.9493 88.7756 81.5677 89.4457 80.1264 89.5213C75.1794 89.8078 69.501 90.0131 62.7606 90.1536C61.9749 90.186 61.3085 90.1698 60.6149 89.9753C59.5258 89.6943 58.5126 89.035 57.7703 88.1162L57.754 88.1271ZM65.3506 110.792C65.0146 110.571 64.7112 110.322 64.4349 110.052C62.4951 108.155 61.937 105.134 61.536 102.167C61.4277 101.4 61.2814 100.195 61.1405 99.0273C61.108 98.7841 61.0809 98.5409 61.0538 98.3085C60.9671 97.606 60.8858 96.9683 60.8262 96.4927C60.6312 94.8498 60.4361 93.207 60.2465 91.5641C60.3169 91.5803 60.3874 91.5965 60.4524 91.6073C60.9292 91.7046 61.4223 91.7316 61.8774 91.7316C62.1266 91.7316 62.3651 91.7208 62.5764 91.7046C62.6631 91.6992 62.7443 91.6938 62.8202 91.6884C69.0513 91.2831 74.8869 91.0075 80.1697 90.8616C81.7627 90.8291 83.307 90.2401 84.5586 89.2079C84.6074 90.8183 84.6615 92.5206 84.6886 94.223C84.6778 94.331 84.6724 94.4283 84.667 94.531C84.6615 94.6391 84.6561 94.7472 84.6507 94.8552C84.564 96.4549 84.5694 98.1626 84.667 100.07C84.667 100.103 84.667 100.135 84.667 100.168C84.6344 101.34 84.5803 102.421 84.5098 103.453C84.499 103.599 84.4882 103.751 84.4773 103.896C84.4015 104.761 84.3202 105.48 84.1685 106.199C84.1143 106.442 84.0547 106.663 83.9897 106.836C83.3611 108.495 82.6242 109.576 81.5893 110.338C81.546 110.371 81.4972 110.403 81.4539 110.43C81.4268 110.452 81.3943 110.468 81.3672 110.49C81.3238 110.517 81.2805 110.549 81.2317 110.576C81.1992 110.598 81.1667 110.614 81.1396 110.635C81.0963 110.662 81.0475 110.689 81.0042 110.716C80.9716 110.733 80.9391 110.754 80.9066 110.771C80.8633 110.792 80.8199 110.819 80.7766 110.841C80.7387 110.862 80.7062 110.879 80.6682 110.9C80.6303 110.922 80.5924 110.938 80.5544 110.96C80.5111 110.981 80.4732 111.003 80.4298 111.025C80.3973 111.041 80.3594 111.057 80.3269 111.073C80.2781 111.095 80.2293 111.116 80.1806 111.138C80.1535 111.149 80.1264 111.16 80.0993 111.17C80.0451 111.192 79.9855 111.219 79.9313 111.241C79.9042 111.252 79.8826 111.262 79.8555 111.268C79.7959 111.289 79.7363 111.316 79.6767 111.338C79.6496 111.349 79.6279 111.354 79.6008 111.365C79.5412 111.387 79.4816 111.408 79.4166 111.43C79.3949 111.435 79.3678 111.446 79.3461 111.451C79.2811 111.473 79.2215 111.495 79.1565 111.511C79.1457 111.511 79.1348 111.516 79.1186 111.522C77.2005 112.111 75.0006 112.192 72.7358 112.208C72.5082 112.208 72.2752 112.203 72.0368 112.197C69.7665 112.159 67.3012 112.013 65.3506 110.792ZM114.988 124.027C114.972 124.454 114.918 124.892 114.869 125.238C114.836 125.486 114.836 125.74 114.853 125.989C114.56 126.021 114.262 126.043 114.007 126.064C113.13 126.135 112.219 126.167 111.341 126.199C110.556 126.232 109.748 126.259 108.957 126.318C106.931 126.459 104.877 126.643 102.889 126.821C101.361 126.956 99.7841 127.097 98.2291 127.221C98.1966 127.172 98.1586 127.124 98.1261 127.07C98.0232 126.913 97.9257 126.734 97.839 126.54C97.8064 126.47 97.7739 126.399 97.7414 126.329C97.7089 126.259 97.6818 126.189 97.6602 126.118C97.4705 125.529 97.373 124.886 97.3621 124.249C97.3621 123.93 97.373 123.605 97.4163 123.292C97.4542 122.973 97.5193 122.665 97.606 122.362C97.6872 122.071 97.801 121.784 97.9365 121.519C98.3429 120.72 98.9714 120.055 99.7625 119.601C99.9304 119.509 100.104 119.423 100.277 119.347C101.236 118.936 102.325 118.78 103.349 118.742C103.523 118.736 103.696 118.731 103.864 118.731C104.422 118.731 104.948 118.763 105.414 118.796C105.793 118.828 106.178 118.871 106.568 118.925C108.703 119.212 110.913 119.763 113.157 120.574C113.184 120.585 113.238 120.606 113.292 120.628C113.346 120.649 113.406 120.676 113.433 120.687C113.471 120.709 113.514 120.73 113.552 120.752C113.704 120.833 113.85 120.92 113.964 121.017H113.969C114.657 121.568 115.004 122.514 114.988 123.832C114.988 123.897 114.988 123.957 114.988 124.022V124.027ZM120.634 118.871L120.618 118.925C120.591 119.017 120.569 119.115 120.542 119.206C120.163 120.622 119.756 122.071 119.144 123.362C118.824 124.038 118.439 124.573 118.011 124.946C117.876 125.065 117.719 125.167 117.556 125.265C117.567 125.189 117.573 125.108 117.578 125.032C117.713 123.584 117.589 122.362 117.204 121.298C116.679 119.909 115.719 118.92 114.349 118.353C114.154 118.272 113.948 118.196 113.736 118.136C111.071 117.293 104.384 115.537 99.8546 117.412C97.8715 118.245 96.441 119.947 96.0184 121.968C95.6879 123.53 95.8288 125.129 96.4248 126.599V126.61C96.5494 126.87 96.6848 127.113 96.8257 127.34C93.7156 127.561 91.1473 127.648 88.7686 127.615C87.6579 127.599 86.6392 127.394 85.6152 127.172C85.0029 127.032 84.5423 126.902 84.136 126.745C83.4207 126.459 83.0035 126.156 82.7218 125.713C82.7055 125.686 82.6838 125.654 82.6676 125.621C82.3587 125.075 82.2558 124.421 82.1583 123.789C82.1474 123.703 82.1312 123.616 82.1203 123.53C82.0878 123.335 82.0553 123.119 82.0228 122.897C81.8874 122 81.7302 120.99 81.6327 120.239C81.6327 120.222 81.6327 120.212 81.6273 120.195C81.6273 120.185 81.6273 120.179 81.6218 120.168C81.6218 120.163 81.6218 120.158 81.6164 120.147C81.6164 120.147 81.6164 120.147 81.6164 120.141C81.5785 120.055 81.5081 119.99 81.4214 119.963C81.2534 119.909 81.0692 120.001 81.015 120.168C80.9283 120.433 80.8633 120.703 80.7983 121.044C80.6574 121.822 80.587 122.676 80.5761 123.643C80.5761 124.124 80.5761 124.6 80.6465 125.086C80.4948 125.021 80.354 124.946 80.2239 124.865C80.2185 124.865 80.2131 124.854 80.2077 124.854C80.1697 124.827 80.1264 124.794 80.0885 124.767C79.4166 124.254 78.7285 123.535 78.2191 122.73C78.2083 122.714 78.1975 122.698 78.1866 122.681C78.1866 122.681 78.1812 122.671 78.1758 122.665C77.6881 121.849 77.4389 121.044 77.4118 120.406C77.4118 120.363 77.4118 120.32 77.4118 120.276C77.4118 120.168 77.4443 119.898 77.4551 119.768V119.758C77.5039 119.298 77.5581 118.774 77.6069 118.299C77.6177 118.234 77.6285 118.131 77.6448 117.963C77.6556 117.85 77.6665 117.737 77.6773 117.661L77.6881 117.564C77.7044 117.407 77.6069 117.266 77.4497 117.229C77.3739 117.207 77.298 117.218 77.2276 117.25C77.1626 117.283 77.1084 117.337 77.0759 117.412C76.8862 117.872 76.7128 118.385 76.5611 118.828L76.5124 118.979C76.4365 119.212 76.3552 119.455 76.2848 119.693C74.7785 117.737 73.348 115.98 71.9284 114.348C71.988 114.348 72.0531 114.348 72.1181 114.348C72.3131 114.348 72.519 114.348 72.7412 114.354C73.0229 114.354 73.3047 114.354 73.5864 114.348C76.1385 114.31 78.7935 114.105 81.2642 113.002C82.4563 112.462 83.4858 111.689 84.2497 110.76C84.8078 110.095 85.2901 109.279 85.7235 108.285C86.6013 111.052 88.4165 112.943 91.2503 114.062C93.954 115.132 97.1942 115.364 100.283 115.51C103.144 115.591 106.102 115.424 108.361 113.7C109.537 112.792 110.317 111.533 110.924 110.414C110.989 110.295 111.043 110.176 111.098 110.052C111.255 109.684 111.369 109.295 111.461 108.922C111.482 108.993 111.509 109.057 111.531 109.128C112.284 111.268 113.547 113.046 115.281 114.413C116.89 115.683 118.868 116.537 121.013 116.899C120.932 117.569 120.807 118.234 120.65 118.871H120.634ZM133.757 103.642C133.703 104.458 133.649 105.269 133.595 106.074C133.578 106.339 133.557 106.604 133.535 106.874C133.53 106.971 133.519 107.074 133.513 107.171C133.475 107.706 133.432 108.252 133.383 108.803C133.356 109.117 133.329 109.43 133.297 109.744L133.286 109.846C133.264 110.084 133.237 110.333 133.21 110.581C133.161 110.998 133.107 111.408 133.037 111.754C132.403 113.175 131.66 114.051 130.615 114.548C130.598 114.553 130.582 114.564 130.566 114.57C130.1 114.78 129.58 114.926 128.978 115.007C127.261 115.245 125.451 115.148 123.701 115.056C123.473 115.045 123.246 115.034 123.013 115.018C122.763 115.013 122.52 114.997 122.281 114.975C122.119 114.959 121.961 114.943 121.799 114.926C121.403 114.878 121.013 114.807 120.634 114.721C118.965 114.343 117.47 113.608 116.229 112.554C114.977 111.484 114.029 110.122 113.428 108.539C113.4 108.468 113.373 108.393 113.346 108.322C113.243 108.031 113.151 107.733 113.07 107.425C112.967 107.042 112.886 106.653 112.826 106.247C112.799 106.091 112.777 105.934 112.761 105.772C112.707 105.296 112.669 104.81 112.642 104.34C112.631 104.188 112.62 104.037 112.609 103.886C112.512 102.351 112.441 100.708 112.409 99.0057C112.393 97.9302 112.387 96.8764 112.398 95.882C112.853 96.1576 113.335 96.3792 113.834 96.5413C114.392 96.7251 114.988 96.8386 115.6 96.8818L116.164 96.925C119.946 97.2007 126.28 97.6654 129.916 97.9518C130.1 97.968 130.284 97.9735 130.474 97.9789C131.774 97.9789 133.08 97.6168 134.234 96.9196C134.055 99.1516 133.909 101.432 133.763 103.637L133.757 103.642ZM150.386 105.664C150.099 106.988 149.741 108.506 149.096 109.792C148.847 110.273 148.576 110.673 148.267 110.998C148.165 111.106 148.056 111.203 147.948 111.295C147.699 111.5 147.401 111.689 147.113 111.873H147.103C144.821 113.354 142.367 114.056 140.005 113.91C139.235 113.873 138.52 113.775 137.891 113.624C136.97 113.392 135.681 112.9 134.738 111.873C134.857 111.241 134.928 110.608 134.993 109.982C135.003 109.895 135.009 109.803 135.02 109.717C135.052 109.382 135.09 109.03 135.128 108.685C135.253 107.442 135.399 106.053 135.551 104.577C135.8 102.167 136.06 99.6704 136.255 97.6384C136.342 96.7197 136.434 95.7523 136.521 94.7688C136.575 94.6931 136.623 94.6175 136.672 94.5418C136.705 94.6067 136.737 94.6715 136.77 94.7364C137.783 96.6548 139.793 97.9789 141.966 98.1356C142.036 98.1356 142.112 98.1464 142.183 98.1464C142.242 98.1464 142.427 98.1572 142.605 98.1734C142.827 98.1896 143.055 98.2004 143.131 98.2058C145.656 98.3517 148.685 98.5517 151.481 98.7571C151.123 101.394 150.765 103.659 150.381 105.669L150.386 105.664ZM158.611 90.6832C158.6 91.5749 158.584 92.6828 158.579 92.8017C158.568 93.1745 158.53 93.4988 158.459 93.7852C158.237 94.7634 157.652 95.6443 156.807 96.2657C155.967 96.8872 154.948 97.2007 153.935 97.1466C151.578 97.0385 147.054 96.817 143.245 96.5684C143.158 96.563 142.958 96.5522 142.757 96.5359C142.524 96.5197 142.286 96.5089 142.194 96.4981C139.847 96.363 137.897 94.3527 137.853 92.0127C137.853 91.9586 137.853 91.9046 137.853 91.8451C137.853 91.6722 137.87 91.4939 137.881 91.3371C138.065 88.7593 138.292 85.7168 138.487 83.1552C138.531 82.5662 138.574 81.9987 138.617 81.4691C138.617 81.4313 138.623 81.3989 138.628 81.361C138.677 80.799 138.731 80.091 138.796 79.302C138.867 78.459 138.943 77.5079 139.024 76.5567C139.175 74.7409 139.327 72.9143 139.425 71.8119C139.511 70.8931 139.929 70.0123 140.563 69.3367C140.741 69.1422 140.942 68.9693 141.159 68.8125C141.229 68.7585 141.305 68.7099 141.375 68.6666C141.489 68.5964 141.603 68.5315 141.722 68.4721C142.302 68.1748 142.947 68.0235 143.602 68.0235C143.716 68.0235 143.83 68.0235 143.944 68.0397C144.87 68.11 146.393 68.2343 147.736 68.3424C147.904 68.3532 148.067 68.3694 148.224 68.3802C148.333 68.391 148.435 68.3964 148.538 68.4072C148.641 68.418 148.744 68.4234 148.847 68.4342C149.297 68.4721 149.709 68.5045 150.039 68.5315C150.755 68.591 151.719 68.672 152.689 68.7477C152.911 68.7639 153.139 68.7855 153.361 68.8017L155.571 68.9855C155.712 68.9963 155.869 69.0179 155.999 69.0395C156.162 69.0665 156.325 69.1044 156.482 69.153C158.004 69.6178 159.169 71.0823 159.213 72.6819C159.213 72.7198 159.213 72.7576 159.213 72.79C159.213 72.844 159.213 72.8927 159.213 72.9521V73.0872C159.175 73.5898 159.148 74.0924 159.12 74.595C159.072 75.4326 159.028 76.2649 158.985 77.0809C158.85 79.7506 158.747 82.658 158.682 85.9059C158.66 86.9868 158.644 88.1054 158.627 89.2673C158.627 89.3916 158.617 89.9861 158.606 90.6778L158.611 90.6832Z" fill="#1E1E1C"/>
<path d="M139.663 111.241C139.49 111.262 139.343 111.381 139.295 111.549C139.295 111.565 139.289 111.576 139.284 111.592C139.284 111.619 139.278 111.646 139.278 111.673C139.278 111.743 139.3 111.814 139.333 111.873C139.376 111.949 139.435 112.008 139.511 112.046C139.538 112.057 139.566 112.068 139.593 112.078C139.696 112.105 139.788 112.127 139.88 112.143L139.934 112.154C140.384 112.235 140.866 112.273 141.408 112.273C141.662 112.273 141.922 112.262 142.199 112.246C143.158 112.176 143.96 112.041 144.729 111.835C144.745 111.835 144.767 111.824 144.789 111.819C144.913 111.787 145.06 111.733 145.19 111.684C145.255 111.657 145.32 111.635 145.379 111.614H145.39C145.596 111.527 145.813 111.425 146.008 111.322H146.019C146.051 111.295 146.1 111.268 146.154 111.235C146.263 111.171 146.393 111.1 146.458 111.057H146.463C146.512 111.019 146.561 110.987 146.609 110.949C146.696 110.89 146.794 110.825 146.875 110.76C147.774 110.052 148.397 109.252 148.723 108.382C148.782 108.22 148.722 108.042 148.576 107.944C148.424 107.847 148.24 107.863 148.11 107.982C147.883 108.198 147.655 108.398 147.444 108.571C147.081 108.868 146.68 109.149 146.29 109.387C145.807 109.679 145.309 109.911 144.81 110.09L144.42 110.219C144.355 110.236 144.247 110.263 144.155 110.29C144.139 110.29 144.117 110.3 144.101 110.306C144.074 110.311 144.052 110.322 144.03 110.328C144.03 110.328 144.03 110.328 144.025 110.328C143.841 110.376 143.64 110.419 143.44 110.463C143.342 110.484 143.25 110.506 143.158 110.527C142.042 110.781 141.088 110.976 140.237 111.133L139.658 111.23L139.663 111.241Z" fill="#1E1E1C"/>
<path d="M117.995 109.544C118.732 110.327 119.724 110.911 120.861 111.219C121.36 111.343 121.858 111.403 122.346 111.403C123.18 111.403 123.972 111.224 124.66 110.879L125.023 110.695L124.643 110.543C123.766 110.198 122.888 109.987 122.043 109.781C121.539 109.657 121.013 109.533 120.493 109.382C119.886 109.219 119.328 109.09 118.786 108.992C118.515 108.944 118.196 108.89 117.854 108.857L117.491 108.825L117.681 109.138C117.762 109.268 117.86 109.392 117.995 109.549V109.544Z" fill="#1E1E1C"/>
<path d="M125.153 112.484C124.936 112.462 124.714 112.44 124.486 112.419C124.346 112.403 124.205 112.386 124.064 112.37C124.042 112.37 124.026 112.37 124.004 112.365C121.983 112.111 119.87 111.673 118.277 111.16C117.546 110.933 116.933 110.717 116.364 110.479L115.519 110.127L116.164 110.776C117.643 112.268 119.772 113.094 121.295 113.527C122.222 113.791 123.278 113.986 124.438 114.1C124.947 114.143 125.445 114.164 125.922 114.164C126.719 114.164 127.472 114.105 128.176 113.991C129.764 113.71 130.978 113.224 131.785 112.538C131.899 112.44 132.007 112.338 132.105 112.235L132.701 111.597L131.899 111.943C130.051 112.738 127.212 112.684 125.153 112.494V112.484Z" fill="#1E1E1C"/>
<path d="M93.5802 110.441C95.1732 111.17 97.0858 111.554 98.9606 111.554C99.8113 111.554 100.651 111.473 101.453 111.316C101.567 111.295 101.681 111.268 101.794 111.241C101.854 111.225 101.919 111.208 101.984 111.192C102.011 111.187 102.038 111.176 102.065 111.17C102.082 111.17 102.092 111.165 102.109 111.16C102.9 110.943 103.517 110.679 104.005 110.398C104.493 110.117 104.959 109.765 105.322 109.317C105.327 109.311 105.333 109.301 105.338 109.295C105.349 109.279 105.365 109.263 105.376 109.247C105.403 109.214 105.43 109.176 105.452 109.144L105.885 108.528L105.213 108.879C102.558 110.268 97.8823 109.928 95.2761 109.592C95.249 109.592 95.2219 109.587 95.1948 109.582C94.9619 109.549 94.7397 109.511 94.523 109.479C94.5067 109.479 94.485 109.474 94.4634 109.468C94.4363 109.468 94.4092 109.457 94.3821 109.452C94.3333 109.441 94.2846 109.436 94.2358 109.425C94.2358 109.425 94.2304 109.425 94.225 109.425C93.3201 109.268 92.5453 109.084 91.7921 108.863L91.0769 108.647L91.6133 109.166C92.2419 109.776 93.0329 110.182 93.5748 110.436L93.5802 110.441Z" fill="#1E1E1C"/>
<path d="M76.7562 109.641H76.767C76.9729 109.517 77.2114 109.365 77.401 109.187C77.6502 108.955 77.802 108.728 77.8561 108.501L77.9862 107.987L77.569 108.312C77.0921 108.674 76.1656 108.766 75.2228 108.766C74.578 108.766 73.9332 108.717 73.4239 108.674C73.2505 108.663 73.088 108.647 72.9525 108.641C72.1019 108.56 71.2241 108.501 70.3788 108.447C69.3602 108.382 68.309 108.312 67.2958 108.203L66.7214 108.144L67.1549 108.522C67.8918 109.171 68.8238 109.517 69.7286 109.792C71.1916 110.192 72.4215 110.338 73.4348 110.338C75.0711 110.338 76.1494 109.954 76.7562 109.646V109.641Z" fill="#1E1E1C"/>
<path d="M62.6793 87.2245V87.4244L62.8798 87.392L75.277 86.9218H75.3528L78.761 83.2632L78.5117 76.7458L74.8327 73.3574L66.9707 73.6546L66.8081 69.4231L78.2083 68.9908L78.0295 64.3918L61.8232 65.0079L62.6739 87.2245V87.2353L62.6793 87.2245ZM72.5516 78.0428L73.5702 78.8264L73.6732 81.5501L72.7195 82.4094L67.5233 82.6039L67.3554 78.2373L72.5516 78.0428Z" fill="#1E1E1C"/>
<path d="M95.0647 89.289L95.0213 83.2093L101.231 83.1661L101.274 89.2458L106.281 89.2134L106.167 72.6334V72.5577L100.391 66.8941L100.337 66.8401L95.6932 66.8725L89.9443 72.6712L90.0581 89.3269L95.0647 89.2944V89.289ZM98.0448 71.585L101.171 74.6545L101.198 78.1834L94.9888 78.2267L94.9617 74.6978L98.0448 71.585Z" fill="#1E1E1C"/>
<path d="M120.385 90.8507L125.185 91.1803L126.448 73.0602L132.143 73.4547L132.435 69.2178L116.256 68.0991L115.958 72.336L121.653 72.7305L120.385 90.8507Z" fill="#1E1E1C"/>
<path d="M145.125 70.785H145.049L141.224 74.0004L140.682 80.5017L143.743 84.0522L140.194 87.0137L140.129 87.0677V87.1434L139.658 92.8178L144.653 93.2285L145.022 88.7592L149.844 84.7385L151.556 84.879L150.82 93.7365L155.815 94.1472L157.668 71.8117L145.114 70.7795L145.125 70.785ZM151.968 79.9991L146.447 79.5451L145.862 78.6913L146.062 76.308L147.113 75.5676L152.299 75.9946L151.968 79.9991Z" fill="#1E1E1C"/>
<path d="M46.6356 34.9826L50.1142 40.7975L50.0492 40.8839L43.4713 39.1708L42.0029 41.1163L49.4857 46.715L50.6398 45.1857L45.7524 41.527L45.8012 41.4676L52.1081 43.1699L52.8938 42.1323L49.5182 36.5876L49.5615 36.5228L54.4326 40.1706L55.5867 38.6412L48.104 33.0425L46.6356 34.9826Z" fill="#1E1E1C"/>
<path d="M58.4477 33.3288L55.5055 25.7251L54.0588 27.1302L55.9553 31.6913L51.16 29.9404L49.6917 31.3617L56.833 33.7989L56.9631 34.0962C57.0443 34.2745 57.0985 34.4366 57.1202 34.5879C57.1419 34.7393 57.1202 34.8906 57.0498 35.0473C56.9847 35.1986 56.8601 35.3661 56.6759 35.5391L56.3129 35.8903L57.4345 37.036L57.9384 36.5497C58.3068 36.193 58.5398 35.8363 58.6482 35.4796C58.7565 35.123 58.7836 34.7609 58.724 34.3988C58.6698 34.0367 58.5723 33.68 58.4423 33.3234L58.4477 33.3288Z" fill="#1E1E1C"/>
<path d="M67.6859 16.9111L65.6865 18.2838L66.1904 22.5963L65.3289 23.1854L63.1453 20.0293L61.5632 21.1102L63.7468 24.2716L62.934 24.8282L59.0111 22.8611L57.0063 24.2338L61.8341 26.2712L62.2188 31.978L64.1477 30.6539L63.7305 26.4927L64.7871 25.7686L66.8732 28.7841L68.4553 27.6979L66.3692 24.6823L67.4475 23.942L71.1645 25.8388L73.1151 24.504L67.9297 22.0775L67.6859 16.9111Z" fill="#1E1E1C"/>
<path d="M78.0297 18.9376C78.0947 19.1808 78.1109 19.4186 78.0893 19.6402C78.0622 19.8672 78.0026 20.0779 77.8942 20.2725C77.7912 20.467 77.6504 20.6454 77.4716 20.8021C77.2928 20.9588 77.0869 21.0939 76.843 21.202C76.415 21.3965 75.9869 21.4668 75.5643 21.4073C75.1417 21.3479 74.7407 21.1533 74.3723 20.8291C73.9984 20.4994 73.6733 20.0347 73.397 19.4348C73.1261 18.8458 72.9852 18.3054 72.9743 17.8136C72.9635 17.3218 73.0719 16.8895 73.2994 16.522C73.527 16.1545 73.8575 15.8735 74.3018 15.6681C74.5457 15.5546 74.7895 15.4898 75.0279 15.4628C75.2663 15.4357 75.4993 15.4519 75.7214 15.506C75.9436 15.56 76.1441 15.6573 76.3337 15.7924C76.5234 15.9275 76.6859 16.1059 76.8268 16.3274L78.6473 15.4952C78.3602 15.0304 78.0297 14.6575 77.645 14.3711C77.2603 14.0847 76.8485 13.8847 76.3987 13.7712C75.949 13.6578 75.483 13.6307 74.9954 13.6848C74.5077 13.7388 74.0201 13.8793 73.527 14.1063C72.7793 14.4468 72.1833 14.9277 71.7444 15.5438C71.3055 16.1599 71.0617 16.8678 71.0075 17.6785C70.9587 18.4837 71.1484 19.3484 71.5764 20.2725C72.0045 21.1912 72.5355 21.8991 73.1802 22.3855C73.825 22.8773 74.524 23.1529 75.2771 23.2231C76.0303 23.2934 76.7889 23.1529 77.5474 22.8016C78.0947 22.553 78.5444 22.245 78.902 21.8829C79.2596 21.5208 79.5305 21.1263 79.7148 20.6994C79.899 20.2725 80.0019 19.8347 80.0182 19.3916C80.0399 18.9484 79.9803 18.5215 79.8502 18.1108L78.0297 18.9376Z" fill="#1E1E1C"/>
<path d="M87.788 9.28027L85.3443 9.99362L83.1119 14.5277L82.6676 14.6574L81.6111 11.0907L79.7092 11.6473L82.3588 20.5804L84.2552 20.0238L83.1282 16.2192L83.708 16.0463L87.7555 19.0024L90.1287 18.3052L85.1276 14.6899L87.788 9.28027Z" fill="#1E1E1C"/>
<path d="M95.9967 7.98879L92.827 14.3603L92.7511 14.3711L91.9167 8.57244L89.9607 8.85346L91.2882 18.073L92.9895 17.8298L96.1755 11.4529L96.246 11.4421L97.0804 17.2461L99.0418 16.9651L97.7143 7.74561L95.9967 7.98879Z" fill="#1E1E1C"/>
<path d="M102.482 15.2573L102.455 13.0362L106.459 12.9876L106.443 11.3663L102.439 11.4096L102.412 9.18844L106.741 9.13981L106.725 7.51855L100.413 7.58881L100.521 16.9056L106.85 16.8299L106.828 15.2087L102.482 15.2573Z" fill="#1E1E1C"/>
<path d="M119.523 9.79358C119.214 9.44771 118.846 9.16669 118.412 8.93972C117.979 8.71274 117.497 8.55602 116.96 8.46955C116.148 8.33445 115.389 8.3993 114.674 8.6587C113.964 8.9181 113.357 9.37205 112.864 10.0097C112.366 10.6474 112.035 11.4689 111.867 12.474C111.699 13.4738 111.743 14.3547 112.003 15.1221C112.257 15.8895 112.68 16.511 113.265 16.9865C113.85 17.4675 114.555 17.7701 115.378 17.9106C115.969 18.0079 116.516 18.0079 117.015 17.9106C117.513 17.8134 117.963 17.635 118.353 17.3864C118.743 17.1378 119.074 16.8352 119.344 16.4785C119.615 16.1219 119.81 15.7382 119.93 15.322L117.957 14.987C117.871 15.2248 117.751 15.4301 117.605 15.6031C117.459 15.776 117.285 15.9111 117.09 16.0192C116.895 16.1219 116.679 16.1921 116.44 16.2245C116.207 16.257 115.958 16.2516 115.692 16.2083C115.227 16.1327 114.836 15.9489 114.517 15.6625C114.202 15.3761 113.98 14.9924 113.861 14.5168C113.736 14.0359 113.731 13.4738 113.845 12.8145C113.953 12.1768 114.143 11.6526 114.408 11.2365C114.679 10.8204 115.01 10.5285 115.405 10.3502C115.801 10.1719 116.234 10.1286 116.711 10.2043C116.977 10.2475 117.215 10.3286 117.432 10.4367C117.648 10.5502 117.827 10.6907 117.979 10.8582C118.131 11.0257 118.245 11.2203 118.32 11.4364C118.396 11.6526 118.434 11.8904 118.429 12.1552L120.406 12.4849C120.434 11.9444 120.369 11.4473 120.211 10.9933C120.054 10.5448 119.827 10.1448 119.518 9.79898L119.523 9.79358Z" fill="#1E1E1C"/>
<path d="M130.42 12.0851L123.083 9.7937L122.595 11.3447L125.332 12.1986L123.013 19.5374L124.882 20.1211L127.196 12.7822L129.932 13.6361L130.42 12.0851Z" fill="#1E1E1C"/>
<path d="M137.648 18.7592C137.908 18.1972 138.021 17.6459 137.978 17.1055C137.94 16.5651 137.751 16.0679 137.409 15.614C137.068 15.16 136.575 14.7871 135.93 14.4899L132.576 12.9497L128.648 21.4072L130.447 22.2341L131.72 19.4942L133.232 20.1913C133.882 20.4939 134.5 20.629 135.068 20.602C135.643 20.575 136.147 20.4021 136.591 20.0832C137.035 19.7644 137.387 19.3266 137.648 18.7646V18.7592ZM135.795 17.9053C135.664 18.1809 135.496 18.4025 135.285 18.5646C135.074 18.7268 134.83 18.8132 134.548 18.8294C134.267 18.8457 133.952 18.7754 133.605 18.6133L132.386 18.0512L133.698 15.2303L134.911 15.7869C135.258 15.949 135.518 16.1382 135.692 16.3597C135.865 16.5813 135.957 16.8245 135.973 17.0839C135.99 17.3487 135.93 17.6189 135.8 17.8999L135.795 17.9053Z" fill="#1E1E1C"/>
<path d="M146.23 20.2885L139.652 23.0609L139.582 23.0176L142.752 18.0836L141.088 17.0244L136.049 24.8767L137.496 25.7954L144.095 23.0285L144.155 23.0663L140.98 28.0111L142.649 29.0703L147.688 21.2181L146.23 20.2885Z" fill="#1E1E1C"/>
<path d="M159.521 31.4319L157.739 29.7945L153.621 31.2374L152.851 30.5348L155.463 27.7139L154.049 26.4169L151.437 29.2378L150.711 28.5731L151.773 24.3309L149.98 22.688L149.053 27.822L143.548 29.4594L145.271 31.0428L149.259 29.7134L150.202 30.5781L147.709 33.2694L149.118 34.5664L151.616 31.8697L152.58 32.756L151.54 36.7821L153.279 38.3763L154.515 32.81L159.521 31.4319Z" fill="#1E1E1C"/>
<path d="M166.3 40.2571L164.75 38.236L159.7 37.7766L159.418 37.4145L162.393 35.1556L161.196 33.5884L153.745 39.2357L154.948 40.803L158.123 38.3981L158.486 38.8737L157.159 43.6888L158.66 45.6505L160.264 39.7113L166.3 40.2571Z" fill="#1E1E1C"/>
<path d="M170.439 47.4013L163.325 46.742L163.287 46.6772L168.429 43.8183L167.465 42.1052L159.288 46.6447L160.123 48.1309L167.253 48.8118L167.286 48.8713L162.138 51.7301L163.103 53.4486L171.279 48.9091L170.439 47.4013Z" fill="#1E1E1C"/>
<path d="M60.1274 132.463L57.402 135.192L54.5519 132.371L57.2774 129.647L55.8686 128.259L49.269 134.868L50.6724 136.251L53.4032 133.522L56.2533 136.343L53.5224 139.072L54.9258 140.456L61.5253 133.852L60.1274 132.463Z" fill="#1E1E1C"/>
<path d="M67.3555 138.305L60.5826 140.575L60.523 140.526L64.0557 135.841L62.479 134.663L56.8547 142.115L58.231 143.136L65.0202 140.877L65.0744 140.921L61.5362 145.606L63.1238 146.79L68.7426 139.337L67.3555 138.305Z" fill="#1E1E1C"/>
<path d="M74.9898 142.877L72.9038 146.654C72.8604 146.644 72.8225 146.627 72.7792 146.617C72.6004 146.552 72.4107 146.482 72.2156 146.395C72.0206 146.314 71.8309 146.228 71.6521 146.141C71.4733 146.055 71.3216 145.979 71.1916 145.909C70.8285 145.709 70.5522 145.503 70.368 145.298C70.1838 145.087 70.0862 144.86 70.0862 144.606C70.0862 144.358 70.1675 144.077 70.3409 143.763L71.793 141.131L70.1079 140.207L68.6558 142.839C68.3144 143.461 68.1681 144.039 68.2169 144.574C68.2657 145.114 68.4824 145.611 68.8671 146.065C69.2518 146.519 69.772 146.93 70.433 147.287C70.5576 147.357 70.7093 147.433 70.8882 147.514C71.067 147.6 71.2566 147.681 71.4517 147.762C71.6467 147.843 71.8364 147.914 72.0206 147.978C72.0693 147.995 72.1073 148.005 72.1506 148.022L70.4818 151.043L72.1777 151.972L76.6912 143.812L74.9953 142.882L74.9898 142.877Z" fill="#1E1E1C"/>
<path d="M79.4166 146.676L83.4479 148.243L84.0439 146.73L78.165 144.444L74.7568 153.123L80.652 155.415L81.248 153.901L77.1951 152.329L78.0078 150.254L81.7411 151.707L82.3371 150.194L78.6039 148.746L79.4166 146.676Z" fill="#1E1E1C"/>
<path d="M85.2684 147.114L82.8735 156.123L84.7862 156.625L86.7639 149.189L90.8602 150.27L91.2774 148.697L85.2684 147.114Z" fill="#1E1E1C"/>
<path d="M98.1208 150.151C97.514 149.692 96.8042 149.405 95.986 149.292C95.1624 149.178 94.3984 149.265 93.6886 149.546C92.9842 149.827 92.3882 150.297 91.9114 150.951C91.4346 151.605 91.1257 152.437 90.9903 153.442C90.8548 154.447 90.9253 155.328 91.2124 156.085C91.4942 156.841 91.9385 157.452 92.5454 157.911C93.1522 158.371 93.862 158.657 94.691 158.771C95.5092 158.884 96.2732 158.798 96.9776 158.511C97.6874 158.23 98.278 157.76 98.7548 157.106C99.2316 156.452 99.5404 155.62 99.6813 154.615C99.8168 153.61 99.7463 152.723 99.4592 151.967C99.172 151.21 98.7277 150.599 98.1208 150.14V150.151ZM97.6928 154.355C97.6061 155.009 97.4327 155.544 97.1726 155.966C96.918 156.387 96.5983 156.69 96.2136 156.874C95.8289 157.057 95.4008 157.117 94.924 157.052C94.4472 156.987 94.0517 156.814 93.732 156.539C93.4123 156.263 93.1847 155.885 93.0493 155.409C92.9138 154.934 92.8921 154.372 92.9842 153.718C93.0709 153.064 93.2443 152.529 93.5044 152.107C93.7591 151.686 94.0787 151.383 94.4634 151.199C94.8481 151.016 95.2762 150.956 95.753 151.021C96.2298 151.086 96.6254 151.259 96.945 151.534C97.2647 151.815 97.4923 152.188 97.6278 152.664C97.7632 153.139 97.7849 153.701 97.6928 154.355Z" fill="#1E1E1C"/>
<path d="M105.696 150.102L105.82 154.247C105.847 155.112 105.826 155.804 105.755 156.317C105.685 156.836 105.555 157.214 105.36 157.463C105.165 157.711 104.899 157.857 104.558 157.906L104.292 157.944L104.401 159.522L104.91 159.489C105.663 159.441 106.243 159.241 106.655 158.9C107.066 158.554 107.348 158.046 107.505 157.376C107.662 156.701 107.727 155.847 107.706 154.798L107.635 151.551L110.22 151.378L110.74 159.1L112.658 158.97L112.035 149.675L105.696 150.097V150.102Z" fill="#1E1E1C"/>
<path d="M119.334 148.459L116.456 154.966L116.381 154.982L115.281 149.227L113.341 149.594L115.086 158.744L116.771 158.425L119.669 151.913L119.734 151.897L120.834 157.657L122.78 157.29L121.035 148.141L119.334 148.459Z" fill="#1E1E1C"/>
<path d="M131.167 144.671L133.876 151.918L131.384 152.842L128.675 145.595L126.871 146.26L129.58 153.512L127.066 154.442L124.351 147.195L122.541 147.865L125.803 156.598L136.233 152.734L132.966 144.006L131.167 144.671Z" fill="#1E1E1C"/>
<path d="M139.474 140.24L141.413 143.563L137.935 145.574L135.995 142.25L134.283 143.239L138.986 151.297L140.698 150.308L138.759 146.979L142.232 144.968L144.171 148.297L145.884 147.308L141.181 139.256L139.474 140.24Z" fill="#1E1E1C"/>
<path d="M148.501 143.396L147.135 141.629L150.316 139.207L149.319 137.916L146.144 140.342L144.784 138.581L148.219 135.96L147.227 134.673L142.221 138.494L147.921 145.882L152.944 142.05L151.947 140.764L148.501 143.396Z" fill="#1E1E1C"/>
<path d="M153.8 130.707L152.667 129.534L148.192 133.825L154.688 140.537L156.113 139.17L150.749 133.63L153.8 130.707Z" fill="#1E1E1C"/>
<path d="M163.791 127.551C163.477 126.805 162.924 126.108 162.133 125.47C161.342 124.832 160.546 124.432 159.744 124.281C158.947 124.13 158.189 124.189 157.479 124.465C156.769 124.741 156.151 125.2 155.631 125.838C155.106 126.481 154.781 127.172 154.656 127.924C154.531 128.669 154.623 129.415 154.938 130.161C155.252 130.907 155.805 131.598 156.596 132.242C157.387 132.879 158.178 133.274 158.98 133.43C159.776 133.582 160.529 133.522 161.245 133.247C161.954 132.971 162.572 132.517 163.098 131.874C163.618 131.236 163.943 130.545 164.068 129.793C164.192 129.048 164.1 128.296 163.786 127.551H163.791ZM162.258 129.588C162.214 130.01 162.041 130.41 161.743 130.777C161.44 131.144 161.087 131.393 160.681 131.523C160.275 131.652 159.83 131.647 159.354 131.517C158.877 131.382 158.384 131.112 157.869 130.696C157.354 130.28 156.986 129.853 156.758 129.421C156.531 128.983 156.439 128.556 156.482 128.129C156.525 127.707 156.699 127.308 156.997 126.94C157.295 126.573 157.652 126.324 158.059 126.194C158.465 126.065 158.909 126.07 159.386 126.2C159.863 126.335 160.356 126.605 160.871 127.021C161.385 127.437 161.754 127.864 161.982 128.296C162.209 128.734 162.301 129.161 162.258 129.588Z" fill="#1E1E1C"/>
</g>
<defs>
<filter id="filter0_d_1002_983" x="1.51983" y="25.1481" width="203.173" height="119.112" filterUnits="userSpaceOnUse" color-interpolation-filters="sRGB">
<feFlood flood-opacity="0" result="BackgroundImageFix"/>
<feColorMatrix in="SourceAlpha" type="matrix" values="0 0 0 0 0 0 0 0 0 0 0 0 0 0 0 0 0 0 127 0" result="hardAlpha"/>
<feOffset dy="2.11091"/>
<feGaussianBlur stdDeviation="1.97897"/>
<feComposite in2="hardAlpha" operator="out"/>
<feColorMatrix type="matrix" values="0 0 0 0 0 0 0 0 0 0 0 0 0 0 0 0 0 0 0.64 0"/>
<feBlend mode="normal" in2="BackgroundImageFix" result="effect1_dropShadow_1002_983"/>
<feBlend mode="normal" in="SourceGraphic" in2="effect1_dropShadow_1002_983" result="shape"/>
</filter>
<clipPath id="clip0_1002_983">
<rect width="206" height="166" fill="white" transform="translate(0 0.74707)"/>
</clipPath>
</defs>
</svg>
