<svg width="47" height="47" viewBox="0 0 47 47" fill="none" xmlns="http://www.w3.org/2000/svg">
<path fill-rule="evenodd" clip-rule="evenodd" d="M16.1726 0H30.4778C43.5427 0 46.6271 3.1077 46.6271 16.1726V30.4778C46.6271 43.5427 43.5171 46.6271 30.4545 46.6271H16.1493C3.08438 46.6271 0 43.5171 0 30.4545V16.1493C0 3.1077 3.10768 0 16.1726 0ZM16.181 30.4473C22.1697 36.4333 27.8879 37.2234 29.9056 37.2977C32.9924 37.4112 35.9601 35.0815 37.1329 32.3455C37.2792 32.0068 37.3318 31.6351 37.2852 31.2691C37.2386 30.9032 37.0946 30.5565 36.8681 30.2652C35.2904 28.2456 33.1716 26.784 31.2894 25.4856C31.1623 25.398 31.0363 25.3111 30.9116 25.2248C30.4643 24.9153 29.9146 24.7909 29.3776 24.8776C28.8406 24.9643 28.358 25.2554 28.0308 25.6899L26.2513 28.3978C26.1585 28.5438 26.0132 28.6487 25.8454 28.6909C25.6775 28.7331 25.4999 28.7095 25.349 28.6248C24.1454 27.9355 22.3911 26.7616 21.1286 25.5008C19.8676 24.24 18.7662 22.5645 18.1469 21.4396C18.0699 21.296 18.0476 21.1294 18.0842 20.9707C18.1208 20.812 18.2138 20.672 18.3459 20.5766L21.0796 18.5467C21.4705 18.2079 21.7232 17.7371 21.7894 17.224C21.8555 16.7109 21.7305 16.1914 21.4383 15.7645C21.3067 15.5721 21.173 15.3744 21.0366 15.1729C19.7967 13.3401 18.341 11.1885 16.3212 9.71689C16.0319 9.50746 15.6932 9.37682 15.3383 9.33778C14.9833 9.29872 14.6243 9.35261 14.2964 9.49414C11.574 10.6611 9.21717 13.6492 9.32926 16.7256C9.40492 18.7442 10.1938 24.4599 16.181 30.4473Z" fill="white"/>
</svg>
