<svg width="23" height="22" viewBox="0 0 23 22" fill="none" xmlns="http://www.w3.org/2000/svg">
<path fill-rule="evenodd" clip-rule="evenodd" d="M5.56891 16.2546C10.4336 20.8612 15.0785 21.4692 16.7175 21.5264C19.225 21.6137 21.6357 19.8208 22.5884 17.7154C22.7072 17.4547 22.7499 17.1686 22.7121 16.887C22.6743 16.6054 22.5572 16.3386 22.3733 16.1144C21.0917 14.5602 19.3706 13.4355 17.8416 12.4363C17.7384 12.3688 17.6361 12.3019 17.5348 12.2355C17.1714 11.9974 16.7249 11.9016 16.2887 11.9684C15.8525 12.0351 15.4604 12.2591 15.1947 12.5934L13.7491 14.6774C13.6737 14.7897 13.5557 14.8704 13.4194 14.9029C13.283 14.9354 13.1387 14.9172 13.0161 14.852C12.0384 14.3216 10.6134 13.4182 9.58789 12.4479C8.56353 11.4776 7.66888 10.1883 7.16581 9.32258C7.10325 9.21211 7.08519 9.0839 7.11489 8.96176C7.14463 8.83962 7.22014 8.73186 7.32743 8.65847L9.54804 7.09635C9.86565 6.8356 10.0709 6.47327 10.1246 6.07843C10.1783 5.68358 10.0768 5.28383 9.83944 4.9553C9.73255 4.80718 9.62393 4.65507 9.51317 4.49999C8.50593 3.08957 7.32344 1.43377 5.68273 0.301258C5.4478 0.140095 5.17267 0.0395567 4.88431 0.00951151C4.59597 -0.0205474 4.30434 0.0209275 4.03803 0.129843C1.82652 1.02787 -0.0879335 3.32741 0.00312083 5.69485C0.0645846 7.24836 0.705404 11.6469 5.56891 16.2546Z" fill="#D7A461"/>
</svg>
