<svg xmlns="http://www.w3.org/2000/svg"><symbol fill="none" id="arrow" viewBox="0 0 12 7"><title>arrow</title><path d="M1 1l5 5 5-5" stroke="#333" stroke-width="2" stroke-linecap="round" stroke-linejoin="round"/></symbol><symbol fill="none" id="cut" viewBox="0 0 283 317"><title>cut</title><path fill-rule="evenodd" clip-rule="evenodd" d="M174.01 278.939c62.333-14.736 108.717-70.739 108.717-137.575C282.727 63.291 219.436 0 141.364 0 63.291 0 0 63.29 0 141.364c0 77.277 62.008 140.073 138.983 141.343l38.803 33.823-3.776-37.591z" fill="#294680"/><path d="M201.733 46.442h5.613v10.823h.162l7.35-10.823h4.765V67.12h-5.613V56.256h-.121l-7.471 10.863h-4.685V46.442zm-8.554 20.678l-6.341-8.36h-.787v8.36h-5.614V46.441h5.614v7.794h.727l5.936-7.794h7.068l-7.875 9.935 8.319 10.742h-7.047zm-28.078-20.678V67.12h-5.411V46.442h5.411zM146.524 67.12l6.341-10.984-6.26-9.693h6.946l4.16 8.077h9.531l3.957-8.077h6.906l-5.977 9.612 6.139 11.065h-6.785l-3.554-7.43h-10.944l-3.715 7.43h-6.745zm-20.061-20.678h5.613v10.823h.162l7.35-10.823h4.766V67.12h-5.614V56.256h-.121l-7.471 10.863h-4.685V46.442zM107.805 67.12V46.441h8.925c1.535 0 2.878.303 4.029.909a6.59 6.59 0 012.685 2.554c.64 1.097.959 2.38.959 3.847 0 1.48-.329 2.763-.989 3.846-.653 1.084-1.572 1.919-2.756 2.504-1.178.586-2.555.879-4.13.879h-5.33v-4.362h4.2c.659 0 1.221-.114 1.686-.343a2.51 2.51 0 001.08-1c.256-.43.384-.939.384-1.524 0-.593-.128-1.097-.384-1.515a2.406 2.406 0 00-1.08-.969c-.465-.229-1.027-.343-1.686-.343h-1.979v16.194h-5.614zM87.721 50.965v-4.523h17.971v4.523h-6.219V67.12h-5.532V50.965h-6.22zm-1.981 3.231h-5.694a3.863 3.863 0 00-.324-1.282 2.896 2.896 0 00-.706-.99 2.949 2.949 0 00-1.08-.646 4.192 4.192 0 00-1.444-.232c-.943 0-1.74.229-2.393.687-.646.457-1.138 1.114-1.474 1.968-.33.855-.495 1.882-.495 3.08 0 1.265.168 2.325.505 3.18.343.848.838 1.488 1.484 1.918.646.424 1.424.636 2.332.636a4.68 4.68 0 001.394-.191c.41-.135.767-.327 1.07-.576.303-.249.548-.548.737-.898.195-.357.326-.758.394-1.202l5.694.04c-.067.875-.313 1.767-.737 2.676-.424.902-1.027 1.736-1.807 2.504-.774.76-1.734 1.373-2.878 1.837-1.144.465-2.473.697-3.988.697-1.898 0-3.6-.407-5.108-1.222-1.501-.814-2.69-2.012-3.564-3.594-.869-1.582-1.303-3.517-1.303-5.805 0-2.302.444-4.24 1.333-5.816.888-1.582 2.086-2.776 3.594-3.584 1.508-.814 3.19-1.222 5.048-1.222 1.306 0 2.507.179 3.605.535a8.675 8.675 0 012.887 1.565 7.73 7.73 0 012 2.514c.504.997.81 2.137.918 3.423zm59.486 33.411v-4.523h17.971v4.523h-6.219v16.154h-5.533V87.607h-6.219zm-1.06 5.816c0 2.302-.447 4.244-1.343 5.825-.895 1.575-2.103 2.77-3.624 3.585-1.521.807-3.218 1.211-5.089 1.211-1.884 0-3.587-.407-5.108-1.222-1.515-.821-2.72-2.019-3.615-3.594-.888-1.581-1.333-3.517-1.333-5.805 0-2.302.445-4.24 1.333-5.816.895-1.581 2.1-2.776 3.615-3.584 1.521-.814 3.224-1.221 5.108-1.221 1.871 0 3.568.407 5.089 1.221 1.521.808 2.729 2.003 3.624 3.584.896 1.575 1.343 3.514 1.343 5.816zm-5.775 0c0-1.239-.165-2.282-.495-3.13-.323-.855-.804-1.501-1.443-1.939-.633-.444-1.414-.666-2.343-.666s-1.713.222-2.352.666c-.633.438-1.114 1.084-1.444 1.939-.323.848-.484 1.891-.484 3.13 0 1.238.161 2.285.484 3.14.33.848.811 1.494 1.444 1.938.639.438 1.423.656 2.352.656.929 0 1.71-.218 2.343-.656.639-.444 1.12-1.09 1.443-1.938.33-.855.495-1.902.495-3.14zm43.947 121.89h5.613v10.824h.162l7.35-10.824h4.765v20.678h-5.613v-10.864h-.121l-7.471 10.864h-4.685v-20.678zm10.985-5.573h3.513c-.007 1.313-.508 2.363-1.504 3.15-.996.781-2.339 1.171-4.029 1.171-1.703 0-3.052-.39-4.048-1.171-.996-.787-1.491-1.837-1.484-3.15h3.473c-.007.424.144.815.454 1.171.316.35.852.525 1.605.525.721 0 1.235-.171 1.545-.514.31-.344.468-.737.475-1.182zm-28.671 26.251v-20.678h14.902v4.524h-9.289v3.553h8.522v4.524h-8.522v3.553h9.249v4.524h-14.862zm-21.76 0v-4.322l.565-.08c.687-.108 1.256-.404 1.706-.889.458-.491.808-1.269 1.05-2.332.25-1.07.408-2.528.475-4.372l.323-8.683h14.983v20.678h-5.412v-16.316h-4.402l-.323 6.502c-.121 2.41-.444 4.331-.969 5.765-.525 1.434-1.323 2.467-2.393 3.099-1.07.633-2.48.95-4.23.95h-1.373zm-17.694 0v-20.678h14.539v4.524h-8.925v2.423h2.1c1.736 0 3.254.279 4.553.838 1.306.558 2.319 1.346 3.039 2.362.727 1.016 1.09 2.211 1.09 3.584 0 1.373-.363 2.582-1.09 3.625-.72 1.043-1.733 1.858-3.039 2.443-1.299.586-2.817.879-4.553.879h-7.714zm5.614-4.402h2.1c.673 0 1.238-.112 1.696-.334.464-.222.814-.528 1.05-.918a2.48 2.48 0 00.363-1.333c0-.707-.266-1.292-.797-1.757-.532-.471-1.303-.707-2.312-.707h-2.1v5.049zm-22.616 4.684v-4.361h1.01c.592 0 1.06-.047 1.403-.142.35-.101.619-.276.808-.525.195-.255.36-.612.495-1.07l.201-.606-7.753-14.256h5.734l4.321 8.4 3.312-8.4h5.654l-7.108 16.154c-.39.848-.855 1.639-1.393 2.373a6.346 6.346 0 01-2.009 1.767c-.801.444-1.794.666-2.979.666h-1.696zm-21.646-.282v-20.678h8.925c1.535 0 2.877.303 4.028.909a6.596 6.596 0 012.686 2.554c.639 1.098.959 2.38.959 3.847 0 1.481-.33 2.763-.989 3.847-.653 1.083-1.572 1.918-2.757 2.504-1.177.585-2.554.878-4.129.878h-5.33v-4.362h4.2c.659 0 1.22-.114 1.685-.343a2.509 2.509 0 001.08-.999c.256-.431.384-.939.384-1.525 0-.592-.128-1.097-.383-1.514a2.413 2.413 0 00-1.08-.97c-.465-.228-1.027-.343-1.687-.343h-1.979v16.195H86.55zm128.139-41.181c-6.752-.024-12.584-1.585-17.496-4.682-4.913-3.098-8.7-7.563-11.362-13.395-2.662-5.832-3.981-12.825-3.956-20.98.024-8.18 1.355-15.125 3.993-20.836 2.661-5.711 6.436-10.055 11.325-13.031 4.912-2.976 10.744-4.465 17.496-4.465 6.751 0 12.583 1.501 17.496 4.501 4.912 2.977 8.699 7.321 11.361 13.032 2.662 5.711 3.981 12.644 3.957 20.799 0 8.203-1.331 15.221-3.993 21.053-2.662 5.832-6.449 10.297-11.362 13.394-4.888 3.074-10.708 4.61-17.459 4.61zm0-16.407c3.484 0 6.34-1.815 8.566-5.445 2.251-3.654 3.364-9.389 3.34-17.205 0-5.106-.508-9.281-1.525-12.523-1.016-3.243-2.42-5.639-4.21-7.187-1.791-1.573-3.848-2.36-6.171-2.36-3.485 0-6.328 1.767-8.53 5.3-2.203 3.533-3.328 9.123-3.376 16.77-.024 5.203.472 9.486 1.488 12.85 1.016 3.339 2.42 5.807 4.211 7.404 1.815 1.598 3.884 2.396 6.207 2.396zm-74.667 16.407c-6.751-.024-12.583-1.585-17.496-4.682-4.912-3.098-8.699-7.563-11.361-13.395-2.662-5.832-3.981-12.825-3.957-20.98.024-8.18 1.355-15.125 3.993-20.836 2.662-5.711 6.437-10.055 11.325-13.031 4.913-2.976 10.745-4.465 17.496-4.465 6.752 0 12.584 1.501 17.496 4.501 4.913 2.977 8.7 7.321 11.362 13.032 2.662 5.711 3.98 12.644 3.956 20.799 0 8.203-1.331 15.221-3.993 21.053-2.662 5.832-6.449 10.297-11.361 13.394-4.888 3.074-10.708 4.61-17.46 4.61zm0-16.407c3.485 0 6.34-1.815 8.567-5.445 2.25-3.654 3.363-9.389 3.339-17.205 0-5.106-.508-9.281-1.524-12.523-1.017-3.243-2.42-5.639-4.211-7.187-1.791-1.573-3.848-2.36-6.171-2.36-3.485 0-6.328 1.767-8.53 5.3-2.202 3.533-3.327 9.123-3.376 16.77-.024 5.203.472 9.486 1.488 12.85 1.017 3.339 2.42 5.807 4.211 7.404 1.815 1.598 3.884 2.396 6.207 2.396zm-72.316 15.391c-5.856 0-11.06-1.004-15.609-3.013-4.525-2.033-8.082-4.828-10.671-8.385-2.59-3.557-3.896-7.647-3.92-12.269h20.327a6.475 6.475 0 001.306 3.848c.872 1.113 2.057 1.984 3.558 2.613 1.5.629 3.218.944 5.154.944 1.864 0 3.509-.327 4.937-.98 1.428-.678 2.54-1.609 3.34-2.795.798-1.186 1.185-2.541 1.16-4.066a5.984 5.984 0 00-1.379-3.992c-.92-1.162-2.214-2.069-3.884-2.723-1.67-.653-3.593-.98-5.771-.98h-7.55v-13.939h7.55c2.008 0 3.775-.326 5.3-.98 1.548-.653 2.746-1.56 3.593-2.722.871-1.162 1.295-2.493 1.27-3.993.025-1.452-.326-2.734-1.052-3.848-.726-1.113-1.742-1.984-3.05-2.613-1.282-.629-2.77-.944-4.464-.944-1.839 0-3.484.327-4.937.98-1.427.654-2.553 1.561-3.375 2.723-.823 1.161-1.247 2.492-1.27 3.992H38.956c.024-4.549 1.27-8.566 3.74-12.051 2.492-3.484 5.904-6.219 10.235-8.203 4.332-1.985 9.305-2.977 14.92-2.977 5.492 0 10.344.932 14.555 2.795 4.235 1.864 7.538 4.429 9.91 7.696 2.395 3.242 3.581 6.957 3.557 11.143.048 4.163-1.38 7.575-4.283 10.237-2.88 2.661-6.534 4.234-10.963 4.718v.581c6.002.654 10.515 2.493 13.54 5.518 3.025 3 4.513 6.775 4.464 11.325.025 4.356-1.282 8.215-3.92 11.579-2.613 3.364-6.255 6.002-10.926 7.913-4.646 1.912-10.006 2.868-16.08 2.868z" fill="#fff"/></symbol><symbol fill="none" id="learn" viewBox="0 0 247 238"><title>learn</title><path fill-rule="evenodd" clip-rule="evenodd" d="M246.499 118.623c0 65.446-53.054 118.5-118.5 118.5-65.445 0-118.5-53.054-118.5-118.5 0-20.213 5.061-39.244 13.985-55.895L.88 35.123l38.31 5.044C60.9 15.608 92.641.123 127.998.123c65.446 0 118.5 53.054 118.5 118.5z" fill="#294680"/><path d="M62.69 105.869c0 2.693-.524 4.964-1.57 6.814-1.048 1.843-2.461 3.24-4.24 4.193-1.78.945-3.764 1.417-5.953 1.417-2.204 0-4.196-.476-5.975-1.429-1.772-.961-3.181-2.362-4.228-4.204-1.04-1.851-1.56-4.114-1.56-6.791 0-2.693.52-4.96 1.56-6.803 1.047-1.85 2.456-3.247 4.228-4.192 1.779-.953 3.77-1.43 5.975-1.43 2.19 0 4.173.477 5.953 1.43 1.779.945 3.192 2.342 4.24 4.192 1.046 1.843 1.57 4.11 1.57 6.803zm-6.755 0c0-1.449-.193-2.669-.579-3.661-.378-1-.94-1.756-1.689-2.268-.74-.52-1.653-.78-2.74-.78-1.086 0-2.003.26-2.751.78-.74.512-1.303 1.268-1.69 2.268-.377.992-.566 2.212-.566 3.661 0 1.449.189 2.673.567 3.673.386.992.948 1.748 1.689 2.267.748.512 1.665.768 2.751.768 1.087 0 2-.256 2.74-.768.748-.519 1.311-1.275 1.689-2.267.386-1 .579-2.224.579-3.673zm9.793 12.093V93.776h17.006v5.29h-10.44v2.835h2.457c2.031 0 3.806.327 5.326.98 1.528.653 2.712 1.575 3.555 2.764.85 1.188 1.275 2.586 1.275 4.192 0 1.606-.425 3.019-1.275 4.24-.843 1.22-2.028 2.173-3.555 2.858-1.52.685-3.295 1.027-5.326 1.027h-9.023zm6.566-5.149h2.457c.787 0 1.448-.13 1.984-.39.543-.259.953-.618 1.228-1.074.284-.457.425-.977.425-1.559 0-.827-.31-1.512-.933-2.055-.622-.551-1.523-.827-2.704-.827h-2.457v5.905zm18.43 5.48v-5.102h1.18c.694 0 1.24-.055 1.642-.165.41-.118.725-.323.945-.614.228-.3.421-.717.579-1.252l.236-.709-9.07-16.675h6.708l5.055 9.825 3.873-9.825h6.614l-8.314 18.895c-.457.992-1 1.918-1.63 2.776a7.413 7.413 0 01-2.35 2.066c-.937.52-2.099.78-3.484.78h-1.984zm21.352-24.517h6.33v7.605c0 .756.13 1.374.39 1.854.267.481.712.835 1.334 1.063.63.229 1.488.343 2.575.343.197 0 .516-.004.956-.012.449-.016.933-.036 1.453-.059.52-.032.996-.067 1.429-.106.441-.048.752-.099.933-.154v4.96c-.205.071-.543.134-1.016.189-.472.047-.98.091-1.523.13-.536.032-1.016.059-1.441.083-.425.015-.689.023-.791.023-2.126 0-3.988-.303-5.586-.909-1.599-.606-2.839-1.524-3.72-2.752-.882-1.228-1.323-2.779-1.323-4.653v-7.605zm14.172 0h6.377v24.186h-6.377V93.776zm17.18 24.186h-7.086l7.984-24.186h8.975l7.984 24.186h-7.086l-5.291-17.526h-.189l-5.291 17.526zm-1.323-9.542h13.322v4.913h-13.322v-4.913zm21.509 9.542V93.776h17.432v5.29h-10.865v4.157h9.967v5.291h-9.967v4.157h10.817v5.291h-17.384zm20.688-24.186h8.173l5.621 13.699h.284l5.621-13.7h8.173v24.187h-6.425v-13.983h-.189l-5.385 13.794h-3.874l-5.385-13.888h-.189v14.077h-6.425V93.776zm-98.575 49.07h-6.661a4.507 4.507 0 00-.378-1.5 3.388 3.388 0 00-.827-1.158 3.452 3.452 0 00-1.263-.755c-.496-.182-1.06-.272-1.69-.272-1.102 0-2.034.268-2.798.803-.756.535-1.33 1.303-1.724 2.303-.386 1-.58 2.2-.58 3.602 0 1.48.198 2.72.591 3.72.402.992.98 1.74 1.736 2.244.756.496 1.666.744 2.729.744a5.5 5.5 0 001.63-.224c.48-.158.897-.382 1.251-.674.354-.291.642-.641.862-1.051a4.21 4.21 0 00.46-1.405l6.662.047c-.08 1.024-.367 2.067-.862 3.13-.496 1.055-1.201 2.031-2.114 2.929-.906.889-2.028 1.606-3.366 2.149-1.339.543-2.894.815-4.665.815-2.22 0-4.212-.476-5.976-1.429-1.756-.953-3.145-2.354-4.169-4.204-1.016-1.851-1.523-4.114-1.523-6.791 0-2.693.52-4.96 1.559-6.803 1.039-1.85 2.44-3.247 4.204-4.192 1.764-.953 3.732-1.429 5.905-1.429 1.527 0 2.933.209 4.216.626 1.283.417 2.41 1.027 3.377 1.83a9.052 9.052 0 012.339 2.941c.59 1.165.949 2.5 1.075 4.004zm9.604 15.116v-24.186h6.566v9.447h8.692v-9.447h6.567v24.186h-6.567v-9.448h-8.692v9.448h-6.566zm28.438.331v-5.102h1.181c.693 0 1.24-.055 1.642-.165.409-.118.724-.323.945-.614.228-.3.421-.717.578-1.252l.236-.709-9.07-16.675h6.708l5.055 9.825 3.874-9.825h6.613l-8.314 18.895c-.457.992-1 1.918-1.63 2.776a7.413 7.413 0 01-2.35 2.066c-.937.52-2.098.78-3.484.78h-1.984zm19.085-.331v-5.054l.661-.095c.803-.126 1.469-.472 1.996-1.039.536-.575.945-1.484 1.228-2.728.292-1.252.477-2.957.555-5.114l.378-10.156h17.526v24.186h-6.33v-19.085h-5.149l-.378 7.606c-.142 2.819-.52 5.066-1.134 6.743-.614 1.677-1.547 2.886-2.799 3.626-1.251.74-2.901 1.11-4.948 1.11h-1.606zm45.435 0h-6.566v-18.943h-2.315c-.763 0-1.421.106-1.972.319-.551.205-.976.528-1.275.968-.292.433-.437.996-.437 1.689 0 .685.145 1.24.437 1.665.299.426.724.737 1.275.933.551.189 1.209.284 1.972.284h4.913v5.102h-6.235c-1.835 0-3.445-.303-4.83-.91-1.386-.606-2.465-1.503-3.236-2.692-.764-1.189-1.146-2.65-1.146-4.382 0-1.716.374-3.188 1.122-4.417.748-1.228 1.795-2.169 3.141-2.822 1.355-.654 2.925-.98 4.713-.98h10.439v24.186zm-14.171-11.101h6.991l-5.905 11.101h-7.133l6.047-11.101z" fill="#fff"/></symbol><symbol fill="none" id="logo" viewBox="0 0 179 112"><title>logo</title><g filter="url(#filter0_d_1003_1662)"><path d="M121.875 41.709l-11.452-.532c-1.001-1.507-2.665-2.358-4.659-2.358h-.152c-.098 0-.192.002-.277.006-.997-1.346-2.286-2.336-3.271-2.964l-.023-.015a9.572 9.572 0 00-1.53-.791 6.399 6.399 0 00-2.363-.446c-.464 0-.928.05-1.38.147-.704.146-1.3.385-1.851.62a43.9 43.9 0 00-1.278.544 4.785 4.785 0 00-.21-.142c-.538-.352-1.035-.575-1.479-.775l-.016-.008c-.098-.06-.342-.262-.431-.334l-.127-.105c-.302-.25-.677-.561-.996-.8l-.01-.006c-.46-.349-1.032-.784-1.786-1.101-1.041-.445-2.207-.672-3.466-.672-.72 0-1.468.074-2.222.22l-.058.013-.071.016c-1.047.254-1.811.77-2.371 1.146l-.023.015c-.117.078-.233.159-.348.237-.21.144-.497.344-.706.46-.002 0-.004 0-.006-.003a11.716 11.716 0 00-1.132-.319c-.585-.126-1.366-.268-2.239-.268-.732 0-1.43.103-2.069.305-1.994.623-3.579 2.095-4.842 4.502-.16.295-.3.606-.419.934l-10.143-.472a5.871 5.871 0 00-.268-.006c-3.109 0-5.661 2.461-5.811 5.603l-.006.134L53.39 63.56l7.118.348 10.037.491c.462 1.101 1.193 2.138 2.388 2.903l.015.01a6.54 6.54 0 001.65.74 29.728 29.728 0 002.314 2.435c.09.187.19.373.3.556l.022.04c.436.694.966 1.257 1.583 1.671l.04.027.04.025c.386.24.809.422 1.254.538.83.544 1.678.732 2.013.806.265.06.531.109.866.16l.052.009c.373.051.748.074 1.18.074.253 0 .494-.008.717-.016h.015c.682-.031 1.34-.091 1.984-.149l.674-.062c1.358-.126 2.76-.257 4.085-.257.35 0 .687.008 1.003.026l.146.009c.414.024.885.051 1.37.051h.06c.758 0 3.065 0 4.618-1.909.425-.515.756-1.117 1.012-1.847.094-.268.168-.525.229-.77a9.38 9.38 0 00.664-.102 5.77 5.77 0 001.832-.678 8.35 8.35 0 002.209.303c.862 0 1.699-.136 2.488-.404a9.393 9.393 0 002.3-1.154l.032-.023a5.019 5.019 0 001.097-1.047l11.03.538 2.746.134 2.821-19.062.006-.134c.154-3.235-2.322-5.989-5.519-6.137l-.007.006z" fill="#fff"/></g><path d="M120.678 44.713l-11.934-.555c-.233-.239-.554-.482-.949-.596a5.901 5.901 0 00-.123-.276c-.477-.936-1.337-1.393-2.557-1.363a7.99 7.99 0 00-.393.013c-.194.008-.379.018-.568.004-.325-.041-.679-.198-1.083-.476-.729-1.286-1.955-2.243-2.858-2.82a6.654 6.654 0 00-1.046-.547 3.625 3.625 0 00-2.075-.158c-.454.093-.883.268-1.316.453-.404.163-.814.342-1.21.516-.447.195-.91.4-1.363.577a2.23 2.23 0 01-.412.103l-.075.012c-.11-.385-.423-.764-.864-1.047-.346-.227-.696-.386-1.066-.55l-.056-.025c-.325-.15-.627-.388-.985-.682l-.119-.1c-.275-.226-.616-.509-.876-.704l-.01-.009c-.363-.274-.738-.558-1.162-.736-1.37-.59-2.898-.474-3.94-.272h-.004c-.545.132-.993.435-1.426.726l-.027.018c-.104.07-.208.143-.31.213-.622.429-1.266.874-2.011.977a1.463 1.463 0 01-.616-.064c-.127-.037-.26-.08-.4-.124-.277-.088-.562-.181-.84-.24-.849-.182-1.848-.329-2.801-.028-1.224.382-2.249 1.388-3.132 3.076-.247.447-.416.981-.516 1.633a12.889 12.889 0 00-.135 1.94c-.002.56.017 1.146.06 1.84l-.012.017-.204-3.039-11.871-.552c-1.63-.076-3.017 1.228-3.098 2.913l.841 15.93 1.913.093 1.106-13.562c.014-.262.102-.468.197-.464.096.004.165.219.153.48l-.192 13.608 1.314.064 1.105-13.564c.015-.262.102-.468.198-.464.096.004.164.218.152.48l-.192 13.61 1.312.064 1.106-13.567c.014-.261.101-.468.197-.463.096.004.165.218.152.48l-.191 13.612 1.311.063 1.106-13.568c.014-.262.102-.468.198-.464.095.004.164.219.151.48l-.191 13.614 1.312.064 1.105-13.57c.015-.262.102-.468.198-.464.096.004.164.218.152.48l-.192 13.616 1.312.064.433-5.314c.058.043.12.086.183.125.17 1.433.358 2.952.558 4.513.183 1.449.543 3.043 1.834 3.867.464.293 1.02.483 1.697.58a.46.46 0 00.062.113c.367.478.8.979 1.362 1.577.391.412.914.95 1.499 1.46.008.008.019.014.027.02.067.235.177.48.325.726.223.356.48.637.768.83.264.165.583.256.924.262.365.423.94.594 1.401.695.196.043.4.082.662.123.26.035.517.048.777.048.192 0 .385-.006.587-.015.6-.026 1.206-.08 1.793-.134l.168-.014.48-.045c1.744-.163 3.549-.33 5.32-.23l.14.01c.385.022.783.044 1.18.044.858.004 1.82-.097 2.445-.872.214-.257.389-.58.532-.99.17-.483.257-.958.313-1.316.064-.41.081-.8.05-1.157h.044c.876.041 1.667.062 2.46-.088.796-.153 1.37-.536 1.755-1.17.019-.028.036-.057.054-.088.121.107.259.21.409.303a3.57 3.57 0 001.38.478 4.97 4.97 0 002.365-.185 6.503 6.503 0 001.58-.798c.308-.214.76-.633 1.108-1.767.358-1.234.535-2.552.676-3.621h.04l-.054 3.85 1.309.064.35-4.3c.441-.28.797-.69.995-1.181l-.077 5.543 1.31.064 1.107-13.606c.015-.261.102-.468.198-.464.096.005.164.22.152.48l-.192 13.652 1.31.064 1.107-13.608c.015-.262.102-.468.198-.464.096.004.165.219.152.48l-.191 13.654 1.309.063 1.108-13.61c.014-.261.102-.467.197-.463.096.004.165.218.152.48l-.191 13.655 1.549.077 2.359-15.94c.081-1.684-1.177-3.11-2.807-3.187l.009.007zm-11.214.536a4.929 4.929 0 00-.247-.473c.087.137.17.293.247.473zm-6.208 1.183c.038-.21.086-.42.131-.623a8.93 8.93 0 00.2-1.082l.009-.082a8.76 8.76 0 00.035-.668v-.004c0-.122 0-.28-.008-.446a7.587 7.587 0 00-.017-.3l-.006-.1a3.127 3.127 0 00-.048-.408c.048.02.094.04.139.056l.057.02.023.007c.012.004.022.008.035.01.008.002.019.004.027.008l.031.008a.472.472 0 01.029.007l.029.006.034.006c.008 0 .016.004.027.006l.035.006a.07.07 0 01.025.005c.013 0 .025.004.036.006.008 0 .014.002.023.004.012 0 .025.004.037.004.006 0 .012 0 .021.002.012 0 .027.002.039.004h.017c.015 0 .027.002.042.004h.016c.015 0 .029 0 .044.002h.015c.014 0 .029 0 .043.002h.608c.215 0 .44.005.602.023.604.058 1.103.285 1.568 1.202.206.39.391.787.587 1.208.093.2.191.408.289.612.025.05.073.083.129.089h.025a.153.153 0 00.108-.052.162.162 0 00.04-.113 7.41 7.41 0 00-.15-1.041c-.027-.128-.056-.248-.083-.36.601.514.872 1.325 1.041 1.982.021.085.039.171.058.262l-.493-.019c-.644-.024-1.308-.05-1.872-.074l-1.174-.05a2.705 2.705 0 00-1.414.326 2.532 2.532 0 00-.724.588 2.95 2.95 0 00-.325-.503c.021-.167.046-.363.075-.544l-.015.004zM72.4 42.402c.013-.11.027-.22.044-.332v-.004l.01-.068.007-.046c0-.012.004-.024.006-.037l.013-.076c0-.006 0-.01.002-.017a4.35 4.35 0 01.335-1.094l.052-.105c.293-.532.737-1.262 1.351-1.835a2.59 2.59 0 01.14-.124c.047-.039.095-.08.145-.12l.075-.057a2.834 2.834 0 011.99-.56 7.17 7.17 0 011.718.348l.19.062c.247.082.526.177.801.224.02.004.042.008.063.01l.054.025.077.027c.214.079.445.16.65.27a1.832 1.832 0 01.25.161 1.1 1.1 0 01.151.146c.112.149.167.324.225.512.023.074.048.152.075.228.106.303.241.549.406.734.098.112.206.2.325.268.154.089.326.138.52.149h.052c.054 0 .11 0 .167-.007.018 0 .037-.004.058-.006a.144.144 0 00.114-.074.168.168 0 00.017-.045.146.146 0 00-.075-.159c-.252-.132-.468-.264-.556-.542a2.943 2.943 0 01-.112-.65c-.025-.272-.052-.552-.169-.814a1.557 1.557 0 00-.218-.363 2.388 2.388 0 00-.184-.202c.556-.257 1.064-.61 1.556-.952l.13-.093c.038-.024.078-.051.117-.078.26-.175.531-.357.814-.458.007 0 .013-.004.017-.006l.031-.01.031-.01c.009-.003.02-.005.028-.009l.035-.01c.106-.02.212-.04.32-.056a6.955 6.955 0 011.808-.047c.037.004.077.008.114.014.562.076 1.029.237 1.42.487.402.258.787.55 1.16.833.28.212.57.432.87.64.264.178.497.304.718.39l.008.004c.342.134.696.273.996.45.047.029.093.06.14.09.197.137.372.295.418.53.01.08.016.163.022.27.009.225.007.454.002.677-.004.29-.008.59.015.89.023.293.08.55.167.767.162.402.389.756.674 1.055h.002a.142.142 0 00.167.031l.023-.012a.146.146 0 00.046-.184v-.004a3.906 3.906 0 01-.335-.806 3.558 3.558 0 01-.071-.303c-.005-.02-.007-.04-.01-.062-.043-.307-.007-.612.032-.931l.02-.157.016-.126a24.258 24.258 0 00.069-.602l.09-.008.08-.008c.146-.019.281-.041.404-.07.075-.019.181-.05.246-.072l.273-.093c.268-.095.528-.194.801-.297l.035-.012.473-.184c.364-.142.816-.317 1.008-.387l.116-.046c.156-.062.319-.126.47-.177l.065-.023c.723-.247 1.387-.251 1.974-.014.067.027.133.056.202.089.204.096.42.218.666.373.914.59 1.693 1.292 2.242 2.005.215.28.394.561.533.84.123.257.206.509.244.746l.021.154.02.145c0 .014.005.03.007.045.027.227.052.466.062.682a7.63 7.63 0 01-.008 1.089c-.008.117-.021.24-.031.358-.023.262-.048.532-.052.8v.103a2.897 2.897 0 00-1.391-.593 4.77 4.77 0 00-.504-.038c-.017 0-.035 0-.052-.002a25.45 25.45 0 01-.144-.006l-5.11-.222c-.044-.003-.088-.003-.132-.003-.45 0-.905.108-1.303.308-.027.012-.052.026-.08.04a2.834 2.834 0 00-.638.477 23.16 23.16 0 00-.188-1.154.155.155 0 00-.127-.12.157.157 0 00-.179.128c-.018.126-.037.254-.054.383-.03.217-.054.44-.079.664a2.802 2.802 0 00-1.247-.925 1.99 1.99 0 00-.235-.076c-.027-.009-.055-.015-.08-.021a2.73 2.73 0 00-.743-.078c-.433.008-.866.018-1.299.028-1.12.025-2.275.05-3.414.068a2.704 2.704 0 00-1.393.41c-.22.136-.418.308-.59.505a3.244 3.244 0 00-.082-.294c.014-.122.033-.241.054-.363.141-.843.4-1.666.635-2.381l.006-.023c.002-.008 0-.014 0-.022a.136.136 0 00-.067-.116.14.14 0 00-.104-.014.133.133 0 00-.083.062c-.044.072-.081.142-.12.214a11.23 11.23 0 00-.477.99 8.66 8.66 0 00-.269.7c-.01.033-.023.064-.033.097a2.339 2.339 0 00-.113-.138 19.693 19.693 0 00-.241-1.975 9.753 9.753 0 00-.08-.4.133.133 0 00-.108-.099h-.025a.128.128 0 00-.116.112 17.436 17.436 0 00-.104 1.777 3.1 3.1 0 00-.98-.413l-.07-.014a3.135 3.135 0 00-.635-.062c-.091 0-.22.008-.324.013h-.04l-.841.049c-.843.05-1.695.103-2.523.155l-.637.039c-.885.055-1.787.109-2.667.158a3.02 3.02 0 00-1.332.392c-.026-.87-.003-1.604.072-2.298l.006.004zm20.634 12.702l.01-.204c.053-1.035.11-2.234.153-3.447.045-.566.091-1.13.137-1.671.008-.077.025-.293.046-.54l.025-.312.006-.078.006-.076c.021-.254.042-.474.052-.54a1.79 1.79 0 01.36-.841c.023-.03.046-.056.07-.085a1.813 1.813 0 01.561-.429 1.84 1.84 0 01.956-.185l5.1.396h.007l.247.018.067.004c.217.013.414.052.589.122a1.69 1.69 0 011.064 1.488v.09c0 .054-.004.11-.008.162-.002.062-.009.158-.017.272v.03c0 .021-.002.042-.004.065a67.946 67.946 0 00-.035.58c-.009.127-.015.255-.023.382-.098 1.767-.169 3.64-.229 5.44-.007.165-.011.328-.017.491 0 .045-.006.192-.008.225a1.73 1.73 0 01-.585 1.216 1.85 1.85 0 01-1.318.474c-.381-.018-.835-.039-1.326-.06-1.295-.06-2.886-.132-3.975-.185l-.21-.01a2.092 2.092 0 01-.498-.085l-.072-.023a1.935 1.935 0 01-1.29-1.74 2.384 2.384 0 00.145-.715v-.027l.002-.051c.004-.076.004-.12.004-.145l.008-.006zm-9.402 3.148c0-.132-.002-.264-.004-.396v-.268c-.008-.206-.012-.418-.02-.64l-.013-.37a2.498 2.498 0 001.476 1.05c.041.01.085.018.127.026.127.025.252.04.375.044h.002a245.54 245.54 0 013.78.008c.36.004.727.008 1.091.014h.19c.014 0 .029 0 .046-.002h.018c.017 0 .032-.002.048-.004h.015c.016 0 .033-.004.05-.006h.012c.017-.002.036-.004.052-.008h.01c.02-.002.036-.007.055-.01h.008c.019-.005.038-.007.056-.01h.007a.507.507 0 01.056-.013h.004l.058-.015h.004l.059-.016h.002l.058-.019.058-.02.059-.021c.019-.008.04-.014.058-.023l.058-.024.056-.025c.02-.008.038-.019.057-.027h.002c.019-.008.035-.018.054-.027h.004c.017-.01.035-.018.052-.029l.004-.002.05-.028.006-.005a13.574 13.574 0 00.057-.035l.048-.03c.002 0 .006-.005.008-.007l.046-.03.01-.007c.015-.01.03-.02.042-.03l.012-.01.04-.03c.004-.004.008-.008.014-.01a.448.448 0 01.038-.03l.016-.011c.013-.01.023-.02.034-.03l.019-.016.03-.027c.007-.006.015-.012.022-.02.008-.009.018-.017.027-.025a.317.317 0 01.027-.025l.02-.02c.017-.017.032-.031.046-.048.021.056.046.11.071.165.048.103.104.204.165.301v.748a62.175 62.175 0 01-.065 3.185 12.98 12.98 0 01-.158 1.542v.015c-.046.214-.083.398-.18.57-.195.362-.42.733-.749.99-.622.48-1.49.553-2.333.559-.3 0-.646-.017-1.058-.043-1.255-.1-2.817-.221-3.691-1.293-.337-.418-.556-.985-.65-1.686l-.056-.392a24.426 24.426 0 01-.063-.526c.048-.665.06-1.34.063-2.007 0-.268 0-.534-.004-.798l.012-.023zm.269-3.03a527.701 527.701 0 01.108-6.395c.006-.369.017-.828.025-.927a1.64 1.64 0 01.808-1.27 1.61 1.61 0 01.845-.217l1.039.019c1.262.023 2.567.047 3.847.086.485.046.944.355 1.173.788.118.22.176.474.172.738 0 .443.002.888.009 1.334.027 1.933.116 3.881.212 5.728 0 .038.008.176.008.21a1.624 1.624 0 01-.464 1.205 1.734 1.734 0 01-1.235.538 135.927 135.927 0 00-1.201.014c-.154 0-.31.004-.466.006a81.12 81.12 0 01-3.308-.012 1.828 1.828 0 01-.702-.24 1.778 1.778 0 01-.872-1.601l.002-.004zm-11.432.074a2.008 2.008 0 01-.464-1.204l-.01-.375-.048-1.767-.02-.696c0-.05-.001-.1-.003-.149l-.01-.385-.02-.697c-.022-.913-.045-1.792-.06-2.523v-.054a2.876 2.876 0 01.004-.311 1.931 1.931 0 01.531-1.173 1.94 1.94 0 011.343-.59l.893-.025c.808-.02 1.622-.037 2.415-.053l2.105-.045c.423-.01.845-.021 1.264-.033.014 0 .052 0 .091-.002.052 0 .117-.005.136-.005a1.797 1.797 0 011.85 1.711c.023.417.053.858.08 1.235.1 1.46.251 3.016.397 4.521l.073.744.02.235a1.973 1.973 0 01-.511 1.47 2.12 2.12 0 01-1.46.703c-1.9.11-4.082.188-6.672.241-.302.012-.558.006-.825-.068a2.097 2.097 0 01-1.093-.71l-.006.005zm2.919 8.646a2.36 2.36 0 01-.352-.283c-.745-.723-.96-1.876-1.114-3.007a70.813 70.813 0 01-.152-1.198l-.033-.274-.087-.693c-.075-.627-.15-1.253-.223-1.88.027.006.054.013.079.017.183.037.373.047.547.047a3.561 3.561 0 00.363-.016c2.394-.155 4.636-.26 6.666-.316a2.756 2.756 0 001.686-.63c.02.614.04 1.263.05 1.912a18.707 18.707 0 00-.008 2.23v.038c-.013.447-.033.86-.06 1.253l-.013.17c-.03.33-.06.603-.119.878-.02.092-.043.177-.068.243-.242.633-.525 1.045-.923 1.336a.729.729 0 01-.052.035c-.01.008-.023.014-.033.022-.017.01-.033.023-.052.033-.012.008-.025.015-.035.023l-.052.03-.038.022-.05.026-.041.023c-.015.008-.03.014-.044.023l-.048.024-.04.019-.056.025-.031.012-.065.027c-.01.004-.018.008-.029.01l-.069.027-.029.01-.07.025-.028.008c-.024.008-.047.017-.072.023-.004 0-.009.002-.015.004-.737.225-1.582.256-2.452.262-.088 0-.177-.002-.269-.004-.872-.015-1.82-.07-2.569-.536zM94.46 68.99c-.006.163-.027.33-.045.462a1.468 1.468 0 00-.007.287c-.112.012-.227.02-.325.028-.337.027-.687.04-1.024.052-.302.012-.612.023-.916.045-.778.054-1.568.124-2.332.192-.587.052-1.193.105-1.79.153l-.04-.058a1.421 1.421 0 01-.11-.202l-.037-.08a.634.634 0 01-.032-.081 2.471 2.471 0 01-.093-1.078c.014-.122.04-.24.072-.355a1.768 1.768 0 011.026-1.15c.37-.157.788-.216 1.181-.23.067-.003.134-.005.198-.005a7.834 7.834 0 011.039.075 12.348 12.348 0 012.584.649l.054.022c.014.009.031.017.046.025.058.03.114.064.158.101h.002c.264.21.397.571.391 1.074v.074zm2.17-1.966l-.007.02c-.01.035-.018.072-.029.107-.145.54-.302 1.093-.537 1.586-.123.257-.27.461-.435.604a1.201 1.201 0 01-.175.121c.004-.029.006-.06.008-.088.052-.553.005-1.019-.143-1.425a1.906 1.906 0 00-1.097-1.123 2.098 2.098 0 00-.236-.083c-1.024-.321-3.593-.991-5.334-.276-.761.317-1.311.967-1.474 1.738a2.998 2.998 0 00.157 1.767v.004c.048.099.1.191.154.278a36.474 36.474 0 01-3.096.105c-.427-.006-.818-.084-1.212-.169a4.167 4.167 0 01-.568-.163c-.275-.11-.435-.225-.543-.394a.231.231 0 01-.021-.035c-.119-.208-.159-.457-.196-.698l-.014-.1a12.54 12.54 0 01-.038-.24c-.052-.343-.112-.728-.15-1.015 0-.006 0-.01-.002-.016 0-.004 0-.007-.002-.01 0-.003 0-.005-.002-.009v-.002a.122.122 0 00-.075-.068.125.125 0 00-.156.078 2.618 2.618 0 00-.084.334 5.902 5.902 0 00-.085.992c0 .183 0 .365.027.55a1.199 1.199 0 01-.162-.084c-.002 0-.004-.004-.006-.004l-.046-.033a3.094 3.094 0 01-.719-.777l-.012-.02-.004-.005c-.188-.312-.283-.619-.294-.862v-.05c0-.04.013-.144.017-.193v-.004a161.9 161.9 0 00.073-.685l.012-.115.005-.037a.118.118 0 00-.092-.128.122.122 0 00-.144.07c-.073.175-.14.371-.198.54l-.018.058c-.03.088-.06.181-.088.272a43.875 43.875 0 00-1.674-2.039h.073c.075 0 .154 0 .24.002.108 0 .216 0 .325-.002.98-.014 2-.093 2.95-.513a3.187 3.187 0 001.147-.856 3.8 3.8 0 00.566-.944c.337 1.056 1.035 1.777 2.124 2.204 1.038.408 2.283.497 3.47.552 1.1.031 2.236-.033 3.104-.69.452-.347.752-.827.985-1.254.025-.045.046-.09.067-.138.06-.14.104-.288.139-.43.008.026.019.051.027.078a4.38 4.38 0 001.44 2.016 4.87 4.87 0 002.203.948c-.03.256-.079.51-.14.753h-.005zm5.042-5.81l-.063.928c-.006.101-.014.202-.022.305l-.009.114a28.917 28.917 0 01-.083.98l-.004.04-.029.28c-.019.16-.04.316-.067.448-.244.542-.529.876-.931 1.066-.006.001-.012.006-.018.008-.179.08-.379.136-.61.167-.66.09-1.356.053-2.028.018a12.409 12.409 0 01-.265-.014 4.108 4.108 0 01-.28-.017l-.186-.018a4.51 4.51 0 01-.447-.079 3.95 3.95 0 01-1.693-.826 3.745 3.745 0 01-1.076-1.532L93.829 63a4.384 4.384 0 01-.224-.973 9.835 9.835 0 01-.046-.547l-.013-.173a41.866 41.866 0 01-.08-3.053 2.675 2.675 0 001.23.382l.216.016c1.453.105 3.887.282 5.284.392a2.815 2.815 0 001.659-.394c-.069.851-.125 1.721-.181 2.562l-.002.002zm6.389.771c-.11.505-.247 1.085-.495 1.575-.096.184-.2.336-.319.46a1.432 1.432 0 01-.123.114c-.095.078-.21.15-.32.22h-.004c-.877.565-1.82.833-2.728.777a4.47 4.47 0 01-.812-.11c-.353-.088-.849-.275-1.211-.667.046-.241.073-.482.098-.721l.01-.102.042-.393.162-1.567c.096-.92.196-1.872.271-2.647l.102-1.094.058-.087.037.074a2.496 2.496 0 001.997 1.297c.027 0 .056.004.083.004.023 0 .094.004.163.01.085.007.172.01.202.013.97.055 2.134.132 3.208.21a49.571 49.571 0 01-.423 2.636l.002-.002zm3.161-5.714c-.005.34-.011.763-.013.808a1.625 1.625 0 01-.681 1.321 1.716 1.716 0 01-1.103.337c-.906-.042-2.644-.126-4.108-.221-.033-.002-.11-.006-.187-.012-.09-.006-.181-.01-.217-.015-.901-.051-1.65-.818-1.667-1.71v-.065c0-.066.006-.134.01-.193a734.901 734.901 0 01.288-3.806l.064-.785c.027-.322.056-.685.088-1.047.058-.693.116-1.39.154-1.81a1.609 1.609 0 01.882-1.274 1.587 1.587 0 01.854-.165c.356.026.941.074 1.457.115.065.004.127.01.188.015l.12.01.119.01c.173.015.331.027.458.037.275.023.645.054 1.018.083l.258.02.85.07c.054.005.114.013.164.021.063.01.125.025.185.043.585.178 1.033.736 1.05 1.346v.155c-.015.192-.025.384-.036.575l-.052.949a109.106 109.106 0 00-.116 3.366c-.009.412-.015.839-.021 1.282l-.008.538.002.002z" fill="#1E1E1C"/><path d="M103.941 64.113a.167.167 0 00-.141.118c0 .006-.002.01-.004.016 0 .01-.003.02-.003.031a.166.166 0 00.09.142l.031.013c.04.01.075.018.111.024l.02.005c.173.03.358.045.567.045a5.186 5.186 0 001.276-.167c.006 0 .014-.004.023-.006.048-.013.104-.033.154-.052.025-.01.05-.018.073-.026h.004c.079-.034.162-.073.237-.112h.004c.013-.01.032-.02.052-.033.042-.025.092-.051.117-.068h.002l.056-.041c.034-.023.071-.047.102-.072.346-.27.585-.575.71-.907a.14.14 0 00-.056-.167.145.145 0 00-.179.014 4.046 4.046 0 01-.7.536 3.12 3.12 0 01-.568.268l-.15.05a3.147 3.147 0 00-.102.026c-.006 0-.014.005-.021.007l-.027.008h-.002a5.413 5.413 0 01-.225.051 27.587 27.587 0 01-1.23.256l-.223.037.002.004zm-8.325-.648a2.35 2.35 0 001.101.64c.192.047.383.07.57.07.321 0 .625-.069.89-.2l.139-.07-.146-.058a7.42 7.42 0 00-1-.291c-.193-.047-.395-.095-.594-.152a8.066 8.066 0 00-.656-.149 4.352 4.352 0 00-.358-.052l-.14-.012.073.12c.031.05.069.097.12.156v-.002z" fill="#1E1E1C"/><path d="M98.366 64.587a54.718 54.718 0 00-.256-.025l-.162-.019c-.008 0-.015 0-.023-.002-.776-.097-1.588-.264-2.2-.46a8.18 8.18 0 01-.735-.26l-.325-.133.247.247c.569.57 1.387.885 1.972 1.05a6.9 6.9 0 001.208.218c.195.016.387.025.57.025.306 0 .595-.023.866-.066.61-.108 1.076-.293 1.387-.555.043-.037.085-.076.122-.115l.229-.243-.308.131c-.71.303-1.8.283-2.592.21v-.004zm-12.132-.78c.613.279 1.348.425 2.068.425a5.042 5.042 0 001.089-.12l.073-.018.03-.008c.007 0 .011-.002.017-.004a3.14 3.14 0 00.73-.291c.186-.107.365-.241.505-.412l.006-.009.015-.018a.473.473 0 00.029-.04l.166-.234-.258.134c-1.02.53-2.816.4-3.818.272a.16.16 0 01-.031-.004l-.258-.04a.105.105 0 01-.023-.004c-.01 0-.02-.004-.031-.006l-.056-.01h-.005a8.213 8.213 0 01-.934-.215l-.275-.082.206.198c.241.233.545.387.754.484l.001.002zm-6.464-.304h.004c.08-.047.171-.105.244-.173a.548.548 0 00.175-.262l.05-.196-.16.124c-.184.138-.54.173-.902.173-.248 0-.495-.018-.691-.035-.067-.004-.13-.01-.181-.012a32.39 32.39 0 00-.99-.075 28.33 28.33 0 01-1.184-.092l-.22-.023.166.144c.283.248.641.38.989.485a5.448 5.448 0 001.424.208c.629 0 1.043-.146 1.276-.264v-.002zm-5.408-8.551v.077l.077-.013 4.763-.18h.03l1.309-1.395-.096-2.486-1.414-1.292-3.02.113-.063-1.614 4.38-.165-.068-1.754-6.227.235.327 8.474v.004l.002-.004zm3.793-3.502l.391.299.04 1.039-.367.328-1.996.074-.065-1.666 1.997-.074zm8.65 4.29l-.017-2.32 2.386-.016.017 2.319 1.924-.013-.044-6.324v-.029l-2.22-2.16-.02-.021-1.785.012-2.208 2.212.043 6.354 1.924-.013v-.002zm1.145-6.754l1.201 1.17.01 1.347-2.385.017-.01-1.347 1.184-1.187zm8.584 7.349l1.845.125.485-6.912 2.188.15.113-1.615-6.217-.427-.114 1.616 2.188.15-.488 6.913zm9.506-7.654h-.029l-1.47 1.227-.208 2.48 1.176 1.354-1.364 1.13-.025.02v.03l-.181 2.164 1.92.157.141-1.705 1.853-1.534.658.054-.283 3.379 1.919.156.712-8.52-4.823-.394.004.002zm2.629 3.515l-2.121-.173-.225-.326.077-.909.404-.282 1.992.163-.127 1.527z" fill="#1E1E1C"/><g filter="url(#filter1_d_1003_1662)"><path d="M157.895 27.379l-24.472-1.148c-2.139-3.252-5.694-5.089-9.956-5.089h-.324c-.209 0-.41.005-.592.014-2.131-2.905-4.884-5.04-6.989-6.397l-.049-.032c-1.147-.725-2.21-1.28-3.269-1.708a13.554 13.554 0 00-5.049-.96c-.992 0-1.984.106-2.95.315-1.503.316-2.776.832-3.954 1.34-.94.382-1.851.782-2.732 1.173a9.9 9.9 0 00-.45-.306c-1.147-.761-2.21-1.242-3.158-1.673l-.035-.018c-.21-.129-.73-.565-.921-.72l-.271-.227c-.645-.539-1.446-1.21-2.127-1.726l-.022-.014c-.983-.752-2.207-1.69-3.817-2.375-2.224-.961-4.715-1.45-7.407-1.45-1.539 0-3.136.16-4.746.475l-.125.027-.151.036c-2.238.547-3.87 1.659-5.067 2.473l-.049.031c-.25.17-.498.343-.743.512-.45.311-1.063.743-1.508.992-.004 0-.009 0-.013-.005-.708-.23-1.513-.489-2.42-.69-1.25-.27-2.919-.577-4.782-.577-1.566 0-3.057.222-4.422.658-4.262 1.343-7.647 4.52-10.348 9.716-.342.636-.64 1.308-.894 2.015L22.41 21.022a12.34 12.34 0 00-.574-.013c-6.642 0-12.096 5.311-12.416 12.09l-.013.29 2.153 41.145 15.21.751 21.446 1.06c.987 2.375 2.549 4.612 5.102 6.263l.032.022a13.879 13.879 0 003.527 1.597 63.08 63.08 0 002.251 2.54 60.395 60.395 0 002.691 2.714c.192.405.405.805.641 1.2l.049.085c.93 1.5 2.064 2.714 3.38 3.608l.086.058.088.053c.823.52 1.727.912 2.678 1.161 1.775 1.175 3.586 1.58 4.302 1.74.565.129 1.135.236 1.85.347l.112.018c.796.11 1.597.16 2.522.16.539 0 1.055-.018 1.53-.036h.032c1.459-.067 2.865-.196 4.24-.32l1.44-.134c2.901-.271 5.9-.556 8.729-.556.747 0 1.468.018 2.144.058l.311.018c.885.053 1.89.111 2.927.111h.13c1.619 0 6.548 0 9.866-4.12.908-1.111 1.615-2.41 2.162-3.985.2-.578.361-1.135.49-1.664.484-.058.952-.129 1.419-.218a12.248 12.248 0 003.914-1.463c.654.19 1.33.342 2.033.444.89.138 1.798.21 2.687.21 1.842 0 3.63-.294 5.316-.872 1.686-.57 3.292-1.384 4.916-2.492l.067-.048a10.752 10.752 0 002.344-2.26l23.568 1.16 5.868.29 6.028-41.136.013-.289c.329-6.98-4.96-12.923-11.793-13.243l-.013.013z" fill="#fff"/></g><path d="M155.337 33.861l-25.499-1.197c-.499-.516-1.184-1.04-2.029-1.285-.084-.21-.173-.405-.262-.596-1.019-2.02-2.856-3.008-5.463-2.94-.289 0-.57.013-.841.026-.414.018-.81.04-1.214.009-.694-.09-1.451-.427-2.314-1.028-1.557-2.776-4.177-4.84-6.108-6.085-.818-.517-1.548-.904-2.233-1.18-1.37-.547-2.949-.667-4.435-.342-.97.2-1.886.579-2.811.979-.863.351-1.74.738-2.585 1.112-.956.423-1.944.863-2.914 1.246-.262.102-.534.16-.88.222l-.16.027c-.236-.832-.904-1.65-1.847-2.26-.738-.49-1.486-.832-2.278-1.188l-.12-.053c-.694-.325-1.339-.837-2.104-1.473l-.253-.213c-.588-.49-1.317-1.1-1.873-1.522l-.023-.018c-.773-.591-1.574-1.205-2.482-1.588-2.927-1.272-6.192-1.023-8.416-.587h-.01c-1.165.285-2.121.939-3.047 1.566l-.057.04c-.223.151-.445.307-.663.458-1.33.926-2.705 1.887-4.297 2.109-.392.053-.788.013-1.317-.138-.272-.08-.556-.174-.854-.267-.592-.191-1.201-.391-1.793-.52-1.815-.392-3.95-.708-5.988-.058-2.616.823-4.804 2.994-6.69 6.637-.53.965-.89 2.117-1.104 3.523-.187 1.206-.28 2.536-.289 4.186-.004 1.21.036 2.474.13 3.973-.01.013-.019.027-.028.035l-.436-6.557-25.365-1.192c-3.483-.165-6.446 2.651-6.62 6.286l1.798 34.378 4.088.2 2.362-29.267c.031-.565.218-1.01.423-1 .204.008.351.471.324 1.036l-.409 29.365 2.807.138 2.362-29.272c.031-.565.218-1.01.423-1 .204.008.351.471.325 1.036l-.41 29.37 2.803.137 2.362-29.276c.031-.565.218-1.01.423-1 .204.008.351.47.325 1.036l-.41 29.374 2.803.137 2.362-29.28c.031-.565.218-1.01.423-1 .204.008.351.47.324 1.036l-.409 29.378 2.803.138 2.362-29.285c.031-.565.218-1.01.422-1 .205.008.352.47.325 1.036l-.41 29.382 2.803.138.926-11.468c.124.093.258.187.391.271.365 3.092.765 6.37 1.193 9.738.391 3.128 1.16 6.566 3.919 8.346.992.631 2.18 1.04 3.625 1.25.031.089.08.169.134.244.783 1.032 1.708 2.113 2.909 3.404.836.89 1.953 2.05 3.203 3.149.018.018.04.031.058.044.142.508.378 1.037.694 1.566.476.77 1.027 1.375 1.641 1.793a3.823 3.823 0 001.976.565c.778.912 2.006 1.281 2.993 1.5.418.093.855.177 1.415.266.556.076 1.103.102 1.66.102.408 0 .822-.013 1.254-.03a82.325 82.325 0 003.83-.29l.36-.03c.343-.032.68-.063 1.024-.099 3.727-.351 7.584-.712 11.37-.494l.298.018c.823.05 1.673.098 2.522.098 1.833.009 3.888-.209 5.223-1.882.458-.556.832-1.254 1.139-2.135.36-1.045.547-2.069.667-2.843a10.43 10.43 0 00.107-2.495h.093c1.873.089 3.564.133 5.258-.192 1.7-.329 2.928-1.156 3.751-2.522.04-.062.075-.124.115-.191.258.231.552.454.872.654.845.525 1.837.872 2.949 1.032 1.744.276 3.493.138 5.054-.4 1.134-.383 2.238-.948 3.376-1.722.659-.463 1.624-1.366 2.367-3.813.765-2.664 1.143-5.507 1.446-7.816h.084l-.115 8.31 2.798.138.747-9.28a5.454 5.454 0 002.127-2.548l-.165 11.962 2.798.138 2.367-29.36c.031-.566.218-1.01.422-1.002.205.01.352.472.325 1.037l-.409 29.458 2.798.138 2.367-29.365c.031-.565.218-1.01.422-1 .205.008.352.47.325 1.036l-.409 29.462 2.798.138 2.367-29.369c.031-.565.218-1.01.422-1 .205.008.352.47.325 1.036l-.409 29.467 3.309.164 5.041-34.396c.173-3.634-2.514-6.713-5.997-6.877l.018.013zm-23.96 1.157c-.165-.36-.338-.699-.53-1.019.187.294.365.632.53 1.019zm-13.266 2.553c.08-.454.183-.907.281-1.343.169-.752.342-1.526.427-2.336.004-.058.013-.12.017-.178.04-.422.067-.894.076-1.441v-.009c0-.262 0-.605-.018-.96-.009-.214-.018-.437-.035-.65-.005-.054-.009-.134-.014-.214-.004-.098-.013-.2-.018-.262a6.897 6.897 0 00-.084-.619c.102.045.2.085.298.12.04.014.08.032.12.045l.049.013a.44.44 0 00.076.023c.017.004.04.008.057.017.023.005.045.014.067.018l.063.013.062.014.071.013c.018 0 .036.01.058.014l.075.013c.018 0 .036.004.054.009.026 0 .053.009.075.013.018 0 .032.005.049.009.027 0 .054.009.08.009a.17.17 0 01.045.004.47.47 0 01.084.01h.036c.031 0 .058.004.089.008h.036a.58.58 0 01.093.005h.031a.68.68 0 01.094.004h1.299c.458 0 .938.009 1.285.049 1.29.125 2.358.614 3.35 2.593.44.841.836 1.7 1.254 2.607.201.432.41.881.619 1.322a.347.347 0 00.276.19h.053a.328.328 0 00.231-.11.352.352 0 00.085-.245 16.164 16.164 0 00-.32-2.247c-.058-.275-.121-.533-.178-.778 1.285 1.112 1.864 2.86 2.224 4.28.044.182.084.369.124.564l-1.054-.04c-1.375-.053-2.794-.106-3.999-.16l-2.509-.107a5.727 5.727 0 00-3.021.703 5.441 5.441 0 00-1.548 1.268 6.304 6.304 0 00-.694-1.085c.045-.36.098-.783.16-1.175l-.031.01zm-65.932-8.697c.027-.235.058-.476.094-.716v-.009c.009-.049.013-.098.022-.147l.013-.098c0-.026.01-.053.014-.08l.026-.164c0-.014 0-.022.005-.036.147-.805.36-1.61.716-2.362.036-.076.076-.151.111-.227.627-1.148 1.575-2.722 2.887-3.959a5.54 5.54 0 01.298-.267c.103-.085.205-.173.312-.258l.16-.124a6.013 6.013 0 014.253-1.21c1.29.106 2.486.35 3.67.751.129.045.267.09.405.134.529.178 1.125.382 1.712.485.045.009.09.017.134.022.04.018.08.035.115.053l.165.058c.458.17.952.347 1.388.583a3.874 3.874 0 01.534.347c.12.098.231.2.325.316.24.32.355.698.48 1.103.049.16.102.33.16.494.227.654.516 1.183.868 1.583.209.24.44.432.694.579.329.191.698.298 1.112.32h.111c.116 0 .236 0 .356-.013.04 0 .08-.01.124-.014a.308.308 0 00.245-.16.365.365 0 00.036-.098.317.317 0 00-.16-.342c-.539-.285-1.001-.57-1.188-1.17-.147-.445-.192-.908-.24-1.402-.054-.587-.112-1.192-.36-1.757a3.369 3.369 0 00-.468-.783 5.16 5.16 0 00-.391-.436c1.187-.556 2.273-1.316 3.323-2.055l.28-.2.25-.169c.555-.378 1.133-.77 1.738-.988.014 0 .027-.008.036-.013.022-.009.044-.013.067-.022.022-.01.044-.013.066-.022.018-.005.04-.01.058-.018.027-.01.05-.014.076-.023.227-.044.454-.084.685-.12 1.335-.204 2.656-.24 3.861-.102.08.009.165.018.245.031 1.201.165 2.198.512 3.034 1.05.859.556 1.681 1.188 2.478 1.797.6.459 1.219.935 1.86 1.384.564.382 1.063.654 1.534.84l.018.01c.73.289 1.486.587 2.126.97.102.062.2.128.298.195.423.294.797.636.894 1.143.023.174.036.352.05.583.017.485.013.979.004 1.46-.01.626-.018 1.271.03 1.92.05.633.17 1.189.357 1.656a7.17 7.17 0 001.441 2.277h.005a.3.3 0 00.356.067l.048-.027a.316.316 0 00.098-.395v-.01a5.52 5.52 0 01-.293-.587 7.656 7.656 0 01-.574-1.806c-.01-.044-.013-.089-.022-.133-.09-.663-.014-1.321.07-2.01.014-.112.028-.228.04-.339l.036-.271c.04-.316.08-.64.116-.97.013-.111.022-.218.031-.33.063-.004.13-.013.192-.017.057-.005.115-.013.173-.018.311-.04.6-.089.863-.151.16-.04.387-.107.525-.156.196-.067.391-.133.583-.2.573-.205 1.13-.418 1.712-.64l.076-.027c.222-.085.592-.232 1.01-.396a150.43 150.43 0 012.153-.837c.084-.03.165-.066.249-.097.334-.134.681-.272 1.005-.383.045-.018.094-.031.138-.049 1.544-.534 2.963-.543 4.218-.031.142.058.284.12.431.191.436.21.899.472 1.424.805 1.952 1.273 3.616 2.79 4.791 4.329.458.605.84 1.21 1.138 1.81.263.556.441 1.1.521 1.61.013.103.031.219.044.334.014.107.032.214.045.312 0 .031.009.067.013.098.058.489.111 1.005.134 1.472.049.752.044 1.544-.018 2.349-.018.254-.045.52-.067.774-.049.565-.102 1.148-.111 1.726v.222a6.16 6.16 0 00-2.972-1.28 9.717 9.717 0 00-1.076-.08c-.036 0-.076 0-.111-.005a80.763 80.763 0 01-.307-.014l-10.922-.48c-.093-.004-.186-.004-.28-.004-.961 0-1.935.23-2.785.662-.057.027-.11.058-.169.09-.502.275-.96.618-1.365 1.027-.116-.85-.25-1.686-.4-2.491a.332.332 0 00-.646-.018.125.125 0 01-.009.036 62.912 62.912 0 00-.285 2.26 5.994 5.994 0 00-2.664-1.998c-.053-.022-.111-.04-.165-.058a4.26 4.26 0 00-.338-.106 2.68 2.68 0 00-.169-.045 5.777 5.777 0 00-1.588-.17c-.925.019-1.85.041-2.776.063-2.393.054-4.862.107-7.295.147a5.736 5.736 0 00-2.977.885 5.444 5.444 0 00-1.258 1.09 7.022 7.022 0 00-.178-.636c.03-.262.07-.52.115-.783.303-1.82.854-3.594 1.357-5.138l.013-.049c.005-.018 0-.031 0-.049a.295.295 0 00-.142-.249.298.298 0 00-.222-.031.284.284 0 00-.178.133c-.094.156-.174.307-.258.463-.107.196-.21.396-.316.605-.231.458-.458.956-.703 1.53-.062.152-.124.298-.182.445-.147.365-.276.72-.392 1.068-.022.071-.049.138-.071.209a5.043 5.043 0 00-.24-.298c-.125-1.615-.29-2.99-.516-4.262a24.682 24.682 0 00-.17-.863.286.286 0 00-.23-.213h-.054a.274.274 0 00-.25.24 38.056 38.056 0 00-.222 3.834 6.592 6.592 0 00-2.095-.89c-.049-.008-.098-.022-.147-.03a6.653 6.653 0 00-1.356-.134c-.196 0-.472.018-.694.027h-.085l-1.797.107c-1.802.106-3.621.222-5.392.333-.45.027-.903.058-1.361.085-1.89.12-3.817.236-5.699.342a6.424 6.424 0 00-2.847.845c-.053-1.877-.004-3.46.156-4.96l.013.01zm44.09 27.412c.009-.147.013-.293.022-.44.111-2.233.236-4.822.325-7.438.098-1.224.196-2.438.293-3.608.018-.164.054-.632.098-1.165l.054-.672.013-.17.013-.164c.045-.547.09-1.023.112-1.165.093-.663.364-1.29.77-1.815.048-.063.097-.12.146-.183a3.883 3.883 0 011.201-.925 3.892 3.892 0 012.042-.4l10.899.854h.013c.067.004.352.026.53.04l.142.009c.463.026.885.11 1.259.262 1.299.503 2.233 1.824 2.273 3.212v.196c0 .115-.009.236-.018.347-.004.133-.017.342-.035.587v.067c0 .044-.005.089-.009.137 0 .045-.005.094-.009.143l-.067 1.108c-.018.275-.031.551-.049.827-.209 3.812-.36 7.856-.489 11.74-.013.356-.022.707-.036 1.058 0 .098-.013.414-.017.485a3.75 3.75 0 01-1.25 2.625 3.93 3.93 0 01-2.816 1.023c-.814-.04-1.784-.084-2.834-.129-2.767-.129-6.166-.285-8.492-.4-.156-.01-.307-.014-.45-.022a4.435 4.435 0 01-1.063-.183c-.053-.018-.102-.031-.156-.049-1.574-.551-2.695-2.068-2.753-3.754a5.35 5.35 0 00.307-1.544v-.058c0-.04.004-.089.004-.111.01-.165.01-.258.01-.311l.017-.014zm-20.09 6.793c0-.285-.004-.57-.009-.854v-.578c-.017-.445-.026-.903-.044-1.384l-.027-.796a5.385 5.385 0 002.007 1.828 5.12 5.12 0 001.147.436c.09.023.183.04.272.058.27.053.538.085.8.093h.005a563.03 563.03 0 018.078.018c.77.01 1.553.018 2.331.031h.405c.031 0 .062 0 .098-.004h.04c.036 0 .067-.005.102-.009h.031c.036 0 .072-.009.107-.013h.027c.036-.005.076-.01.111-.018h.022c.04-.005.076-.013.116-.022h.018c.04-.01.08-.014.12-.023h.013l.12-.026h.01c.04-.01.084-.023.124-.031h.009c.04-.014.084-.023.124-.036h.005l.124-.04c.04-.013.085-.031.125-.045.04-.013.084-.03.124-.044.04-.018.085-.031.125-.049l.125-.053.12-.054c.04-.017.08-.04.12-.057h.004c.04-.018.076-.04.116-.058h.009c.035-.023.076-.04.111-.063 0 0 .004 0 .009-.004.035-.022.071-.04.107-.062 0 0 .009-.005.013-.01l.107-.066c.004 0 .009-.004.013-.009.036-.022.067-.044.103-.067a1.846 1.846 0 01.116-.08c.008-.004.012-.009.021-.013.031-.022.063-.044.09-.067.008-.004.017-.013.026-.017.027-.023.058-.045.085-.067a.08.08 0 01.03-.023c.027-.022.054-.044.08-.062.014-.009.023-.018.036-.026.027-.023.05-.04.072-.063.013-.013.026-.022.04-.035.022-.018.044-.04.066-.058.014-.014.032-.027.045-.045.018-.017.04-.035.058-.053a.488.488 0 01.057-.053l.045-.045c.035-.035.067-.067.098-.102.044.12.098.236.151.356.102.222.222.44.351.65v1.613c-.004 2.456-.022 4.67-.137 6.873-.063 1.068-.138 2.207-.339 3.328v.03c-.097.463-.177.86-.382 1.233-.418.778-.899 1.58-1.602 2.135-1.33 1.037-3.185 1.192-4.986 1.206-.64 0-1.38-.036-2.26-.094-2.683-.213-6.02-.476-7.888-2.789-.72-.903-1.187-2.126-1.387-3.639l-.12-.845a51.69 51.69 0 01-.134-1.134c.102-1.437.129-2.892.133-4.333 0-.579 0-1.152-.008-1.722l.026-.049zm.574-6.54c.031-3.776.125-8.55.21-12.713.004-.156.013-.587.021-1.086a63.85 63.85 0 01.054-2.001c.084-1.113.76-2.19 1.726-2.74a3.412 3.412 0 011.806-.468l2.22.04c2.696.05 5.485.102 8.22.187 1.037.098 2.016.765 2.505 1.7a3.27 3.27 0 01.37 1.592c0 .956.004 1.917.017 2.878.058 4.173.25 8.377.454 12.363 0 .08.018.378.018.453a3.526 3.526 0 01-.992 2.598 3.66 3.66 0 01-.565.485 3.682 3.682 0 01-2.073.676 282.451 282.451 0 00-2.567.032c-.33 0-.663.009-.997.013-2.33.027-4.72.044-7.068-.027a3.846 3.846 0 01-3.363-3.973l.004-.008zm-24.427.16c-.614-.755-.965-1.676-.992-2.597-.009-.262-.013-.534-.022-.81l-.102-3.812a3178.942 3178.942 0 01-.05-1.824c-.008-.276-.013-.552-.022-.832l-.04-1.503c-.049-1.971-.097-3.866-.129-5.445v-.116a6.333 6.333 0 01.01-.672c.044-.525.186-1.04.413-1.499a3.88 3.88 0 01.72-1.032c.743-.774 1.793-1.255 2.87-1.272l1.908-.054c1.726-.044 3.466-.08 5.16-.115 1.478-.032 2.99-.063 4.498-.098.903-.023 1.806-.045 2.7-.072.032 0 .112 0 .196-.004.111 0 .25-.009.29-.009a3.95 3.95 0 011.668.33 3.876 3.876 0 012.286 3.363c.049.898.111 1.85.17 2.664.213 3.15.537 6.508.849 9.756.053.543.102 1.076.156 1.606.008.089.035.427.044.507.085 1.152-.302 2.278-1.094 3.172a4.514 4.514 0 01-3.119 1.517c-4.061.235-8.723.404-14.257.52-.645.027-1.193.014-1.762-.147a4.477 4.477 0 01-2.335-1.53l-.014.009zm6.237 18.658a5.051 5.051 0 01-.752-.61c-1.592-1.56-2.05-4.047-2.38-6.49a157.04 157.04 0 01-.395-3.176l-.188-1.495c-.16-1.352-.32-2.704-.475-4.057a5.89 5.89 0 001.339.138c.204 0 .4-.009.573-.022l.2-.014c5.116-.333 9.907-.56 14.245-.68a5.854 5.854 0 003.603-1.361c.04 1.325.085 2.727.107 4.128a5.153 5.153 0 00-.018.253l-.013.267a40.762 40.762 0 00.013 4.293v.08a66.768 66.768 0 01-.129 2.705l-.027.365c-.062.712-.129 1.303-.253 1.895a4.08 4.08 0 01-.147.525c-.516 1.365-1.121 2.255-1.97 2.883a1.62 1.62 0 01-.112.075c-.022.018-.049.031-.071.049-.036.022-.071.049-.111.071-.027.018-.054.031-.076.05-.035.021-.076.044-.111.066-.027.013-.053.031-.08.044-.036.018-.071.04-.107.058-.031.018-.058.031-.089.05-.031.017-.062.03-.093.048-.036.018-.067.036-.103.053-.026.014-.058.027-.084.04l-.12.054-.067.026-.138.058a.312.312 0 01-.062.023c-.05.017-.098.04-.147.057-.022.01-.04.014-.062.023l-.152.053c-.017.004-.04.013-.057.018-.054.018-.103.035-.156.049-.009 0-.018.004-.031.009-1.575.485-3.381.551-5.24.565-.188 0-.379-.005-.575-.01-1.863-.03-3.888-.15-5.489-1.156zm40.753 10.895a10.08 10.08 0 01-.098.996 3.196 3.196 0 00-.013.618c-.24.027-.485.045-.694.063-.72.058-1.468.084-2.189.111-.645.027-1.308.049-1.957.098-1.664.115-3.35.267-4.983.413a452.5 452.5 0 01-3.825.33c-.027-.04-.058-.08-.085-.125a3.077 3.077 0 01-.235-.436l-.08-.173a1.382 1.382 0 01-.067-.174 5.38 5.38 0 01-.245-1.539c0-.262.009-.53.044-.787.032-.263.085-.516.156-.766a3.797 3.797 0 012.193-2.482c.788-.338 1.682-.467 2.523-.498.142-.004.284-.009.422-.009.458 0 .89.027 1.273.053.311.027.627.063.947.107 1.753.236 3.568.69 5.41 1.357l.11.044c.045.018.094.04.116.05.031.017.067.035.098.053.125.067.245.138.338.218h.005c.565.454.85 1.232.836 2.317v.161zm4.636-4.244l-.014.044c-.022.076-.04.156-.062.231-.312 1.166-.645 2.358-1.148 3.421-.262.556-.578.997-.93 1.304-.111.098-.24.182-.373.262.009-.062.013-.129.018-.19.111-1.193.008-2.198-.307-3.075-.432-1.143-1.22-1.957-2.345-2.424a4.464 4.464 0 00-.502-.178c-2.19-.694-7.679-2.14-11.398-.596-1.628.685-2.802 2.086-3.15 3.75a6.53 6.53 0 00.334 3.812v.009c.103.214.214.414.33.6-2.554.183-4.662.254-6.615.228-.912-.014-1.749-.183-2.59-.365a8.85 8.85 0 01-1.214-.352c-.587-.236-.93-.485-1.161-.85-.013-.022-.031-.048-.044-.075-.254-.45-.339-.988-.419-1.508-.008-.071-.022-.142-.03-.214-.027-.16-.054-.338-.08-.52-.112-.739-.241-1.57-.321-2.189 0-.013 0-.022-.005-.035 0-.01 0-.014-.004-.023 0-.004 0-.008-.004-.017v-.005a.26.26 0 00-.16-.147.266.266 0 00-.334.17c-.071.217-.125.44-.178.72-.116.64-.174 1.343-.183 2.14 0 .396 0 .787.058 1.188a2.556 2.556 0 01-.347-.183c-.004 0-.009-.009-.013-.009l-.098-.07a6.655 6.655 0 01-1.535-1.678l-.026-.04s-.005-.009-.01-.013c-.4-.672-.604-1.335-.626-1.86v-.107c0-.089.026-.311.035-.418v-.009l.125-1.2c.008-.054.017-.139.03-.277.01-.093.018-.187.027-.249l.01-.08a.253.253 0 00-.196-.276.259.259 0 00-.307.152c-.156.378-.298.8-.423 1.165l-.04.125c-.062.191-.129.391-.187.587a94.59 94.59 0 00-3.577-4.4h.156c.16 0 .33 0 .512.005.231 0 .463 0 .694-.005 2.095-.03 4.275-.2 6.303-1.107.98-.445 1.824-1.081 2.451-1.847.459-.547.855-1.218 1.21-2.037.721 2.278 2.212 3.835 4.538 4.755 2.22.881 4.88 1.073 7.416 1.193 2.349.067 4.778-.072 6.633-1.49.965-.748 1.605-1.784 2.104-2.705.053-.098.098-.196.142-.298.13-.303.222-.623.298-.93.018.058.04.111.058.169.618 1.762 1.655 3.225 3.078 4.35 1.322 1.046 2.945 1.749 4.707 2.047a13.817 13.817 0 01-.298 1.624h-.013zm10.774-12.536l-.134 2.002c-.013.218-.031.435-.048.658-.005.08-.014.164-.018.245a76.565 76.565 0 01-.178 2.117l-.009.085c-.018.195-.04.4-.062.605-.04.342-.085.68-.143.965-.52 1.17-1.13 1.89-1.988 2.3-.014.004-.027.013-.04.018a4.62 4.62 0 01-1.304.36c-1.41.196-2.896.116-4.333.04a25.034 25.034 0 01-.565-.031 8.696 8.696 0 01-.6-.036l-.396-.04a9.508 9.508 0 01-.956-.169c-1.371-.311-2.598-.916-3.617-1.784a8.078 8.078 0 01-2.3-3.305c-.022-.058-.044-.12-.067-.178a9.557 9.557 0 01-.48-2.1 21.437 21.437 0 01-.098-1.178l-.027-.374a91.424 91.424 0 01-.164-4.017 101.32 101.32 0 01-.01-2.571c.374.226.77.409 1.18.542a5.98 5.98 0 001.45.28l.462.036c3.106.227 8.306.61 11.291.845.151.014.302.018.458.023a5.97 5.97 0 003.087-.872c-.146 1.837-.267 3.714-.387 5.53l-.004.004zm13.652 1.663c-.235 1.09-.529 2.34-1.058 3.4a4.267 4.267 0 01-.681.991 3.264 3.264 0 01-.262.245c-.205.169-.45.325-.685.476h-.009c-1.873 1.219-3.888 1.797-5.828 1.677a9.458 9.458 0 01-1.735-.236c-.756-.191-1.815-.596-2.589-1.441.098-.52.156-1.041.209-1.557.009-.071.014-.147.022-.218.027-.276.058-.565.089-.85.103-1.023.223-2.166.347-3.38.205-1.985.419-4.04.579-5.713.071-.756.146-1.552.218-2.362.044-.062.084-.124.124-.187l.08.16c.832 1.58 2.483 2.67 4.266 2.799.058 0 .121.009.178.009.049 0 .201.008.347.022.183.013.37.022.432.026 2.073.12 4.56.285 6.855.454a107.38 107.38 0 01-.903 5.69l.004-.005zm6.753-12.33a209.12 209.12 0 01-.026 1.743c-.009.307-.04.574-.098.81a3.516 3.516 0 01-1.357 2.041c-.69.512-1.526.77-2.358.726a501.433 501.433 0 01-8.777-.476c-.071-.005-.235-.014-.4-.027-.191-.014-.387-.022-.463-.031-1.926-.111-3.527-1.766-3.563-3.693v-.138c0-.142.013-.289.022-.418a1525.87 1525.87 0 01.605-8.123c0-.03.005-.058.009-.089.04-.462.085-1.045.138-1.695.058-.694.12-1.477.187-2.26.124-1.494.249-2.998.329-3.905a3.499 3.499 0 011.602-2.59 3.473 3.473 0 011.828-.529c.093 0 .187 0 .28.014.761.057 2.011.16 3.114.249.138.009.272.022.401.03.088.01.173.014.258.023.084.01.169.014.253.022.369.032.707.058.979.08.587.05 1.379.116 2.175.178.183.014.369.032.552.045l1.815.151c.115.01.244.027.351.045.134.022.267.053.396.093 1.25.383 2.207 1.588 2.242 2.905v.334c-.031.413-.053.827-.075 1.24-.04.69-.076 1.375-.112 2.047a239.835 239.835 0 00-.249 7.265c-.018.89-.031 1.81-.044 2.767 0 .102-.009.591-.018 1.16l.004.005z" fill="#1E1E1C"/><path d="M119.575 75.727a.36.36 0 00-.303.253c0 .013-.004.022-.009.036 0 .022-.004.044-.004.066 0 .058.018.116.045.165a.344.344 0 00.213.169c.085.022.16.04.236.053l.044.01c.37.066.765.097 1.21.097a10.94 10.94 0 002.727-.36c.014 0 .031-.01.049-.014.103-.026.223-.07.329-.11.054-.023.107-.04.156-.058h.009a7.14 7.14 0 00.507-.24h.009c.027-.023.067-.045.111-.072.089-.053.196-.111.249-.147h.005c.04-.03.08-.058.12-.089.071-.049.151-.102.218-.155.738-.583 1.25-1.242 1.517-1.958a.305.305 0 00-.12-.36.309.309 0 00-.383.031 8.47 8.47 0 01-1.495 1.157c-.395.24-.805.431-1.214.578l-.32.107a5.252 5.252 0 00-.218.058c-.014 0-.031.008-.045.013-.022.004-.04.013-.058.018h-.004c-.151.04-.316.075-.48.11l-.232.054c-.916.21-1.699.37-2.398.499l-.476.08.005.008zm-17.79-1.397c.605.644 1.419 1.125 2.353 1.378a5.02 5.02 0 001.219.151 4.21 4.21 0 001.899-.431l.298-.151-.311-.125c-.721-.284-1.441-.458-2.135-.627-.414-.102-.846-.205-1.273-.33-.498-.133-.956-.24-1.401-.32a9.195 9.195 0 00-.765-.11l-.298-.028.156.259c.066.106.146.209.258.338v-.005z" fill="#1E1E1C"/><path d="M107.661 76.749c-.177-.018-.36-.036-.547-.053l-.347-.04c-.017 0-.031 0-.049-.005-1.659-.21-3.394-.57-4.702-.992-.6-.187-1.103-.365-1.57-.56l-.694-.29.529.534c1.215 1.228 2.963 1.909 4.213 2.264a14.62 14.62 0 002.58.472c.418.036.828.053 1.219.053.654 0 1.272-.049 1.851-.142 1.303-.231 2.3-.632 2.962-1.197a3.3 3.3 0 00.263-.249l.489-.525-.658.285c-1.517.654-3.848.61-5.539.454v-.01zM81.74 75.067c1.308.601 2.878.917 4.417.917.699 0 1.388-.067 2.047-.196.093-.018.186-.04.28-.062l.156-.04c.022-.005.044-.014.066-.018.014 0 .022-.004.036-.009a6.555 6.555 0 001.557-.627c.4-.231.783-.52 1.08-.89.005-.004.01-.013.014-.018.009-.013.022-.026.031-.04.022-.026.045-.058.063-.084l.355-.507-.551.289c-2.18 1.143-6.02.863-8.159.587a.34.34 0 01-.067-.009c-.19-.027-.373-.058-.551-.084a.227.227 0 01-.05-.01c-.021 0-.044-.008-.066-.013-.04-.008-.08-.013-.12-.022h-.009a17.534 17.534 0 01-1.997-.462l-.587-.178.44.427c.516.502 1.165.836 1.61 1.045l.005.004zm-13.813-.657h.009a3.12 3.12 0 00.52-.374c.205-.192.33-.379.374-.565l.107-.423-.343.267c-.391.298-1.152.374-1.926.374-.53 0-1.059-.04-1.477-.076-.142-.009-.276-.022-.387-.027a68.37 68.37 0 00-2.113-.16c-.836-.053-1.7-.111-2.531-.2l-.472-.049.356.311c.605.534 1.37.819 2.113 1.046 1.201.33 2.211.45 3.043.45 1.343 0 2.229-.317 2.727-.57v-.005zM56.37 55.956v.165l.165-.027 10.178-.387h.062l2.798-3.011-.204-5.365-3.021-2.79-6.455.245-.133-3.483 9.36-.356-.147-3.786-13.306.507.698 18.288v.01l.005-.01zm8.105-7.558l.836.645.085 2.242-.783.708-4.266.16-.138-3.595 4.266-.16zm18.484 9.258l-.036-5.005 5.098-.036.036 5.005 4.11-.027-.093-13.648v-.062L87.33 39.22l-.044-.045-3.813.027-4.72 4.773.094 13.71 4.11-.026v-.004zm2.446-14.574l2.567 2.527.022 2.905-5.098.035-.022-2.904 2.531-2.563zm18.342 15.86l3.941.271 1.036-14.916 4.676.325.24-3.488-13.283-.92-.245 3.487 4.675.325-1.04 14.916zm20.312-16.518h-.062l-3.141 2.647-.445 5.352 2.514 2.923-2.914 2.437-.054.045v.062l-.387 4.671 4.102.338.302-3.679 3.96-3.31 1.405.116-.605 7.291 4.102.338 1.521-18.385-10.307-.85.009.004zm5.618 7.585l-4.533-.373-.48-.703.164-1.962.864-.61 4.257.352-.272 3.296z" fill="#1E1E1C"/><defs><filter id="filter0_d_1003_1662" x="43.785" y="27.964" width="92.222" height="59.615" filterUnits="userSpaceOnUse" color-interpolation-filters="sRGB"><feFlood flood-opacity="0" result="BackgroundImageFix"/><feColorMatrix in="SourceAlpha" values="0 0 0 0 0 0 0 0 0 0 0 0 0 0 0 0 0 0 127 0" result="hardAlpha"/><feOffset dy="4.586"/><feGaussianBlur stdDeviation="4.3"/><feComposite in2="hardAlpha" operator="out"/><feColorMatrix values="0 0 0 0 0 0 0 0 0 0 0 0 0 0 0 0 0 0 0.64 0"/><feBlend in2="BackgroundImageFix" result="effect1_dropShadow_1003_1662"/><feBlend in="SourceGraphic" in2="effect1_dropShadow_1003_1662" result="shape"/></filter><filter id="filter1_d_1003_1662" x=".807" y="2.364" width="177.508" height="108.732" filterUnits="userSpaceOnUse" color-interpolation-filters="sRGB"><feFlood flood-opacity="0" result="BackgroundImageFix"/><feColorMatrix in="SourceAlpha" values="0 0 0 0 0 0 0 0 0 0 0 0 0 0 0 0 0 0 127 0" result="hardAlpha"/><feOffset dy="4.586"/><feGaussianBlur stdDeviation="4.3"/><feComposite in2="hardAlpha" operator="out"/><feColorMatrix values="0 0 0 0 0 0 0 0 0 0 0 0 0 0 0 0 0 0 0.64 0"/><feBlend in2="BackgroundImageFix" result="effect1_dropShadow_1003_1662"/><feBlend in="SourceGraphic" in2="effect1_dropShadow_1003_1662" result="shape"/></filter></defs></symbol><symbol fill="none" id="logo2" viewBox="0 0 206 167"><title>logo2</title><g clip-path="url(#clip0_1002_983)"><path d="M104.672 166.742c46.069 0 83.415-37.159 83.415-82.998 0-45.838-37.346-82.997-83.415-82.997-46.07 0-83.416 37.16-83.416 82.997 0 45.839 37.346 82.998 83.416 82.998z" fill="#fff"/><g filter="url(#filter0_d_1002_983)"><path d="M186.337 52.508l-29.807-1.394c-2.606-3.95-6.935-6.182-12.126-6.182h-.395c-.255 0-.499.005-.721.016-2.595-3.53-5.949-6.123-8.512-7.771l-.06-.038c-1.398-.881-2.693-1.557-3.982-2.076a16.549 16.549 0 00-6.15-1.167c-1.208 0-2.417.13-3.593.384-1.831.384-3.381 1.01-4.816 1.627-1.144.464-2.254.95-3.327 1.426a11.75 11.75 0 00-.548-.373c-1.398-.924-2.693-1.507-3.847-2.032l-.043-.021c-.255-.157-.889-.686-1.122-.876l-.33-.275c-.786-.654-1.761-1.47-2.59-2.097l-.027-.016c-1.198-.914-2.688-2.054-4.65-2.886-2.708-1.167-5.743-1.762-9.02-1.762-1.875 0-3.82.195-5.782.578l-.152.033-.184.043c-2.725.665-4.714 2.016-6.171 3.005l-.06.038c-.303.205-.607.416-.905.621-.547.378-1.295.902-1.837 1.205-.005 0-.01 0-.016-.005-.861-.281-1.842-.595-2.947-.838-1.523-.33-3.555-.702-5.825-.702-1.907 0-3.723.27-5.386.8-5.19 1.631-9.314 5.49-12.603 11.802-.417.773-.78 1.589-1.09 2.448l-26.397-1.237a14.83 14.83 0 00-.7-.017c-8.089 0-14.732 6.453-15.122 14.689l-.016.351L8.1 109.792l18.526.914 26.121 1.286c1.203 2.886 3.105 5.604 6.215 7.609l.038.027a16.944 16.944 0 004.297 1.94 75.889 75.889 0 002.742 3.086c.883.94 1.999 2.097 3.278 3.296.233.492.493.979.78 1.46l.06.102c1.132 1.821 2.514 3.297 4.118 4.383l.102.07.109.065a11.624 11.624 0 003.262 1.411c2.162 1.426 4.367 1.918 5.24 2.113.687.156 1.38.286 2.253.421l.136.022c.97.135 1.945.194 3.072.194.656 0 1.284-.021 1.864-.043h.038c1.777-.081 3.49-.238 5.163-.389l1.756-.162c3.533-.33 7.185-.676 10.631-.676.91 0 1.788.022 2.611.071l.38.021c1.078.065 2.302.135 3.565.135h.157c1.972 0 7.976 0 12.018-5.004 1.105-1.351 1.967-2.929 2.633-4.842.244-.703.439-1.378.596-2.021.591-.07 1.16-.157 1.729-.265 1.75-.34 3.348-.94 4.768-1.778.796.232 1.62.416 2.476.54 1.084.168 2.189.254 3.273.254 2.243 0 4.421-.356 6.475-1.059 2.053-.691 4.009-1.68 5.987-3.026l.081-.06a13.046 13.046 0 002.856-2.745l28.706 1.411 7.147.351 7.342-49.972.016-.352c.401-8.479-6.042-15.699-14.364-16.088l-.016.016z" fill="#fff"/></g><path d="M183.221 60.382l-31.058-1.454c-.607-.627-1.441-1.264-2.471-1.561a14.7 14.7 0 00-.319-.725c-1.241-2.453-3.479-3.653-6.654-3.572-.352 0-.693.016-1.024.033-.504.021-.986.048-1.479.01-.845-.108-1.767-.518-2.818-1.248-1.896-3.372-5.088-5.88-7.439-7.393-.997-.627-1.886-1.097-2.72-1.432-1.669-.665-3.592-.81-5.402-.416-1.181.243-2.298.703-3.425 1.189a118.21 118.21 0 00-3.148 1.35c-1.165.514-2.367 1.05-3.549 1.514-.319.124-.65.195-1.072.27l-.196.033c-.287-1.01-1.099-2.005-2.248-2.746-.9-.594-1.81-1.01-2.774-1.443l-.147-.064c-.845-.395-1.631-1.016-2.563-1.79l-.308-.259c-.716-.594-1.604-1.334-2.282-1.848l-.027-.021c-.942-.72-1.918-1.465-3.023-1.93-3.565-1.545-7.542-1.243-10.252-.713h-.01c-1.42.346-2.585 1.14-3.712 1.902l-.07.049c-.271.184-.542.373-.808.556-1.62 1.124-3.294 2.292-5.234 2.562-.477.065-.959.016-1.604-.167-.33-.098-.677-.211-1.04-.325-.72-.232-1.463-.475-2.184-.632-2.21-.476-4.811-.86-7.293-.07-3.186 1-5.851 3.637-8.149 8.063-.645 1.172-1.084 2.572-1.344 4.28-.227 1.464-.341 3.08-.352 5.085-.005 1.47.043 3.005.157 4.826a.253.253 0 01-.032.043l-.531-7.965-30.896-1.449c-4.242-.2-7.85 3.221-8.062 7.636l2.189 41.764 4.98.243 2.877-35.554c.038-.686.265-1.227.514-1.216.25.01.428.573.396 1.26l-.499 35.672 3.42.168 2.877-35.56c.037-.686.265-1.227.514-1.216.25.011.428.573.396 1.26l-.499 35.678 3.414.167 2.877-35.565c.038-.686.265-1.226.515-1.216.249.011.428.573.395 1.26l-.498 35.683 3.413.168 2.877-35.57c.038-.687.266-1.227.515-1.216.25.01.428.573.396 1.259l-.499 35.689 3.414.168L52.52 68.31c.038-.686.265-1.227.515-1.216.249.01.428.573.395 1.26l-.498 35.694 3.413.167 1.127-13.932c.152.114.315.227.477.33.444 3.756.932 7.739 1.452 11.83.477 3.799 1.414 7.976 4.774 10.138 1.208.767 2.655 1.265 4.416 1.519.038.108.097.205.162.297.954 1.254 2.08 2.567 3.544 4.134 1.019 1.081 2.379 2.491 3.901 3.826.022.022.049.038.07.054a7.95 7.95 0 00.846 1.902c.58.935 1.251 1.67 2 2.178.687.433 1.516.67 2.405.687.948 1.107 2.444 1.556 3.646 1.821.51.113 1.04.216 1.723.324a14.9 14.9 0 002.021.124c.499 0 1.003-.016 1.528-.037 1.561-.071 3.138-.211 4.666-.352l.439-.038c.417-.037.829-.075 1.246-.118 4.54-.427 9.238-.865 13.849-.6l.363.021c1.003.06 2.037.119 3.072.119 2.233.011 4.736-.254 6.361-2.286.559-.675 1.014-1.524 1.388-2.594.438-1.27.666-2.513.812-3.453.168-1.075.212-2.097.13-3.032h.114c2.281.108 4.34.162 6.405-.232 2.069-.4 3.565-1.405 4.567-3.064.049-.076.092-.152.141-.233.314.281.672.552 1.062.795 1.03.637 2.238 1.059 3.593 1.253 2.123.336 4.253.168 6.155-.486 1.381-.465 2.725-1.151 4.112-2.091.802-.562 1.978-1.659 2.883-4.632.932-3.237 1.392-6.69 1.761-9.495h.103l-.141 10.095 3.408.168.91-11.273a6.625 6.625 0 002.59-3.097l-.2 14.532 3.408.167 2.882-35.667c.038-.686.266-1.227.515-1.216.249.01.428.573.396 1.259l-.499 35.786 3.408.168 2.883-35.673c.038-.686.265-1.227.515-1.216.249.01.428.573.395 1.26l-.498 35.791 3.408.168 2.882-35.679c.038-.686.266-1.226.515-1.216.249.011.428.573.396 1.26l-.499 35.797 4.031.2 6.139-41.785c.212-4.416-3.061-8.155-7.303-8.355l.021.016zm-29.183 1.405c-.2-.438-.412-.848-.645-1.237.228.356.445.767.645 1.237zm-16.157 3.102c.097-.551.222-1.102.341-1.632.206-.913.417-1.854.52-2.837.005-.07.016-.146.022-.216.048-.514.081-1.087.092-1.751v-.011c0-.319 0-.735-.022-1.167-.011-.26-.022-.53-.043-.79a7.443 7.443 0 01-.016-.259c-.006-.119-.017-.243-.022-.319a9.215 9.215 0 00-.103-.75c.125.053.244.102.363.145.049.016.097.038.146.054l.06.016c.032.011.059.022.092.027.022.006.049.011.07.022.027.005.055.016.082.022a1 1 0 01.076.016l.075.016.087.016c.022 0 .043.011.071.017l.092.016c.021 0 .043.005.065.01.032 0 .065.011.092.017.021 0 .038.005.059.01.033 0 .065.011.098.011.016 0 .032 0 .054.006.033 0 .071.005.103.01h.043c.038 0 .071.006.109.011h.043c.038 0 .076 0 .114.006h.038a.87.87 0 01.114.005h1.582c.558 0 1.143.01 1.566.06 1.571.15 2.871.745 4.08 3.15.536 1.022 1.018 2.065 1.528 3.167.243.524.498 1.07.753 1.605.065.13.189.216.336.233h.065a.399.399 0 00.281-.136.42.42 0 00.103-.297 19.281 19.281 0 00-.39-2.729c-.07-.335-.146-.648-.216-.946 1.565 1.351 2.27 3.475 2.709 5.2.054.22.103.448.151.686l-1.284-.05c-1.674-.064-3.402-.129-4.871-.194l-3.056-.13a6.99 6.99 0 00-3.679.854 6.606 6.606 0 00-1.885 1.54 7.695 7.695 0 00-.846-1.318c.055-.438.12-.951.195-1.427l-.037.011zM57.575 54.324c.033-.286.07-.578.114-.87v-.01c.01-.06.016-.12.027-.18l.016-.118c0-.033.011-.065.017-.097l.032-.2c0-.017 0-.027.006-.044.178-.978.438-1.956.872-2.87.043-.091.092-.183.135-.275.764-1.394 1.919-3.307 3.517-4.81.12-.113.238-.221.363-.324.124-.103.25-.21.38-.313l.194-.152c1.517-1.14 3.31-1.648 5.18-1.47 1.572.13 3.029.427 4.47.914.157.054.325.108.493.162.645.216 1.371.465 2.086.589.055.01.109.022.163.027.049.022.097.043.14.065l.201.07c.558.206 1.16.422 1.69.708a4.527 4.527 0 01.651.422c.146.118.282.243.396.383.292.39.433.849.585 1.34.06.195.124.4.195.6.276.795.628 1.438 1.056 1.924.255.292.537.524.846.703.4.232.85.362 1.354.389h.135c.142 0 .288 0 .434-.016.049 0 .098-.011.152-.017a.374.374 0 00.298-.194.446.446 0 00.043-.119.385.385 0 00-.195-.416c-.655-.346-1.219-.692-1.447-1.421-.178-.54-.233-1.103-.292-1.703-.065-.713-.136-1.448-.439-2.134a4.09 4.09 0 00-.569-.951 6.282 6.282 0 00-.477-.53c1.447-.676 2.77-1.6 4.048-2.497l.341-.243.304-.205c.677-.46 1.381-.935 2.118-1.2.016 0 .033-.01.043-.016.028-.011.055-.017.082-.027.027-.011.054-.017.081-.027.022-.006.049-.011.07-.022.033-.01.06-.016.093-.027.276-.054.552-.103.834-.146 1.626-.248 3.235-.292 4.703-.124.098.01.2.021.298.038 1.463.2 2.677.621 3.695 1.275 1.046.675 2.049 1.443 3.018 2.183.732.557 1.485 1.135 2.265 1.681.688.465 1.295.794 1.87 1.021l.021.011c.889.352 1.81.714 2.59 1.178.125.076.244.157.363.238.515.357.97.773 1.089 1.389.028.21.044.427.06.708.022.589.016 1.189.005 1.773-.01.761-.021 1.545.038 2.334.06.768.206 1.443.434 2.01a8.718 8.718 0 001.755 2.767h.006a.368.368 0 00.433.081c.022-.01.038-.021.06-.032a.384.384 0 00.119-.481v-.01a6.85 6.85 0 01-.358-.714 10.387 10.387 0 01-.514-1.4 8.925 8.925 0 01-.184-.794c-.011-.054-.017-.108-.028-.162-.108-.806-.016-1.605.087-2.443l.049-.41.043-.33c.049-.384.098-.779.141-1.178.016-.136.027-.265.038-.4.076-.006.157-.017.233-.022.07-.005.141-.016.211-.022.38-.048.732-.108 1.052-.183a8.12 8.12 0 00.639-.19c.238-.08.477-.162.71-.243.699-.248 1.376-.508 2.086-.778l.092-.032c.271-.103.72-.281 1.23-.481.948-.373 2.124-.833 2.622-1.016.103-.038.201-.081.304-.12.406-.161.829-.329 1.224-.464.054-.022.114-.038.168-.06 1.88-.648 3.609-.659 5.137-.037.173.07.347.146.525.232.531.254 1.095.573 1.734.978 2.379 1.546 4.405 3.389 5.836 5.259a13.92 13.92 0 011.387 2.2c.32.675.536 1.334.634 1.955.016.125.038.265.054.406.016.13.038.26.054.378 0 .038.011.081.016.119.071.594.136 1.221.163 1.789.06.913.054 1.875-.022 2.853-.021.308-.054.632-.081.94-.06.687-.125 1.395-.135 2.097v.27a7.51 7.51 0 00-3.62-1.556c-.385-.06-.878-.081-1.311-.097-.043 0-.092 0-.136-.006a97.3 97.3 0 01-.373-.016l-13.302-.584c-.114-.005-.228-.005-.342-.005a7.59 7.59 0 00-3.392.805c-.07.033-.135.07-.206.108a7.203 7.203 0 00-1.663 1.249 60.177 60.177 0 00-.488-3.027.404.404 0 00-.785-.021c0 .01-.006.027-.011.043-.049.33-.098.665-.141 1.005a76.017 76.017 0 00-.206 1.74 7.298 7.298 0 00-3.245-2.426c-.066-.027-.136-.049-.201-.07a5.14 5.14 0 00-.412-.13c-.07-.022-.141-.038-.206-.054a7.051 7.051 0 00-1.934-.205 693.32 693.32 0 00-3.381.075c-2.915.065-5.922.13-8.886.178a7 7 0 00-3.625 1.076 6.625 6.625 0 00-1.533 1.324 8.534 8.534 0 00-.217-.773c.038-.319.087-.632.14-.951.37-2.21 1.041-4.367 1.653-6.242l.017-.06c.005-.02 0-.037 0-.059a.358.358 0 00-.174-.302.364.364 0 00-.27-.038.346.346 0 00-.217.162c-.114.19-.212.373-.315.562-.13.238-.254.481-.384.735a31.625 31.625 0 00-.856 1.859c-.076.184-.152.362-.223.54-.178.444-.336.876-.477 1.297-.027.087-.06.168-.086.254a6.087 6.087 0 00-.293-.362c-.151-1.961-.352-3.631-.628-5.177a29.89 29.89 0 00-.206-1.048.348.348 0 00-.282-.26h-.065a.334.334 0 00-.303.292 46.08 46.08 0 00-.271 4.659 8.039 8.039 0 00-2.552-1.081c-.06-.011-.12-.027-.18-.038a8.12 8.12 0 00-1.652-.162c-.238 0-.574.021-.845.032h-.103l-2.189.13c-2.194.13-4.41.27-6.567.405-.547.033-1.1.07-1.658.103-2.303.146-4.649.286-6.94.416a8.073 8.073 0 00-2.076.4 7.84 7.84 0 00-1.393.627c-.065-2.28-.005-4.205.19-6.026l.016.01zm53.701 33.3c.011-.178.017-.356.028-.534.135-2.713.287-5.859.395-9.036.119-1.487.238-2.962.358-4.383.021-.2.065-.768.119-1.416l.065-.816.016-.205.016-.2c.055-.665.109-1.243.136-1.416a4.694 4.694 0 01.937-2.205l.179-.222a4.763 4.763 0 011.463-1.124 4.752 4.752 0 012.487-.486l13.275 1.037h.016l.645.05.173.01a4.83 4.83 0 011.534.319c1.582.61 2.72 2.215 2.769 3.901v.238c0 .14-.011.287-.022.422a24.37 24.37 0 01-.043.713v.081c0 .054-.006.108-.011.168 0 .054-.006.113-.011.173-.033.524-.065 1.07-.081 1.345-.022.335-.038.67-.06 1.005-.255 4.632-.439 9.544-.596 14.262-.016.432-.027.86-.043 1.286 0 .12-.017.503-.022.59-.054 1.215-.591 2.345-1.523 3.188a4.79 4.79 0 01-3.429 1.243c-.992-.049-2.173-.103-3.452-.157-3.37-.157-7.51-.346-10.344-.486-.189-.011-.373-.016-.547-.027a5.416 5.416 0 01-1.295-.222c-.065-.022-.124-.038-.189-.06a5.066 5.066 0 01-3.354-4.56 6.298 6.298 0 00.374-1.875v-.07c0-.05.005-.109.005-.136.011-.2.011-.314.011-.378l.021-.017zm-24.469 8.253c0-.346-.005-.692-.01-1.038v-.703c-.022-.54-.033-1.097-.055-1.68l-.032-.968a6.553 6.553 0 002.443 2.222c.445.232.916.41 1.398.53.109.026.222.048.33.07.331.064.656.102.976.113h.005c2.77-.01 6.232-.016 9.84.022.938.01 1.891.021 2.839.037h.494c.037 0 .075 0 .119-.005h.048c.044 0 .082-.005.125-.01h.038c.043 0 .087-.012.13-.017h.033c.043-.005.092-.01.135-.022h.027c.049-.005.092-.016.141-.027h.022c.048-.01.097-.016.146-.027h.016l.147-.032h.01c.049-.011.103-.027.152-.038h.011c.049-.016.103-.027.152-.043h.005l.152-.049c.049-.016.103-.038.151-.054.049-.016.103-.038.152-.054.049-.022.103-.038.152-.06.049-.021.097-.043.152-.064l.146-.065c.049-.022.097-.049.146-.07h.006c.048-.022.092-.049.141-.07h.01c.044-.028.092-.05.136-.076 0 0 .005 0 .011-.006.043-.027.086-.048.13-.075 0 0 .011-.006.016-.011l.13-.081c.005 0 .011-.006.016-.011.044-.027.081-.054.125-.081a1.753 1.753 0 01.141-.097l.027-.017c.038-.027.076-.054.108-.08.011-.006.022-.017.033-.022.032-.027.07-.054.103-.081a.087.087 0 01.038-.027c.032-.027.065-.054.097-.076.016-.01.027-.022.043-.032.033-.027.06-.049.087-.076.016-.016.033-.027.049-.043.027-.022.054-.049.081-.07.016-.017.038-.033.054-.055l.071-.064a.744.744 0 01.07-.065l.054-.054c.044-.044.082-.081.12-.125.054.146.119.287.184.433.124.27.271.535.428.789v1.961c-.006 2.984-.027 5.675-.168 8.35-.076 1.297-.168 2.68-.412 4.042v.038c-.119.562-.217 1.043-.466 1.497-.509.946-1.094 1.918-1.95 2.594-1.621 1.259-3.88 1.448-6.074 1.465-.781 0-1.68-.044-2.753-.114-3.267-.259-7.33-.578-9.607-3.388-.877-1.097-1.446-2.584-1.69-4.421l-.147-1.027c-.06-.459-.113-.924-.162-1.378.125-1.745.157-3.513.162-5.263 0-.703 0-1.4-.01-2.092l.032-.06zm.7-7.944c.037-4.589.15-10.387.254-15.446.005-.189.016-.713.027-1.318.016-.968.043-2.173.065-2.432.103-1.351.927-2.659 2.102-3.33a4.166 4.166 0 012.2-.566l2.704.048c3.283.06 6.681.124 10.013.227 1.262.119 2.454.93 3.05 2.064a3.96 3.96 0 01.45 1.935c0 1.162.006 2.33.022 3.497.07 5.069.303 10.176.553 15.018 0 .097.021.46.021.551a4.277 4.277 0 01-1.208 3.156 4.443 4.443 0 01-.688.59c-.737.518-1.62.81-2.525.82-.78.006-1.571.017-2.352.028-.26 0-.52.005-.775.01-.4 0-.807.011-1.213.017-2.84.032-5.75.054-8.61-.033a4.67 4.67 0 01-4.096-4.826l.005-.01zm-29.753.194c-.748-.919-1.176-2.037-1.208-3.156-.011-.319-.017-.648-.027-.984l-.125-4.63-.049-1.828c0-.13-.005-.259-.01-.389-.011-.335-.017-.67-.028-1.01l-.048-1.827c-.06-2.394-.12-4.696-.157-6.614v-.141a7.632 7.632 0 01.01-.816 5.095 5.095 0 01.504-1.821c.222-.465.52-.887.878-1.254.905-.94 2.184-1.524 3.495-1.546l2.324-.064c2.103-.054 4.221-.098 6.285-.141 1.8-.038 3.642-.076 5.478-.119 1.1-.027 2.2-.054 3.29-.086.037 0 .135 0 .238-.006.135 0 .303-.01.352-.01a4.822 4.822 0 012.032.4c1.604.697 2.725 2.334 2.785 4.085.06 1.091.135 2.248.206 3.237.26 3.826.655 7.906 1.035 11.851.065.66.124 1.308.19 1.951.01.108.043.52.054.616.103 1.4-.369 2.767-1.333 3.853a5.503 5.503 0 01-3.799 1.843c-4.947.287-10.625.492-17.365.633-.786.032-1.453.016-2.146-.179-1.09-.28-2.102-.94-2.845-1.859l-.016.011zm7.597 22.665a6.122 6.122 0 01-.916-.74c-1.94-1.897-2.498-4.918-2.899-7.885-.108-.767-.255-1.972-.395-3.14-.033-.243-.06-.486-.087-.719-.087-.702-.168-1.34-.228-1.815-.195-1.643-.39-3.286-.58-4.929.07.016.141.033.206.043.477.098.97.125 1.425.125.25 0 .488-.011.7-.027l.243-.017a469.23 469.23 0 0117.35-.826 7.142 7.142 0 004.389-1.654c.048 1.61.103 3.313.13 5.015a5.647 5.647 0 00-.022.308l-.016.324a49.38 49.38 0 00.016 5.215v.098a80.858 80.858 0 01-.157 3.285l-.033.443c-.076.865-.157 1.584-.309 2.303a4.956 4.956 0 01-.178.637c-.629 1.659-1.366 2.74-2.4 3.502a1.8 1.8 0 01-.136.092c-.027.022-.06.038-.087.06-.043.027-.087.059-.135.086-.033.022-.065.038-.092.059-.044.027-.093.054-.136.081l-.097.055c-.044.021-.087.048-.13.07l-.109.059c-.038.022-.076.038-.114.06-.043.021-.08.043-.124.065l-.103.048-.146.065-.082.032-.168.071c-.027.011-.048.021-.075.027-.06.021-.12.048-.18.07-.026.011-.048.016-.075.027l-.184.065c-.022.005-.05.016-.07.021-.066.022-.125.044-.19.06-.011 0-.022.005-.038.011-1.918.589-4.118.67-6.383.686-.228 0-.46-.005-.7-.011-2.27-.038-4.735-.184-6.685-1.405zm49.637 13.235c-.016.427-.07.865-.119 1.211a3.77 3.77 0 00-.016.751c-.293.032-.591.054-.846.075-.877.071-1.788.103-2.666.135-.785.033-1.593.06-2.384.119-2.026.141-4.08.325-6.068.503-1.528.135-3.105.276-4.66.4-.032-.049-.07-.097-.103-.151a3.803 3.803 0 01-.287-.53l-.098-.211a1.62 1.62 0 01-.08-.211 6.519 6.519 0 01-.299-1.869c0-.319.011-.644.054-.957.038-.319.103-.627.19-.93a4.623 4.623 0 012.671-3.015c.959-.411 2.048-.567 3.072-.605.174-.006.347-.011.515-.011.558 0 1.084.032 1.55.065.379.032.764.075 1.154.129 2.135.287 4.345.838 6.589 1.649l.135.054c.054.021.114.048.141.059.038.022.081.043.119.065.152.081.298.168.412.265h.005c.688.551 1.035 1.497 1.019 2.815v.195zm5.646-5.156l-.016.054c-.027.092-.049.19-.076.281-.379 1.416-.786 2.865-1.398 4.156-.32.676-.705 1.211-1.133 1.584a3.1 3.1 0 01-.455.319c.011-.076.017-.157.022-.233.135-1.448.011-2.67-.374-3.734-.525-1.389-1.485-2.378-2.855-2.945a5.538 5.538 0 00-.613-.217c-2.665-.843-9.352-2.599-13.881-.724-1.984.833-3.414 2.535-3.837 4.556a7.912 7.912 0 00.407 4.631v.011c.124.26.26.503.4.73-3.11.221-5.678.308-8.056.275-1.111-.016-2.13-.221-3.154-.443-.612-.14-1.073-.27-1.479-.427-.715-.286-1.132-.589-1.414-1.032-.016-.027-.038-.059-.054-.092-.31-.546-.412-1.2-.51-1.832-.01-.086-.027-.173-.038-.259a33.234 33.234 0 01-.097-.633c-.136-.897-.293-1.907-.39-2.658 0-.017 0-.027-.006-.044 0-.01 0-.016-.005-.027 0-.005 0-.01-.006-.021v-.006a.318.318 0 00-.195-.178.324.324 0 00-.406.205 6.89 6.89 0 00-.217.876 15.67 15.67 0 00-.222 2.599c0 .481 0 .957.07 1.443a3.138 3.138 0 01-.422-.221c-.005 0-.01-.011-.016-.011l-.12-.087a8.087 8.087 0 01-1.901-2.086l-.011-.016c-.488-.816-.737-1.621-.764-2.259v-.13c0-.108.032-.378.043-.508v-.01c.049-.46.103-.984.152-1.459.01-.065.022-.168.038-.336.01-.113.022-.226.032-.302l.011-.097a.307.307 0 00-.238-.335.316.316 0 00-.374.183c-.19.46-.363.973-.515 1.416l-.049.151c-.076.233-.157.476-.227.714a115.172 115.172 0 00-4.357-5.345h.19c.195 0 .401 0 .623.006.282 0 .564 0 .845-.006 2.552-.038 5.207-.243 7.678-1.346 1.192-.54 2.222-1.313 2.986-2.242.558-.665 1.04-1.481 1.474-2.475.877 2.767 2.692 4.658 5.526 5.777 2.704 1.07 5.944 1.302 9.033 1.448 2.861.081 5.819-.086 8.078-1.81 1.176-.908 1.956-2.167 2.563-3.286.065-.119.119-.238.174-.362.157-.368.271-.757.363-1.13.021.071.048.135.07.206.753 2.14 2.016 3.918 3.75 5.285 1.609 1.27 3.587 2.124 5.732 2.486-.081.67-.206 1.335-.363 1.972h-.016zm13.123-15.229l-.162 2.432c-.017.265-.038.53-.06.8-.005.097-.016.2-.022.297a92.153 92.153 0 01-.216 2.573l-.011.102a46.13 46.13 0 01-.076.735 15.03 15.03 0 01-.173 1.173c-.634 1.421-1.377 2.297-2.422 2.794-.017.005-.033.016-.049.022-.466.21-.986.356-1.588.437-1.717.238-3.527.141-5.277.049a33.554 33.554 0 01-.688-.038c-.25-.005-.493-.021-.732-.043l-.482-.049a11.56 11.56 0 01-1.165-.205c-1.669-.378-3.164-1.113-4.405-2.167a9.81 9.81 0 01-2.801-4.015c-.028-.071-.055-.146-.082-.217a11.285 11.285 0 01-.52-2.075 6.544 6.544 0 01-.065-.475 26.065 26.065 0 01-.119-1.432l-.033-.454a110.707 110.707 0 01-.2-4.88c-.016-1.076-.022-2.13-.011-3.124a6.9 6.9 0 001.436.66 7.298 7.298 0 001.766.34l.564.043c3.782.276 10.116.74 13.752 1.027.184.016.368.022.558.027a7.29 7.29 0 003.76-1.06c-.179 2.233-.325 4.513-.471 6.718l-.006.005zm16.629 2.022c-.287 1.324-.645 2.842-1.29 4.128-.249.481-.52.881-.829 1.206a4.01 4.01 0 01-.319.297c-.249.205-.547.394-.835.578h-.01c-2.282 1.481-4.736 2.183-7.098 2.037a11.506 11.506 0 01-2.114-.286c-.921-.232-2.21-.724-3.153-1.751.119-.632.19-1.265.255-1.891.01-.087.016-.179.027-.265.032-.335.07-.687.108-1.032.125-1.243.271-2.632.423-4.108.249-2.41.509-4.907.704-6.939.087-.918.179-1.886.266-2.87.054-.075.102-.15.151-.226l.098.194c1.013 1.919 3.023 3.243 5.196 3.4.07 0 .146.01.217.01.059 0 .244.011.422.027.222.017.45.027.526.033 2.525.146 5.554.346 8.35.551-.358 2.637-.716 4.902-1.1 6.912l.005-.005zm8.225-14.98c-.011.89-.027 1.999-.032 2.118a4.67 4.67 0 01-.12.983 4.267 4.267 0 01-1.652 2.48 4.448 4.448 0 01-2.872.882c-2.357-.109-6.881-.33-10.69-.579-.087-.005-.287-.016-.488-.032-.233-.016-.471-.027-.563-.038-2.347-.135-4.297-2.145-4.341-4.485v-.168c0-.173.017-.351.028-.508a1844.147 1844.147 0 01.736-9.868c0-.038.006-.07.011-.108.049-.562.103-1.27.168-2.059.071-.843.147-1.794.228-2.745.151-1.816.303-3.643.401-4.745.086-.919.504-1.8 1.138-2.475a3.894 3.894 0 01.812-.67c.114-.07.228-.136.347-.195a4.119 4.119 0 012.222-.432c.926.07 2.449.194 3.792.302.168.011.331.027.488.038.109.011.211.016.314.027.103.011.206.016.309.027.45.038.862.07 1.192.097.716.06 1.68.141 2.65.217.222.016.45.037.672.054l2.21.183c.141.011.298.033.428.055.163.026.326.064.483.113 1.522.465 2.687 1.93 2.731 3.529v.405c-.038.503-.065 1.005-.093 1.508a288.758 288.758 0 00-.438 11.31c-.022 1.082-.038 2.2-.055 3.362 0 .125-.01.72-.021 1.41l.005.006z" fill="#1E1E1C"/><path d="M139.663 111.241a.434.434 0 00-.368.308c0 .016-.006.027-.011.043 0 .027-.006.054-.006.081 0 .07.022.141.055.2a.418.418 0 00.26.205c.103.027.195.049.287.065l.054.011c.45.081.932.119 1.474.119a13.296 13.296 0 003.321-.438c.016 0 .038-.011.06-.016.124-.032.271-.086.401-.135.065-.027.13-.049.189-.07h.011c.206-.087.423-.189.618-.292h.011c.032-.027.081-.054.135-.087.109-.064.239-.135.304-.178h.005c.049-.038.098-.07.146-.108.087-.059.185-.124.266-.189.899-.708 1.522-1.508 1.848-2.378a.372.372 0 00-.147-.438.376.376 0 00-.466.038 10.454 10.454 0 01-1.82 1.405 8.233 8.233 0 01-1.48.703l-.39.129c-.065.017-.173.044-.265.071-.016 0-.038.01-.054.016-.027.005-.049.016-.071.022h-.005c-.184.048-.385.091-.585.135-.098.021-.19.043-.282.064a71.75 71.75 0 01-2.921.606l-.579.097.005.011zm-21.668-1.697c.737.783 1.729 1.367 2.866 1.675.499.124.997.184 1.485.184.834 0 1.626-.179 2.314-.524l.363-.184-.38-.152c-.877-.345-1.755-.556-2.6-.762-.504-.124-1.03-.248-1.55-.399a20.89 20.89 0 00-1.707-.39c-.271-.048-.59-.102-.932-.135l-.363-.032.19.313c.081.13.179.254.314.411v-.005z" fill="#1E1E1C"/><path d="M125.153 112.484a72.584 72.584 0 00-.667-.065l-.422-.049c-.022 0-.038 0-.06-.005-2.021-.254-4.134-.692-5.727-1.205a21.194 21.194 0 01-1.913-.681l-.845-.352.645.649c1.479 1.492 3.608 2.318 5.131 2.751.927.264 1.983.459 3.143.573a17.69 17.69 0 001.484.064c.797 0 1.55-.059 2.254-.173 1.588-.281 2.802-.767 3.609-1.453.114-.098.222-.2.32-.303l.596-.638-.802.346c-1.848.795-4.687.741-6.746.551v-.01zm-31.573-2.043c1.593.729 3.506 1.113 5.38 1.113.851 0 1.691-.081 2.493-.238a6.69 6.69 0 00.531-.124c.027-.005.054-.016.081-.022.017 0 .027-.005.044-.01.791-.217 1.408-.481 1.896-.762s.954-.633 1.317-1.081l.016-.022c.011-.016.027-.032.038-.048.027-.033.054-.071.076-.103l.433-.616-.672.351c-2.655 1.389-7.33 1.049-9.937.713a.452.452 0 01-.081-.01c-.233-.033-.455-.071-.672-.103a.247.247 0 01-.06-.011c-.027 0-.054-.011-.08-.016-.05-.011-.098-.016-.147-.027h-.011a21.52 21.52 0 01-2.433-.562l-.715-.216.536.519c.629.61 1.42 1.016 1.962 1.27l.005.005zm-16.824-.8h.011c.206-.124.444-.276.634-.454.25-.232.401-.459.455-.686l.13-.514-.417.325c-.477.362-1.403.454-2.346.454-.645 0-1.29-.049-1.8-.092-.172-.011-.335-.027-.47-.033a83.904 83.904 0 00-2.574-.194 71.993 71.993 0 01-3.083-.244l-.575-.059.434.378c.737.649 1.669.995 2.574 1.27 1.463.4 2.692.546 3.706.546 1.636 0 2.714-.384 3.321-.692v-.005zM62.68 87.225v.2l.2-.033 12.397-.47h.076l3.408-3.659-.25-6.517-3.678-3.389-7.862.298-.163-4.232 11.4-.432-.178-4.6-16.207.617.85 22.217v.01l.006-.01zm9.872-9.182l1.018.783.103 2.724-.954.86-5.196.194-.168-4.367 5.197-.194zm22.513 11.246l-.044-6.08 6.21-.043.043 6.08 5.007-.033-.114-16.58v-.075l-5.776-5.664-.054-.054-4.644.032-5.749 5.8.114 16.655 5.007-.033v-.005zm2.98-17.704l3.126 3.07.027 3.528-6.21.044-.026-3.53 3.083-3.112zm22.34 19.265l4.8.33 1.263-18.12 5.695.395.292-4.237-16.179-1.119-.298 4.237 5.695.395-1.268 18.12zm24.74-20.065h-.076L141.224 74l-.542 6.502 3.061 3.55-3.549 2.962-.065.054v.075l-.471 5.675 4.995.41.369-4.469 4.822-4.02 1.712.14-.736 8.858 4.995.41 1.853-22.335-12.554-1.032.011.005zm6.843 9.214l-5.521-.454-.585-.854.2-2.383 1.051-.74 5.186.427-.331 4.004zM46.636 34.983l3.478 5.815-.065.086-6.578-1.713-1.468 1.945 7.483 5.599 1.154-1.53-4.888-3.658.05-.06 6.306 1.703.786-1.038-3.376-5.544.044-.065 4.87 3.648 1.155-1.53-7.483-5.599-1.468 1.94zm11.812-1.654l-2.943-7.604-1.446 1.405 1.896 4.561-4.795-1.75-1.468 1.42 7.141 2.438.13.297c.081.179.136.34.157.492a.814.814 0 01-.07.46 1.57 1.57 0 01-.374.491l-.363.351 1.121 1.146.504-.486c.369-.357.602-.714.71-1.07.108-.357.136-.72.076-1.081a5.527 5.527 0 00-.282-1.076l.006.006zm9.238-16.418l-2 1.373.504 4.312-.861.59-2.184-3.157-1.582 1.081 2.184 3.162-.813.556-3.923-1.967-2.005 1.373 4.828 2.037.385 5.707 1.929-1.324-.417-4.161 1.056-.724 2.086 3.015 1.582-1.086-2.086-3.016 1.079-.74 3.717 1.897 1.95-1.335-5.185-2.427-.244-5.166zm10.344 2.027c.065.243.08.48.06.702a1.69 1.69 0 01-.196.633 1.862 1.862 0 01-.422.53 2.448 2.448 0 01-.629.399 2.282 2.282 0 01-1.279.205c-.422-.06-.823-.254-1.192-.578-.374-.33-.699-.794-.975-1.394-.27-.59-.412-1.13-.423-1.621-.01-.492.098-.924.325-1.292.228-.367.558-.648 1.003-.854.244-.113.487-.178.726-.205.238-.027.471-.011.693.043.223.054.423.151.613.286a1.9 1.9 0 01.493.535l1.82-.832a3.978 3.978 0 00-1.002-1.124 3.5 3.5 0 00-1.246-.6 3.918 3.918 0 00-1.404-.086 4.748 4.748 0 00-1.468.421c-.748.34-1.344.822-1.783 1.438-.439.616-.682 1.324-.737 2.134-.048.806.141 1.67.57 2.595.427.918.959 1.626 1.603 2.113a4.017 4.017 0 002.097.837c.753.07 1.512-.07 2.27-.421a4.485 4.485 0 001.355-.92c.358-.361.629-.756.813-1.183.184-.427.287-.864.303-1.307a3.623 3.623 0 00-.168-1.281l-1.82.827zm9.758-9.658l-2.444.714-2.232 4.534-.444.13-1.057-3.567-1.902.556 2.65 8.933 1.896-.556-1.127-3.805.58-.173 4.047 2.956 2.374-.697-5.001-3.615 2.66-5.41zm8.209-1.291l-3.17 6.371-.076.011-.834-5.799-1.956.281 1.327 9.22 1.702-.243 3.186-6.377.07-.01.834 5.803 1.962-.28-1.328-9.22-1.717.243zm6.485 7.268l-.027-2.22 4.004-.05-.016-1.62-4.004.043-.027-2.222 4.329-.048-.016-1.621-6.312.07.108 9.317 6.329-.076-.022-1.621-4.346.048zm17.041-5.463a3.87 3.87 0 00-1.111-.854 4.713 4.713 0 00-1.452-.47 4.44 4.44 0 00-2.286.189c-.71.26-1.317.713-1.81 1.35-.498.638-.829 1.46-.997 2.465-.168 1-.124 1.88.136 2.648.254.768.677 1.389 1.262 1.864.585.482 1.29.784 2.113.925a4.619 4.619 0 001.637 0 3.848 3.848 0 001.338-.525c.39-.248.721-.55.991-.907.271-.357.466-.74.586-1.157l-1.973-.335a2.006 2.006 0 01-.352.616c-.146.173-.32.308-.515.416a1.943 1.943 0 01-.65.206 2.497 2.497 0 01-.748-.017 2.26 2.26 0 01-1.175-.545c-.315-.287-.537-.67-.656-1.146-.125-.481-.13-1.043-.016-1.702.108-.638.298-1.162.563-1.579.271-.416.602-.708.997-.886.396-.178.829-.221 1.306-.146a2.5 2.5 0 01.721.233c.216.113.395.254.547.421.152.168.266.362.341.578.076.217.114.454.109.72l1.977.329a3.889 3.889 0 00-.195-1.492 3.507 3.507 0 00-.693-1.194l.005-.005zm10.897 2.291l-7.337-2.291-.488 1.55 2.737.855-2.319 7.338 1.869.584 2.314-7.339 2.736.854.488-1.55zm7.228 6.675c.26-.563.373-1.114.33-1.655a2.756 2.756 0 00-.569-1.491c-.341-.454-.834-.827-1.479-1.124l-3.354-1.54-3.928 8.457 1.799.827 1.273-2.74 1.512.697c.65.303 1.268.438 1.836.411a2.768 2.768 0 001.523-.519c.444-.319.796-.756 1.057-1.318v-.006zm-1.853-.855a1.768 1.768 0 01-.51.66 1.296 1.296 0 01-.737.264c-.281.017-.596-.054-.943-.216l-1.219-.562 1.312-2.82 1.213.556c.347.162.607.351.781.573.173.221.265.465.281.724.017.265-.043.535-.173.816l-.005.005zm10.435 2.383l-6.578 2.773-.07-.043 3.17-4.934-1.664-1.06-5.039 7.853 1.447.918 6.599-2.767.06.038-3.175 4.945 1.669 1.06 5.039-7.853-1.458-.93zm13.291 11.144l-1.782-1.637-4.118 1.442-.77-.702 2.612-2.821-1.414-1.297-2.612 2.82-.726-.664 1.062-4.242-1.793-1.643-.927 5.134-5.505 1.637 1.723 1.584 3.988-1.33.943.865-2.493 2.691 1.409 1.297 2.498-2.696.964.886-1.04 4.026 1.739 1.594 1.236-5.566 5.006-1.378zm6.779 8.825l-1.55-2.021-5.05-.46-.282-.362 2.975-2.258-1.197-1.568-7.451 5.648 1.203 1.567 3.175-2.405.363.476-1.327 4.815 1.501 1.962 1.604-5.94 6.036.546zm4.139 7.144l-7.114-.659-.038-.065 5.142-2.859-.964-1.713-8.177 4.54.835 1.486 7.13.68.033.06-5.148 2.86.965 1.718 8.176-4.54-.84-1.508zM60.127 132.463l-2.725 2.729-2.85-2.821 2.725-2.724-1.408-1.388-6.6 6.609 1.403 1.383 2.731-2.729 2.85 2.821-2.73 2.729 1.403 1.384 6.6-6.604-1.399-1.389zm7.229 5.842l-6.773 2.27-.06-.049 3.533-4.685-1.577-1.178-5.624 7.452 1.376 1.021 6.79-2.259.053.044-3.538 4.685 1.588 1.184 5.619-7.453-1.387-1.032zm7.634 4.572l-2.086 3.777c-.044-.01-.081-.027-.125-.037a8.434 8.434 0 01-.563-.222 10.501 10.501 0 01-.564-.254c-.179-.086-.33-.162-.46-.232-.363-.2-.64-.406-.824-.611-.184-.211-.282-.438-.282-.692 0-.248.082-.529.255-.843l1.452-2.632-1.685-.924-1.452 2.632c-.342.622-.488 1.2-.44 1.735.05.54.266 1.037.651 1.491.385.454.905.865 1.566 1.222.125.07.276.146.455.227a11.338 11.338 0 001.133.464c.048.017.086.027.13.044l-1.67 3.021 1.697.929 4.513-8.16-1.696-.93-.005-.005zm4.427 3.799l4.03 1.567.597-1.513-5.879-2.286-3.408 8.679 5.895 2.292.596-1.514-4.053-1.572.813-2.075 3.733 1.453.596-1.513-3.733-1.448.813-2.07zm5.851.438l-2.394 9.009 1.912.502 1.978-7.436 4.096 1.081.417-1.573-6.009-1.583zm12.852 3.037c-.606-.459-1.316-.746-2.134-.859-.824-.114-1.588-.027-2.297.254-.705.281-1.3.751-1.778 1.405-.476.654-.785 1.486-.92 2.491-.136 1.005-.066 1.886.221 2.643.282.756.727 1.367 1.333 1.826.607.46 1.317.746 2.146.86.818.113 1.582.027 2.287-.26.71-.281 1.3-.751 1.777-1.405.477-.654.785-1.486.926-2.491.136-1.005.065-1.892-.222-2.648-.287-.757-.731-1.368-1.338-1.827v.011zm-.427 4.204c-.087.654-.26 1.189-.52 1.611-.255.421-.575.724-.96.908-.384.183-.812.243-1.289.178-.477-.065-.872-.238-1.192-.513-.32-.276-.547-.654-.683-1.13-.135-.475-.157-1.037-.065-1.691.087-.654.26-1.189.52-1.611.255-.421.575-.724.96-.908.384-.183.812-.243 1.289-.178.477.065.872.238 1.192.513.32.281.547.654.683 1.13.135.475.157 1.037.065 1.691zm8.003-4.253l.124 4.145c.027.865.006 1.557-.065 2.07-.07.519-.2.897-.395 1.146-.195.248-.461.394-.802.443l-.266.038.109 1.578.509-.033c.753-.048 1.333-.248 1.745-.589.411-.346.693-.854.85-1.524.157-.675.222-1.529.201-2.578l-.071-3.247 2.585-.173.52 7.722 1.918-.13-.623-9.295-6.339.422v.005zm13.638-1.643l-2.878 6.507-.075.016-1.1-5.755-1.94.367 1.745 9.15 1.685-.319 2.898-6.512.065-.016 1.1 5.76 1.946-.367-1.745-9.149-1.701.318zm11.833-3.788l2.709 7.247-2.492.924-2.709-7.247-1.804.665 2.709 7.252-2.514.93-2.715-7.247-1.81.67 3.262 8.733 10.43-3.864-3.267-8.728-1.799.665zm8.307-4.431l1.939 3.323-3.478 2.011-1.94-3.324-1.712.989 4.703 8.058 1.712-.989-1.939-3.329 3.473-2.011 1.939 3.329 1.713-.989-4.703-8.052-1.707.984zm9.027 3.156l-1.366-1.767 3.181-2.422-.997-1.291-3.175 2.426-1.36-1.761 3.435-2.621-.992-1.287-5.006 3.821 5.7 7.388 5.023-3.832-.997-1.286-3.446 2.632zm5.299-12.689l-1.133-1.173-4.475 4.291 6.496 6.712 1.425-1.367-5.364-5.54 3.051-2.923zm9.991-3.156c-.314-.746-.867-1.443-1.658-2.081-.791-.638-1.587-1.038-2.389-1.189-.797-.151-1.555-.092-2.265.184-.71.276-1.328.735-1.848 1.373-.525.643-.85 1.334-.975 2.086-.125.745-.033 1.491.282 2.237.314.746.867 1.437 1.658 2.081.791.637 1.582 1.032 2.384 1.188.796.152 1.549.092 2.265-.183.709-.276 1.327-.73 1.853-1.373.52-.638.845-1.329.97-2.081a3.997 3.997 0 00-.282-2.242h.005zm-1.533 2.037a2.241 2.241 0 01-.515 1.189c-.303.367-.656.616-1.062.746-.406.129-.851.124-1.327-.006-.477-.135-.97-.405-1.485-.821-.515-.416-.883-.843-1.111-1.275-.227-.438-.319-.865-.276-1.292.043-.422.217-.821.515-1.189a2.235 2.235 0 011.062-.746c.406-.129.85-.124 1.327.006.477.135.97.405 1.485.821.514.416.883.843 1.111 1.275.227.438.319.865.276 1.292z" fill="#1E1E1C"/></g><defs><clipPath id="clip0_1002_983"><path fill="#fff" transform="translate(0 .747)" d="M0 0h206v166H0z"/></clipPath><filter id="filter0_d_1002_983" x="1.52" y="25.148" width="203.173" height="119.112" filterUnits="userSpaceOnUse" color-interpolation-filters="sRGB"><feFlood flood-opacity="0" result="BackgroundImageFix"/><feColorMatrix in="SourceAlpha" values="0 0 0 0 0 0 0 0 0 0 0 0 0 0 0 0 0 0 127 0" result="hardAlpha"/><feOffset dy="2.111"/><feGaussianBlur stdDeviation="1.979"/><feComposite in2="hardAlpha" operator="out"/><feColorMatrix values="0 0 0 0 0 0 0 0 0 0 0 0 0 0 0 0 0 0 0.64 0"/><feBlend in2="BackgroundImageFix" result="effect1_dropShadow_1002_983"/><feBlend in="SourceGraphic" in2="effect1_dropShadow_1002_983" result="shape"/></filter></defs></symbol><symbol fill="none" id="phone" viewBox="0 0 47 47"><title>phone</title><path fill-rule="evenodd" clip-rule="evenodd" d="M16.173 0h14.305c13.065 0 16.15 3.108 16.15 16.173v14.305c0 13.065-3.11 16.15-16.174 16.15H16.15C3.084 46.627 0 43.517 0 30.453V16.15C0 3.108 3.108 0 16.173 0zm.008 30.447c5.989 5.986 11.707 6.776 13.725 6.85 3.086.114 6.054-2.215 7.227-4.951a2.059 2.059 0 00-.265-2.08c-1.578-2.02-3.696-3.482-5.579-4.78l-.377-.261a2.106 2.106 0 00-2.881.465l-1.78 2.708a.676.676 0 01-.902.227c-1.204-.69-2.958-1.863-4.22-3.124-1.261-1.261-2.363-2.937-2.982-4.061a.672.672 0 01.199-.863l2.734-2.03a2.107 2.107 0 00.358-2.783l-.401-.591c-1.24-1.833-2.696-3.985-4.716-5.456a2.06 2.06 0 00-2.025-.223c-2.722 1.167-5.079 4.155-4.967 7.232.076 2.018.865 7.734 6.852 13.721z" fill="#fff"/></symbol><symbol fill="none" id="phone2" viewBox="0 0 23 22"><title>phone2</title><path fill-rule="evenodd" clip-rule="evenodd" d="M5.569 16.255c4.865 4.606 9.51 5.214 11.149 5.271 2.507.088 4.918-1.705 5.87-3.81a1.51 1.51 0 00-.215-1.602c-1.281-1.554-3.002-2.679-4.531-3.678l-.307-.2a1.786 1.786 0 00-1.246-.268 1.728 1.728 0 00-1.094.625l-1.446 2.084a.55.55 0 01-.33.226.577.577 0 01-.403-.051c-.978-.53-2.403-1.434-3.428-2.404-1.024-.97-1.92-2.26-2.422-3.125a.493.493 0 01-.051-.361.517.517 0 01.212-.304l2.221-1.562c.318-.26.523-.623.577-1.018a1.556 1.556 0 00-.286-1.123L9.513 4.5C8.506 3.09 7.323 1.434 5.683.301A1.758 1.758 0 004.038.13C1.827 1.028-.088 3.327.003 5.695c.062 1.553.702 5.952 5.566 10.56z" fill="#D7A461"/></symbol><symbol fill="none" id="scheme" viewBox="0 0 30 27"><title>scheme</title><path d="M21.576 4.191L8.424 18.397a3 3 0 01-2.201.962H3a2 2 0 00-2 2V24a2 2 0 002 2h3.856a3 3 0 002.21-.972l13.017-14.185a3 3 0 012.21-.972H26a3 3 0 003-3v-.642a3 3 0 00-3-3h-2.223a3 3 0 00-2.2.962z" stroke="url(#paint0_linear)"/><path d="M11.7 7.024c0 1.042-.829 1.872-1.833 1.872-1.005 0-1.834-.83-1.834-1.872 0-1.041.829-1.872 1.834-1.872 1.004 0 1.833.83 1.833 1.872z" stroke="url(#paint1_linear)"/><path d="M7.5 16.512a.5.5 0 101 0h-1zm3.733-3.795a.5.5 0 001 0h-1zM8.5 16.512v-5.167h-1v5.167h1zm.5-5.667h1.733v-1H9v1zm2.233.5v1.372h1v-1.372h-1zm-.5-.5a.5.5 0 01.5.5h1a1.5 1.5 0 00-1.5-1.5v1zm-2.233.5a.5.5 0 01.5-.5v-1a1.5 1.5 0 00-1.5 1.5h1z" fill="url(#paint2_linear)"/><path d="M14.575 5.032L18.708 1m0 0h-2.8m2.8 0v2.846" stroke="url(#paint3_linear)" stroke-linecap="round"/><path d="M25.175 15.516l-9.8 9.963m0 0h2.8m-2.8 0v-2.847" stroke="url(#paint4_linear)" stroke-linecap="round"/><defs><linearGradient id="paint0_linear" x1="1.452" y1="17.708" x2="27.665" y2="8.791" gradientUnits="userSpaceOnUse"><stop stop-color="#FF742E"/><stop offset="1" stop-color="#FD238A"/></linearGradient><linearGradient id="paint1_linear" x1="7.609" y1="7.669" x2="12.147" y2="6.434" gradientUnits="userSpaceOnUse"><stop stop-color="#FF742E"/><stop offset="1" stop-color="#FD238A"/></linearGradient><linearGradient id="paint2_linear" x1="8.06" y1="14.266" x2="11.853" y2="13.631" gradientUnits="userSpaceOnUse"><stop stop-color="#FF742E"/><stop offset="1" stop-color="#FD238A"/></linearGradient><linearGradient id="paint3_linear" x1="14.642" y1="3.564" x2="18.638" y2="2.431" gradientUnits="userSpaceOnUse"><stop stop-color="#FF742E"/><stop offset="1" stop-color="#FD238A"/></linearGradient><linearGradient id="paint4_linear" x1="25.017" y1="19.144" x2="15.486" y2="21.738" gradientUnits="userSpaceOnUse"><stop stop-color="#FF742E"/><stop offset="1" stop-color="#FD238A"/></linearGradient></defs></symbol><symbol fill="none" id="search" viewBox="0 0 27 27"><title>search</title><path d="M18.434 18.5L26 26" stroke="url(#paint0_linear)" stroke-width="2" stroke-linecap="round"/><path d="M11 21c5.523 0 10-4.477 10-10S16.523 1 11 1 1 5.477 1 11s4.477 10 10 10z" stroke="url(#paint1_linear)" stroke-width="2"/><defs><linearGradient id="paint0_linear" x1="18.556" y1="23.269" x2="25.888" y2="21.223" gradientUnits="userSpaceOnUse"><stop stop-color="#FF742E"/><stop offset="1" stop-color="#FD238A"/></linearGradient><linearGradient id="paint1_linear" x1="1.323" y1="13.717" x2="20.728" y2="8.349" gradientUnits="userSpaceOnUse"><stop stop-color="#FF742E"/><stop offset="1" stop-color="#FD238A"/></linearGradient></defs></symbol><symbol fill="none" id="time" viewBox="0 0 25 25"><title>time</title><circle cx="12.5" cy="12.5" r="12" stroke="url(#paint0_linear)"/><path d="M12 5v8.089L18 18" stroke="url(#paint1_linear)" stroke-linecap="round"/><defs><linearGradient id="paint0_linear" x1=".404" y1="15.896" x2="24.66" y2="9.186" gradientUnits="userSpaceOnUse"><stop stop-color="#FF742E"/><stop offset="1" stop-color="#FD238A"/></linearGradient><linearGradient id="paint1_linear" x1="12.096" y1="13.266" x2="18.263" y2="12.479" gradientUnits="userSpaceOnUse"><stop stop-color="#FF742E"/><stop offset="1" stop-color="#FD238A"/></linearGradient></defs></symbol><symbol fill="none" id="vk" viewBox="0 0 47 47"><title>vk</title><path d="M30.478 0H16.173C3.108 0 0 3.108 0 16.15v14.305c0 13.062 3.084 16.172 16.15 16.172h14.305c13.062 0 16.172-3.084 16.172-16.15V16.174C46.627 3.108 43.543 0 30.477 0zm7.164 33.268h-3.401c-1.287 0-1.674-1.042-3.982-3.35-2.015-1.942-2.866-2.184-3.376-2.184-.704 0-.898.193-.898 1.165v3.06c0 .827-.268 1.312-2.429 1.312a13.27 13.27 0 01-10.37-6.218A27.105 27.105 0 017.82 15.786c0-.511.194-.973 1.166-.973h3.4c.873 0 1.188.39 1.53 1.287 1.652 4.859 4.468 9.083 5.61 9.083.438 0 .63-.193.63-1.287v-5.003c-.145-2.282-1.357-2.476-1.357-3.3a.84.84 0 01.872-.78h5.343c.73 0 .972.364.972 1.238v6.752c0 .73.315.972.534.972.438 0 .777-.242 1.579-1.044a27.976 27.976 0 004.177-6.948 1.464 1.464 0 011.48-.97h3.402c1.019 0 1.236.511 1.019 1.238a42.44 42.44 0 01-4.565 7.845c-.366.56-.513.851 0 1.506.338.511 1.53 1.506 2.332 2.453a15.12 15.12 0 012.865 3.982c.291.946-.196 1.431-1.166 1.431z" fill="#fff"/></symbol><symbol fill="none" id="vk2" viewBox="0 0 29 17"><title>vk2</title><path d="M27.631 16.92H24.49c-1.19 0-1.547-.946-3.679-3.04-1.86-1.76-2.647-1.98-3.119-1.98-.65 0-.829.175-.829 1.057v2.774c0 .75-.248 1.19-2.244 1.19a12.42 12.42 0 01-5.483-1.686 12.156 12.156 0 01-4.097-3.953A24.397 24.397 0 01.08 1.062C.08.598.258.18 1.156.18h3.14c.808 0 1.1.353 1.416 1.167 1.525 4.407 4.126 8.239 5.182 8.239.405 0 .581-.176.581-1.168V3.88c-.133-2.07-1.253-2.245-1.253-2.994a.756.756 0 01.257-.514.784.784 0 01.548-.192h4.937c.674 0 .898.33.898 1.123v6.124c0 .662.29.882.493.882.405 0 .718-.22 1.458-.948a25.284 25.284 0 003.86-6.302c.099-.273.286-.506.533-.665.247-.16.54-.234.835-.214h3.142c.941 0 1.142.463.941 1.123a38.338 38.338 0 01-4.217 7.115c-.338.508-.474.772 0 1.367.313.463 1.413 1.366 2.154 2.224a13.726 13.726 0 012.647 3.612c.27.859-.18 1.298-1.077 1.298z" fill="#D7A461"/></symbol><symbol fill="none" id="way" viewBox="0 0 25 27"><title>way</title><path d="M23.573 1.188l-22.14 9.766a.2.2 0 00.006.368l9.446 3.812a.2.2 0 01.112.115l3.812 10.24a.2.2 0 00.376-.003L23.842 1.44a.2.2 0 00-.269-.25z" stroke="url(#paint0_linear)"/><defs><linearGradient id="paint0_linear" x1="1.371" y1="16.896" x2="23.933" y2="11.154" gradientUnits="userSpaceOnUse"><stop stop-color="#FF742E"/><stop offset="1" stop-color="#FD238A"/></linearGradient></defs></symbol></svg>