<svg width="19" height="19" viewBox="0 0 19 19" fill="none" xmlns="http://www.w3.org/2000/svg">
<path id="Vector" d="M6.17823 5.55922L0.951596 6.35232L0.859024 6.37204C0.718887 6.41097 0.591135 6.48814 0.488812 6.59565C0.386489 6.70316 0.313262 6.83717 0.276609 6.98399C0.239956 7.13081 0.24119 7.28518 0.280185 7.43134C0.31918 7.5775 0.394539 7.7102 0.498567 7.81591L4.28501 11.6734L3.39206 17.1222L3.38141 17.2165C3.37283 17.3682 3.40292 17.5196 3.46861 17.6551C3.5343 17.7906 3.63322 17.9054 3.75525 17.9878C3.87727 18.0701 4.01801 18.117 4.16306 18.1237C4.30812 18.1304 4.45226 18.0967 4.58075 18.0259L9.25522 15.4537L13.919 18.0259L14.001 18.0653C14.1362 18.1211 14.2831 18.1382 14.4268 18.1149C14.5704 18.0916 14.7055 18.0287 14.8182 17.9327C14.931 17.8367 15.0173 17.711 15.0683 17.5686C15.1193 17.4262 15.1332 17.2721 15.1086 17.1222L14.2148 11.6734L18.0029 7.81505L18.0668 7.74217C18.158 7.62451 18.2179 7.48362 18.2402 7.33387C18.2625 7.18412 18.2465 7.03085 18.1938 6.88968C18.1411 6.74851 18.0536 6.62448 17.9402 6.53024C17.8268 6.43599 17.6915 6.3749 17.5482 6.35317L12.3216 5.55922L9.98515 0.603407C9.91754 0.459821 9.81288 0.33891 9.68301 0.25436C9.55314 0.169811 9.40325 0.125 9.25031 0.125C9.09736 0.125 8.94747 0.169811 8.8176 0.25436C8.68773 0.33891 8.58307 0.459821 8.51547 0.603407L6.17823 5.55922Z" fill="#D7A461"/>
</svg>
