<svg width="100" height="49" viewBox="0 0 100 49" fill="none" xmlns="http://www.w3.org/2000/svg">
<path fill-rule="evenodd" clip-rule="evenodd" d="M95.913 20.1051C95.8558 20.1572 95.7442 20.144 95.7793 20.3109C95.8668 20.2908 95.9136 20.4226 95.9894 20.4375C96.0665 20.1282 96.4586 20.1871 96.7204 20.0945C97.4078 21.7381 97.7817 23.4215 97.7881 25.1245C98.3076 25.3939 97.8868 25.711 98.3978 26.2157C97.9855 26.1549 97.6434 25.8124 97.2194 25.7867C97.488 26.4249 97.647 27.5031 98.1158 27.3369C98.3576 27.9878 98.1526 28.1127 98.0901 28.3993C98.7672 29.1963 98.9561 31.0777 99.3523 32.3281C99.2707 32.4312 99.1995 32.5512 99.1723 32.7195C99.4141 33.1694 99.2946 33.5663 99.6897 34.1819C99.4844 34.2485 99.2826 34.3014 99.1387 34.1336C99.3402 34.4373 99.1856 34.7385 99.5031 34.9312C99.3605 35.5279 99.6325 36.1523 99.3753 36.7234C99.2938 36.4117 99.067 36.6712 99.0029 36.2776C99.0399 35.8803 99.2605 36.4388 99.2211 36.0525C99.1131 35.7403 98.8599 35.9994 98.8104 35.4405C98.9642 35.3792 99.0694 35.2643 99.0748 35.0297C98.667 34.9744 98.7277 34.4938 98.7596 34.0458C98.0224 33.5024 98.0471 34.4689 97.7181 34.9852C97.9865 35.4938 98.0615 35.4766 97.8262 35.8418C98.4512 36.3267 98.0612 38.0237 98.6013 38.8263C98.527 39.0184 98.3192 39.0596 98.3751 39.4032C98.6773 40.0013 99.03 42.7524 98.4892 43.4212C98.1198 42.4302 97.9001 41.7614 98.1233 41.0425C97.5802 40.098 97.9945 39.5232 97.5934 38.3516C97.2063 38.4147 97.1553 38.8801 96.9771 39.1933C97.0271 39.5252 97.1692 39.499 97.2637 39.6523C97.1096 39.7266 97.0323 39.5046 96.8847 39.5645C97.2163 40.8492 96.903 41.362 97.236 42.6529C96.6091 43.0044 97.5552 44.4849 96.9283 44.8365C96.941 43.6605 96.2746 41.3639 96.4418 40.3727C96.2458 40.3076 96.2058 39.6039 95.9929 39.5945C94.8953 40.333 96.3182 44.1018 95.5539 45.5025C95.1537 44.9075 95.34 44.1712 95.4267 43.7753C95.0743 43.1305 94.9201 42.7317 94.9587 42.1266C93.8838 40.4295 94.4682 44.0735 94.256 44.926C94.195 44.7326 94.0791 44.7722 93.9614 44.8187C93.973 44.2392 93.8482 43.9828 93.5587 43.8549C94.0301 43.5715 93.1356 42.831 93.4315 42.1278C93.5589 41.9948 93.9785 42.2159 93.9061 41.8437C93.7444 41.2263 93.4952 41.4456 93.3169 41.6292C93.081 41.3335 93.0714 40.9339 92.9538 40.8377C92.7071 41.1537 92.7574 41.8162 92.5411 42.164C92.7502 42.5437 92.7371 42.2291 92.8739 42.4375C92.5118 42.8383 92.7842 43.3071 92.9167 44.184C92.5794 44.106 92.5749 44.7162 92.3657 44.1357C92.7599 43.8312 91.957 42.9594 91.9425 42.2952C92.0849 41.9125 92.3761 42.377 92.4171 42.0111C92.1444 41.484 91.8467 42.0645 91.487 41.875C91.5744 42.3409 91.6363 42.7674 91.4151 43.1229C91.8644 44.0889 91.3902 44.36 91.6122 45.5403C91.4921 45.7624 91.257 45.8424 91.0914 46.0101C90.7906 45.5608 91.077 45.0023 91.1251 44.5959C90.8311 44.3913 90.885 43.5948 90.9406 43.407C90.7336 43.4805 90.5318 43.5334 90.4358 43.1731C90.5262 42.8218 90.6117 43.2363 90.8642 43.0746C90.6469 42.5737 90.9052 42.6374 90.8818 42.3641C90.3144 42.6307 90.8506 41.6843 90.5174 41.5665C90.151 42.908 90.1116 44.641 89.7316 45.9663C89.467 45.0874 89.6779 44.7019 89.2782 43.6078C89.382 43.4867 89.7643 43.7034 89.6652 43.3438C89.4788 43.3348 89.3916 42.9271 89.2097 42.9236C89.4192 43.4911 88.9966 43.2707 88.9072 43.1681C89.0074 44.1626 88.5371 43.5773 88.3944 43.286C88.2234 43.4874 88.3235 44.0087 87.9118 43.9219C87.8109 43.6405 87.9409 43.4616 87.7972 43.4233C87.6541 44.2469 87.5823 43.5052 86.9818 43.7858C87.001 43.9694 86.9331 44.2183 86.848 43.9916C87.0485 43.8612 86.8249 43.2321 86.9964 43.076C86.6768 43.5189 85.3237 43.0459 85.9913 44.1885C85.7933 44.4868 85.6694 44.12 85.5168 44.4727C85.2898 43.9869 85.6122 43.5563 85.3705 43.4499C85.2121 43.5057 85.4385 44.0175 85.2301 44.0136C85.0215 43.407 84.9956 44.0675 84.6409 43.7991C84.6143 44.0126 84.6317 44.2743 84.749 44.6557C84.0364 44.5344 83.599 45.7821 82.9956 45.2338C82.8961 44.9586 83.023 44.7803 82.881 44.7352C82.6922 44.8305 82.6198 45.074 82.322 45.0387C82.3959 45.2745 82.5278 45.2895 82.6055 45.4985C81.8979 45.4279 80.6983 45.451 80.4237 46.1752C79.9889 45.6011 79.6854 46.157 79.5239 46.5571C79.076 45.6685 78.5269 46.3586 78.2117 46.3338C78.2934 46.2308 78.3645 46.1107 78.3917 45.9425C78.3073 45.9619 78.2605 45.83 78.1815 45.8158C78.1207 46.439 78.094 45.8359 77.9251 45.8748C77.2378 46.0069 76.2069 46.892 75.5047 45.8999C75.5649 46.1906 75.6437 46.4188 75.7434 46.5514C75.1175 46.3065 74.9149 46.6706 74.3308 47.0512C74.2446 46.5331 73.9561 46.8392 73.8357 46.4586C73.7051 46.6636 73.6318 46.9462 73.5647 47.2273C73.31 47.0785 73.5941 46.5531 73.2878 46.4096C73.2924 47.3029 72.7092 46.413 72.5107 46.9383C72.7178 47.3378 72.8943 46.688 72.9772 47.006C72.8916 47.421 72.1145 47.6062 72.1699 47.0166C72.2598 47.1645 72.124 46.5022 72.2338 46.1205C71.9892 46.274 72.1248 46.8779 71.7908 46.9288C71.6044 46.9198 71.4862 46.6489 71.3354 46.5086C71.493 46.8936 71.0178 47.0029 70.9946 46.5869C70.8492 46.0695 71.3392 46.9549 71.2127 46.3618C71.0727 45.9533 70.9806 45.3523 70.7256 45.4174C70.7833 45.8254 70.9655 45.7446 71.0026 46.2351C70.9122 46.5864 70.7911 46.3032 70.5773 46.3329C70.8362 46.6428 70.6091 46.9866 70.5134 47.229C70.3955 46.945 70.3916 46.2266 70.1983 46.2451C70.3786 47.3443 69.5492 46.8869 69.1185 47.0183C68.7081 46.1924 68.7231 46.5583 68.2142 45.8199C68.1938 46.3754 68.6871 46.4305 68.4911 46.6376C68.4476 46.706 68.2331 46.6321 68.1503 46.716C68.2753 47.4455 68.4281 46.8789 68.5213 47.1556C68.4002 47.2159 68.5352 47.5737 68.5898 47.8398C68.1104 47.788 67.7996 47.9826 67.3717 47.2385C67.5348 46.9742 67.8708 47.5191 67.8001 47.14C67.558 47.0466 66.8629 46.7722 66.9465 47.3363C67.2086 47.5028 67.1924 47.189 67.3255 47.4241C67.1603 47.5075 67.3872 48.0645 67.222 48.1479C67.0651 47.5229 66.2635 47.759 66.5629 47.243C66.0413 47.6805 65.3979 47.7312 64.9864 47.4305C64.9675 46.8904 65.2078 47.4055 65.2507 47.0198C65.0889 46.8172 64.8404 46.9391 64.6153 46.9909C64.9239 47.7171 64.5057 48.1891 64.303 47.5941C64.5539 47.6401 64.5791 46.8048 64.3669 46.698C64.2629 47.3052 63.8546 47.6195 63.3716 47.4518C63.3926 47.7581 63.4877 48.1575 63.3952 48.3278C63.2912 47.7749 63.0191 47.9088 62.8619 47.569C62.9132 48.1211 62.8693 47.9303 63.0992 48.2144C62.7419 47.992 62.5878 48.4098 62.2838 48.5769C62.1838 48.2564 62.3231 48.2179 62.3412 48.0388C61.9859 47.7964 61.9973 47.7743 61.5404 47.6914C61.6281 47.8009 61.9412 48.4612 61.6102 48.3818C61.5317 47.5249 61.1848 47.7343 61.0467 47.105C61.3544 47.1833 61.2575 47.2056 61.3493 46.8604C61.412 47.2478 61.5155 47.4833 61.6755 47.4919C61.7148 47.1329 62.2855 47.4099 62.1581 46.8559C61.6986 46.819 61.6561 45.6752 61.5945 45.5791C61.6375 46.1526 61.3832 45.4333 61.2999 45.4719C61.4761 45.7943 61.3481 46.2969 61.2044 45.8438C61.3255 45.7836 61.1892 45.4196 61.136 45.1596C61.0148 45.6347 60.7147 45.2176 60.5468 44.9451C60.6541 45.3547 60.7492 45.7541 60.5673 45.8218C60.393 45.5508 60.1897 45.3967 60.034 45.063C60.0895 45.2901 60.0782 45.4417 60.0642 45.5811C60.34 45.7639 60.6294 45.8918 60.8077 46.4665C60.4669 46.8171 60.1427 46.4379 59.8953 45.6199C59.7835 46.0928 59.6333 45.3107 59.3444 45.5716C59.3908 45.7877 59.2887 45.8307 59.3746 46.0896C59.6692 46.1255 59.5682 45.7146 59.8029 45.9911C60.0874 46.6127 59.6602 46.3869 59.7008 46.721C59.7884 46.7009 59.8737 46.9859 59.7773 47.0534C59.6051 46.3477 59.1814 46.6525 58.9031 46.373C58.9933 46.2356 58.9805 45.9793 58.9223 45.6686C58.744 45.7096 58.8128 46.653 58.6085 46.2657C58.7521 45.9022 58.4636 46.2796 58.3521 46.3247C58.5432 45.6521 58.1368 44.6438 57.9369 44.1324C58.0271 44.682 57.5569 44.5697 57.494 44.9406L57.5704 45.273C57.8872 45.4335 57.9325 44.6713 58.1676 45.1357C58.1105 45.1878 57.9988 45.1746 58.0339 45.3415C58.108 45.3633 58.2027 45.3026 58.2441 45.4681C57.5427 45.8109 57.1227 45.4732 56.8697 46.1341C56.7069 45.4262 56.4101 46.512 56.1117 45.9584C56.1488 45.762 56.4161 45.8366 56.2534 45.4009C56.1188 45.2309 55.8453 45.4299 55.7788 45.685C56.0199 45.8888 55.794 46.1805 56.1019 46.3171C55.9177 46.4178 55.768 46.368 55.6385 46.2487C55.6863 45.5118 55.4638 45.1741 55.7184 44.649C55.4306 44.5855 55.5348 44.9958 55.2438 44.9331C55.6393 45.393 54.761 45.582 55.2563 46.1616C55.194 46.3056 55.0124 46.9047 54.7818 46.4457C55.0507 46.6561 54.9017 45.8219 54.7516 45.9277C54.828 46.2601 54.5652 46.1909 54.7339 46.6382C54.8464 46.6123 54.8786 46.9095 54.9823 46.931C54.8811 46.6627 55.304 46.87 55.3613 47.0189C54.9687 47.1869 55.1196 47.4568 55.3818 47.8956C54.9715 47.8149 54.7848 46.8598 54.4393 46.5309C54.5671 46.9293 54.3664 46.9301 54.5473 47.3875C54.174 47.5965 54.0197 46.9255 53.7128 46.8794C53.8048 47.2795 53.5077 47.834 53.3147 47.4959C53.2389 46.5218 54.085 46.9948 54.1478 46.423C53.7256 46.3191 54.111 45.6472 53.5078 44.8138C53.052 44.8214 53.7715 46.1466 53.1479 45.5965C53.3291 45.4252 53.052 45.0936 53.0253 45.4497C52.7733 44.4253 53.3079 43.4145 52.5336 42.925C52.6087 43.1799 52.825 44.4069 52.3742 44.193C52.5107 43.7274 52.2457 43.9633 52.2022 44.2326C52.1286 43.9838 52.092 43.6098 51.9635 43.581C51.7688 43.5934 51.8122 44.0112 51.8614 44.3109C51.5572 43.8041 51.5669 44.6768 51.4251 44.7612C51.5727 43.9431 51.3752 43.9431 51.5814 43.4939C51.4697 43.4807 51.4858 43.3215 51.5049 43.1615C51.0361 43.1267 50.8988 43.4888 50.6434 43.7096C50.1178 41.925 49.9533 44.7173 49.7053 43.9253C49.655 43.6063 49.8673 43.9853 49.8391 43.7195C49.6117 43.4607 49.8359 43.1759 49.5129 43.0881C49.5671 43.4386 49.2307 43.3215 49.2881 43.6712C49.4164 44.1862 49.4629 44.6032 49.385 44.8803C49.3366 44.7554 49.2678 44.6999 49.1749 44.7537C48.9139 44.2628 49.3336 43.9978 49.0668 43.8971C48.8318 43.8345 48.941 44.7815 48.7149 44.328C48.9401 43.8614 48.2826 44.6672 48.5047 44.2014C48.5863 44.0983 48.6575 43.9783 48.6846 43.81C48.5153 43.8036 48.671 43.5215 48.5238 43.497C48.4222 43.9287 48.1765 43.5185 47.9266 43.6343C47.6874 44.1689 47.9794 45.6248 47.4263 44.9807C47.5852 44.9701 47.5882 44.7685 47.4837 44.4426L46.9709 44.5605C46.6819 43.9335 47.3271 44.4203 47.197 43.9836C47.0282 44.0224 46.9829 43.5532 46.7798 43.7295C46.8313 43.9964 46.9254 44.3053 46.7239 44.2738C46.3817 44.0025 46.8253 43.3691 46.5776 43.2511C46.6923 44.0218 46.0457 43.1854 46.1795 43.8676C46.2421 44.0541 46.3327 44.1045 46.4279 44.1604C46.4169 44.0268 46.3514 43.828 46.4359 43.8086C46.5723 44.3735 46.3287 44.4878 46.2031 44.7435C45.9807 44.678 45.904 44.0152 45.6698 43.9847C45.6278 44.2601 45.7692 44.7461 45.4833 44.7341C45.2571 44.3518 45.0803 43.7833 44.7891 43.6623C44.1982 43.7269 44.1778 43.7381 43.469 43.7909C43.6318 44.4274 43.4143 43.8682 43.2508 44.016C43.4181 44.4571 43.1598 44.3934 43.2317 44.7204C42.8384 44.6423 42.7462 44.7996 42.3479 44.3986C42.3345 44.0971 42.7572 44.3175 42.6967 43.9684L42.3559 44.0468C42.1527 43.6787 42.3133 43.6612 42.0296 43.4154C42.1334 43.2943 42.5158 43.511 42.4197 43.1507L42.3433 42.8183C41.8363 43.4339 40.9177 42.3878 40.9196 43.6706C40.7487 43.185 40.4771 43.0919 40.1696 43.1431C40.2649 43.6008 40.3881 43.4493 40.3224 43.8079C39.5946 43.4633 39.9035 44.4487 39.2013 44.4157C38.9002 43.9794 38.7221 44.2213 38.2331 44.1134L38.3874 44.7843C38.1448 44.9892 38.1132 44.3937 37.9305 44.3579C37.8467 44.6235 37.7706 44.8937 37.6595 45.1267C37.4613 44.6084 37.6751 44.5787 37.6359 44.2507C37.0876 44.3573 37.5072 43.8914 37.6057 43.7327C37.0875 43.8129 37.0205 44.0941 36.6294 43.7822C36.6919 44.1826 36.4531 44.218 36.4415 44.5253C36.6871 45.0068 36.8471 44.0561 36.9431 44.7599C36.3462 45.5712 35.1741 45.6139 34.3441 45.1826C34.2034 45.2149 34.4034 45.655 34.2882 45.7269C33.9711 45.3785 33.4449 45.8819 33.1959 45.2716C33.7921 45.316 33.4687 45.3839 33.4603 44.8608C33.536 45.0897 33.6918 45.0085 33.7931 45.1343C33.6099 44.4376 33.8851 44.303 33.486 43.7985C33.5571 43.4776 34.0065 43.614 33.8459 43.0158C32.8756 42.5325 33.6351 45.1771 32.844 44.1276C32.8678 43.6296 33.1479 44.0318 33.115 43.3589L31.9206 43.6335C32.0333 44.0094 32.043 44.2664 31.9029 44.344C31.8292 44.0952 31.7926 43.7213 31.6642 43.6925C31.4843 43.9412 31.4324 43.9013 31.6465 44.403C31.3507 44.3478 31.3005 44.5019 31.1799 44.3353C31.2706 44.2431 31.3055 44.0796 31.2372 43.7971C29.7667 43.9732 28.5975 43.6847 27.2336 44.3677C27.0703 43.9581 27.3913 43.5213 27.0874 43.3449C26.9972 43.4823 27.01 43.7386 27.0697 44.0554C25.3581 44.5721 24.4792 44.1715 22.6092 44.1997C22.6139 44.406 22.6049 44.596 22.5519 44.7378C22.0789 43.855 21.9459 44.579 21.4992 44.4549C21.3105 43.8631 21.4139 43.6255 21.4023 43.2458C21.2914 43.2648 21.2339 43.0577 21.1077 43.1385C21.1924 43.7218 21.1832 44.197 21.074 44.5527C20.7489 43.8691 20.435 44.4079 20.1123 43.8924C19.9983 43.7112 20.0372 43.0217 19.9021 43.7657C19.5906 43.1698 19.722 42.7961 19.3848 42.3033C19.7802 42.4911 19.4626 41.8253 19.611 41.7263C19.7182 41.935 19.8631 41.9924 20.0282 41.9804C19.99 41.8142 20.0517 41.7676 20.0362 41.6286C19.7043 41.0438 19.6772 40.7973 19.8135 40.2734C19.6066 40.3469 19.4883 40.076 19.358 39.8532C19.4792 39.7929 19.688 39.8421 19.6606 39.6086C19.4695 39.1924 19.1328 39.3605 18.9568 38.8955C19.0982 39.3102 19.2524 39.508 18.9377 39.5998C18.8384 39.0394 18.7363 38.5379 18.444 39.0134C18.5077 39.2904 18.7029 39.0511 18.7768 39.2869C18.434 39.7286 18.1881 38.5019 17.9107 38.2546C17.6592 38.2347 17.9724 38.895 17.8086 38.9845C17.5634 38.8918 17.3884 38.5173 17.1877 38.2459C17.163 38.5821 17.2731 39.0753 16.9137 39.0153C16.9914 38.466 17.0248 37.6806 16.5763 37.1616C17.2804 37.9329 17.7322 38.3086 17.2197 36.8386C17.2249 36.4032 17.621 37.1093 17.6098 36.5739C17.141 36.1957 16.948 36.2725 16.5461 36.6436C16.27 35.858 16.0646 36.683 15.7946 36.1099C16.0141 35.69 16.7664 36.2559 16.3233 35.2884C16.5839 35.3192 16.824 35.4325 17.0814 35.4641C17.1369 35.3476 17.0811 34.5179 17.2231 34.9065C17.2592 35.2352 17.0486 35.2642 17.2437 35.7832L17.5001 35.7242C17.3411 35.534 17.2491 35.1339 17.3076 34.8871C17.8057 34.6624 18.5984 34.5449 19.0148 34.4946L18.8428 34.5341C19.1674 34.7576 19.0373 35.28 19.2455 35.4979L19.4174 35.4584C19.0053 34.568 19.4783 33.8047 18.8334 33.3049C19.0677 33.1214 19.1052 33.7284 19.3382 33.5388C19.1921 33.2613 19.119 32.7142 18.9355 32.575C18.862 33.6871 17.8314 33.2566 17.2283 32.9675C17.5466 32.9202 17.7287 33.0534 17.8255 32.8302C17.5618 32.5279 17.7103 32.2863 17.7189 31.9798C18.438 32.0866 18.8324 32.4561 19.1314 31.48C19.1948 31.77 19.2962 31.8958 19.418 31.939C19.4016 31.6382 19.8242 31.8586 19.77 31.5081C19.3853 31.3957 19.6636 30.3012 19.1602 30.417C19.0033 30.5503 19.0383 30.7172 19.1919 30.9411C18.8712 31.0926 18.6431 30.659 18.6329 31.2446C18.5751 31.0505 18.5395 30.7671 18.4338 30.7655C18.4382 30.9848 18.4579 31.8293 18.2077 31.3424C18.2733 30.7116 17.757 31.6016 17.7126 30.7498C17.4179 30.7139 17.5221 31.1242 17.2842 30.8483C17.3224 31.0145 17.3997 31.0356 17.4451 31.1613C17.1496 31.0932 16.1598 30.7115 16.8017 31.4842C16.0226 31.2745 15.4128 32.173 14.7682 31.2454C14.4271 31.4081 14.7385 31.3883 14.5435 31.8285C14.2485 30.8464 13.7801 32.1596 13.413 31.207C13.4055 31.6041 13.2059 31.7666 13.1771 32.1427C13.3515 32.1998 13.5502 32.1476 13.6819 32.3766C13.6627 32.8087 13.3205 32.2652 13.3793 32.6211C13.5388 33.2002 13.6078 32.5556 13.7121 32.8946C13.709 33.511 12.8536 33.5133 12.7425 32.5861C12.9476 32.5908 13.0546 32.469 13.0068 32.1753C12.8637 32.111 12.7379 31.965 12.6344 31.7295C12.7975 31.4652 13.1009 32.1407 13.0628 31.631C12.8237 31.4073 12.4785 31.6098 12.3113 31.0974L12.4259 31.596C10.424 31.7517 8.43181 31.7496 7.06254 32.1228C7.02057 31.7112 7.01552 31.317 6.69808 31.3252C6.73515 31.8157 6.9191 31.7281 6.97499 32.143C6.69747 32.3105 6.51242 31.4198 6.38578 31.9285C6.30345 31.5132 6.21458 31.1123 6.02132 31.1309C6.15631 31.7609 6.03337 31.6271 6.25202 32.1342C5.69046 32.1402 4.60233 32.1182 3.91741 32.1461C3.77131 31.8686 3.6982 31.3215 3.51474 31.1822C3.65279 31.8829 3.15648 31.0702 3.16593 31.6124C3.32915 31.8212 3.6019 31.5899 3.70581 32.0132C3.57071 32.1415 2.58942 32.756 2.55761 32.1023C2.62549 32.469 2.87789 32.1064 3.02106 32.1707C2.96303 31.9183 3.17975 31.4148 2.91299 31.3141C2.78549 31.5184 2.84001 32.1994 2.47664 31.7644C2.37661 31.4439 2.5159 31.4054 2.53396 31.2263C2.21924 31.0459 2.09899 31.4106 1.92565 31.7161C2.03258 31.9378 2.25961 31.6653 2.34289 31.9702C2.17793 32.1118 1.80128 32.5354 1.62305 31.9607C1.72198 31.9185 1.81496 31.8647 1.71859 31.5888C1.44141 31.0562 1.02357 31.7875 0.922318 31.2469C0.881002 30.7379 1.1876 31.4127 1.34755 31.1491C1.24907 30.6922 1.129 30.8429 1.19327 30.4782C1.5984 30.3072 1.35482 30.966 1.60394 31.0902C1.57323 30.7991 1.72187 31.1019 1.86033 31.0312C2.80617 30.3341 3.89888 30.6338 4.83835 30.6964C4.79145 30.7072 4.77256 30.8541 4.87657 30.8626C4.86561 30.729 4.90461 30.6553 5.01032 30.6569C4.95453 30.4429 4.84852 30.4543 4.81125 30.1777C5.25689 30.14 6.00873 30.5893 6.25406 30.1959C6.1415 30.2218 6.25078 30.6827 6.3687 30.6945C6.85489 30.4466 6.78843 30.086 6.83074 29.1819C7.15819 29.4177 6.71825 29.7522 6.98502 29.8529C6.97118 29.4348 7.35877 29.4882 7.34352 29.064C7.74645 29.7426 7.74946 28.9253 7.86429 28.5943C8.02837 29.1074 7.82129 29.3236 8.1412 29.412C8.32314 29.3443 8.22631 28.9517 8.12068 28.5353C8.36243 28.6418 8.60418 28.7482 8.83253 28.8966C8.6078 29.1362 8.39812 29.3983 8.34997 29.5325C8.99474 29.9027 9.18674 28.7763 9.27546 28.0883C9.53419 28.2686 9.40504 28.4085 9.56348 28.5535C9.89004 28.2127 9.74615 28.3171 10.1225 28.25C10.2703 28.7928 9.87313 28.6833 9.97415 29.1655C10.4082 28.7482 10.548 29.3706 10.686 29.5268C11.0693 29.0174 11.9902 29.4862 12.1559 28.4889C11.9164 28.693 11.7968 28.4159 11.6511 28.255C11.6086 29.1008 11.2305 28.6304 10.7895 28.8031C10.6471 28.2266 11.1769 28.4548 11.148 28.0142C11.1965 28.1392 11.2245 28.3466 11.3089 28.3272C11.7403 27.9558 11.422 27.0439 11.1501 26.0759C11.5443 26.6593 11.4583 25.5838 11.8237 26.271C11.5727 26.2963 11.3536 26.3597 11.5114 26.8743C11.9137 26.4188 12.6259 27.2402 12.9337 26.0158C14.2352 27.3238 14.9219 25.2994 15.9433 26.2052C16.6656 26.0391 16.4513 24.52 15.8801 23.582C15.5713 24.0288 15.456 23.3554 15.1109 23.7588C15.4518 24.1535 14.9708 24.1086 15.0088 24.4887C15.2167 24.2335 15.536 25.1063 15.3718 25.2802C15.2257 25.0027 14.9923 25.0758 14.8782 24.6937C14.9959 24.3037 14.6199 24.0143 14.8194 23.6509C14.5563 23.3225 14.0866 23.7999 13.896 23.1568C14.7906 22.8668 15.2263 23.6739 16.0395 22.3139C15.8052 22.4974 15.6886 22.2196 15.4885 22.2656C15.4995 22.3992 15.5649 22.598 15.4805 22.6174C15.1496 21.7797 15.7652 22.0659 15.6782 21.5156C15.5956 21.3142 15.4909 21.2022 15.3453 21.2421C15.024 21.8345 14.3964 21.9399 13.6461 21.2829C13.5109 22.5129 12.3477 21.0046 12.0616 21.8222C11.9231 21.6207 11.8356 21.2261 11.6971 21.0246C11.8312 20.8058 12.1497 20.5446 12.1481 19.8645C12.3824 19.681 12.4168 20.2888 12.6528 20.0984C12.5973 19.8714 12.61 19.7259 12.6226 19.5804C13.1382 19.5461 13.6298 19.5368 14.0734 19.2468C14.2088 19.449 14.3302 19.7192 14.4827 19.8527C14.4619 19.6047 14.5207 19.5458 14.368 19.3541C14.7721 19.0926 14.8958 19.9456 14.9889 20.0927C15.1544 19.925 14.7945 19.1329 15.1372 19.1772C15.2337 19.9262 15.6617 20.5278 16.118 20.708C16.0715 20.4919 16.1736 20.449 16.0877 20.19C15.9036 20.7638 15.6067 19.7303 15.478 19.0988C15.7675 19.1554 15.6675 19.1784 15.9032 19.0011C16.0567 19.2963 15.7756 19.6202 16.0561 19.6659C16.2125 19.5586 16.0251 18.4286 16.4542 19.0493C16.3689 19.1078 16.3116 19.3738 16.4462 19.4012C16.659 19.2097 16.8218 18.9584 17.0132 18.7458C17.1981 19.1635 17.7857 19.0413 17.905 18.7158C18.1116 19.4136 18.557 19.6611 18.545 20.325C18.7839 20.1469 19.3652 20.2271 19.1724 20.7056C18.992 20.6369 18.3347 21.3001 18.2983 20.0252C18.044 19.9217 17.7514 19.8658 17.7393 20.3287C17.935 20.4069 18.2419 20.7965 17.978 20.9803C17.8213 20.7571 17.7317 20.2527 17.4829 20.3877C17.2667 20.6642 17.5184 20.7425 17.5034 21.2644C16.7394 20.8049 16.2791 21.2802 15.758 21.4907C16.1784 21.744 16.4913 22.4174 16.8726 22.8158C16.6964 22.4934 16.823 21.9847 16.9681 22.4439C16.8245 22.8074 17.0268 22.3267 17.2245 22.3849C17.5196 22.8809 17.0071 22.9858 17.2944 23.0753C17.561 22.6316 17.4905 22.1099 17.4427 22.1598C17.4924 21.8891 17.7862 22.5085 17.8328 21.8951C18.1468 22.2441 18.2113 22.6247 18.5461 22.2625C18.7261 22.759 18.5987 22.892 18.6924 23.2853C19.0118 22.985 18.9813 24.0549 19.2719 23.8585C19.0596 23.2073 18.721 22.7084 18.726 21.8712C18.8939 21.9427 18.9828 22.3436 19.1353 22.477C19.0567 22.0349 19.6478 22.0286 19.8662 22.1339C19.772 22.3112 19.9462 22.3813 19.9347 22.8182C20.6726 22.6485 20.7361 23.7551 21.3598 23.5469L21.2452 23.0483C21.9543 23.2546 22.8435 22.9983 23.0111 23.6986C22.9828 23.5042 23.1045 23.4892 23.2293 23.4735L23.1146 22.9749C23.6082 22.7447 24.0491 23.4599 24.2246 22.7196C24.2824 22.9137 24.3179 23.1972 24.4237 23.1988C24.562 22.655 24.9662 23.1389 25.0782 22.5234C25.4894 23.1806 25.6988 22.9316 26.2184 22.7862C26.4272 23.1788 26.1282 23.5392 26.4109 23.6233C26.6481 23.3808 26.7218 22.9426 27.0258 22.7755C27.0296 23.2218 27.5292 23.2754 27.3027 23.5932C26.997 23.1515 27.1725 23.9148 27.3791 23.9256C26.4296 23.6903 26.056 24.528 25.1783 23.7317C25.2553 23.9668 25.3841 23.9825 25.4649 24.1908C24.9969 24.1169 24.435 24.136 24.3931 24.6122C24.1285 24.2777 23.7117 24.555 23.4249 24.3099C23.4089 25.2857 22.5634 24.4432 22.2767 24.3989C22.3538 24.634 22.4825 24.6497 22.5633 24.858C22.1811 25.1144 22.009 25.64 21.6253 25.0737C21.7182 25.3634 21.3408 25.6835 21.6076 25.7842C21.6622 25.7781 21.7133 25.7858 21.7302 25.931C21.4722 25.8542 20.6338 25.3146 20.8304 26.3128C21.2188 25.8541 21.6809 26.1173 22.1013 26.3706L21.9088 25.5334C22.4819 25.5637 22.5835 25.819 22.8086 25.1516C22.8197 25.6869 22.8915 25.813 23.1237 26.1355C22.7886 26.5107 22.5255 26.7267 22.2128 26.8699C22.2613 26.9949 22.2892 27.2023 22.3736 27.1829C22.7764 26.7727 23.0825 27.4023 23.4072 26.5953C23.575 27.4252 24.136 26.6869 24.3688 27.2556C24.0086 27.5069 24.5358 27.7097 24.5231 27.9265C24.4363 29.3529 22.2974 27.9393 22.373 29.1273C23.2339 29.3636 23.493 28.2282 24.3175 29.3802C24.146 29.5363 24.2166 29.9867 24.0434 30.1496C23.783 29.9762 24.0805 29.6096 23.8047 29.4981C23.2523 29.7158 23.0286 30.3894 22.3539 29.8317C22.5769 31.2451 21.8177 29.4041 21.5702 30.7183C20.9537 29.8555 20.8797 31.1946 20.3903 30.2832C20.1779 30.3903 20.1864 30.7708 19.9922 30.8997C19.9344 30.7056 19.8988 30.4221 19.7931 30.4205C19.8568 30.6975 19.5767 30.5675 19.6132 30.8119C19.8045 31.0854 19.7494 31.3184 19.9665 31.962C19.8389 32.3089 19.5008 31.583 19.4075 32.2655C19.6175 32.6061 19.8124 32.9955 20.159 32.7991C19.8993 31.8414 20.8124 33.0637 20.5637 31.8247C20.5652 32.3752 21.0085 32.7853 20.8326 32.9942L20.7562 32.6618C20.3381 32.7191 20.0882 33.1071 19.979 33.1905C20.1885 33.758 20.5679 33.8328 20.5888 34.2817C20.5311 33.0571 21.4633 34.1908 21.5063 33.1893C21.334 32.9697 21.0269 31.9061 21.2835 31.8341C21.332 31.9591 21.4008 32.0146 21.4906 31.9615C21.1809 32.5188 21.8112 33.4562 22.1129 34.2812C22.6365 34.096 22.0572 33.5811 22.1386 33.2189C22.1657 33.3228 22.1964 33.413 22.2612 33.3657C22.24 33.2734 22.2861 33.1591 22.3456 33.3463C22.338 33.6138 22.398 34.4619 22.6704 33.9715C22.8671 34.8985 22.3205 34.3825 22.2275 34.7798C22.4214 35.0787 22.7264 34.9308 22.9394 35.1411C23.0777 34.9408 22.8131 34.2628 23.0877 34.2256C23.2476 34.649 23.0713 35.0135 23.2229 35.6009C23.0989 35.3766 22.8113 35.6436 22.7945 35.6994C23.1902 35.8741 22.8242 35.8999 22.9474 36.3642C23.0902 36.4415 23.1071 37.0015 23.2736 36.9956C23.362 36.9364 23.3625 36.7807 23.3691 36.6236C23.3182 36.402 23.1837 36.5043 23.1207 36.3308C23.2709 36.225 23.0409 35.6686 23.3469 35.7538C23.4551 36.4678 23.8187 36.3453 23.5776 36.7572C23.7531 36.9761 24.0039 36.7499 23.8038 36.1802C24.2314 35.9782 24.0155 36.8574 24.2527 36.9584C24.3166 35.7188 24.2476 35.6763 24.5553 36.7138C24.6437 36.6546 24.6472 36.4983 24.6508 36.3419C24.5998 36.1203 24.4653 36.2225 24.4024 36.049C24.4596 35.997 24.4699 35.8845 24.4104 35.6972C24.7236 35.9428 25.2268 36.0409 25.1031 35.188C24.9398 35.7375 24.8039 34.2587 24.4361 34.6349C24.2231 33.809 24.6812 33.1527 25.059 33.4353C24.5694 33.6969 25.1708 33.9216 25.3359 34.253C25.2148 34.3133 25.0059 34.2641 25.0333 34.4976C25.2724 34.7213 25.2876 35.8325 25.643 35.5888C25.5592 34.9664 25.3113 34.991 25.2021 34.4588C25.3996 34.1865 25.6345 34.3205 25.8758 34.6539C25.7543 33.8393 26.1326 34.368 26.2343 33.865C26.4714 34.3095 26.6658 34.9259 26.8742 35.4742C26.6711 35.6505 26.6258 35.1813 26.457 35.2202C26.5125 35.4472 26.5012 35.5988 26.4886 35.7443C27.1788 35.8967 27.7215 36.3099 28.1034 35.723C28.1612 35.9171 28.1967 36.2006 28.3039 36.2083C28.5307 35.8062 28.4232 35.9541 28.8167 36.0904C28.4796 35.1115 28.4646 34.8169 28.0047 34.5208C28.0769 33.8755 28.9958 34.3642 29.0685 34.4512C28.8175 34.4765 28.6438 34.5942 28.6322 34.9015C29.0819 34.6814 28.9502 35.4829 28.785 35.5663C29.0409 35.7343 29.27 35.9862 29.5365 36.0999C29.7495 35.8954 29.5754 35.8252 29.4666 35.4095C29.8458 35.3548 29.6895 35.6629 29.8311 36.2072C30.0109 35.9584 30.4081 36.4115 30.3439 36.0892L30.075 34.9197C30.6407 35.347 30.6799 35.675 31.3965 36.3722C31.3169 35.8396 31.1246 35.7477 30.9939 35.4083C31.5517 35.0856 31.2392 36.3176 31.6991 36.1276C31.6457 35.8093 31.5173 35.7806 31.4604 35.4761C31.5591 35.1034 31.6463 35.5111 31.8395 35.5639C31.7405 34.7182 32.066 33.9434 31.5118 33.3514C31.498 32.9334 31.4813 32.503 31.4993 32.1229C31.5961 33.2024 32.5892 32.4103 32.9546 33.3697C32.7858 33.4085 32.9499 33.8503 32.6902 33.7804C32.6214 33.524 32.5697 33.1989 32.4036 33.3214C32.6482 33.7123 32.4411 33.9284 32.6805 34.1391C32.7649 33.8475 33.1118 34.2538 33.1169 33.6888C33.0358 33.1501 32.8278 33.1331 32.7635 32.5387C32.9921 32.4731 32.9992 32.7761 33.1043 32.4603C33.2622 32.9036 33.2992 33.8089 33.5341 33.9428C33.3928 33.3856 33.4375 32.7207 33.5758 32.1769C34.3334 32.236 35.1684 31.8302 35.6349 31.3535C35.3421 32.0559 34.7285 30.5184 34.4485 31.2763C34.5797 31.0452 34.9158 31.4475 34.6938 31.5699C34.5108 31.1323 34.4818 31.8649 34.181 31.6878C33.9945 31.4779 33.9092 30.8494 33.7894 30.3714C34.2959 30.942 34.7475 29.6845 35.2704 30.5559C35.1493 30.6161 34.9405 30.5669 34.9678 30.8004C35.1759 31.3618 35.3019 30.6782 35.6415 30.9955C35.538 30.6888 35.589 29.6077 35.1624 29.6993C35.0061 30.5518 34.0675 29.9057 33.9377 29.4559C33.7231 29.5247 33.9658 30.1364 33.7498 30.1991C33.4948 29.6485 33.1542 30.1286 32.858 30.2292C32.7024 29.7529 33.095 29.3127 32.761 29.0201C32.7983 29.2254 32.8266 29.4198 32.6655 29.392C32.5529 29.4179 32.5208 29.1207 32.4202 29.0984C32.4584 29.2646 32.3967 29.3112 32.4122 29.4502C32.6838 29.6146 32.7022 29.9669 32.7273 30.4342C33.0031 30.617 33.0973 30.2389 33.3628 30.4631C33.3511 30.7703 33.5694 31.3618 33.2989 31.3592C33.0944 31.5293 33.1771 30.5576 32.9726 30.7278C32.8607 30.9998 32.4717 30.9402 32.7399 31.6627C32.4639 31.6937 32.3571 31.0572 32.028 31.3014C32.2299 31.8642 32.097 32.0309 32.0868 32.3443C32.213 32.2634 32.3705 32.5189 32.2476 32.6573C31.7988 32.1513 31.7654 31.7053 31.4357 31.0876C31.7043 30.7666 31.6257 31.8281 31.8926 31.514C31.6288 31.2117 31.7774 30.9702 31.7845 30.6575C31.0415 29.8886 31.0329 32.457 30.1999 31.1968C30.3647 30.9256 30.6203 31.7936 30.579 31.2846C30.5408 31.1184 30.6025 31.0718 30.587 30.9328C30.246 31.2251 30.1517 29.5552 29.9661 30.1942C29.7746 29.791 30.043 29.3404 29.7354 29.1908C30.0026 29.7515 29.4673 29.3562 29.5937 29.7484C29.8635 29.8483 29.5952 30.2989 29.8244 30.7517C29.9105 30.3819 30.098 30.2092 30.2416 31.0057C29.7468 30.7436 30.0968 31.4927 29.3418 31.3876L29.1493 30.5505C29.3627 30.3329 29.4071 30.2255 29.5012 30.1196C29.4423 29.6341 29.0885 28.6396 28.7834 28.1718C28.6767 28.6241 28.5674 27.9623 28.32 28.1034C27.9432 28.3261 28.4628 28.8677 28.3325 29.3319C28.058 28.7534 28.2935 29.7492 28.0299 29.5765C27.9432 29.2853 27.9219 28.7199 27.7037 28.9451C27.7563 29.1598 27.8669 29.1538 27.9028 29.4242L27.5619 29.5026C27.3477 28.8001 27.5483 28.5984 27.6338 28.2547C27.5942 28.698 28.0378 28.6803 27.9284 28.3619C27.8672 28.1816 27.7752 28.125 27.68 28.0691C27.5481 28.1966 27.3434 28.2372 27.3281 28.5C27.5843 29.2706 26.9996 29.4764 27.2944 29.9141C26.8893 30.085 27.1329 29.4263 26.8852 29.3083C26.4475 29.6098 26.4152 29.5978 26.1271 29.1326C25.6485 28.8408 25.6534 29.4489 26.0698 29.6707C25.5337 29.7875 25.1076 29.3087 24.7879 29.9655C24.6359 29.6051 25.0601 29.3455 24.6798 29.1089C24.5595 29.4736 24.5111 29.5495 24.3008 29.0211C24.4813 28.8759 24.6364 28.6912 24.9442 28.6982C24.7158 27.9341 25.4077 28.3518 24.9698 27.6359C25.2384 27.3149 25.1567 28.3771 25.4253 28.0561C25.297 27.5412 25.3459 27.2383 25.3283 26.847C25.6029 26.8098 25.8457 26.7345 25.8491 26.3773C25.6717 26.4505 25.546 26.3044 25.4781 25.9376C25.9071 26.0853 25.5835 25.3366 25.5038 24.8753C25.7864 25.6464 26.0931 24.675 26.5498 25.5162C26.4287 25.5765 26.2199 25.5273 26.2473 25.7608C26.6821 25.7191 26.2758 26.2144 26.4397 26.5979C26.5096 26.3291 26.6789 26.4068 26.7726 26.8714C26.7363 27.3723 26.2345 26.3211 26.1754 27.0087C26.2879 26.9828 26.3215 27.2862 26.4238 27.3015C26.4914 26.9944 26.7679 27.2807 26.9748 27.3498C27.0784 27.0992 26.5423 26.3281 27.0004 26.2875C27.0563 27.0459 27.3573 27.3526 27.0512 27.6822C27.8398 27.7472 27.1973 27.6162 27.6595 27.1924C27.9836 27.9863 28.7567 27.841 28.8394 27.6275C28.441 27.2266 28.8423 26.538 28.6343 25.5619C28.1395 25.9867 28.3707 24.2291 28.1392 24.9693C28.0159 23.4163 28.8978 24.3023 29.5136 24.3033C29.7087 24.8223 29.498 24.8513 29.5341 25.18C29.881 24.9706 29.5418 25.5282 29.7825 25.4728C29.7316 25.2512 29.8972 25.2844 29.8781 25.1009C29.6374 22.8944 28.8773 24.0413 28.3449 23.5156C28.8108 23.4085 28.6457 22.6622 28.9612 22.674C28.7739 22.3606 28.4418 22.6055 28.2941 22.1209C28.8603 22.3926 28.4479 21.7874 28.5269 21.186C28.8047 20.9341 28.8057 21.7829 29.0699 21.5861C28.8839 20.7345 28.8117 21.1075 28.5828 20.6417C28.5104 20.2695 28.8481 20.8075 29.008 20.5439C29.1089 20.8253 28.982 21.0036 29.1227 21.0425C29.4569 20.0194 30.3878 21.0757 30.8872 20.1118C30.5348 19.8105 30.6379 19.2424 30.3619 19.0012C30.3067 19.3769 29.7541 20.6964 29.4158 19.5687C29.6545 19.6046 29.767 19.7213 29.8029 19.3047C29.5027 19.646 29.5908 18.4397 29.354 18.5265C29.3913 18.7318 29.421 18.9324 29.2616 18.8978C29.0685 18.4302 28.9382 17.9352 28.9082 17.7476C29.2052 18.0941 28.6876 16.3013 28.7348 16.2061C28.6419 16.5321 28.1715 16.5625 28.0119 16.1974C28.6615 15.6008 28.9412 15.8865 29.7111 16.1567C29.6508 15.8659 29.5734 15.6439 29.4738 15.5113C29.6916 15.6426 30.0645 16.0041 30.1936 15.5207C30.2796 15.7084 30.3721 15.8815 30.4802 15.9798C30.6468 15.0147 32.3526 16.1909 31.7385 14.809L32.0794 14.7307C32.1973 15.0146 31.9892 15.4838 32.2718 15.5678C32.5763 15.446 32.4098 14.7649 32.9264 14.8924C33.1218 15.9427 33.531 15.045 33.5236 14.7551C33.6697 15.0326 33.8332 15.2283 34.0173 15.3415C34.1728 14.6576 34.4054 15.0967 34.8024 14.461C35.036 15.0619 34.5898 14.8534 34.6145 15.2042C34.8095 15.3797 35.2179 15.0654 35.2961 15.0474C35.2324 14.7704 35.0372 15.0097 34.9633 14.774C35.2403 14.7621 34.634 14.3442 34.933 14.256C34.9976 14.7661 35.5106 15.1213 35.5605 14.6367C35.4968 14.3597 35.3016 14.599 35.2276 14.3632C35.6146 14.1706 35.7694 14.8868 36.035 14.3526C36.3547 14.6549 36.0882 15.2995 36.4377 15.3164C36.4551 14.8911 37.1312 15.2541 37.1304 14.8071C36.8093 14.8421 36.7498 14.6549 36.5332 14.9444C36.4304 14.6116 36.2594 14.5408 36.124 14.3386C36.3386 14.2698 36.0959 13.6581 36.3119 13.5954C36.5238 14.7457 36.9856 14.0627 37.2736 14.2557C37.2164 14.3078 37.1048 14.2945 37.1398 14.4615C37.2691 14.5225 37.7472 14.769 37.6908 14.5098C37.5479 14.2315 37.2874 14.0581 37.538 13.845C37.7396 14.6217 38.003 13.7769 38.0125 13.5609C38.164 13.9473 38.1759 14.2427 38.5938 14.1272C38.3481 13.3735 38.5786 13.6316 38.6098 13.4235C38.5485 13.2432 38.4565 13.1866 38.3645 13.13C38.4006 13.4587 38.4988 13.8573 38.2609 13.8537C38.221 13.0787 38.3673 12.5266 38.93 12.4685C39.1905 12.6419 38.8929 13.0085 39.1687 13.12C39.2239 12.4722 39.806 12.3124 39.7659 12.9827C40.0959 12.9716 39.8322 12.2545 40.2485 12.3468C40.4467 12.8651 40.1058 12.7425 40.1464 13.0767C40.4922 12.8481 40.8714 12.722 41.0764 13.2128C41.3288 13.1937 41.5479 13.1303 41.3901 12.6157C41.2957 12.6633 41.2642 12.9558 41.1337 12.6747C41.2061 12.159 41.5234 12.2934 41.8647 12.3316C41.6611 11.847 41.9875 11.9923 42.1291 11.9208C41.8639 11.6124 42.0639 11.4368 41.8984 10.9175C42.0635 10.9055 42.2084 10.9629 42.3156 11.1715C41.9427 11.2249 42.5106 12.034 42.6769 11.9699C42.6958 11.5507 42.5937 11.665 42.5689 11.1133C42.8069 10.903 42.8462 11.5032 43.0243 11.5335C42.942 11.1182 43.3038 11.4174 43.3651 11.4552C43.2912 11.2194 43.1593 11.2044 43.0816 10.9954C43.4098 11.0625 43.3533 10.6737 43.6406 10.6919C43.7415 10.9733 43.6115 11.1522 43.7553 11.1905C43.9665 11.0641 44.0118 10.9889 44.1534 10.574C44.4859 10.9317 44.0182 11.804 44.3268 12.1155C44.5917 12.0221 44.48 11.121 44.9351 11.6256L44.7808 10.9546C45.1768 10.9155 45.5059 10.8009 45.1393 10.1658C46.0034 10.33 46.7094 10.2649 47.2829 9.32294L47.4754 10.1601C47.6068 10.0586 47.7509 10.356 47.7318 10.1011C47.4166 9.80419 47.2768 9.18177 47.673 9.05825C47.9335 9.23168 47.6359 9.59823 47.9117 9.70979C48.3082 8.68535 49.3134 9.34861 50.1001 8.67517C50.2535 8.97041 49.9725 9.29427 50.2543 9.34612C50.3862 9.01767 50.4727 8.63486 50.7817 8.51844C50.864 8.93374 50.9854 9.20395 51.1461 9.31605C51.3377 9.30441 51.387 9.11808 51.2879 8.7585C51.1423 8.79845 51.0393 8.67956 50.9551 8.48505C51.0122 8.43302 51.0226 8.32047 50.9631 8.13324C51.2369 8.26471 51.6918 8.2962 51.4456 7.49733C51.8812 7.21569 51.677 7.71631 51.9011 7.91756C52.0055 7.08341 52.4952 7.36615 53.0572 7.47672C53.1309 7.7255 53.1675 8.09946 53.296 8.12826C53.2561 7.62544 53.5612 8.2941 53.7243 8.02977C53.7176 7.22766 53.4941 7.41516 53.1813 7.62967C53.1193 6.7301 53.773 7.32511 54.0731 7.59959C54.6031 7.34163 54.9127 6.23996 55.6194 6.89406C55.5549 6.92834 55.4873 7.50773 55.6497 7.41207C55.8091 6.75971 56.3835 6.12213 56.9014 6.59929C57.0952 5.93902 57.6218 6.03831 58.1834 6.30452L58.0687 5.80592C58.4118 5.76593 58.5583 5.81647 58.9525 6.12766C59.0886 5.54549 59.4229 5.75378 59.7679 5.76519L59.6136 5.09423C60.4679 4.8006 61.3368 4.95726 62.1282 4.69103C62.556 4.54729 62.7392 3.74041 63.0457 3.59865C63.0991 3.5734 63.6997 4.38152 63.5967 3.64694C63.7502 3.94218 63.4691 4.26605 63.7495 4.31174C64.6096 3.90011 64.9963 3.64917 65.8549 3.30269C65.9285 3.55147 65.9651 3.92543 66.0936 3.95423C66.0693 3.72001 66.1419 3.60611 66.0237 3.26387C66.7911 2.82169 67.4433 3.48185 67.8184 2.85119C68.1141 3.04893 67.8286 3.56825 68.0953 3.66894C68.1889 3.3169 67.9802 3.05378 67.8646 2.66558C68.1816 2.26865 68.1534 3.23431 68.3583 3.25201L68.6991 3.17365C68.3155 2.19249 69.3606 2.32808 69.1737 2.88954C69.0612 2.50062 68.7713 2.87189 68.8711 3.13411C69.0722 3.24989 69.8214 3.12946 69.2692 2.5176C69.7167 2.94615 70.0567 2.90687 70.169 2.13571C70.4294 2.45176 70.2356 3.31291 70.7406 3.06071C70.5597 2.60326 70.7634 2.60178 70.6325 2.20414C71.0593 1.96991 71.2232 2.35348 71.4941 1.65606C71.7154 2.04588 71.8505 2.2611 71.8474 2.8062L72.2758 2.7077C72.105 1.73594 72.5778 1.53001 73.155 1.44912C73.2397 1.76018 73.3401 1.99634 73.4799 2.07438C73.494 2.13593 74.1317 0.971802 73.7522 1.3118C74.3663 0.77527 75.5551 0.748202 75.8305 1.3589C75.7521 0.35941 76.3688 0.936994 76.7 0.459011C76.8354 0.661199 76.9568 0.931409 77.1093 1.06485C77.0765 0.864999 76.9847 0.594472 77.0791 0.546844C77.306 1.37609 77.3321 0.430332 77.5043 0.449066C77.8576 0.711323 77.6687 1.29269 77.9914 1.39347C78.1297 1.19316 77.8652 0.515157 78.1397 0.47795C78.2918 0.767034 78.0121 1.09706 78.294 1.1489L78.466 1.10936C78.4049 0.715091 78.3063 0.472059 78.189 0.291617C78.9482 0.486472 79.3935 0.533146 79.9265 0.417081C80.1937 0.977817 79.6583 0.582435 79.7847 0.974637C81.0111 0.251946 82.3614 0.0256989 83.3519 0.854348C83.6591 0.615219 83.9571 0.365213 84.2629 0.119929C84.6999 1.69152 85.9065 0.19566 86.4874 1.1898C86.2631 1.54597 85.7736 1.04931 85.5876 1.57168C85.958 1.69388 86.1095 1.73684 86.1591 2.49667C86.3271 1.80994 86.7058 3.55699 86.9171 2.67234C87.0181 2.95374 86.888 3.1327 87.0318 3.17093C87.2501 3.14667 87.3653 3.00351 87.3837 2.74004C87.0298 2.84734 87.3243 2.48151 87.2691 2.24144C87.1365 2.12287 86.9899 2.07232 86.8025 2.17373C86.6952 1.76419 86.6046 1.37024 86.6562 1.15097C87.0207 0.989395 87.3053 1.12486 87.5862 1.2871L87.7787 2.12425C88.2416 1.87524 88.417 2.78114 88.8248 2.76514C88.9383 3.58805 89.1901 3.86715 89.5221 3.83619C89.8336 4.7043 89.7511 5.18991 90.1621 5.44538C89.9969 5.52873 90.2237 6.08579 90.0585 6.16914C89.9133 5.58036 89.8592 6.59086 89.7639 6.06189C89.8478 5.99723 89.9066 5.73744 89.7719 5.71008C89.7889 6.05614 89.2867 5.77627 89.3356 6.16039C90.1922 6.65039 90.2971 8.26598 91.1442 8.55725C91.1323 8.26188 91.3401 8.22058 91.369 7.97413C91.3398 7.61792 91.0107 6.90289 91.1845 6.78517C91.3468 7.10431 91.5059 7.42418 91.6716 7.72957C91.6196 7.34617 92.125 7.62532 92.1079 7.27926C92.224 7.78402 92.5043 7.62882 92.7354 7.65995C92.6877 8.52641 93.3149 8.23313 93.5091 9.06341C93.1655 9.05816 92.9764 9.23775 92.9008 9.55326C92.667 9.09501 92.4504 8.56801 92.1684 8.31528C92.0604 8.3466 92.0991 8.55805 91.9502 8.54044C91.8493 8.25903 91.9807 8.08623 91.8356 8.04184C91.8205 8.63506 91.6173 8.68179 91.7511 8.06125C91.0572 8.35044 91.5412 9.29556 91.3193 10.0919C91.5498 9.73426 92.1914 9.90431 92.1552 10.6061C92.3588 10.2028 92.971 10.4315 93.2572 10.7027C93.421 10.6132 93.3228 10.2145 93.4834 10.1257C94.0102 10.4842 94.4193 11.3039 94.9307 11.7243C95.0176 12.4172 95.0499 12.2996 95.2379 13.06C94.918 13.2437 95.0478 13.9657 94.787 14.2201C94.5908 14.0254 93.9845 13.8083 93.9414 14.0645C94.5615 15.5876 95.398 16.6914 95.7942 18.2141C95.5885 18.5077 95.3207 18.2452 94.9868 18.2247C94.9147 19.0709 95.253 19.6542 95.5247 20.5638C95.5825 20.4145 95.6565 19.691 95.8766 20.133L95.913 20.1051ZM38.4377 12.9187C38.5337 13.279 38.7355 13.2261 38.9394 13.1533C38.7976 12.4795 38.6186 12.7604 38.4377 12.9187ZM28.7589 21.6511C28.7419 22.1929 29.3462 21.8142 29.0837 22.2764C29.1415 22.4705 29.2726 22.382 29.3784 22.3836C29.3302 22.2456 29.3759 22.2157 29.4246 22.198C29.2475 21.8434 29.0263 21.6544 28.7589 21.6511ZM30.0166 23.9997C29.847 23.5915 29.3358 22.8859 29.3686 22.7423C29.1131 22.2178 29.193 23.0808 29.1043 23.1531C29.4343 23.3429 29.64 24.0085 30.0166 23.9997ZM21.6923 27.6701C21.5173 27.9112 22.4747 27.5939 21.8531 27.9831C21.9305 28.2051 22.0983 28.0758 22.2322 28.0709C21.949 27.5268 22.1394 26.9516 21.7451 27.1265C21.749 26.8858 21.8542 26.7709 22.0094 26.7158C21.6804 26.3442 21.5895 27.266 21.5143 26.1232L21.258 26.1821C21.2852 26.9017 22.0979 27.2722 21.6877 27.6647L21.6923 27.6701ZM23.3776 43.9906C23.3021 43.5478 23.1807 43.2776 22.9669 43.3786C23.0424 43.8214 23.1638 44.0916 23.3776 43.9906ZM97.5286 25.1842C97.3259 24.9327 96.8811 24.659 96.7705 25.0085C96.9746 25.2662 97.3198 25.4072 97.5286 25.1842ZM98.2312 32.9359C98.139 33.3654 97.3309 32.6568 97.2056 33.1717C97.589 33.1354 98.7647 33.8243 98.4574 32.3589C98.1325 32.3494 97.9011 32.2017 97.6882 32.5358C97.9098 32.9126 98.1282 32.817 98.2312 32.9359ZM97.2656 27.176C96.9915 26.4418 96.8929 27.7024 96.5076 27.0003C96.6876 27.4968 96.5601 27.6298 96.6539 28.0231C96.7548 27.6175 96.9634 27.3362 97.2687 27.1753L97.2656 27.176ZM94.9614 17.1548C94.8769 17.1742 94.9424 17.373 94.9534 17.5066C94.7478 17.5862 94.6282 17.3091 94.4979 17.0863C94.3058 17.4675 94.8353 17.6374 94.9468 17.8645C95.0884 17.7931 95.0741 17.5306 94.9659 17.1602L94.9614 17.1548ZM96.6448 26.4373C96.5368 26.1251 96.2836 26.3843 96.2341 25.8253C96.0839 25.9311 96.3139 26.4875 96.0093 26.4084C95.7951 26.6651 96.6507 26.4489 96.2084 26.8876C96.4536 27.3238 96.4438 26.4511 96.6448 26.4373ZM97.6656 35.1723C97.4266 34.9486 97.1926 34.7042 96.9142 34.6386C96.8014 34.2627 97.1187 34.3972 97.0559 34.0811C97.3378 34.1329 97.0567 34.4568 97.2102 34.752C97.2521 34.6193 97.3852 34.4396 97.4666 34.6931C97.6842 34.494 97.2934 34.169 97.2741 33.8559C97.1278 33.7923 96.8785 34.1543 96.8075 33.7882C96.647 34.6936 96.7534 34.183 96.4108 34.4109C96.6131 35.0189 96.8335 35.5191 96.546 35.7862C96.786 35.8995 96.9408 36.3435 97.2578 36.1475C97.2707 36.4037 97.2304 36.6009 97.2401 36.858C97.0605 36.8215 96.9423 36.5505 96.7353 36.624C96.9153 37.1206 96.7879 37.2536 96.8816 37.6468C97.205 37.9937 97.066 37.06 97.4868 37.1577C97.2399 36.4562 97.3169 36.1468 97.7227 36.222C97.5518 35.9373 97.3705 35.7068 97.1894 35.4632C97.112 34.8977 97.4562 35.1491 97.6639 35.1791L97.6656 35.1723ZM96.3506 33.3618C96.6396 34.0601 96.8904 33.2896 96.994 33.0389C96.6739 32.5487 96.6947 33.4836 96.3506 33.3618ZM91.1199 10.9997C91.3937 10.7877 91.0344 10.5851 90.9736 9.97694C90.8584 10.1201 90.9661 10.9897 90.5452 10.0754C90.3996 10.1867 89.9769 9.96631 90.1933 10.5063C90.7212 10.3396 90.8339 10.7868 91.1153 10.9943L91.1199 10.9997ZM96.3044 33.5474C96.1676 33.3391 95.9997 33.2675 95.849 33.1272C95.5917 33.2253 95.5979 33.6386 95.4891 33.9099C95.885 34.4151 95.9632 33.5093 96.3044 33.5474ZM97.2464 38.4314C97.2418 37.8103 96.9329 38.3998 96.8739 37.9856C96.7814 38.1559 96.7857 38.4466 96.8944 38.8623C96.9552 38.6539 96.9387 38.3531 97.2432 38.4321L97.2464 38.4314ZM95.292 31.4924C95.3498 31.6865 95.3412 31.7922 95.284 31.8443C95.3416 32.2523 95.6505 31.6628 95.6551 32.2839C95.9269 32.1631 95.5875 31.2171 95.2906 31.4863L95.292 31.4924ZM91.4587 14.4345C91.018 13.635 90.587 12.548 90.2854 12.0665C90.2386 13.1661 91.2792 13.6397 91.0334 14.5323C91.2172 15.002 91.1996 14.2672 91.4587 14.4345ZM90.3889 11.3428C90.1288 10.8128 89.975 11.8333 89.7997 11.1283C89.6404 11.9102 90.3492 11.8574 90.3889 11.3428ZM88.6416 4.5312C88.7665 4.37286 88.5848 4.2267 88.5256 4.02644C88.38 4.1377 88.1739 4.17212 88.3008 4.60956C88.4971 4.73294 88.4707 4.04554 88.6416 4.5312ZM92.1182 41.5419C91.9369 41.3114 91.79 40.9304 91.6311 40.5975C91.4492 40.6652 91.5443 41.0646 91.6517 41.4742C91.7843 41.5927 91.9309 41.6433 92.1151 41.5426L92.1182 41.5419ZM91.0339 40.7348C90.9886 40.2656 90.6575 40.9445 90.6167 40.4808C90.5599 40.792 90.7262 41.687 90.8394 41.8359C91.0505 41.58 90.6115 40.9162 91.0371 40.7341L91.0339 40.7348ZM87.4839 33.1128C87.3438 33.3913 86.9676 33.3871 87.1636 34.0679C87.3505 33.8499 87.5846 33.6795 87.4839 33.1128ZM86.745 33.8077C86.8673 33.3518 86.513 34.1592 86.4121 33.5343C86.272 33.6119 86.2848 33.8681 86.393 34.2386C86.4349 34.1058 86.5681 33.9261 86.6494 34.1796C86.7333 34.115 86.6324 33.8336 86.745 33.8077ZM87.8589 38.6521C87.5498 38.5676 87.7812 39.1301 87.6327 39.2291C87.8361 39.6554 88.0903 39.1433 87.8589 38.6521ZM85.3747 29.0222C85.1609 29.0519 84.9563 29.0925 84.9001 29.3064C85.0925 29.6704 85.3809 28.7486 85.3556 29.7266C85.4957 29.649 85.4829 29.3927 85.3733 29.0161L85.3747 29.0222ZM88.3137 42.5917C88.1376 42.1979 88.0378 42.8949 87.7165 42.729C87.9762 43.0711 88.2486 42.9955 88.3137 42.5917ZM87.8965 42.3376C87.7386 41.8943 87.5119 41.7391 87.2294 41.7846C87.0321 40.955 87.4541 41.6163 87.54 41.1882C87.2661 40.5124 87.2586 41.2529 87.0272 41.3061C87.1096 41.7214 87.2001 42.1154 87.3424 42.2901C87.4671 42.2743 87.5888 42.2593 87.5605 42.0649C87.6736 42.1556 87.7358 42.4264 87.8934 42.3383L87.8965 42.3376ZM87.1102 39.7057C86.9983 39.9777 86.6093 39.9181 86.8775 40.6406L87.2183 40.5622C87.2449 40.3487 87.2276 40.087 87.1102 39.7057ZM87.1655 42.6807C87.2266 43.075 87.3284 43.3173 87.4424 43.4984C87.8651 43.4466 87.6271 42.3542 87.1655 42.6807ZM86.126 40.107C86.308 40.0392 86.2143 39.646 86.1055 39.2303C85.8497 39.2632 86.0017 39.967 86.126 40.107ZM84.7385 43.0638C84.3889 42.7747 84.1588 43.6637 83.9534 43.9442C84.124 44.3716 84.2672 43.4767 84.455 44.1789C84.588 44.4853 84.5484 43.9694 84.4168 44.0127C84.248 43.3645 84.597 43.3361 84.7371 43.0576L84.7385 43.0638ZM75.1285 1.6564C74.9605 1.11175 74.7419 1.49255 74.5775 1.60811C74.6718 1.97529 74.9558 1.59243 75.1285 1.6564ZM83.5184 44.4007C83.4342 44.2062 83.3297 44.0812 83.1856 44.1273C83.1303 44.302 83.299 44.7493 83.0453 44.691C83.3297 45.3838 83.3958 44.5974 83.5198 44.4069L83.5184 44.4007ZM73.7929 46.287C73.7017 45.7182 73.3851 45.3438 73.2993 45.7005C73.5104 45.7168 73.549 46.4144 73.7929 46.287ZM71.1609 44.6044C71.3898 44.1824 70.8689 44.1077 70.7964 43.8068C70.5676 44.2288 71.093 44.3089 71.1609 44.6044ZM69.7865 45.2704C69.8991 45.588 70.4562 45.434 70.1385 44.8395C70.0754 45.0808 69.8705 45.1344 69.7594 44.7517C69.4823 44.7635 70.0887 45.1815 69.7897 45.2697L69.7865 45.2704ZM69.9408 45.9413C69.8915 46.1277 69.8453 46.3133 69.7991 46.4989C69.576 46.5307 69.5185 45.9088 69.3502 45.7207C69.1443 46.8439 70.4132 46.7789 69.9394 45.9352L69.9408 45.9413ZM66.5806 46.189C66.3543 46.3642 65.9871 46.3709 66.0137 46.8443C65.7167 46.5691 65.3241 46.3224 65.3657 45.5869C64.9752 45.5925 65.3033 46.1457 64.8911 45.8711C65.0429 46.4454 65.4497 45.9954 65.5009 46.9622C65.9814 47.3054 66.2803 46.4006 66.6411 47.225C66.7436 47.0265 66.5721 46.4956 66.5824 46.1821L66.5806 46.189ZM64.4839 43.3269C64.3856 42.6561 63.9696 43.2378 63.7259 43.1513C63.9976 43.7174 64.0956 43.0986 64.4839 43.3269ZM63.3844 46.7489C63.5934 46.6555 63.1991 46.487 63.2302 46.078C62.9069 45.932 63.2891 46.6348 62.9658 46.4888C63.1181 47.1083 63.3032 46.4241 63.383 46.7428L63.3844 46.7489ZM62.9165 45.1002C62.8391 44.8782 62.6727 45.0137 62.5374 45.0124C62.6238 45.3879 63.2166 45.9904 62.6837 46.0351C63.0956 46.8672 62.9152 45.4958 62.9196 45.0995L62.9165 45.1002ZM62.4801 45.5505C62.4252 45.0252 62.2199 45.0919 62.165 44.5666C62.0781 44.8328 62.1185 45.7244 62.4801 45.5505ZM57.2282 45.0018C57.3239 44.8307 57.1483 44.7544 57.1584 44.3114C57.0211 44.33 56.8516 44.4662 56.7794 44.2236C56.6046 44.523 57.1356 44.699 57.2282 45.0018ZM56.2395 43.8227C56.0543 43.3468 56.0733 44.0878 55.8142 43.9205C55.9943 44.417 55.8668 44.55 55.9605 44.9433C56.2541 45.3035 56.062 44.6542 56.3475 44.6793C56.0057 44.3237 55.8772 44.094 56.2395 43.8227ZM54.674 43.6577C55.275 44.038 54.3737 42.9815 54.7379 42.7616C54.1781 42.145 54.7969 43.5906 54.674 43.6577ZM54.8123 45.0323C54.5423 45.0749 54.4526 45.3289 54.2916 45.502C54.3738 45.7164 54.5025 45.7322 54.5782 45.9611C54.7052 45.7115 54.9488 45.5972 54.814 45.0254L54.8123 45.0323ZM54.5434 43.8628C54.5352 44.4285 53.878 43.6463 54.295 43.5699C54.2321 43.3964 54.1007 43.4979 54.0466 43.277C54.1155 43.8056 53.8073 43.8829 53.9747 44.525C54.1556 44.3667 54.3377 44.085 54.4795 44.7589C54.6215 44.6031 54.6044 44.257 54.5434 43.8628ZM54.1769 45.0034C54.1347 44.5335 53.805 45.2186 53.7597 44.7494C53.812 45.0485 53.9669 45.8942 54.285 45.86C54.2085 45.3267 53.9278 45.2227 54.1769 45.0034ZM53.5164 42.5175C53.263 42.7897 53.2916 42.8285 53.0801 42.9678C53.4064 43.8001 52.9862 43.7477 53.2535 44.5093L53.5943 44.431C52.9436 43.6343 53.5902 43.3107 53.5133 42.5183L53.5164 42.5175ZM52.1803 43.3497L52.0656 42.8511C51.8783 42.9525 51.759 43.1355 51.6293 43.3014C51.8259 43.6127 51.885 43.0676 52.1803 43.3497ZM43.1372 11.8381C42.8412 11.3812 42.7955 12.2278 42.8631 12.6076C43.0346 12.4515 42.9639 12.0011 43.1372 11.8381ZM41.2243 13.6843C41.1663 13.4319 40.5078 13.4602 40.7498 13.9684C41.0376 14.0319 41.0197 13.7249 41.2243 13.6843ZM44.7261 42.6009C44.4841 42.7797 44.7169 43.0762 44.8342 43.4575C45.0488 43.3887 44.8945 42.7891 44.7261 42.6009ZM38.9575 17.8997C38.8041 17.5332 38.3923 17.8612 38.6087 18.3299C38.827 18.3056 38.8105 18.0048 38.9575 17.8997ZM38.3669 16.1042C38.3028 15.7106 38.2041 15.4676 38.09 15.2864C37.992 15.8339 37.7036 15.5243 37.4848 15.7756C37.7393 15.9374 38.0272 16.273 37.5612 16.108C37.8776 16.9685 37.9636 15.5812 38.3686 16.0973L38.3669 16.1042ZM44.0459 42.7638C44.2272 42.7934 44.2633 43.3943 44.5014 43.184C44.4108 42.7901 44.2412 42.7254 44.1863 42.2001C43.8771 42.1156 44.1965 42.7745 43.9601 42.7771C44.0196 42.9643 44.0689 42.8493 44.0445 42.7577L44.0459 42.7638ZM40.6911 30.5214C40.5537 29.6521 40.3903 30.8887 40.1894 30.2868C39.9933 30.9087 40.591 30.8166 40.6911 30.5214ZM37.7645 18.1805C37.683 17.5252 37.2077 17.6345 37.4237 18.2589L37.7645 18.1805ZM38.4105 21.3762C38.3108 21.2435 38.2335 21.0215 38.1732 20.7308C38.2067 21.3776 37.4241 21.0521 37.6347 21.911C37.6848 21.4847 38.0484 21.4335 38.4119 21.3823L38.4105 21.3762ZM43.224 43.4843C43.1872 43.3242 43.088 43.3794 43.0138 43.3576C42.842 43.1832 42.7641 42.6438 42.4708 42.9575C42.6808 43.2981 42.8757 43.6875 43.2223 43.4911L43.224 43.4843ZM36.8477 15.7536C36.7011 16.0465 36.7689 16.1411 36.4575 16.0182C36.5344 16.4672 36.7348 16.4082 36.9144 16.4446C36.9461 16.2818 36.9187 16.0483 36.8445 15.7543L36.8477 15.7536ZM38.7729 25.6869C38.8773 25.6111 38.7486 25.2518 38.703 24.9966C38.4988 24.8815 38.172 24.5483 38.0676 24.9677C38.3175 25.5389 38.3618 24.9584 38.6568 25.1822L38.7715 25.6808L38.7729 25.6869ZM37.5443 20.3439L37.4679 20.0115C37.4031 20.0588 37.3725 19.9687 37.3453 19.8647C37.2778 20.0293 37.168 20.1388 36.9583 20.1287C37.1934 20.5931 37.183 20.2326 37.5475 20.3432L37.5443 20.3439ZM37.1528 19.0276L37.0381 18.529C36.9537 18.5484 37.0192 18.7472 37.0301 18.8808C36.865 18.8928 36.7201 18.8354 36.6129 18.6268C36.5241 19.1138 36.9322 19.357 37.1528 19.0276ZM36.6531 16.8547C36.447 16.6169 36.2806 16.208 35.9861 16.3016C35.9944 16.5525 36.4109 16.6317 36.1852 16.7808C36.3298 17.0522 36.5844 17.1427 36.6486 16.8492L36.6531 16.8547ZM36.0198 14.8875C35.7483 14.3796 35.8983 15.3756 35.5452 15.1716C35.7019 15.3948 35.7915 15.8992 36.0403 15.7642C35.9329 15.3547 35.8378 14.9553 36.0166 14.8882L36.0198 14.8875ZM38.61 28.8871C38.7211 29.1986 38.8069 29.6001 39.0207 29.4991C39.0007 29.0112 38.9534 28.7628 38.61 28.8871ZM37.5423 23.8571C37.693 23.453 37.0978 23.2982 36.9246 23.1177C36.7327 23.2137 37.1248 23.5448 37.1633 23.7693C37.225 23.7227 37.2095 23.5836 37.2939 23.5642C37.3859 23.6208 37.4811 23.6767 37.5423 23.8571ZM36.7738 20.5146C36.6454 20.071 36.3448 20.2957 36.1957 19.9476C36.0388 20.2818 36.5209 20.7607 36.7738 20.5146ZM38.5065 29.6109C38.4061 29.3747 38.2806 29.2156 38.1802 28.9794C37.911 29.1256 38.2155 29.8916 38.5065 29.6109ZM36.5983 22.4863C36.1415 21.9886 36.49 21.6428 36.2068 21.17C36.028 21.5092 36.1188 22.3049 36.4184 22.8777C36.5168 22.7902 36.4849 22.5513 36.5983 22.4863ZM35.5147 18.1599C35.6076 17.8339 35.282 18.3365 35.0974 17.9059C35.0781 17.5214 35.1256 17.2124 34.9973 16.6975C34.6317 16.9112 34.6078 16.5926 34.5881 16.0917C34.526 16.2226 34.5883 16.4934 34.4081 16.483C34.5077 16.6156 34.5851 16.8376 34.6468 17.1345L34.9032 17.0756C34.9275 17.5107 34.9959 17.994 35.1641 18.597C35.206 18.4642 35.3392 18.2845 35.4205 18.538C35.5044 18.4733 35.4035 18.1919 35.5161 18.1661L35.5147 18.1599ZM36.326 23.2489C36.0309 22.4094 35.3222 22.9353 35.0138 23.0256C35.2002 23.6503 35.4409 22.7784 35.6808 23.5787C35.8625 23.1805 35.8837 23.3441 36.3243 23.2558L36.326 23.2489ZM35.3583 19.4272C35.0702 18.7611 34.7533 18.1989 34.282 18.2683C34.7998 18.8881 34.6704 19.041 35.3583 19.4272ZM36.5025 24.7897C36.3653 24.05 36.0345 24.1001 35.759 23.9042C35.6902 24.1922 36.2767 24.5953 36.5025 24.7897ZM34.3907 15.6056C34.344 15.4025 33.916 15.7601 33.8317 15.9091C34.0692 16.3406 34.3488 15.8097 34.3907 15.6056ZM40.3358 41.8476C40.1011 41.571 40.2053 41.9813 39.9106 41.9454C39.9528 42.4153 40.1573 42.2451 40.2337 42.5775C39.7772 42.7538 39.8744 42.375 39.436 42.2295C39.5125 42.5619 39.7187 42.3848 39.7623 42.8609L40.4439 42.7042C40.1166 42.3258 40.5998 42.4804 40.3358 41.8476ZM35.8802 22.47C35.6151 22.1615 35.815 21.9859 35.6495 21.4666C35.4659 21.8134 35.2759 22.5765 35.8802 22.47ZM37.0066 28.5429C36.7081 28.0606 36.6369 28.5242 36.333 28.3478C36.4152 28.5622 36.544 28.578 36.6196 28.8068C36.8416 28.8271 36.7333 28.4567 37.0066 28.5429ZM37.4139 31.087C37.5588 30.8009 37.0613 30.3839 36.9268 30.1426C36.9907 30.8214 36.3721 30.0498 36.2834 30.4655C36.5861 30.9662 37.1795 30.3113 37.4139 31.087ZM34.3359 19.6623C34.3751 19.9903 34.0342 19.8678 34.2338 20.3922C34.6187 20.2195 34.396 20.5105 34.5555 21.0182C34.7569 20.8488 34.8005 21.3248 34.9279 21.464C34.9682 21.2668 35.2324 21.3422 35.0683 20.9003C34.7963 21.5785 34.5637 19.8368 34.2946 19.4968C34.2047 19.5499 34.2859 19.6738 34.3328 19.663L34.3359 19.6623ZM37.4424 31.6119C37.3608 31.3001 37.1341 31.5596 37.0713 31.1722C36.967 31.2481 37.0957 31.6074 37.1412 31.8626C37.3364 31.8955 37.3426 31.6932 37.4438 31.618L37.4424 31.6119ZM36.1148 28.5729C36.0686 28.2142 35.9535 28.1434 35.8761 27.9214C35.7247 28.1506 36.0838 28.9819 35.6403 28.8571C35.9034 29.5289 35.9045 28.6602 36.1148 28.5729ZM33.2405 19.2078C33.4215 19.2504 33.492 18.612 33.6195 19.2956C33.7239 19.2198 33.5952 18.8605 33.5497 18.6052C33.5169 18.4054 33.6734 18.4277 33.7678 18.3801C33.5044 17.7926 32.979 18.9439 32.9222 18.2246C32.7648 18.2413 32.7876 18.4694 32.6196 18.4691C32.6774 18.6632 32.8085 18.5747 32.9142 18.5764C33.0742 18.5849 33.1746 18.8211 33.2359 19.2023L33.2405 19.2078ZM36.0141 30.8839C36.1902 30.7332 35.9868 30.0347 36.1736 29.6158C35.8936 29.6867 35.5546 29.6869 35.691 30.2518C36.0165 29.8918 35.8919 30.3093 36.0127 30.8777L36.0141 30.8839ZM33.5556 20.1917C33.6668 20.0884 33.4717 19.9842 33.441 19.6931C32.8045 20.4616 32.8936 20.3764 33.5556 20.1917ZM38.5331 42.6121C38.3375 42.0478 38.2512 42.5602 38.1048 42.7106C38.212 42.9192 38.3583 42.9828 38.522 42.9646C38.4625 42.7774 38.4728 42.6648 38.53 42.6128L38.5331 42.6121ZM36.103 42.9959C35.9383 42.781 36.1681 42.592 35.8723 41.9925C35.8235 42.1528 35.7995 42.936 35.5235 42.4227C35.3397 42.5686 35.4771 43.0944 35.4978 43.485C35.9168 43.6609 35.2653 42.5598 35.6843 42.7357C35.9162 42.7277 35.6351 43.0516 35.8386 43.4066C36.2745 43.4555 36.5555 43.4751 37.0743 43.2975C37.1386 42.9327 37.02 43.0896 36.9201 42.6265C37.1679 42.6019 37.2089 43.3961 37.4996 43.1997C37.2627 42.7422 37.7692 42.6257 37.756 43.1407C37.9134 43.124 37.8875 42.8966 38.0586 42.8962C37.9975 42.5019 37.8988 42.2589 37.7816 42.0784C37.4217 41.9733 37.6326 42.5469 37.3453 42.5287C37.1833 42.5401 37.1619 41.9747 37.0205 41.9035C36.9275 41.9573 37.0179 42.2217 37.0507 42.4215C36.8666 42.3083 36.7856 41.7696 36.5077 42.0214C36.6001 42.5381 36.9329 42.6106 36.8228 43.0053C36.4955 42.8991 36.2465 42.2888 36.103 42.9959ZM34.6227 28.7411C34.4178 28.3799 33.9857 28.9199 33.825 28.393C33.6396 28.818 33.8373 28.9476 33.4349 28.6577C33.4032 28.8206 33.4305 29.0541 33.5033 29.3419C33.6502 29.1073 34.2644 29.0438 34.6244 28.7342L34.6227 28.7411ZM32.4713 19.3846C32.3328 19.1832 32.2454 18.7885 32.1069 18.587C31.8433 18.4143 31.9894 19.3075 31.8043 18.8316C31.6999 18.9074 31.8286 19.2667 31.8727 19.5158C31.8793 19.0865 32.3185 19.6077 32.1211 19.8087C32.373 20.2887 32.2517 19.3314 32.473 19.3778L32.4713 19.3846ZM32.3119 20.6527C32.5065 20.3681 32.0322 20.0948 31.855 20.2263L31.9711 20.731C32.2173 20.9142 32.1909 20.2268 32.3119 20.6527ZM31.7324 20.0795C31.6559 19.7471 31.4483 19.918 31.4075 19.4543C31.3756 19.9023 31.0075 19.9481 31.0014 20.4226C31.3343 20.6247 31.3237 20.0633 31.7324 20.0795ZM32.2622 22.7704C32.0953 22.5885 32.0279 21.9947 31.8595 21.8066C31.716 22.1702 32.0722 22.3734 32.0058 22.8294L32.2622 22.7704ZM30.4128 16.6888C29.9117 16.1559 29.5255 17.0678 29.0641 16.2924C28.9677 16.36 29.0561 16.6443 29.1406 16.6248C29.1688 16.8193 29.0774 16.7366 29.0561 16.6443C28.8975 17.4001 29.7308 17.5455 29.6117 18.2729C30.0059 18.1692 29.4564 17.5114 29.4272 17.0839C29.4117 16.9449 29.4734 16.8983 29.4352 16.7321C29.8239 17.0769 30.1657 16.8882 30.4114 16.6826L30.4128 16.6888ZM32.6629 27.2474C32.5874 26.8046 32.4181 26.7269 32.2074 26.8272C32.2843 27.2761 32.4522 27.3477 32.6629 27.2474ZM30.99 22.7065C30.6757 22.714 30.7658 23.9506 31.1363 23.7293C30.9563 23.2327 31.17 23.203 30.99 22.7065ZM31.943 27.2379C31.8088 26.7114 31.5807 26.55 31.4639 25.9417C31.3437 26.2351 31.6777 27.4156 31.943 27.2379ZM29.6986 21.7721C29.8089 21.4356 30.4164 21.8014 30.5602 21.224C30.1551 20.4357 30.123 21.7134 29.5346 21.4598C29.5122 22.0353 30.1297 22.172 29.7271 22.2969C29.8052 22.4216 29.8801 22.5469 29.9262 22.7761C29.9772 22.6542 30.0327 22.5378 30.0982 22.7366C30.2025 22.6607 30.0738 22.3015 30.0283 22.0462C29.8828 22.0862 29.778 21.9742 29.6955 21.7728L29.6986 21.7721ZM29.5503 22.6876C29.7417 22.8898 29.8392 23.4572 30.1315 23.2539C30.0083 22.7896 29.8218 22.5798 29.5503 22.6876ZM35.2431 43.5371L35.127 43.0323C34.969 43.0038 34.9973 43.1983 35.0315 43.4043C34.8707 43.2922 34.7864 42.8968 34.667 42.6067C34.5007 43.0143 33.9588 42.9769 34.1286 43.7869C34.2742 43.6756 34.2622 43.3802 34.4774 43.3567C34.4037 44.0671 34.6265 44.3918 34.2335 44.6442C34.5123 45.3124 34.6631 44.4935 34.9916 44.8198C34.6719 44.4461 34.7494 44.5255 34.5889 43.856C34.7666 43.7698 34.7897 43.3691 35.2323 43.5331L35.2431 43.5371ZM33.0837 34.5325C32.9 34.0627 32.9206 34.7968 32.6585 34.6303C32.7053 34.7621 32.7811 34.777 32.8193 34.9432C32.6564 35.065 32.603 34.7467 32.5327 34.4842C32.4981 34.7773 32.3199 35.0905 32.5532 35.3609C32.6103 35.108 32.8871 35.1091 33.1122 35.0574C33.0522 34.8249 32.9907 34.5863 33.0806 34.5332L33.0837 34.5325ZM31.809 29.3751C31.6773 29.1461 31.5916 28.7446 31.3521 28.9487C31.343 29.2813 31.7373 29.4499 31.5064 29.6196C31.622 30.0078 31.6907 29.3763 31.809 29.3751ZM32.4181 33.9856C32.3247 33.508 32.0554 33.7255 32.0154 33.0218C31.8255 33.37 32.0617 33.6527 32.1999 34.2107C32.2489 34.1087 32.2978 34.0067 32.4181 33.9856ZM32.3225 34.3575C32.2772 34.504 32.1697 34.5806 32.0199 34.6021L32.1742 35.273C32.3866 35.1659 32.3614 34.7699 32.3239 34.3637L32.3225 34.3575ZM30.8758 29.2397C30.9545 29.5391 30.8502 29.615 30.9442 29.9239C30.8216 30.1206 30.5451 29.4907 30.6034 30.0022C30.8002 30.7866 30.927 29.863 31.2388 30.0311C31.2209 29.7242 30.8288 29.3931 31.0464 29.194C30.6673 29.1061 30.3981 28.5653 30.0003 28.5531C30.2066 29.1213 30.5602 29.0984 30.8744 29.2335L30.8758 29.2397ZM29.8509 25.9562C29.783 25.5894 29.5306 25.952 29.3874 25.8877L29.5417 26.5587C29.7414 26.597 29.6491 26.2812 29.599 26.0206L29.8554 25.9616L29.8509 25.9562ZM28.8364 25.8395C28.969 25.958 29.1156 26.0086 29.303 25.9072C29.1546 25.0469 29.2186 24.8961 29.0038 24.2196C28.6784 24.2361 28.571 24.5135 28.3987 24.7087C28.5492 25.063 28.7919 25.059 28.9767 25.2757C28.9288 25.5395 28.6883 25.5819 28.7902 26.0251C28.8934 26.2735 28.8837 26.0165 28.8364 25.8395ZM29.2457 26.4453C29.022 26.7754 29.0573 26.6571 28.9351 27.0417C29.1404 27.1759 29.3537 27.3019 29.5625 27.4224C29.6848 26.9665 29.2991 27.107 29.2474 26.4384L29.2457 26.4453ZM31.8821 40.2593C31.6738 40.2553 31.9001 40.7671 31.7404 40.8168C31.5104 40.5327 31.8066 39.8165 31.2533 39.8724C31.4847 40.3636 31.3418 40.3576 31.5222 41.042C31.8099 40.9758 32.0913 40.9111 31.8821 40.2593ZM30.2086 39.2377C30.2218 38.794 29.7985 38.5996 30.0161 38.4006C29.9552 38.2072 29.8272 38.2949 29.7215 38.2933C29.7697 38.4313 29.7239 38.4613 29.6753 38.4789C29.928 38.4467 29.93 39.386 30.2086 39.2377ZM30.1051 39.9615C30.391 40.5179 30.1436 40.3868 30.2514 40.9842C30.6061 41.1813 30.4002 39.7704 30.1051 39.9615ZM29.7084 40.5841C29.8577 40.3748 29.4377 39.7649 29.2595 39.8059C29.3118 40.4485 29.5654 40.3059 29.7084 40.5841ZM28.8422 39.5519C28.758 39.6296 28.6944 39.897 28.8342 39.9037C28.867 40.1035 28.7105 40.0812 28.6161 40.1288C28.693 40.5778 28.8934 40.5188 29.0729 40.5552C29.1799 40.1612 29.1105 39.8596 28.8422 39.5519ZM29.272 41.0344C29.2162 40.8204 28.7595 41.1393 28.9583 41.6315C29.0631 41.7435 29.1932 41.7655 29.3373 41.7194C29.2827 41.4532 29.1495 41.0885 29.2689 41.0351L29.272 41.0344ZM26.0016 28.7726C26.0845 28.5461 25.9885 28.1145 26.0655 27.8765C25.9839 27.5647 25.7572 27.8242 25.6944 27.4368C25.5066 27.7652 25.7817 27.9741 25.7149 28.3135L25.1177 28.4509C25.1641 28.7383 25.3638 28.848 25.2324 28.9495C25.4351 29.1297 25.6048 28.5074 26.0016 28.7726ZM28.6446 40.6537C28.5161 40.424 28.3142 40.4769 28.1429 40.4191C28.127 40.7792 27.8904 41.1966 28.2399 41.6282C28.8137 41.5611 28.2795 40.8414 28.6446 40.6537ZM28.1655 39.3575C27.9824 39.0626 28.0778 39.7925 27.7371 39.456C27.8618 40.1273 28.2358 39.8209 28.3962 40.3609C28.6054 39.6387 27.9629 39.6504 28.1655 39.3575ZM27.9282 38.7121C27.4652 38.4168 28.0057 37.5601 27.4029 37.6015C27.7447 37.9572 27.4459 38.3758 27.2691 37.8073C27.1798 38.1778 27.6705 38.9658 27.9171 39.0647C27.8576 38.8774 27.8679 38.7649 27.9251 38.7129L27.9282 38.7121ZM26.4406 40.4606C26.0872 40.6844 25.6111 40.7615 25.8177 41.6602C25.7525 41.1761 26.2641 41.3826 26.1762 40.8713C26.3693 41.3389 26.3148 41.2737 26.5487 41.3171C26.672 41.0231 26.3913 40.9191 26.4406 40.4606ZM27.0997 41.3654C26.9461 41.1415 26.9065 40.9691 26.9454 40.6945C27.1664 41.0973 27.574 40.7508 27.7351 41.3943C27.9711 41.2752 27.7196 40.5683 27.8452 40.3126C27.4981 39.7767 26.9135 40.1833 26.6382 39.3587C26.5 39.559 26.6115 40.0583 26.3642 40.1282C26.6031 40.5658 26.7396 41.4029 27.0997 41.3654ZM26.2105 35.9379C26.0105 35.5691 26.1522 35.6272 25.9336 35.1202C25.6522 35.1849 26.064 36.0882 25.9461 36.3487C26.0882 36.7373 26.0113 35.8735 26.2105 35.9379ZM24.1957 27.9629C24.137 27.5357 23.316 27.5301 23.5141 28.1197C23.7611 27.7194 23.9487 28.3632 24.1957 27.9629ZM25.5654 36.2677C25.3467 35.8319 25.0262 36.0417 24.8424 36.2589C25.1338 36.7817 25.2104 36.2845 25.5654 36.2677ZM24.9853 39.2138L25.4105 39.1161C25.2995 38.662 25.4748 38.7513 25.2576 38.4513C25.1732 38.4707 25.2387 38.6695 25.2496 38.8031C25.1007 38.8568 25.0216 38.6416 24.8706 38.7152C24.8128 38.5211 24.8214 38.4155 24.8786 38.3634C24.4905 37.9212 24.8907 38.8597 24.9867 39.22L24.9853 39.2138ZM25.2667 41.6119C25.2757 41.4219 25.2382 41.087 25.208 40.569C25.0206 41.2861 24.9514 40.8419 24.4388 40.7459C24.517 41.2723 24.7918 41.2933 24.856 40.9999C24.911 41.5252 25.0837 41.5892 25.1712 41.9838C25.3629 42.1018 25.0035 41.0114 25.2667 41.6119ZM21.2006 25.4889C21.2304 24.8598 20.6719 24.6642 20.5065 24.4171C20.4021 24.493 20.5308 24.8522 20.5749 25.1013C20.833 25.0355 21.0449 25.1553 21.2023 25.482L21.2006 25.4889ZM24.2734 38.8526C24.0563 38.5525 24.2315 38.6418 24.1191 38.1816L23.7783 38.26C24.3656 38.7666 23.5187 38.7344 23.9246 39.2827C23.9839 39.0682 23.9674 38.7674 24.2734 38.8526ZM24.0532 41.016C24.4176 41.1979 24.155 41.874 24.5865 41.7748C24.4821 41.2349 24.2737 41.1014 24.1949 40.4584C23.9171 40.7103 23.8562 40.1021 23.6057 40.244C23.9408 40.5558 23.6756 41.8222 24.2075 41.6869C24.2749 41.3215 24.1517 41.4729 24.0532 41.016ZM21.0774 28.8614C21.0707 29.362 20.7566 28.4685 20.5726 28.6275C20.8434 29.2328 20.1982 28.746 20.469 29.3513C20.6998 28.9806 21.1029 29.1731 21.0485 29.9244C21.254 29.6439 21.3958 29.2872 21.415 28.7838C21.0919 29.1108 21.0628 28.2685 20.7876 28.4031C20.851 28.6931 20.9506 28.8257 21.0742 28.8621L21.0774 28.8614ZM22.6618 38.8732C22.7807 38.9754 22.7872 39.3758 23.0262 39.6708C23.1449 39.1704 23.3293 39.815 23.5772 39.7191C23.5808 39.5627 23.5843 39.4063 23.6728 39.3471C23.3871 38.7777 22.8485 39.2126 22.6347 38.3544C22.3802 38.5361 22.1529 38.7504 21.8575 38.8831C21.9124 39.1362 22.4192 39.0067 22.0184 39.1961C22.2886 39.8274 22.7501 39.5722 22.6618 38.8732ZM20.7417 27.0008C20.637 26.5453 20.2478 26.6996 20.1907 26.9525C20.285 27.3197 20.569 26.9368 20.7417 27.0008ZM24.204 43.6191C24.097 43.1965 23.8431 43.3521 23.6148 43.4046C23.7765 44.022 24.0257 43.8027 24.204 43.6191ZM23.628 41.1138C23.5848 40.7543 23.4667 40.6842 23.3893 40.4622C23.2894 40.5435 23.3228 40.7886 23.2093 40.8536C23.0983 40.3995 23.2753 40.482 23.055 40.1826C22.7923 40.3856 22.6247 39.9575 22.5423 40.3005C22.8239 40.9098 22.722 40.4666 22.7347 41.1377C23.1714 41.29 23.2504 40.9608 23.6266 41.1076L23.628 41.1138ZM21.3197 36.544C21.1135 36.721 21.0713 36.2511 20.9024 36.29C20.8033 35.9304 21.1887 36.1464 21.2926 36.0253C21.2292 35.3917 20.773 35.8272 20.7416 35.977C21.0451 36.5812 20.8614 36.7271 20.5154 36.5539C20.6249 37.0732 20.8947 36.9722 20.9563 37.684C21.0009 37.3626 21.2349 36.6477 21.4691 37.566C21.5122 36.3507 21.9104 38.1969 21.8672 36.9495C21.9874 36.9997 22.0918 37.1247 22.1538 37.4086C22.2685 37.2202 22.3801 37.0325 22.2177 36.5125C22.1483 36.8979 21.7626 36.6236 21.8849 36.239C21.8658 36.3277 21.4883 36.3756 21.3259 36.5426L21.3197 36.544ZM21.7053 34.699C21.5839 34.4288 21.4842 34.6396 21.5715 34.9047C21.4201 34.8618 21.3793 34.398 21.1543 34.6507C21.2153 35.045 21.314 35.288 21.4312 35.4684L21.6876 35.4095C21.7823 35.2775 21.5529 34.7664 21.7053 34.699ZM19.6745 27.4276C19.5587 27.2534 19.4586 27.0042 19.3976 26.6099C19.2038 26.5832 19.1993 26.7786 19.095 26.8545C19.2946 27.3076 19.4808 26.9861 19.4594 27.6521C19.507 27.5439 19.556 27.4419 19.6776 27.4269L19.6745 27.4276ZM22.5086 40.1398C22.4202 39.8555 22.2739 39.7919 22.0913 39.8857C22.1701 40.1852 22.0703 40.2665 22.1612 40.5761C22.4658 40.6551 22.363 40.251 22.5131 40.1452L22.5086 40.1398ZM19.6967 28.2975C19.3168 27.633 18.7714 28.2964 18.9196 28.8261C19.3131 28.8912 19.3614 28.5431 19.4021 28.1902C19.4921 28.2667 19.5807 28.3371 19.6967 28.2975ZM22.5211 41.3683C22.752 41.1985 22.3577 41.0299 22.3668 40.6973C22.1522 40.7661 21.933 40.8295 22.0531 41.2944C22.202 41.312 22.1633 41.1006 22.2713 41.0693C22.3633 41.1259 22.4585 41.1818 22.5197 41.3621L22.5211 41.3683ZM20.9854 34.6895C20.7709 34.9592 20.8252 35.2384 21.0935 35.5461C21.3081 35.4773 21.1538 34.8776 20.9854 34.6895ZM18.635 24.8539C18.1155 24.8567 18.4448 23.9838 18.374 23.3326C18.1177 23.5924 17.881 23.8801 17.5521 24.053C17.4342 24.0412 17.3249 23.5803 17.436 23.5482C17.3621 23.3125 17.17 23.5511 17.1032 23.2748C17.1183 23.5694 17.0239 24.5763 16.8006 23.5194C16.5093 23.8132 16.9017 23.859 16.9931 24.3565C17.0488 24.7131 16.7096 24.1689 16.6905 24.6011C16.5941 24.3251 16.684 24.272 16.786 24.2291C16.6575 23.9994 16.4557 24.0523 16.2844 23.9945C16.5466 24.9776 17.0619 24.9564 17.5295 25.1146C17.5138 25.2608 17.5011 25.4063 17.5597 25.6326C17.5118 25.8964 17.2926 25.9597 17.246 26.2297C17.7128 26.6992 17.8436 25.7358 17.5743 24.9228C17.4696 24.8108 17.3394 24.7889 17.1953 24.835C17.177 24.6123 17.2845 24.5358 17.2526 24.2968C17.4769 24.8999 17.9219 24.6161 18.2591 24.7654C18.2424 24.9507 18.1017 24.983 18.2032 25.3097C18.0974 25.308 18.0605 25.0184 18.0027 24.8243C17.8075 24.7914 17.8044 24.993 17.7001 25.0689C17.7559 24.5959 18.2295 26.0684 17.8147 25.5675C18.3172 26.1778 18.4345 25.6 18.6381 24.8532L18.635 24.8539ZM19.211 27.3592C19.133 27.2346 19.0581 27.1092 19.012 26.88C18.7755 26.8826 18.8706 27.2819 18.9084 27.6038C19.1022 27.6305 19.1067 27.4351 19.211 27.3592ZM17.4749 20.1951C17.4319 19.8939 17.009 19.6865 17.2185 20.2541C17.1426 20.2391 17.0958 20.1073 17.0083 20.1274C16.8473 19.6135 17.115 19.6038 17.1948 19.3781C16.9565 18.9144 16.9143 19.6759 16.5976 19.5154C16.9716 20.4404 16.3942 20.0483 16.4111 20.2647C16.6225 20.955 17.29 20.3219 17.4749 20.1951ZM21.6661 39.9835C21.5414 39.3122 21.1688 39.6247 21.007 39.0787C20.6516 39.2511 20.7384 39.1988 20.448 39.3822C20.6663 39.9736 20.7254 39.4286 20.999 39.4305C21.1618 39.8662 20.8944 39.7915 20.8573 39.988C21.187 40.2622 21.3888 39.8658 21.6647 39.9774L21.6661 39.9835ZM21.9048 40.6351C22.1707 40.0878 21.5912 39.1712 21.5771 38.4226C21.4927 38.442 21.5582 38.6408 21.5691 38.7744C21.4216 38.8343 21.3411 38.613 21.1901 38.6866C21.2772 38.8221 21.3627 38.9645 21.2666 39.019C21.7384 39.1956 21.6313 40.0758 21.9065 40.6282L21.9048 40.6351ZM19.5036 29.4047C19.3327 28.8478 18.9829 29.1875 19.2392 29.8155C19.3445 29.7006 19.3983 29.5197 19.5036 29.4047ZM20.2767 34.3275C20.2012 33.8847 20.0319 33.807 19.8198 33.9011C19.8967 34.3501 20.0646 34.4217 20.2767 34.3275ZM21.3187 40.4198C21.0366 40.9254 20.7809 39.9278 20.3505 40.1175C20.4187 40.4 20.387 40.5628 20.2932 40.6557C20.5465 40.8696 20.5364 40.9691 20.5701 41.4734C20.824 41.59 21.1824 41.9029 21.1673 41.3361C21.2852 41.3479 21.3945 41.8088 21.2819 41.8347C21.697 42.3225 21.7578 41.3558 21.6866 40.8602C21.2773 41.0127 21.4802 41.2512 21.3142 40.4144L21.3187 40.4198ZM20.3848 35.1841C20.2016 34.7596 19.6614 34.7153 19.5885 34.8422C19.8139 35.1209 20.0427 35.3859 20.3848 35.1841ZM18.725 28.3524C18.2255 27.6831 18.3408 28.7 18.3203 29.3269C18.5748 29.1452 18.4296 28.4851 18.725 28.3524ZM20.2556 36.9701C20.3482 36.385 19.744 36.3489 19.5437 36.6089C19.7594 36.9741 19.7941 36.8818 19.8206 37.4266C20.0034 37.3911 20.0572 36.5945 20.257 36.9763L20.2556 36.9701ZM21.0175 42.2454C21.0749 42.5952 20.6537 42.381 20.6656 42.6763C20.8651 43.2721 20.9979 42.561 21.3854 42.6858C21.1659 42.49 20.9906 42.1285 20.8139 41.7608C20.6087 41.8275 20.9226 42.3191 21.013 42.24L21.0175 42.2454ZM20.1343 38.4044C19.9634 38.6057 19.8863 38.9151 19.8985 39.34C20.1733 39.6333 20.3222 39.0352 20.1343 38.4044ZM19.1014 35.4727L18.9868 34.9741C18.7524 35.2289 18.344 34.584 18.3051 35.1308C18.4489 35.5126 18.6785 35.5375 19.1014 35.4727ZM20.5145 42.0047C20.3187 41.9265 20.3383 40.9952 20.0656 41.2265C20.1603 41.7102 20.2657 42.1396 20.5145 42.0047ZM19.9173 42.142C20.0982 42.5994 19.8975 42.6002 20.0253 42.9986C20.353 43.0204 20.3266 41.9895 19.9173 42.142ZM18.8607 36.7594C18.4603 36.9941 18.3258 36.1371 17.8608 35.9329C17.8438 36.4748 18.4419 36.9141 18.7189 37.317C18.9272 37.3209 18.7023 36.8153 18.8607 36.7594ZM15.658 28.7011C15.6212 28.5411 15.5251 28.5956 15.4479 28.5745C15.4518 28.3338 15.557 28.2189 15.7122 28.1637C15.605 27.9551 15.457 27.8984 15.295 27.9097C15.2703 27.5589 15.7152 27.7612 15.4815 27.1604C15.6291 27.444 16.1102 28.0333 16.0068 28.271C16.4958 28.7224 15.893 26.8454 16.4227 26.944C16.3795 26.5845 16.2614 26.5144 16.184 26.2924C15.9482 26.1976 15.9765 27.2086 15.7556 26.3909C15.5451 26.893 15.2485 26.5334 15.1011 27.0664C14.9954 27.0648 14.9598 26.7813 14.902 26.5872C14.7777 27.4065 13.5316 26.3255 13.5659 27.4194C13.338 26.7718 13.1084 27.3625 12.9832 26.8469C12.6604 27.5044 12.0969 26.772 11.5707 27.3467C11.6174 27.4785 11.6964 27.4928 11.7315 27.6597C11.7963 27.6124 11.8284 27.7087 11.8541 27.8065C11.9018 26.94 12.3888 27.9557 12.6997 27.962C12.7426 27.4467 13.5404 27.3086 13.9324 27.8536C13.7369 27.8337 13.1855 27.8698 13.3557 28.8676C13.5146 28.857 13.4903 28.6228 13.6583 28.623C13.6816 28.8964 13.4219 28.8264 13.6406 29.3335C14.0686 29.3194 13.7381 28.3973 14.0071 28.1929C14.1735 28.6018 14.3999 28.7701 14.5324 29.3035C14.7892 29.4324 14.7976 28.5814 14.5022 28.7855C14.4061 28.4965 14.9126 28.38 14.8812 28.8733C14.9206 28.3717 14.8983 28.461 15.1074 28.2963C15.2826 28.4569 15.4101 28.797 15.6504 28.6964L15.658 28.7011ZM16.1215 28.7696C16.1979 29.102 15.9351 29.0328 16.1024 29.4739C16.2976 29.5068 16.3006 29.3052 16.405 29.2293C16.3244 28.8072 16.1533 28.7363 15.9957 28.6235C15.8842 28.7399 16.0291 28.7973 16.1184 28.7703L16.1215 28.7696ZM14.2963 20.0446C13.8624 19.0879 14.0033 20.6887 13.9761 20.9996C14.5022 21.1832 13.8125 19.916 14.2963 20.0446ZM18.1297 37.1025C17.9666 37.0946 17.9914 37.3028 18.0835 37.2881C18.0978 37.8227 17.7017 37.1167 17.6965 37.5521C17.825 37.7818 17.9943 37.8595 18.1982 37.7867C18.1194 37.4872 18.2238 37.4114 18.1283 37.0963L18.1297 37.1025ZM13.0763 21.3815C12.9477 20.8796 12.2833 20.2093 12.4871 21.167C12.7752 20.8739 12.7881 21.6746 13.0763 21.3815ZM7.57899 31.0903C7.41096 30.5456 7.19235 30.9264 7.02799 31.042C7.12229 31.4091 7.40768 31.0324 7.57899 31.0903Z" fill="#294680"/>
</svg>
