<svg width="29" height="17" viewBox="0 0 29 17" fill="none" xmlns="http://www.w3.org/2000/svg">
<path d="M27.6311 16.9195H24.4887C23.2998 16.9195 22.9423 15.9742 20.81 13.8807C18.9491 12.1192 18.163 11.8992 17.6913 11.8992C17.0408 11.8992 16.8621 12.0748 16.8621 12.9566V15.731C16.8621 16.4818 16.6144 16.9216 14.6178 16.9216C12.6801 16.7938 10.8011 16.2158 9.13549 15.2352C7.46989 14.2547 6.06539 12.8997 5.03766 11.2818C2.59776 8.30005 0.900065 4.80054 0.0795898 1.0615C0.0795898 0.598387 0.258356 0.17968 1.15649 0.17968H4.29675C5.10442 0.17968 5.39519 0.532831 5.7118 1.34698C7.23669 5.75398 9.83849 9.58578 10.8939 9.58578C11.2988 9.58578 11.4754 9.41026 11.4754 8.41848V3.88037C11.3419 1.8101 10.2219 1.63458 10.2219 0.885982C10.2363 0.688532 10.3284 0.504352 10.4788 0.372495C10.6292 0.240638 10.826 0.171477 11.0274 0.17968H15.9639C16.6381 0.17968 16.8621 0.50957 16.8621 1.30258V7.42669C16.8621 8.08859 17.1528 8.30851 17.3553 8.30851C17.7602 8.30851 18.0725 8.08859 18.8134 7.36114C20.4048 5.4557 21.705 3.33283 22.673 1.05939C22.772 0.786306 22.9592 0.552507 23.2062 0.39367C23.4531 0.234834 23.7462 0.15968 24.0407 0.17968H27.1831C28.1243 0.17968 28.3246 0.642795 28.1243 1.30258C26.9817 3.81573 25.5679 6.20133 23.9072 8.41848C23.569 8.926 23.4333 9.19034 23.9072 9.78456C24.2195 10.2477 25.3201 11.1506 26.061 12.0092C27.1377 13.0637 28.0318 14.2837 28.708 15.6211C28.9772 16.4796 28.5271 16.9195 27.6311 16.9195Z" fill="#D7A461"/>
</svg>
